<svg width="202" height="256" viewBox="0 0 202 256" fill="none" xmlns="http://www.w3.org/2000/svg">
<path d="M343.865 7.82622L338.958 2.91971C338.16 2.12167 336.866 2.13707 336.076 2.94244C326.379 12.8196 308.161 27.5832 285.5 44.6793C284.656 45.3164 283.805 45.9567 282.948 46.6001C279.256 48.8862 272.912 51.3393 263.5 52.9566C218.539 18.7521 181.977 33.5029 167.646 46.3922C166.746 47.2012 166.879 48.6257 167.857 49.3382C212.551 81.9193 246.828 65.9482 258.5 53.6955C260.254 53.4759 261.92 53.228 263.5 52.9566C272.912 51.3393 279.256 48.8862 282.948 46.6001C263.539 61.1799 241.071 77.355 218 93.5878C160.293 70.9874 118.312 93.5171 102.732 109.135C101.82 110.049 102.093 111.558 103.237 112.156C134.566 128.545 161.679 128.178 171.5 125.869C165.582 129.928 159.734 133.921 154 137.822C153.584 138.105 153.169 138.387 152.755 138.669C149.001 140.934 141.688 143.241 130.5 143.673C104.628 117.886 67.0678 123.512 48.4639 130.543C46.9685 131.108 46.8362 133.114 48.2037 133.942C95.0504 162.313 122.514 152.405 130.5 143.673C141.688 143.241 149.001 140.934 152.755 138.669C130.57 153.75 110.146 167.406 94 178.059C68.6272 162.991 40.6433 173.813 31.5 182.961C24.4344 190.031 10.8556 201.526 2.84566 208.129C1.62133 209.138 2.00643 211.101 3.52772 211.552C24.9888 217.914 37.6997 216.543 41.4944 214.961C39.6218 217.588 37.8145 220.175 36.163 222.575C34.9715 224.306 36.9842 226.539 38.8586 225.589C46.1802 221.878 55.6265 217.341 60.6623 214.961C47.79 228.575 38.2257 242.312 32.9981 251.3C32.2734 252.546 33.1186 254.046 34.5448 253.836C45.4202 252.237 67.2248 238.446 87.5 191.413C91.8221 188.356 96.3283 185.51 101 182.961C111.176 177.411 130.315 164.735 154 148.314C149.914 152.375 146.223 156.838 142.918 161.461C96.8545 198.067 107.572 225.967 119.889 236.664C120.745 237.407 122.028 237.194 122.663 236.254C132.129 222.242 149 194.473 149 182.961C149 170.962 144.945 163.628 142.918 161.461C146.223 156.838 149.914 152.375 154 148.314C170.889 136.604 190.09 122.989 210 108.695C207.93 111.851 205.55 115.548 203 119.596C189.835 140.489 172.122 170.719 168.985 183.988C168.628 185.498 170.166 186.437 171.424 185.529C183.335 176.936 202.632 154.653 203 119.596C205.55 115.548 207.93 111.851 210 108.695C218.568 102.544 227.268 96.2664 235.972 89.9609C224.731 104.609 226.881 135.387 229.999 152.907C230.319 154.705 232.67 155.087 233.601 153.516C240.202 142.378 251.801 123.747 260.5 112.961C273 97.4609 279.61 76.6017 276 63.7813C277.466 61.6898 278.967 59.5924 280.5 57.4994C300.085 43.1397 318.471 29.5575 334 18.0202C329.065 24.5321 322.112 34.1193 314.964 44.6793C303.154 62.1243 290.811 82.224 286.148 95.4997C285.772 96.5683 286.409 97.7198 287.541 97.7726C296.082 98.1715 310.883 88.3266 314.964 44.6793C322.112 34.1193 329.065 24.5321 334 18.0202C337.354 15.5283 340.575 13.1317 343.646 10.8434C344.624 10.1148 344.727 8.68843 343.865 7.82622Z" fill="#BFDF72"/>
<path d="M101 182.961C96.3283 185.51 91.8221 188.356 87.5 191.413M101 182.961C85 174.509 68.5 185.461 60.6623 191.413C56.6101 194.491 48.584 205.014 41.4944 214.961M101 182.961C111.176 177.411 130.315 164.735 154 148.314M101 182.961C98.7008 181.088 96.3617 179.461 94 178.059M87.5 191.413C67.2248 238.446 45.4202 252.237 34.5447 253.836C33.1186 254.046 32.2734 252.546 32.9981 251.3C38.2257 242.312 47.79 228.575 60.6623 214.961M87.5 191.413C77.4906 198.494 68.4682 206.705 60.6623 214.961M60.6623 214.961C55.6265 217.341 46.1802 221.878 38.8586 225.589C36.9842 226.539 34.9715 224.306 36.163 222.575C37.8145 220.175 39.6218 217.588 41.4944 214.961M41.4944 214.961C37.6997 216.543 24.9888 217.914 3.52772 211.552C2.00643 211.101 1.62133 209.138 2.84566 208.129C10.8556 201.526 24.4344 190.031 31.5 182.961C40.6433 173.813 68.6272 162.991 94 178.059M121.5 206.961C123.73 197.831 130.691 178.559 142.918 161.461M154 148.314C149.914 152.375 146.223 156.838 142.918 161.461M154 148.314C170.889 136.604 190.09 122.989 210 108.695M142.918 161.461C144.945 163.628 149 170.962 149 182.961C149 194.473 132.129 222.242 122.663 236.254C122.028 237.194 120.745 237.407 119.889 236.664C107.572 225.967 96.8545 198.067 142.918 161.461ZM94 178.059C110.447 167.207 131.335 153.239 154 137.822M154 137.822C150.774 140.326 143.092 143.186 130.5 143.673M154 137.822C159.734 133.921 165.582 129.928 171.5 125.869M76.5 134.961C99.8747 142.215 117.717 144.167 130.5 143.673M130.5 143.673C122.514 152.405 95.0504 162.313 48.2037 133.942C46.8362 133.114 46.9685 131.108 48.4639 130.543C67.0679 123.512 104.628 117.886 130.5 143.673ZM218 93.5878C202.5 98.5455 162.8 107.961 128 105.961M218 93.5878C202.524 104.477 186.777 115.392 171.5 125.869M218 93.5878C160.293 70.9874 118.312 93.5171 102.732 109.135C101.82 110.049 102.093 111.558 103.237 112.156C134.566 128.545 161.679 128.178 171.5 125.869M218 93.5878C242.089 76.6387 265.521 59.7524 285.5 44.6793M285.5 44.6793C308.161 27.5832 326.379 12.8196 336.076 2.94244C336.866 2.13706 338.16 2.12167 338.958 2.91971L343.865 7.82622C344.727 8.68844 344.624 10.1148 343.646 10.8434C340.575 13.1317 337.354 15.5283 334 18.0202M285.5 44.6793C282.675 47.3944 275.64 50.8706 263.5 52.9566M197.5 50.9609C224.317 55.3983 244.303 55.4727 258.5 53.6955M258.5 53.6955C246.828 65.9482 212.551 81.9193 167.857 49.3382C166.879 48.6257 166.746 47.2012 167.646 46.3922C181.977 33.5029 218.539 18.7521 263.5 52.9566M258.5 53.6955C260.254 53.4759 261.92 53.228 263.5 52.9566M334 18.0202C329.065 24.5321 322.112 34.1193 314.964 44.6793M334 18.0202C318.471 29.5575 300.085 43.1397 280.5 57.4994M314.964 44.6793C303.154 62.1243 290.811 82.224 286.148 95.4997C285.772 96.5683 286.409 97.7198 287.541 97.7726C296.082 98.1715 310.883 88.3266 314.964 44.6793ZM245 115.461C249.108 106.964 260.633 85.7031 276 63.7813M280.5 57.4994C278.967 59.5924 277.466 61.6898 276 63.7813M280.5 57.4994C266.087 68.0672 251.024 79.0562 235.972 89.9609M276 63.7813C279.61 76.6017 273 97.4609 260.5 112.961C251.801 123.747 240.202 142.378 233.601 153.516C232.67 155.087 230.319 154.705 229.999 152.907C226.881 135.387 224.731 104.609 235.972 89.9609M235.972 89.9609C227.268 96.2664 218.568 102.544 210 108.695M210 108.695C207.93 111.851 205.55 115.548 203 119.596M203 119.596C189.835 140.489 172.122 170.719 168.985 183.988C168.628 185.498 170.166 186.437 171.424 185.529C183.335 176.936 202.632 154.653 203 119.596Z" stroke="black" stroke-width="4" stroke-linecap="round"/>
</svg>
