<svg width="255" height="245" viewBox="0 0 255 245" fill="none" xmlns="http://www.w3.org/2000/svg">
<path d="M227.5 56.5C235.322 61.601 245.384 67.3043 251.296 70.5375C252.566 71.232 252.72 72.9918 251.539 73.8286C232.468 87.3424 193.784 100.397 173.5 55.5676C194 45.1352 216 49 227.5 56.5Z" fill="#BFDF72"/>
<path d="M-131.509 3.39735L-135.727 9.23673C-136.412 10.1857 -136.141 11.5169 -135.138 12.1203C-118.541 22.1036 -98.3163 34.2223 -76.5 47.2327C-73.4486 51.8699 -70.9474 56.6611 -68.9141 61.5C-68.4248 62.6644 -67.9626 63.8316 -67.5264 65C-96.7789 120.387 -75.3135 149.083 -59.3795 157.578C-58.3705 158.116 -57.1576 157.623 -56.7565 156.553C-45.709 127.061 -33.6389 69.7152 -68.9141 61.5C-70.9474 56.6611 -73.4486 51.8699 -76.5 47.2327C-63.584 54.9353 -50.1099 62.9505 -36.5 71.0201C-29.3944 75.2443 -24.0632 81.174 -20.1181 88C-35.347 123.165 -24.7053 155.188 -16.3901 168.851C-15.7121 169.965 -14.1719 170.052 -13.3524 169.038C0.923553 151.37 17.4611 113.414 -20.1181 88C-24.0632 81.174 -29.3944 75.2443 -36.5 71.0201C-17.55 82.2559 1.66328 93.5974 20 104.348C25.1809 107.393 29.0777 112.843 31.9765 119.5C14.7768 175.151 28.3218 194.575 38.7443 195.468C39.2314 195.509 39.7088 195.319 40.0662 194.985C61.2193 175.239 45.2652 132.091 33.5522 123.5C33.0631 122.127 32.5386 120.791 31.9765 119.5C29.0777 112.843 25.1809 107.393 20 104.348C37.8474 114.811 54.8644 124.714 70 133.415C73.5436 135.46 77.2651 141.361 80.8166 149C68.8351 188.979 91.0727 216.911 106.441 228.119C107.814 229.121 109.657 227.928 109.497 226.236C108.674 217.481 108.105 202.813 106 188.5C103.162 169.201 91.6332 153 80.8166 149C77.2651 141.361 73.5436 135.46 70 133.415C88.1381 143.842 103.574 152.542 114.5 158.41C115.509 159.112 116.484 159.896 117.427 160.753C115.126 194.717 131.128 226.98 141.448 241.982C142.418 243.392 144.513 242.907 144.793 241.219C148.297 220.093 149.155 181.169 128.5 165.5C136.079 168.816 127.979 162.652 110.625 151.013C112.91 149.675 120.185 147.7 131 150.5C152.699 171.057 185.478 162.449 201.236 154.673C202.403 154.098 202.648 152.578 201.698 151.689C190.515 141.231 163.494 128.586 131 150.5C120.185 147.7 112.91 149.675 110.625 151.013C102.19 145.356 91.5694 138.406 79.5 130.623C82.2691 130.992 85.1139 131.223 88 131.338C123.277 145.853 151.337 131.858 162.927 121.491C163.966 120.562 163.646 118.923 162.328 118.469C150.297 114.326 123.693 110.958 94.5 125C92.5 126.294 86.1 128.844 76.5 128.691C68.0199 123.234 58.8802 117.399 49.3224 111.336C52.6965 112.142 64.8287 113.198 82 112C114.664 107.509 121.433 95.3488 123.815 85.8664C124.283 84.0036 121.627 82.2548 119.873 83.0378C113.012 86.1008 100.013 89.5 79.5 89.5C44.5 89.5 45.5 94.8321 38 102.663C37.0006 102.547 36.0003 102.419 35 102.278C26.3418 96.8183 17.4547 91.241 8.5 85.6469C16.5 87.7646 37.7 87.804 58.5 71.0201C84.5 50.0401 52 44.5 36.5 50C24.5331 54.2463 -6.09195 62.87 -21.3996 67.0626C-35.7834 58.1681 -49.8765 49.5212 -63 41.5452C-29.9641 56.4624 -6.78516 43.0546 2.94847 32.203C4.06091 30.9628 3.07401 29.1102 1.40826 29.1407C-6.08963 29.2782 -18.8482 28.9706 -31 27C-49.5 24 -66 25.7654 -77.5 32.7687C-100.369 18.9884 -118.987 8.08827 -128.98 2.79604C-129.855 2.33246 -130.929 2.59433 -131.509 3.39735Z" fill="#BFDF72"/>
<path d="M225 72C213.547 70.743 189.829 65.8344 173.5 55.5676M165 49C167.462 51.3977 170.343 53.5828 173.5 55.5676M173.5 55.5676C194 45.1352 216 49 227.5 56.5C235.322 61.601 245.384 67.3043 251.296 70.5375C252.566 71.232 252.72 72.9918 251.539 73.8286C232.468 87.3424 193.784 100.397 173.5 55.5676ZM128.5 165.5C126.031 164.42 122.292 162.546 117.481 160M128.5 165.5C149.155 181.169 148.297 220.093 144.793 241.219C144.513 242.907 142.418 243.392 141.448 241.982C131.052 226.869 114.89 194.239 117.481 160M128.5 165.5C136.079 168.816 127.979 162.652 110.625 151.013M-43.5 35.5C-50.5 35.3333 -66.2 34.9 -73 34.5M-77.5 32.7687C-100.369 18.9884 -118.987 8.08827 -128.98 2.79604C-129.855 2.33246 -130.929 2.59433 -131.509 3.39735L-135.727 9.23673C-136.412 10.1857 -136.141 11.5169 -135.138 12.1203C-118.541 22.1036 -98.3163 34.2223 -76.5 47.2327M-77.5 32.7687C-66 25.7654 -49.5 24 -31 27C-18.8482 28.9706 -6.08964 29.2782 1.40827 29.1407C3.07401 29.1102 4.06091 30.9628 2.94847 32.203C-6.78517 43.0546 -29.9641 56.4624 -63 41.5452M-77.5 32.7687C-72.8314 35.5819 -67.9857 38.5152 -63 41.5452M-63 41.5452C-47.9374 50.6997 -31.5976 60.7379 -15.0069 71.0201M-64 127.5C-60.7726 115.926 -58.1311 90.1652 -67.5264 65M-76.5 47.2327C-73.4486 51.87 -70.9474 56.6611 -68.9141 61.5M-76.5 47.2327C-63.584 54.9353 -50.1099 62.9505 -36.5 71.0201M-67.5264 65C-96.7789 120.387 -75.3135 149.083 -59.3795 157.578C-58.3705 158.116 -57.1576 157.623 -56.7565 156.553C-45.709 127.061 -33.6389 69.7152 -68.9141 61.5M-67.5264 65C-67.9626 63.8316 -68.4248 62.6644 -68.9141 61.5M-11.5 151.5C-8.91459 136.659 -8.35829 108.347 -20.1181 88M-36.5 71.0201C-29.3944 75.2443 -24.0632 81.174 -20.1181 88M-36.5 71.0201C-17.55 82.2559 1.66328 93.5974 20 104.348M-20.1181 88C17.4611 113.414 0.923552 151.37 -13.3524 169.038C-14.1719 170.052 -15.7121 169.965 -16.3901 168.851C-24.7053 155.188 -35.3471 123.165 -20.1181 88ZM44.5 65C33.662 69.0134 6.58753 75.8361 -15.0069 71.0201M-15.0069 71.0201C-7.19121 75.8639 0.680195 80.7618 8.5 85.6469M-23 67.5C-8.33333 63.5 24.1 54.4 36.5 50C52 44.5 84.5 50.0401 58.5 71.0201C37.7 87.804 16.5 87.7646 8.5 85.6469M8.5 85.6469C17.4547 91.241 26.3417 96.8183 35 102.278M93 99.5C84.2091 101.756 61.3777 105.388 38 102.663M35 102.278C36.0003 102.419 37.0006 102.547 38 102.663M35 102.278C39.5717 105.161 44.0796 108.012 48.5 110.815M38 102.663C45.5 94.8321 44.5 89.5 79.5 89.5C100.013 89.5 113.012 86.1008 119.873 83.0378C121.627 82.2548 124.283 84.0036 123.815 85.8665C121.433 95.3488 114.664 107.509 82 112C60.5 113.5 46.9 111.466 48.5 110.815M48.5 110.815C58.356 117.064 67.777 123.077 76.5 128.691M147.5 122C136.544 125.775 110.962 132.251 88 131.338M79.5 130.623C78.5096 129.985 77.5095 129.34 76.5 128.691M79.5 130.623C82.2691 130.992 85.1139 131.223 88 131.338M79.5 130.623C91.5694 138.406 102.19 145.356 110.625 151.013M76.5 128.691C86.1 128.844 92.5 126.294 94.5 125C123.693 110.958 150.297 114.326 162.328 118.469C163.646 118.923 163.966 120.562 162.927 121.491C151.337 131.858 123.277 145.853 88 131.338M39.5 173C40.1564 160.873 39.3049 139.648 33.5522 123.5M20 104.348C25.1809 107.393 29.0777 112.843 31.9765 119.5M20 104.348C37.8474 114.811 54.8644 124.714 70 133.415M33.5522 123.5C45.2652 132.091 61.2193 175.239 40.0662 194.985C39.7088 195.319 39.2313 195.509 38.7443 195.468C28.3218 194.575 14.7768 175.151 31.9765 119.5M33.5522 123.5C33.0631 122.127 32.5386 120.791 31.9765 119.5M97 197.5C93.9234 185.065 87.6884 163.78 80.8166 149M70 133.415C73.5436 135.46 77.2651 141.361 80.8166 149M70 133.415C88.1381 143.842 103.574 152.542 114.5 158.41M80.8166 149C68.8351 188.979 91.0727 216.911 106.441 228.119C107.814 229.121 109.657 227.928 109.497 226.236C108.674 217.481 108.105 202.813 106 188.5C103.162 169.201 91.6332 153 80.8166 149ZM140 216C138.167 201.44 130.5 169.538 114.5 158.41M114.5 158.41C115.535 158.966 116.529 159.496 117.481 160M170.5 153.5C161.84 153.667 141.815 153.3 131 150.5M131 150.5C120.185 147.7 112.91 149.675 110.625 151.013M131 150.5C163.494 128.586 190.515 141.231 201.698 151.689C202.648 152.578 202.403 154.098 201.236 154.673C185.478 162.449 152.699 171.057 131 150.5Z" stroke="black" stroke-width="4" stroke-linecap="round"/>
</svg>
