<svg width="273" height="641" viewBox="0 0 273 641" fill="none" xmlns="http://www.w3.org/2000/svg">
<path d="M405.682 96.9474C408.414 123.338 435.761 167.943 449.5 187.483C474.314 123.853 433.486 99.6613 407.884 94.9307C406.651 94.7027 405.553 95.6993 405.682 96.9474Z" fill="#79AC2B"/>
<path d="M32.4129 147.911C85.697 144.656 102.352 170.575 103.999 184.103C47.7964 202.369 31.8136 170.034 30.5739 149.928C30.5086 148.869 31.3538 147.976 32.4129 147.911Z" fill="#79AC2B"/>
<path d="M406.499 319.982V325.521C406.499 326.633 405.594 327.531 404.482 327.521C392.62 327.412 379.498 327.278 365.499 327.118C356.019 360.171 321.221 384.008 302.435 393.167C301.095 393.821 299.592 392.76 299.704 391.273C303.147 345.758 329.473 329.349 342.499 326.843C331.802 326.708 320.754 326.561 309.499 326.401C297.677 352.991 253.099 384.976 229.327 399.533C227.937 400.385 226.22 399.285 226.44 397.669C229.607 374.384 244.078 332.772 281.499 325.981C272.532 325.84 263.51 325.691 254.503 325.534C248.706 326.053 242.803 327.705 236.999 330.107C230.833 347.584 212.981 379.465 194.499 385.039C171.536 391.965 162.035 392.601 155.925 393.342C154.011 393.574 152.346 391.141 153.442 389.554C159.081 381.39 167.683 368.941 173.499 360.539C182.499 347.539 199.999 330.107 236.999 330.107C242.803 327.705 248.706 326.053 254.503 325.534C232.761 325.156 211.106 324.734 190.5 324.268C187.199 324.749 183.605 325.646 179.855 326.843C158.965 370.171 119.397 375.08 100.183 371.947C99.0074 371.755 98.3189 370.562 98.7663 369.458C104.561 355.164 125.461 328.945 170 323.781C156.791 323.451 144.196 323.101 132.499 322.733C127.669 323.629 122.908 324.729 118.261 325.981C115.34 337.501 100.045 362.739 62.2264 371.539C24.4076 380.339 37.2984 352.206 48.4712 337.039C25.6496 351.771 9.34805 347.473 2.75122 342.183C2.26284 341.792 2.02289 341.174 2.14282 340.559C3.8402 331.864 17.7199 318.205 62.2264 326.401C69.9665 324.412 77.4101 322.455 83.5 320.773C73.088 320.214 65.0071 319.623 59.894 319.003C58.0409 318.778 57.9966 317.111 59.8428 316.835C67.2826 315.724 80.5984 314.969 97.9994 314.495C94.3509 313.525 90.6644 312.211 86.9994 310.645C72.9994 315.608 40.7994 316.235 23.9994 279.039C7.19938 241.843 37.3327 257.874 54.4994 270.539C42.4994 238.039 74.4994 253.039 86.9994 266.039C99.4994 279.039 110.499 288.094 119.999 314.066C139.823 313.806 162.879 313.787 187.499 313.938C182.79 312.17 178.083 309.778 173.499 306.998C119.85 305.808 114.957 266.115 119.472 244.34C119.723 243.128 121.024 242.489 122.143 243.018C141.178 252.01 175.04 275.775 173.499 306.998C178.083 309.778 182.79 312.17 187.499 313.938C195.519 313.987 203.705 314.054 211.999 314.138C175.041 298.21 167.208 266.323 167.844 250.311C167.892 249.1 169.064 248.292 170.238 248.593C220.652 261.509 242.736 297.809 247.499 314.575C270.687 314.91 294.079 315.338 316.499 315.808C318.507 315.85 320.508 315.893 322.499 315.936C338.356 316.276 353.664 316.636 367.999 316.999C365.689 315.41 363.069 313.368 360.283 311.039C309.294 316.082 303.191 273.875 306.65 250.191C306.82 249.031 307.994 248.307 309.12 248.635C356.154 262.356 367.999 299.768 367.999 316.999C381.109 317.33 393.404 317.662 404.558 317.983C405.64 318.014 406.499 318.9 406.499 319.982Z" fill="#79AC2B"/>
<path d="M414.365 248.174L409.458 253.08C408.66 253.878 407.366 253.863 406.576 253.058C396.879 243.18 378.661 228.417 356 211.321C355.156 210.684 354.305 210.043 353.448 209.4C349.756 207.114 343.412 204.661 334 203.043C289.039 237.248 252.477 222.497 238.146 209.608C237.246 208.799 237.379 207.374 238.357 206.662C283.051 174.081 317.328 190.052 329 202.305C330.754 202.524 332.42 202.772 334 203.043C343.412 204.661 349.756 207.114 353.448 209.4C334.039 194.82 311.57 178.645 288.5 162.412C230.793 185.013 188.812 162.483 173.232 146.865C172.32 145.951 172.593 144.443 173.737 143.844C205.066 127.455 232.179 127.822 242 130.131C236.082 126.072 230.234 122.079 224.5 118.178C224.084 117.896 223.669 117.613 223.255 117.331C219.501 115.066 212.188 112.759 201 112.327C175.127 138.114 137.568 132.488 118.964 125.457C117.468 124.892 117.336 122.886 118.704 122.058C165.55 93.6872 193.014 103.595 201 112.327C212.188 112.759 219.501 115.066 223.255 117.331C201.07 102.25 180.646 88.594 164.5 77.9413C139.127 93.0091 111.143 82.1875 102 73.0386C94.9344 65.9687 81.3556 54.4743 73.3456 47.8709C72.1213 46.8616 72.5064 44.8988 74.0277 44.4478C95.4888 38.0856 108.2 39.4573 111.994 41.0391C110.122 38.4118 108.314 35.8246 106.663 33.4255C105.471 31.6945 107.484 29.4611 109.359 30.4112C116.68 34.1224 126.126 38.6595 131.162 41.0391C118.29 27.4246 108.726 13.6883 103.498 4.69996C102.773 3.4539 103.619 1.95414 105.045 2.16381C115.92 3.76272 137.725 17.5538 158 64.5866C162.322 67.6439 166.828 70.4904 171.5 73.0386C181.676 78.5889 200.815 91.2646 224.5 107.686C220.414 103.625 216.723 99.1616 213.418 94.5391C167.354 57.9329 178.072 30.0331 190.389 19.3362C191.245 18.5928 192.528 18.8065 193.163 19.7459C202.629 33.758 219.5 61.5274 219.5 73.0386C219.5 85.0382 215.445 92.3721 213.418 94.5391C216.723 99.1616 220.414 103.625 224.5 107.686C241.389 119.396 260.59 133.011 280.5 147.305C278.43 144.149 276.05 140.452 273.5 136.404C260.335 115.511 242.622 85.2812 239.485 72.0118C239.128 70.5021 240.666 69.563 241.924 70.4706C253.835 79.0637 273.132 101.347 273.5 136.404C276.05 140.452 278.43 144.149 280.5 147.305C289.068 153.456 297.768 159.734 306.472 166.039C295.231 151.391 297.381 120.613 300.499 103.093C300.818 101.295 303.17 100.913 304.101 102.484C310.702 113.622 322.301 132.253 331 143.039C343.5 158.539 350.11 179.398 346.5 192.219C347.966 194.31 349.467 196.408 351 198.501C370.585 212.86 388.971 226.443 404.5 237.98C399.565 231.468 392.612 221.881 385.464 211.321C373.654 193.876 361.311 173.776 356.648 160.5C356.272 159.432 356.909 158.28 358.041 158.227C366.582 157.829 381.383 167.673 385.464 211.321C392.612 221.881 399.565 231.468 404.5 237.98C407.854 240.472 411.075 242.868 414.146 245.157C415.124 245.885 415.227 247.312 414.365 248.174Z" fill="#79AC2B"/>
<path d="M57 452.039C49.1784 457.14 39.1163 462.843 33.2042 466.077C31.9343 466.771 31.7796 468.531 32.9605 469.368C52.0319 482.882 90.7161 495.936 111 451.107C90.5 440.674 68.5 444.539 57 452.039Z" fill="#79AC2B"/>
<path d="M416.009 398.936L420.227 404.776C420.912 405.725 420.641 407.056 419.638 407.659C403.04 417.643 382.816 429.761 361 442.772C357.949 447.409 355.447 452.2 353.414 457.039C352.925 458.203 352.463 459.371 352.026 460.539C381.279 515.927 359.813 544.622 343.879 553.117C342.871 553.655 341.658 553.163 341.256 552.092C330.209 522.601 318.139 465.254 353.414 457.039C355.447 452.2 357.949 447.409 361 442.772C348.084 450.474 334.61 458.49 321 466.559C313.894 470.783 308.563 476.713 304.618 483.539C319.847 518.704 309.205 550.727 300.89 564.39C300.212 565.504 298.672 565.591 297.852 564.577C283.576 546.909 267.039 508.953 304.618 483.539C308.563 476.713 313.894 470.783 321 466.559C302.05 477.795 282.837 489.136 264.5 499.887C259.319 502.932 255.422 508.382 252.523 515.039C269.723 570.69 256.178 590.114 245.756 591.007C245.269 591.048 244.791 590.858 244.434 590.524C223.281 570.778 239.235 527.63 250.948 519.039C251.437 517.666 251.961 516.33 252.523 515.039C255.422 508.382 259.319 502.932 264.5 499.887C246.653 510.35 229.636 520.253 214.5 528.954C210.956 530.999 207.235 536.9 203.683 544.539C215.665 584.518 193.427 612.45 178.059 623.658C176.686 624.66 174.843 623.468 175.003 621.775C175.826 613.02 176.395 598.352 178.5 584.039C181.338 564.74 192.867 548.539 203.683 544.539C207.235 536.9 210.956 530.999 214.5 528.954C196.362 539.381 180.926 548.082 170 553.949C168.991 554.651 168.016 555.435 167.073 556.292C169.374 590.256 153.372 622.519 143.052 637.522C142.082 638.931 139.987 638.446 139.707 636.758C136.203 615.632 135.345 576.708 156 561.039C148.421 564.355 156.521 558.191 173.875 546.552C171.59 545.214 164.315 543.239 153.5 546.039C131.801 566.596 99.0223 557.988 83.264 550.213C82.0968 549.637 81.8518 548.118 82.8023 547.229C93.9847 536.77 121.006 524.125 153.5 546.039C164.315 543.239 171.59 545.214 173.875 546.552C182.31 540.895 192.931 533.946 205 526.163C202.231 526.531 199.386 526.762 196.5 526.877C161.223 541.392 133.163 527.397 121.573 517.03C120.534 516.101 120.854 514.462 122.172 514.008C134.202 509.865 160.807 506.497 190 520.539C192 521.833 198.4 524.383 208 524.23C216.48 518.773 225.62 512.938 235.178 506.875C231.803 507.681 219.671 508.737 202.5 507.539C169.836 503.048 163.067 490.888 160.685 481.406C160.217 479.543 162.873 477.794 164.627 478.577C171.488 481.64 184.487 485.039 205 485.039C240 485.039 239 490.371 246.5 498.202C247.499 498.086 248.5 497.958 249.5 497.818C258.158 492.357 267.045 486.78 276 481.186C268 483.304 246.8 483.343 226 466.559C200 445.579 232.5 440.039 248 445.539C259.967 449.785 290.592 458.409 305.9 462.602C320.283 453.707 334.376 445.06 347.5 437.084C314.464 452.001 291.285 438.594 281.552 427.742C280.439 426.502 281.426 424.649 283.092 424.68C290.59 424.817 303.348 424.51 315.5 422.539C334 419.539 350.5 421.305 362 428.308C384.869 414.527 403.487 403.627 413.48 398.335C414.355 397.872 415.429 398.133 416.009 398.936Z" fill="#79AC2B"/>
<path d="M449.5 201.039C449.802 197.598 449.865 192.964 449.5 187.483M449.5 187.483C448.257 168.804 442.055 140.279 423.5 115.539M449.5 187.483C435.761 167.943 408.414 123.338 405.682 96.9474C405.553 95.6993 406.651 94.7027 407.884 94.9307C433.486 99.6613 474.314 123.853 449.5 187.483ZM295 28.039C304.667 34.3724 325.8 51.439 333 69.039C334.607 72.968 336.211 76.2725 337.763 79.039M337.763 79.039C343.162 88.6653 347.929 91.7801 350 92.039M337.763 79.039C343.021 53.132 335.549 5.64258 265.798 16.8956C263.864 17.2076 263.512 19.8914 265.251 20.7919C276.317 26.5205 292.807 37.3234 299.5 50.0391C307.5 65.239 328.342 75.7057 337.763 79.039ZM48.9994 164.039C61.9948 169.048 87.7224 178.718 103.999 184.103M103.999 184.103C107.763 185.347 111.021 186.363 113.499 187.039M103.999 184.103C102.352 170.575 85.697 144.656 32.4129 147.911C31.3538 147.976 30.5086 148.869 30.5739 149.928C31.8136 170.034 47.7964 202.369 103.999 184.103ZM365.499 327.118C379.498 327.278 392.62 327.412 404.482 327.521C405.594 327.531 406.499 326.633 406.499 325.521V319.982C406.499 318.9 405.64 318.014 404.558 317.983C393.404 317.662 381.109 317.33 367.999 316.999M365.499 327.118C343.099 331.982 321.166 360.425 312.999 374.039M365.499 327.118C358.061 327.033 350.375 326.942 342.499 326.843M365.499 327.118C356.019 360.171 321.221 384.008 302.435 393.167C301.095 393.821 299.592 392.76 299.704 391.273C303.147 345.758 329.473 329.349 342.499 326.843M342.499 326.843C331.802 326.708 320.754 326.561 309.499 326.401M367.999 316.999C367.999 299.768 356.154 262.356 309.12 248.635C307.994 248.307 306.82 249.031 306.65 250.191C303.191 273.875 309.294 316.082 360.283 311.039M367.999 316.999C365.689 315.41 363.069 313.368 360.283 311.039M367.999 316.999C353.664 316.636 338.356 316.276 322.499 315.936C320.508 315.893 318.507 315.85 316.499 315.808C294.079 315.338 270.687 314.91 247.499 314.575M326.999 279.039C333.997 286.481 348.601 301.275 360.283 311.039M247.499 314.575C242.736 297.809 220.652 261.509 170.238 248.593C169.064 248.292 167.892 249.1 167.844 250.311C167.208 266.323 175.041 298.21 211.999 314.138M247.499 314.575C235.558 314.403 223.671 314.255 211.999 314.138M247.499 314.575C217.099 305.401 189.499 278.395 179.499 266.039M211.999 314.138C203.705 314.054 195.519 313.987 187.499 313.938M309.499 326.401C273.099 335.861 249.999 366.435 242.999 380.539M309.499 326.401C300.278 326.27 290.918 326.13 281.499 325.981M309.499 326.401C297.677 352.991 253.099 384.976 229.327 399.533C227.937 400.385 226.22 399.285 226.44 397.669C229.607 374.384 244.078 332.772 281.499 325.981M281.499 325.981C272.532 325.84 263.51 325.691 254.503 325.534M254.503 325.534C248.706 326.053 242.803 327.705 236.999 330.107M254.503 325.534C232.761 325.156 211.106 324.734 190.5 324.268M187.499 367.539C196.252 357.349 215.978 338.806 236.999 330.107M236.999 330.107C199.999 330.107 182.499 347.539 173.499 360.539C167.683 368.941 159.081 381.39 153.442 389.554C152.346 391.141 154.011 393.574 155.925 393.342C162.035 392.601 171.536 391.965 194.499 385.039C212.981 379.465 230.833 347.584 236.999 330.107ZM187.499 313.938C182.79 312.17 178.083 309.778 173.499 306.998M187.499 313.938C162.879 313.787 139.823 313.806 119.999 314.066M132.499 270.539C139.407 279.177 155.503 296.082 173.499 306.998M173.499 306.998C119.85 305.808 114.957 266.115 119.472 244.34C119.723 243.128 121.024 242.489 122.143 243.018C141.178 252.01 175.04 275.775 173.499 306.998ZM115.047 314.138C114.528 314.146 114.013 314.154 113.499 314.162C111.286 314.199 109.118 314.239 106.999 314.282M115.047 314.138C101.084 307.261 82.8642 285.873 75.4994 276.039M115.047 314.138C116.674 314.112 118.325 314.088 119.999 314.066M106.999 314.282C93.4994 310.534 64.0994 296.539 54.4994 270.539M106.999 314.282C103.892 314.346 100.889 314.417 97.9994 314.495M54.4994 270.539C42.4994 238.039 74.4994 253.039 86.9994 266.039C99.4994 279.039 110.499 288.094 119.999 314.066M54.4994 270.539C37.3327 257.874 7.19938 241.843 23.9994 279.039C40.7994 316.235 72.9994 315.608 86.9994 310.645M97.9994 314.495C80.5984 314.969 67.2826 315.724 59.8428 316.835C57.9966 317.111 58.0409 318.778 59.894 319.003C65.0071 319.623 73.088 320.214 83.5 320.773M97.9994 314.495C94.3509 313.525 90.6644 312.211 86.9994 310.645M37.4994 276.039C46.0041 284.642 66.154 301.734 86.9994 310.645M83.5 320.773C77.4101 322.455 69.9665 324.412 62.2264 326.401M83.5 320.773C96.5766 321.476 113.33 322.129 132.499 322.733M19.5 337.039C28.627 334.836 46.0725 330.551 62.2264 326.401M62.2264 326.401C17.7199 318.205 3.8402 331.864 2.14282 340.559C2.02289 341.174 2.26284 341.792 2.75122 342.183C9.34805 347.473 25.6496 351.771 48.4712 337.039M62.2264 326.401C56 332.039 52.8262 334.228 48.4712 337.039M132.499 322.733C127.669 323.629 122.908 324.729 118.261 325.981M132.499 322.733C144.196 323.101 156.791 323.451 170 323.781M48.4712 337.039C37.2984 352.206 24.4076 380.339 62.2264 371.539C100.045 362.739 115.34 337.501 118.261 325.981M54.4994 354.539C64.2772 347.738 89.0415 333.855 118.261 325.981M190.5 324.268C183.534 324.111 176.689 323.948 170 323.781M190.5 324.268C187.199 324.749 183.605 325.646 179.855 326.843M170 323.781C125.461 328.945 104.561 355.164 98.7663 369.458C98.3189 370.562 99.0074 371.755 100.183 371.947C119.397 375.08 158.965 370.171 179.855 326.843M130 352.039C140.075 345.338 161.785 332.609 179.855 326.843M171.5 73.0386C166.828 70.4904 162.322 67.6439 158 64.5866M171.5 73.0386C155.5 81.4906 139 70.5391 131.162 64.5866C127.11 61.5089 119.084 50.9861 111.994 41.0391M171.5 73.0386C181.676 78.5889 200.815 91.2646 224.5 107.686M171.5 73.0386C169.201 74.912 166.862 76.5388 164.5 77.9413M158 64.5866C137.725 17.5538 115.92 3.76272 105.045 2.16381C103.619 1.95414 102.773 3.4539 103.498 4.69996C108.726 13.6883 118.29 27.4246 131.162 41.0391M158 64.5866C147.991 57.5062 138.968 49.2951 131.162 41.0391M131.162 41.0391C126.126 38.6595 116.68 34.1224 109.359 30.4112C107.484 29.4611 105.471 31.6945 106.663 33.4255C108.314 35.8246 110.122 38.4118 111.994 41.0391M111.994 41.0391C108.2 39.4573 95.4888 38.0856 74.0277 44.4478C72.5064 44.8988 72.1213 46.8616 73.3456 47.8709C81.3556 54.4743 94.9344 65.9687 102 73.0386C111.143 82.1875 139.127 93.0091 164.5 77.9413M224.5 107.686C220.414 103.625 216.723 99.1616 213.418 94.5391M224.5 107.686C241.389 119.396 260.59 133.011 280.5 147.305M192 49.0391C194.23 58.1689 201.191 77.4415 213.418 94.5391M213.418 94.5391C215.445 92.3721 219.5 85.0382 219.5 73.0386C219.5 61.5274 202.629 33.758 193.163 19.7459C192.528 18.8065 191.245 18.5928 190.389 19.3362C178.072 30.0331 167.354 57.9329 213.418 94.5391ZM164.5 77.9413C180.646 88.594 201.07 102.25 223.255 117.331M223.255 117.331C223.669 117.613 224.084 117.896 224.5 118.178M223.255 117.331C223.726 117.616 224.14 117.899 224.5 118.178M223.255 117.331C219.501 115.066 212.188 112.759 201 112.327M224.5 118.178C230.234 122.079 236.082 126.072 242 130.131M201 112.327C188.217 111.833 170.375 113.785 147 121.039M201 112.327C193.014 103.595 165.55 93.6872 118.704 122.058C117.336 122.886 117.468 124.892 118.964 125.457C137.568 132.488 175.127 138.114 201 112.327ZM288.5 162.412C273 157.455 233.3 148.039 198.5 150.039M288.5 162.412C273.024 151.523 257.277 140.608 242 130.131M288.5 162.412C230.793 185.013 188.812 162.483 173.232 146.865C172.32 145.951 172.593 144.443 173.737 143.844C205.066 127.455 232.179 127.822 242 130.131M288.5 162.412C311.571 178.645 334.039 194.82 353.448 209.4M353.448 209.4C354.305 210.043 355.156 210.684 356 211.321M353.448 209.4C354.518 210.062 355.365 210.711 356 211.321M353.448 209.4C349.756 207.114 343.412 204.661 334 203.043M356 211.321C378.661 228.417 396.879 243.18 406.576 253.058C407.366 253.863 408.66 253.878 409.458 253.08L414.365 248.174C415.227 247.312 415.124 245.885 414.146 245.157C411.075 242.868 407.854 240.472 404.5 237.98M329 202.305C314.803 200.527 294.817 200.602 268 205.039M329 202.305C317.328 190.052 283.051 174.081 238.357 206.662C237.379 207.374 237.246 208.799 238.146 209.608C252.477 222.497 289.039 237.248 334 203.043M329 202.305C330.754 202.524 332.42 202.772 334 203.043M404.5 237.98C399.565 231.468 392.612 221.881 385.464 211.321M404.5 237.98C388.971 226.443 370.585 212.86 351 198.501M385.464 211.321C373.654 193.876 361.311 173.776 356.648 160.5C356.272 159.432 356.909 158.28 358.041 158.227C366.582 157.829 381.383 167.673 385.464 211.321ZM351 198.501C349.467 196.408 347.966 194.31 346.5 192.219M351 198.501C336.587 187.933 321.524 176.944 306.472 166.039M315.5 140.539C319.608 149.036 331.133 170.297 346.5 192.219M346.5 192.219C350.11 179.398 343.5 158.539 331 143.039C322.301 132.253 310.702 113.622 304.101 102.484C303.17 100.913 300.818 101.295 300.499 103.093C297.381 120.613 295.231 151.391 306.472 166.039M306.472 166.039C297.768 159.734 289.068 153.456 280.5 147.305M280.5 147.305C278.43 144.149 276.05 140.452 273.5 136.404M273.5 136.404C260.335 115.511 242.622 85.2812 239.485 72.0118C239.128 70.5021 240.666 69.563 241.924 70.4706C253.835 79.0637 273.132 101.347 273.5 136.404ZM59.5 467.539C70.9526 466.282 94.6708 461.374 111 451.107M111 451.107C114.157 449.122 117.037 446.937 119.5 444.539M111 451.107C90.5 440.674 68.5 444.539 57 452.039C49.1784 457.14 39.1163 462.843 33.2042 466.077C31.9343 466.771 31.7796 468.531 32.9605 469.368C52.0319 482.882 90.7161 495.936 111 451.107ZM328 431.039C335 430.872 350.7 430.439 357.5 430.039M362 428.308C384.869 414.527 403.487 403.627 413.48 398.335C414.355 397.872 415.429 398.133 416.009 398.936L420.227 404.776C420.912 405.725 420.641 407.056 419.638 407.659C403.04 417.643 382.816 429.761 361 442.772M362 428.308C350.5 421.305 334 419.539 315.5 422.539C303.348 424.51 290.59 424.817 283.092 424.68C281.426 424.649 280.439 426.502 281.552 427.742C291.285 438.594 314.464 452.002 347.5 437.084M362 428.308C357.331 431.121 352.486 434.054 347.5 437.084M347.5 437.084C334.376 445.06 320.283 453.707 305.9 462.602M361 442.772C357.949 447.409 355.447 452.2 353.414 457.039M361 442.772C348.084 450.474 334.61 458.49 321 466.559M348.5 523.039C345.273 511.465 342.631 485.704 352.026 460.539M352.026 460.539C381.279 515.926 359.813 544.622 343.879 553.117C342.871 553.655 341.658 553.163 341.256 552.092C330.209 522.601 318.139 465.254 353.414 457.039M352.026 460.539C352.463 459.371 352.925 458.203 353.414 457.039M321 466.559C313.894 470.783 308.563 476.713 304.618 483.539M321 466.559C302.05 477.795 282.837 489.136 264.5 499.887M296 547.039C293.415 532.198 292.858 503.887 304.618 483.539M304.618 483.539C267.039 508.953 283.576 546.909 297.852 564.577C298.672 565.591 300.212 565.504 300.89 564.39C309.205 550.727 319.847 518.704 304.618 483.539ZM299.507 466.559C301.643 465.236 303.774 463.916 305.9 462.602M299.507 466.559C277.912 471.375 250.838 464.552 240 460.539M299.507 466.559C291.691 471.403 283.82 476.301 276 481.186M305.9 462.602C306.454 462.753 306.988 462.899 307.5 463.039M305.9 462.602C290.592 458.409 259.967 449.785 248 445.539C232.5 440.039 200 445.579 226 466.559C246.8 483.343 268 483.304 276 481.186M276 481.186C267.045 486.78 258.158 492.357 249.5 497.818M249.5 497.818C248.5 497.958 247.499 498.086 246.5 498.202M249.5 497.818C244.928 500.701 240.42 503.551 236 506.354M191.5 495.039C200.291 497.295 223.122 500.927 246.5 498.202M246.5 498.202C239 490.371 240 485.039 205 485.039C184.487 485.039 171.488 481.64 164.627 478.577C162.873 477.794 160.217 479.543 160.685 481.406C163.067 490.888 169.836 503.048 202.5 507.539C219.671 508.737 231.803 507.681 235.178 506.875M236 506.354C236.322 506.485 236.028 506.672 235.178 506.875M236 506.354C235.725 506.528 235.451 506.702 235.178 506.875M235.178 506.875C225.62 512.938 216.48 518.773 208 524.23M205 526.163C205.99 525.524 206.99 524.88 208 524.23M205 526.163C202.231 526.531 199.386 526.762 196.5 526.877M205 526.163C192.931 533.946 182.31 540.895 173.875 546.552M208 524.23C198.4 524.383 192 521.833 190 520.539C160.807 506.497 134.202 509.865 122.172 514.008C120.854 514.462 120.534 516.101 121.573 517.03C133.163 527.397 161.223 541.392 196.5 526.877M137 517.539C147.956 521.314 173.538 527.79 196.5 526.877M264.5 499.887C259.319 502.932 255.422 508.382 252.523 515.039M264.5 499.887C246.653 510.35 229.636 520.253 214.5 528.954M245 568.539C244.344 556.413 245.195 535.187 250.948 519.039M250.948 519.039C239.235 527.63 223.281 570.778 244.434 590.524C244.791 590.858 245.269 591.048 245.756 591.007C256.178 590.114 269.723 570.69 252.523 515.039M250.948 519.039C251.437 517.666 251.961 516.33 252.523 515.039M214.5 528.954C210.956 530.999 207.235 536.9 203.683 544.539M214.5 528.954C196.362 539.381 180.926 548.082 170 553.949M187.5 593.039C190.577 580.604 196.812 559.319 203.683 544.539M203.683 544.539C215.665 584.518 193.427 612.45 178.059 623.658C176.686 624.66 174.843 623.468 175.003 621.775C175.826 613.02 176.395 598.352 178.5 584.039C181.338 564.74 192.867 548.539 203.683 544.539ZM170 553.949C168.991 554.651 168.016 555.435 167.073 556.292M170 553.949C168.965 554.505 167.971 555.035 167.019 555.539M144.5 611.539C146.218 597.897 153.057 569.03 167.073 556.292M167.073 556.292C169.374 590.256 153.372 622.519 143.052 637.522C142.082 638.931 139.987 638.446 139.707 636.758C136.203 615.632 135.345 576.708 156 561.039M167.073 556.292C167.056 556.041 167.038 555.79 167.019 555.539M167.019 555.539C162.208 558.085 158.469 559.959 156 561.039M156 561.039C148.421 564.355 156.521 558.191 173.875 546.552M114 549.039C122.66 549.206 142.685 548.839 153.5 546.039M153.5 546.039C164.315 543.239 171.59 545.214 173.875 546.552M153.5 546.039C121.006 524.125 93.9847 536.77 82.8023 547.229C81.8518 548.118 82.0968 549.637 83.264 550.213C99.0223 557.988 131.801 566.596 153.5 546.039Z" stroke="black" stroke-width="4" stroke-linecap="round"/>
</svg>
