<svg width="268" height="682" viewBox="0 0 268 682" fill="none" xmlns="http://www.w3.org/2000/svg">
<path d="M-138.475 546.092C-141.207 519.701 -168.554 475.096 -182.293 455.556C-207.107 519.186 -166.279 543.378 -140.677 548.108C-139.444 548.336 -138.346 547.34 -138.475 546.092Z" fill="#79AC2B"/>
<path d="M234.794 495.128C181.51 498.383 164.855 472.464 163.208 458.936C219.411 440.67 235.393 473.005 236.633 493.111C236.698 494.17 235.853 495.063 234.794 495.128Z" fill="#79AC2B"/>
<path d="M-139.292 323.057V317.518C-139.292 316.406 -138.387 315.508 -137.275 315.518C-125.413 315.627 -112.291 315.761 -98.2925 315.921C-88.8118 282.868 -54.0139 259.031 -35.2285 249.872C-33.8877 249.218 -32.3847 250.279 -32.4973 251.766C-35.9405 297.281 -62.2661 313.69 -75.2925 316.196C-64.5949 316.331 -53.5468 316.478 -42.2924 316.638C-30.4699 290.048 14.1081 258.063 37.8795 243.506C39.2702 242.654 40.9868 243.754 40.7671 245.37C37.6003 268.655 23.1288 310.267 -14.2924 317.058C-5.32458 317.199 3.6969 317.348 12.7036 317.505C18.5012 316.986 24.4038 315.334 30.2076 312.933C36.3742 295.455 54.2259 263.574 72.7076 258C95.6714 251.074 105.172 250.438 111.282 249.697C113.196 249.465 114.861 251.898 113.765 253.485C108.126 261.649 99.5244 274.098 93.7076 282.5C84.7076 295.5 67.2076 312.933 30.2076 312.933C24.4038 315.334 18.5012 316.986 12.7036 317.505C34.4455 317.883 56.101 318.305 76.707 318.771C80.0074 318.29 83.6014 317.393 87.3524 316.196C108.242 272.868 147.81 267.959 167.024 271.092C168.2 271.284 168.888 272.477 168.441 273.581C162.646 287.875 141.746 314.094 97.207 319.258C110.415 319.588 123.011 319.938 134.708 320.306C139.538 319.41 144.299 318.31 148.946 317.058C151.867 305.538 167.162 280.3 204.981 271.5C242.799 262.7 229.909 290.833 218.736 306C241.557 291.268 257.859 295.566 264.456 300.856C264.944 301.247 265.184 301.865 265.064 302.48C263.367 311.175 249.487 324.834 204.981 316.638C197.24 318.627 189.797 320.584 183.707 322.266C194.119 322.826 202.2 323.416 207.313 324.037C209.166 324.261 209.21 325.928 207.364 326.204C199.924 327.315 186.609 328.07 169.208 328.544C172.856 329.514 176.543 330.828 180.208 332.394C194.208 327.431 226.408 326.804 243.208 364C260.008 401.196 229.874 385.165 212.708 372.5C224.708 405 192.708 390 180.208 377C167.708 364 156.708 354.945 147.208 328.973C127.384 329.233 104.328 329.253 79.7076 329.101C84.4171 330.869 89.1239 333.261 93.7076 336.041C147.357 337.231 152.25 376.924 147.735 398.699C147.484 399.911 146.183 400.55 145.064 400.021C126.029 391.03 92.1672 367.264 93.7076 336.041C89.1239 333.261 84.4171 330.869 79.7076 329.101C71.6877 329.052 63.5019 328.985 55.2076 328.901C92.1658 344.829 99.9991 376.716 99.3632 392.728C99.3151 393.939 98.1425 394.747 96.969 394.446C46.5554 381.53 24.471 345.23 19.7076 328.464C-3.48013 328.129 -26.8721 327.701 -49.2924 327.231C-51.3005 327.189 -53.3008 327.146 -55.2924 327.103C-71.1488 326.763 -86.4576 326.403 -100.792 326.04C-98.4817 327.629 -95.862 329.671 -93.076 332C-42.0874 326.957 -35.9842 369.164 -39.4433 392.848C-39.6129 394.009 -40.7868 394.733 -41.9132 394.404C-88.9472 380.683 -100.792 343.271 -100.792 326.04C-113.902 325.709 -126.197 325.377 -137.351 325.056C-138.433 325.025 -139.292 324.139 -139.292 323.057Z" fill="#79AC2B"/>
<path d="M-147.158 394.865L-142.251 389.959C-141.453 389.161 -140.159 389.176 -139.369 389.981C-129.672 399.859 -111.454 414.622 -88.793 431.718C-87.9486 432.355 -87.098 432.996 -86.2415 433.639C-82.5494 435.925 -76.2055 438.378 -66.793 439.996C-21.8319 405.791 14.7303 420.542 29.0611 433.431C29.9605 434.24 29.8275 435.665 28.85 436.377C-15.8438 468.958 -50.1208 452.987 -61.793 440.735C-63.5474 440.515 -65.2134 440.267 -66.793 439.996C-76.2055 438.378 -82.5494 435.925 -86.2415 433.639C-66.8319 448.219 -44.3636 464.394 -21.293 480.627C36.4138 458.026 78.3953 480.556 93.9754 496.174C94.8871 497.088 94.614 498.597 93.4701 499.195C62.1406 515.584 35.0281 515.217 25.207 512.908C31.1253 516.967 36.973 520.96 42.707 524.861C43.1227 525.143 43.5378 525.426 43.9524 525.708C47.7063 527.973 55.0187 530.28 66.207 530.712C92.0795 504.925 129.639 510.551 148.243 517.582C149.739 518.147 149.871 520.153 148.503 520.981C101.657 549.352 74.1933 539.444 66.207 530.712C55.0187 530.28 47.7063 527.973 43.9524 525.708C66.1367 540.789 86.5613 554.445 102.707 565.098C128.08 550.03 156.064 560.852 165.207 570C172.273 577.07 185.851 588.565 193.861 595.168C195.086 596.177 194.701 598.14 193.179 598.591C171.718 604.953 159.007 603.582 155.213 602C157.085 604.627 158.892 607.214 160.544 609.614C161.735 611.345 159.723 613.578 157.848 612.628C150.527 608.917 141.08 604.38 136.045 602C148.917 615.614 158.481 629.351 163.709 638.339C164.434 639.585 163.588 641.085 162.162 640.875C151.287 639.276 129.482 625.485 109.207 578.452C104.885 575.395 100.379 572.549 95.707 570C85.5314 564.45 66.392 551.774 42.707 535.353C46.7931 539.414 50.4837 543.877 53.7894 548.5C99.8524 585.106 89.1346 613.006 76.8181 623.703C75.9622 624.446 74.6786 624.232 74.044 623.293C64.5784 609.281 47.707 581.512 47.707 570C47.707 558.001 51.7619 550.667 53.7894 548.5C50.4837 543.877 46.7931 539.414 42.707 535.353C25.8176 523.643 6.61693 510.028 -13.293 495.734C-11.2231 498.89 -8.8434 502.587 -6.29303 506.635C6.87183 527.528 24.5849 557.758 27.7222 571.027C28.0791 572.537 26.541 573.476 25.2829 572.568C13.3722 563.975 -5.92505 541.692 -6.29303 506.635C-8.8434 502.587 -11.2231 498.89 -13.293 495.734C-21.8615 489.583 -30.5613 483.305 -39.2648 477C-28.0245 491.648 -30.174 522.426 -33.2917 539.946C-33.6115 541.744 -35.9628 542.126 -36.8936 540.555C-43.495 529.417 -55.0943 510.786 -63.793 500C-76.293 484.5 -82.903 463.641 -79.293 450.82C-80.7591 448.729 -82.2601 446.631 -83.793 444.538C-103.378 430.179 -121.764 416.596 -137.293 405.059C-132.358 411.571 -125.405 421.158 -118.257 431.718C-106.447 449.163 -94.1038 469.263 -89.4407 482.539C-89.0654 483.607 -89.7024 484.759 -90.8337 484.812C-99.3749 485.211 -114.176 475.366 -118.257 431.718C-125.405 421.158 -132.358 411.571 -137.293 405.059C-140.647 402.567 -143.868 400.171 -146.939 397.882C-147.917 397.154 -148.02 395.727 -147.158 394.865Z" fill="#79AC2B"/>
<path d="M210.207 56.4999C218.029 61.6009 228.091 67.3042 234.003 70.5374C235.273 71.2319 235.427 72.9917 234.246 73.8285C215.175 87.3423 176.491 100.397 156.207 55.5675C176.707 45.1352 198.707 48.9999 210.207 56.4999Z" fill="#79AC2B"/>
<path d="M-148.802 3.39729L-153.02 9.23667C-153.705 10.1857 -153.434 11.5169 -152.431 12.1203C-135.834 22.1035 -115.609 34.2222 -93.793 47.2326C-90.7416 51.8699 -88.2404 56.661 -86.2071 61.4999C-85.7178 62.6643 -85.2556 63.8315 -84.8194 64.9999C-114.072 120.387 -92.6065 149.083 -76.6726 157.578C-75.6636 158.116 -74.4506 157.623 -74.0495 156.553C-63.002 127.061 -50.9319 69.7151 -86.2071 61.4999C-88.2404 56.661 -90.7416 51.8699 -93.793 47.2326C-80.877 54.9352 -67.4029 62.9504 -53.793 71.02C-46.6874 75.2442 -41.3562 81.1739 -37.4111 87.9999C-52.6401 123.165 -41.9983 155.188 -33.6831 168.851C-33.0052 169.965 -31.465 170.052 -30.6454 169.038C-16.3695 151.37 0.168076 113.414 -37.4111 87.9999C-41.3562 81.1739 -46.6874 75.2442 -53.793 71.02C-34.843 82.2559 -15.6297 93.5973 2.70697 104.348C7.88785 107.393 11.7846 112.842 14.6835 119.5C-2.51627 175.151 11.0287 194.575 21.4512 195.467C21.9383 195.509 22.4158 195.318 22.7732 194.985C43.9263 175.239 27.9722 132.091 16.2592 123.5C15.7701 122.127 15.2455 120.791 14.6835 119.5C11.7846 112.842 7.88785 107.393 2.70697 104.348C20.5544 114.811 37.5714 124.714 52.707 133.415C56.2505 135.46 59.9721 141.361 63.5236 149C51.5421 188.979 73.7797 216.911 89.148 228.119C90.5214 229.121 92.3636 227.928 92.2044 226.236C91.3808 217.481 90.8119 202.813 88.707 188.5C85.8689 169.201 74.3402 153 63.5236 149C59.9721 141.361 56.2505 135.46 52.707 133.415C70.8451 143.842 86.2813 152.542 97.207 158.41C98.2155 159.112 99.1909 159.896 100.134 160.753C97.8331 194.717 113.835 226.98 124.155 241.982C125.125 243.392 127.22 242.907 127.5 241.219C131.004 220.093 131.862 181.169 111.207 165.5C118.786 168.816 110.686 162.651 93.3318 151.013C95.6171 149.675 102.892 147.7 113.707 150.5C135.406 171.057 168.185 162.449 183.943 154.673C185.11 154.098 185.355 152.578 184.405 151.689C173.222 141.231 146.201 128.585 113.707 150.5C102.892 147.7 95.6171 149.675 93.3318 151.013C84.8972 145.356 74.2764 138.406 62.207 130.623C64.9761 130.992 67.8208 131.223 70.707 131.338C105.984 145.853 134.043 131.858 145.634 121.491C146.673 120.562 146.353 118.923 145.035 118.469C133.004 114.326 106.4 110.958 77.207 125C75.207 126.294 68.807 128.844 59.207 128.691C50.7269 123.234 41.5872 117.399 32.0294 111.336C35.4035 112.142 47.5357 113.198 64.707 112C97.371 107.509 104.14 95.3487 106.522 85.8664C106.99 84.0035 104.334 82.2547 102.58 83.0377C95.7191 86.1007 82.7201 89.4999 62.207 89.4999C27.207 89.4999 28.207 94.832 20.707 102.663C19.7076 102.547 18.7073 102.419 17.707 102.278C9.04872 96.8183 0.161682 91.2409 -8.79303 85.6468C-0.79303 87.7645 20.407 87.8039 41.207 71.02C67.207 50.04 34.707 44.4999 19.207 49.9999C7.24011 54.2462 -23.385 62.8699 -38.6927 67.0625C-53.0765 58.168 -67.1695 49.5211 -80.293 41.5452C-47.2571 56.4623 -24.0782 43.0545 -14.3446 32.2029C-13.2321 30.9627 -14.219 29.1101 -15.8848 29.1406C-23.3827 29.2782 -36.1412 28.9705 -48.293 26.9999C-66.793 23.9999 -83.293 25.7654 -94.793 32.7686C-117.662 18.9883 -136.28 8.08821 -146.273 2.79597C-147.148 2.33239 -148.222 2.59426 -148.802 3.39729Z" fill="#79AC2B"/>
<path d="M77.2022 678.143C7.45079 689.396 -0.0212555 641.907 5.23688 616C14.6579 619.333 35.4999 629.8 43.4999 645C50.1924 657.716 66.6826 668.519 77.7487 674.247C79.4883 675.148 79.1361 677.831 77.2022 678.143Z" fill="#79AC2B"/>
<path d="M-182.293 442C-182.596 445.441 -182.658 450.075 -182.293 455.556M-182.293 455.556C-181.05 474.235 -174.848 502.76 -156.293 527.5M-182.293 455.556C-168.554 475.096 -141.207 519.701 -138.475 546.092C-138.346 547.34 -139.444 548.336 -140.677 548.108C-166.279 543.378 -207.107 519.186 -182.293 455.556ZM218.208 479C205.212 473.991 179.484 464.321 163.208 458.936M163.208 458.936C159.444 457.692 156.186 456.676 153.708 456M163.208 458.936C164.855 472.464 181.51 498.383 234.794 495.128C235.853 495.063 236.698 494.17 236.633 493.111C235.393 473.005 219.411 440.67 163.208 458.936ZM-98.2925 315.921C-112.291 315.761 -125.413 315.627 -137.275 315.518C-138.387 315.508 -139.292 316.406 -139.292 317.518V323.057C-139.292 324.139 -138.433 325.025 -137.351 325.056C-126.197 325.377 -113.902 325.709 -100.792 326.04M-98.2925 315.921C-75.8925 311.057 -53.9591 282.614 -45.7924 269M-98.2925 315.921C-90.8541 316.006 -83.1683 316.097 -75.2925 316.196M-98.2925 315.921C-88.8118 282.868 -54.0139 259.031 -35.2285 249.872C-33.8877 249.218 -32.3847 250.279 -32.4973 251.766C-35.9405 297.281 -62.2661 313.69 -75.2925 316.196M-75.2925 316.196C-64.5949 316.331 -53.5468 316.478 -42.2924 316.638M-100.792 326.04C-100.792 343.271 -88.9472 380.683 -41.9132 394.404C-40.7868 394.733 -39.6129 394.009 -39.4433 392.848C-35.9842 369.164 -42.0874 326.957 -93.076 332M-100.792 326.04C-98.4817 327.629 -95.862 329.671 -93.076 332M-100.792 326.04C-86.4576 326.403 -71.1488 326.763 -55.2924 327.103C-53.3008 327.146 -51.3005 327.189 -49.2924 327.231C-26.8721 327.701 -3.48013 328.129 19.7076 328.464M-59.7924 364C-66.7903 356.558 -81.3942 341.764 -93.076 332M19.7076 328.464C24.471 345.23 46.5554 381.53 96.969 394.446C98.1425 394.747 99.3151 393.939 99.3632 392.728C99.9991 376.716 92.1658 344.829 55.2076 328.901M19.7076 328.464C31.6486 328.636 43.5354 328.784 55.2076 328.901M19.7076 328.464C50.1076 337.638 77.7076 364.644 87.7076 377M55.2076 328.901C63.5019 328.985 71.6877 329.052 79.7076 329.101M-42.2924 316.638C-5.89246 307.178 17.2076 276.604 24.2076 262.5M-42.2924 316.638C-33.0712 316.77 -23.7114 316.909 -14.2924 317.058M-42.2924 316.638C-30.4699 290.048 14.1081 258.063 37.8795 243.506C39.2702 242.654 40.9868 243.754 40.7671 245.37C37.6003 268.655 23.1288 310.267 -14.2924 317.058M-14.2924 317.058C-5.32458 317.199 3.6969 317.348 12.7036 317.505M12.7036 317.505C18.5012 316.986 24.4038 315.334 30.2076 312.933M12.7036 317.505C34.4455 317.883 56.101 318.305 76.707 318.771M79.7076 275.5C70.9548 285.69 51.229 304.233 30.2076 312.933M30.2076 312.933C67.2076 312.933 84.7076 295.5 93.7076 282.5C99.5244 274.098 108.126 261.649 113.765 253.485C114.861 251.898 113.196 249.465 111.282 249.697C105.172 250.438 95.6714 251.074 72.7076 258C54.2259 263.574 36.3742 295.455 30.2076 312.933ZM79.7076 329.101C84.4171 330.869 89.1239 333.261 93.7076 336.041M79.7076 329.101C104.328 329.252 127.384 329.233 147.208 328.973M134.708 372.5C127.8 363.862 111.703 346.957 93.7076 336.041M93.7076 336.041C147.357 337.231 152.25 376.924 147.735 398.699C147.484 399.911 146.183 400.55 145.064 400.021C126.029 391.03 92.1673 367.264 93.7076 336.041ZM152.16 328.901C152.679 328.893 153.194 328.885 153.708 328.877C155.921 328.84 158.089 328.8 160.208 328.757M152.16 328.901C166.123 335.778 184.343 357.166 191.708 367M152.16 328.901C150.533 328.927 148.882 328.951 147.208 328.973M160.208 328.757C173.708 332.505 203.108 346.5 212.708 372.5M160.208 328.757C163.315 328.693 166.318 328.623 169.208 328.544M212.708 372.5C224.708 405 192.708 390 180.208 377C167.708 364 156.708 354.945 147.208 328.973M212.708 372.5C229.874 385.165 260.008 401.196 243.208 364C226.408 326.804 194.208 327.431 180.208 332.394M169.208 328.544C186.609 328.07 199.924 327.315 207.364 326.204C209.21 325.928 209.166 324.261 207.313 324.037C202.2 323.416 194.119 322.826 183.707 322.266M169.208 328.544C172.856 329.514 176.543 330.828 180.208 332.394M229.708 367C221.203 358.397 201.053 341.305 180.208 332.394M183.707 322.266C189.797 320.584 197.24 318.627 204.981 316.638M183.707 322.266C170.63 321.563 153.877 320.91 134.708 320.306M247.707 306C238.58 308.203 221.134 312.488 204.981 316.638M204.981 316.638C249.487 324.834 263.367 311.175 265.064 302.48C265.184 301.865 264.944 301.247 264.456 300.856C257.859 295.566 241.557 291.268 218.736 306M204.981 316.638C211.207 311 214.381 308.811 218.736 306M134.708 320.306C139.538 319.41 144.299 318.31 148.946 317.058M134.708 320.306C123.011 319.938 110.415 319.588 97.207 319.258M218.736 306C229.909 290.833 242.799 262.7 204.981 271.5C167.162 280.3 151.867 305.538 148.946 317.058M212.708 288.5C202.93 295.301 178.165 309.184 148.946 317.058M76.707 318.771C83.6726 318.928 90.5184 319.091 97.207 319.258M76.707 318.771C80.0075 318.29 83.6015 317.393 87.3524 316.196M97.207 319.258C141.746 314.094 162.646 287.875 168.441 273.581C168.888 272.477 168.2 271.284 167.024 271.092C147.81 267.959 108.242 272.868 87.3524 316.196M137.207 291C127.132 297.701 105.422 310.43 87.3524 316.196M95.707 570C100.379 572.549 104.885 575.395 109.207 578.452M95.707 570C85.5314 564.45 66.392 551.774 42.707 535.353M95.707 570C98.0061 568.127 100.345 566.5 102.707 565.098M95.707 570C100.236 567.608 104.805 566.77 109.207 566.934C120.354 567.348 130.426 574.185 136.045 578.452C140.097 581.53 148.123 592.053 155.213 602M109.207 578.452C129.482 625.485 151.287 639.276 162.162 640.875C163.588 641.085 164.434 639.585 163.709 638.339C158.481 629.351 148.917 615.614 136.045 602M109.207 578.452C119.216 585.533 128.239 593.744 136.045 602M136.045 602C141.08 604.38 150.527 608.917 157.848 612.628C159.723 613.578 161.735 611.345 160.544 609.614C158.892 607.214 157.085 604.627 155.213 602M155.213 602C159.007 603.582 171.718 604.953 193.179 598.591C194.701 598.14 195.086 596.177 193.861 595.168C185.851 588.565 172.273 577.07 165.207 570C156.064 560.852 128.08 550.03 102.707 565.098M42.707 535.353C46.7931 539.414 50.4837 543.877 53.7894 548.5M42.707 535.353C25.8176 523.643 6.61693 510.028 -13.293 495.734M75.207 594C72.9766 584.87 66.0163 565.598 53.7894 548.5M53.7894 548.5C51.7619 550.667 47.707 558.001 47.707 570C47.707 581.512 64.5784 609.281 74.044 623.293C74.6786 624.233 75.9622 624.446 76.8181 623.703C89.1346 613.006 99.8524 585.106 53.7894 548.5ZM102.707 565.098C86.5613 554.445 66.1367 540.789 43.9524 525.708M43.9524 525.708C43.5378 525.426 43.1227 525.144 42.707 524.861M43.9524 525.708C43.4814 525.423 43.0665 525.14 42.707 524.861M43.9524 525.708C47.7063 527.973 55.0187 530.28 66.207 530.712M42.707 524.861C36.973 520.96 31.1253 516.967 25.207 512.908M66.207 530.712C78.9899 531.206 96.8322 529.254 120.207 522M66.207 530.712C74.1933 539.444 101.657 549.352 148.503 520.981C149.871 520.153 149.739 518.147 148.243 517.582C129.639 510.551 92.0795 504.925 66.207 530.712ZM-21.293 480.627C-5.79303 485.585 33.907 495 68.707 493M-21.293 480.627C-5.81682 491.516 9.93037 502.431 25.207 512.908M-21.293 480.627C36.4138 458.026 78.3953 480.556 93.9754 496.174C94.8871 497.088 94.614 498.597 93.4701 499.195C62.1406 515.584 35.0281 515.217 25.207 512.908M-21.293 480.627C-44.3636 464.394 -66.8319 448.219 -86.2415 433.639M-86.2415 433.639C-87.098 432.996 -87.9486 432.355 -88.793 431.718M-86.2415 433.639C-87.3113 432.977 -88.1584 432.328 -88.793 431.718M-86.2415 433.639C-82.5494 435.925 -76.2055 438.378 -66.793 439.996M-88.793 431.718C-111.454 414.622 -129.672 399.859 -139.369 389.981C-140.159 389.176 -141.453 389.161 -142.251 389.959L-147.158 394.865C-148.02 395.727 -147.917 397.154 -146.939 397.882C-143.868 400.171 -140.647 402.567 -137.293 405.059M-61.793 440.735C-47.5958 442.512 -27.6103 442.437 -0.79303 438M-61.793 440.735C-50.1208 452.987 -15.8438 468.958 28.85 436.377C29.8275 435.665 29.9605 434.24 29.0611 433.431C14.7303 420.542 -21.8319 405.791 -66.793 439.996M-61.793 440.735C-63.5474 440.515 -65.2134 440.267 -66.793 439.996M-137.293 405.059C-132.358 411.571 -125.405 421.158 -118.257 431.718M-137.293 405.059C-121.764 416.596 -103.378 430.179 -83.793 444.538M-118.257 431.718C-106.447 449.163 -94.1038 469.263 -89.4407 482.539C-89.0654 483.607 -89.7024 484.759 -90.8337 484.812C-99.3749 485.211 -114.176 475.366 -118.257 431.718ZM-83.793 444.538C-82.2601 446.631 -80.7591 448.729 -79.293 450.82M-83.793 444.538C-69.3797 455.106 -54.3168 466.095 -39.2648 477M-48.293 502.5C-52.4011 494.003 -63.9264 472.742 -79.293 450.82M-79.293 450.82C-82.903 463.641 -76.293 484.5 -63.793 500C-55.0943 510.786 -43.495 529.417 -36.8936 540.555C-35.9628 542.126 -33.6115 541.744 -33.2917 539.946C-30.174 522.426 -28.0245 491.648 -39.2648 477M-39.2648 477C-30.5613 483.305 -21.8615 489.583 -13.293 495.734M-13.293 495.734C-11.2231 498.89 -8.8434 502.587 -6.29303 506.635M-6.29303 506.635C6.87183 527.528 24.5849 557.758 27.7222 571.027C28.0791 572.537 26.541 573.476 25.2829 572.568C13.3722 563.975 -5.92505 541.692 -6.29303 506.635ZM207.707 71.9999C196.254 70.7429 172.536 65.8343 156.207 55.5675M156.207 55.5675C153.05 53.5827 150.169 51.3976 147.707 48.9999M156.207 55.5675C176.707 45.1352 198.707 48.9999 210.207 56.4999C218.028 61.6009 228.091 67.3042 234.003 70.5374C235.273 71.2319 235.427 72.9917 234.246 73.8285C215.175 87.3423 176.491 100.397 156.207 55.5675ZM-60.793 35.4999C-67.793 35.3333 -83.493 34.8999 -90.293 34.4999M-94.793 32.7686C-117.662 18.9883 -136.28 8.08821 -146.273 2.79597C-147.148 2.33239 -148.222 2.59426 -148.802 3.39729L-153.02 9.23667C-153.705 10.1857 -153.434 11.5169 -152.431 12.1203C-135.834 22.1035 -115.609 34.2222 -93.793 47.2326M-94.793 32.7686C-83.293 25.7654 -66.793 23.9999 -48.293 26.9999C-36.1412 28.9705 -23.3827 29.2782 -15.8848 29.1406C-14.219 29.1101 -13.2321 30.9627 -14.3446 32.2029C-24.0782 43.0545 -47.2571 56.4623 -80.293 41.5452M-94.793 32.7686C-90.1245 35.5818 -85.2787 38.5151 -80.293 41.5452M-80.293 41.5452C-67.1695 49.5211 -53.0765 58.168 -38.6927 67.0625M-93.793 47.2326C-90.7416 51.8699 -88.2404 56.661 -86.2071 61.4999M-93.793 47.2326C-80.877 54.9352 -67.4029 62.9504 -53.793 71.02M-81.293 127.5C-78.0656 115.926 -75.4241 90.1651 -84.8194 64.9999M-84.8194 64.9999C-114.072 120.387 -92.6065 149.083 -76.6726 157.578C-75.6636 158.116 -74.4506 157.623 -74.0495 156.553C-63.002 127.061 -50.932 69.7151 -86.2071 61.4999M-84.8194 64.9999C-85.2556 63.8315 -85.7178 62.6643 -86.2071 61.4999M-53.793 71.02C-46.6874 75.2442 -41.3562 81.1739 -37.4111 87.9999M-53.793 71.02C-34.843 82.2559 -15.6297 93.5973 2.70697 104.348M-28.793 151.5C-26.2076 136.659 -25.6513 108.347 -37.4111 87.9999M-37.4111 87.9999C0.168076 113.414 -16.3695 151.37 -30.6454 169.038C-31.465 170.052 -33.0052 169.965 -33.6831 168.851C-41.9983 155.188 -52.6401 123.165 -37.4111 87.9999ZM-32.3 71.02C-34.4358 69.6963 -36.5674 68.3767 -38.6927 67.0625M-32.3 71.02C-10.7055 75.836 16.369 69.0133 27.207 64.9999M-32.3 71.02C-24.4842 75.8638 -16.6128 80.7617 -8.79303 85.6468M-38.6927 67.0625C-39.2467 67.2143 -39.7807 67.3602 -40.293 67.4999M-38.6927 67.0625C-23.385 62.8699 7.24011 54.2462 19.207 49.9999C34.707 44.4999 67.207 50.04 41.207 71.02C20.407 87.8039 -0.79303 87.7645 -8.79303 85.6468M-8.79303 85.6468C0.161682 91.2409 9.04872 96.8183 17.707 102.278M17.707 102.278C18.7073 102.419 19.7076 102.547 20.707 102.663M17.707 102.278C22.2787 105.161 26.7866 108.012 31.207 110.815M75.707 99.4999C66.9161 101.756 44.0846 105.388 20.707 102.663M20.707 102.663C28.207 94.832 27.207 89.4999 62.207 89.4999C82.7201 89.4999 95.7191 86.1007 102.58 83.0377C104.334 82.2547 106.99 84.0035 106.522 85.8664C104.14 95.3487 97.371 107.509 64.707 112C47.5357 113.198 35.4035 112.142 32.0294 111.336M31.207 110.815C30.8848 110.946 31.1788 111.133 32.0294 111.336M31.207 110.815C31.4814 110.989 31.7556 111.162 32.0294 111.336M32.0294 111.336C41.5872 117.399 50.7269 123.234 59.207 128.691M62.207 130.623C61.2166 129.985 60.2164 129.34 59.207 128.691M62.207 130.623C64.9761 130.992 67.8208 131.223 70.707 131.338M62.207 130.623C74.2764 138.406 84.8972 145.356 93.3318 151.013M59.207 128.691C68.807 128.844 75.207 126.294 77.207 125C106.4 110.958 133.004 114.326 145.035 118.469C146.353 118.923 146.673 120.562 145.634 121.491C134.043 131.858 105.984 145.853 70.707 131.338M130.207 122C119.251 125.774 93.6689 132.251 70.707 131.338M2.70697 104.348C7.88785 107.393 11.7846 112.842 14.6835 119.5M2.70697 104.348C20.5544 114.811 37.5714 124.714 52.707 133.415M22.207 173C22.8633 160.873 22.0118 139.648 16.2592 123.5M16.2592 123.5C27.9722 132.091 43.9263 175.239 22.7732 194.985C22.4158 195.318 21.9383 195.509 21.4512 195.467C11.0287 194.575 -2.51627 175.151 14.6835 119.5M16.2592 123.5C15.7701 122.127 15.2455 120.791 14.6835 119.5M52.707 133.415C56.2505 135.46 59.9721 141.361 63.5236 149M52.707 133.415C70.8451 143.842 86.2813 152.542 97.207 158.41M79.707 197.5C76.6304 185.065 70.3954 163.78 63.5236 149M63.5236 149C51.5421 188.979 73.7797 216.911 89.148 228.119C90.5214 229.121 92.3636 227.928 92.2044 226.236C91.3808 217.481 90.8119 202.813 88.707 188.5C85.8689 169.201 74.3402 153 63.5236 149ZM97.207 158.41C98.2155 159.112 99.1909 159.896 100.134 160.753M97.207 158.41C98.2415 158.966 99.2357 159.496 100.188 160M122.707 216C120.989 202.358 114.15 173.491 100.134 160.753M100.134 160.753C97.8331 194.717 113.835 226.98 124.155 241.982C125.125 243.392 127.22 242.907 127.5 241.219C131.004 220.093 131.862 181.169 111.207 165.5M100.134 160.753C100.151 160.502 100.169 160.251 100.188 160M100.188 160C104.999 162.546 108.738 164.42 111.207 165.5M111.207 165.5C118.786 168.816 110.686 162.651 93.3318 151.013M153.207 153.5C144.547 153.667 124.522 153.3 113.707 150.5M113.707 150.5C102.892 147.7 95.6171 149.675 93.3318 151.013M113.707 150.5C146.201 128.585 173.222 141.231 184.405 151.689C185.355 152.578 185.11 154.098 183.943 154.673C168.185 162.449 135.406 171.057 113.707 150.5ZM47.9999 667C38.3333 660.667 17.1999 643.6 9.99994 626C8.39262 622.071 6.7886 618.767 5.23688 616M5.23688 616C-0.162354 606.374 -4.9287 603.259 -7.00006 603M5.23688 616C-0.0212555 641.907 7.45079 689.397 77.2022 678.143C79.1361 677.831 79.4883 675.148 77.7487 674.247C66.6826 668.519 50.1924 657.716 43.4999 645C35.4999 629.8 14.6579 619.333 5.23688 616Z" stroke="black" stroke-width="4" stroke-linecap="round"/>
</svg>
