<svg width="735" height="394" viewBox="0 0 735 394" fill="none" xmlns="http://www.w3.org/2000/svg">
<circle cx="122.681" cy="274.39" r="45.3905" fill="#BFDF72"/>
<circle cx="76.9437" cy="246.653" r="20.6527" fill="#79AC2B"/>
<path d="M77.536 254.199C76.7879 254.194 76.0658 254.068 75.3698 253.822C74.6785 253.576 74.0582 253.176 73.509 252.622C72.9597 252.068 72.5241 251.334 72.2022 250.42C71.8849 249.506 71.7263 248.384 71.7263 247.054C71.731 245.832 71.8707 244.741 72.1453 243.78C72.4247 242.814 72.8224 241.995 73.3385 241.322C73.8593 240.65 74.482 240.138 75.2064 239.788C75.9308 239.433 76.7429 239.255 77.6425 239.255C78.6131 239.255 79.4701 239.445 80.2135 239.824C80.9569 240.198 81.5535 240.707 82.0033 241.351C82.4578 241.995 82.7325 242.717 82.8272 243.517H79.7945C79.6761 243.01 79.4275 242.612 79.0487 242.324C78.67 242.035 78.2012 241.89 77.6425 241.89C76.6955 241.89 75.9758 242.302 75.4834 243.126C74.9957 243.95 74.7471 245.07 74.7377 246.486H74.8371C75.0549 246.055 75.3485 245.688 75.7178 245.385C76.0918 245.077 76.5156 244.843 76.9891 244.682C77.4673 244.516 77.9716 244.433 78.5019 244.433C79.3636 244.433 80.1307 244.637 80.803 245.044C81.4754 245.446 82.0057 246 82.3939 246.706C82.7822 247.411 82.9763 248.219 82.9763 249.128C82.9763 250.112 82.7467 250.988 82.2874 251.755C81.8328 252.522 81.196 253.124 80.3769 253.559C79.5625 253.99 78.6155 254.203 77.536 254.199ZM77.5218 251.784C77.9952 251.784 78.419 251.67 78.7931 251.443C79.1671 251.216 79.4607 250.908 79.6737 250.52C79.8868 250.131 79.9933 249.696 79.9933 249.213C79.9933 248.73 79.8868 248.297 79.6737 247.913C79.4654 247.53 79.1766 247.224 78.8073 246.997C78.4379 246.77 78.0165 246.656 77.5431 246.656C77.1879 246.656 76.8589 246.722 76.5558 246.855C76.2575 246.987 75.9948 247.172 75.7675 247.409C75.545 247.646 75.3698 247.92 75.2419 248.233C75.1141 248.54 75.0502 248.87 75.0502 249.22C75.0502 249.689 75.1567 250.117 75.3698 250.505C75.5876 250.894 75.8811 251.204 76.2504 251.436C76.6245 251.668 77.0483 251.784 77.5218 251.784Z" fill="white"/>
<path d="M138.603 275.334V255C138.603 254.448 138.156 254 137.603 254H103.291C102.739 254 102.291 254.448 102.291 255V289.312C102.291 289.865 102.739 290.312 103.291 290.312H117.497M142.235 280.1V279.284C142.235 278.732 141.787 278.284 141.235 278.284H131.341H121.447C120.895 278.284 120.447 278.732 120.447 279.284V280.1M142.235 280.1V292.717C142.235 293.269 141.787 293.717 141.235 293.717H121.447C120.895 293.717 120.447 293.269 120.447 292.717V280.1M142.235 280.1L131.941 287.82C131.585 288.086 131.096 288.086 130.741 287.82L120.447 280.1M105.922 269.206H120.447M105.922 275.334H113.412M115.681 258.312H125.44C126.197 258.312 127.71 258.675 127.71 260.128C127.71 261.58 126.197 261.943 125.44 261.943H115.681C114.925 261.943 113.412 261.58 113.412 260.128C113.412 258.675 114.925 258.312 115.681 258.312Z" stroke="#79AC2B" stroke-width="3" stroke-linecap="round"/>
<circle cx="355.681" cy="274.39" r="45.3905" fill="#BFDF72"/>
<circle cx="309.944" cy="246.653" r="20.6527" fill="#79AC2B"/>
<path d="M310.195 254.199C309.192 254.199 308.297 254.014 307.511 253.645C306.729 253.276 306.109 252.767 305.65 252.118C305.191 251.469 304.952 250.726 304.933 249.888H307.916C307.949 250.451 308.185 250.908 308.626 251.259C309.066 251.609 309.589 251.784 310.195 251.784C310.678 251.784 311.104 251.678 311.474 251.464C311.848 251.247 312.139 250.946 312.347 250.562C312.56 250.174 312.667 249.729 312.667 249.227C312.667 248.716 312.558 248.266 312.34 247.878C312.127 247.49 311.831 247.187 311.452 246.969C311.074 246.751 310.64 246.64 310.153 246.635C309.727 246.635 309.312 246.723 308.91 246.898C308.512 247.073 308.202 247.312 307.979 247.615L305.245 247.125L305.934 239.455H314.826V241.969H308.47L308.093 245.612H308.178C308.434 245.252 308.82 244.954 309.336 244.717C309.852 244.481 310.43 244.362 311.069 244.362C311.945 244.362 312.726 244.568 313.413 244.98C314.099 245.392 314.641 245.958 315.039 246.678C315.437 247.393 315.633 248.216 315.629 249.149C315.633 250.129 315.406 251 314.947 251.763C314.492 252.52 313.855 253.117 313.036 253.553C312.222 253.983 311.275 254.199 310.195 254.199Z" fill="white"/>
<path d="M335.291 259.008H360.029C361.164 258.932 363.433 259.371 363.433 261.732V279.434M335.291 262.639H353.674M335.291 266.497H347.319M335.291 270.356H341.419M338.014 273.079V280.342C338.014 281.098 338.559 282.611 340.738 282.611H374.1C375.159 282.611 377.277 281.976 377.277 279.434V273.533M377.277 273.533H366.837M377.277 273.533L373.646 266.497C373.192 265.817 371.921 264.455 370.469 264.455H366.837M348.908 285.788C348.908 287.543 347.486 288.966 345.731 288.966C343.976 288.966 342.553 287.543 342.553 285.788C342.553 284.034 343.976 282.611 345.731 282.611C347.486 282.611 348.908 284.034 348.908 285.788ZM372.511 285.788C372.511 287.543 371.089 288.966 369.334 288.966C367.579 288.966 366.157 287.543 366.157 285.788C366.157 284.034 367.579 282.611 369.334 282.611C371.089 282.611 372.511 284.034 372.511 285.788Z" stroke="#79AC2B" stroke-width="3" stroke-linecap="round"/>
<circle cx="591.438" cy="274.39" r="45.3905" fill="#BFDF72"/>
<circle cx="545.944" cy="246.653" r="20.6527" fill="#79AC2B"/>
<path d="M539.558 251.443V249.021L545.63 239.455H547.718V242.807H546.482L542.654 248.865V248.979H551.283V251.443H539.558ZM546.539 254V250.705L546.596 249.632V239.455H549.479V254H546.539Z" fill="white"/>
<path d="M590.303 285.546L588.033 287.362" stroke="#79AC2B" stroke-linecap="round"/>
<path d="M593.707 254H574.189C573.939 254 573.735 254.203 573.735 254.454V293.263C573.735 293.513 573.939 293.717 574.189 293.717H604.374C604.625 293.717 604.828 293.513 604.828 293.263V291.674M593.707 254V264.44C593.707 264.69 593.91 264.894 594.161 264.894H604.828M593.707 254L604.828 264.894M604.828 264.894V266.936M580.544 271.929H591.892M580.544 277.376H587.126M580.544 282.823H587.126M592.799 281.663C591.628 283.171 590.623 284.589 589.849 285.773C589.552 286.227 595.027 283.98 598.473 281.725M592.799 281.663C590.832 281.823 587.67 281.234 590.757 277.603C592.137 275.979 593.054 274.96 593.647 274.344C593.946 274.033 595.218 272.874 595.569 272.623C596.797 271.747 598.906 271.044 601.877 272.26M592.799 281.663C593.869 280.287 595.078 278.835 596.378 277.42M606.905 274.199C607.84 276.377 612.567 280.553 614.814 282.369M606.905 274.199C605.309 276.135 603.596 277.802 601.874 279.222M606.905 274.199C607.414 273.58 607.912 272.934 608.395 272.26M612.998 290.085C610.577 290.01 605.236 289.359 603.239 287.362C601.242 285.365 599.23 282.772 598.473 281.725M598.473 281.725C597.296 280.815 595.25 278.696 596.378 277.42M601.874 279.222C602.944 280.004 603.828 280.701 604.147 280.78C604.873 280.962 605.963 279.646 606.416 278.965M601.874 279.222C600.057 277.895 597.703 276.325 596.658 277.116M596.378 277.42C596.391 277.405 596.404 277.391 596.418 277.376M596.418 277.376C596.497 277.289 596.577 277.203 596.658 277.116M596.418 277.376C596.487 277.271 596.568 277.185 596.658 277.116M596.658 277.116C599.378 274.194 602.474 271.457 605.514 269.887M605.514 269.887C607.044 269.096 608.561 268.601 610.008 268.527C610.342 268.509 610.544 268.865 610.379 269.156C609.757 270.251 609.092 271.285 608.395 272.26M605.514 269.887C605.813 270.678 606.807 272.26 608.395 272.26" stroke="#79AC2B" stroke-width="3" stroke-linecap="round"/>
<circle cx="651.681" cy="129.39" r="45.3905" fill="#BFDF72"/>
<circle cx="605.944" cy="101.653" r="20.6527" fill="#79AC2B"/>
<path d="M606.34 109.199C605.279 109.199 604.335 109.017 603.506 108.652C602.682 108.283 602.031 107.776 601.553 107.132C601.079 106.483 600.835 105.735 600.821 104.888H603.918C603.937 105.243 604.053 105.555 604.266 105.825C604.484 106.09 604.773 106.296 605.132 106.443C605.492 106.59 605.897 106.663 606.347 106.663C606.816 106.663 607.23 106.58 607.59 106.415C607.95 106.249 608.231 106.019 608.435 105.726C608.639 105.432 608.74 105.094 608.74 104.71C608.74 104.322 608.631 103.979 608.414 103.68C608.201 103.377 607.893 103.141 607.49 102.97C607.093 102.8 606.619 102.714 606.07 102.714H604.713V100.456H606.07C606.534 100.456 606.943 100.375 607.299 100.214C607.658 100.054 607.938 99.831 608.137 99.5469C608.335 99.258 608.435 98.9219 608.435 98.5384C608.435 98.1738 608.347 97.8542 608.172 97.5795C608.002 97.3002 607.76 97.0824 607.448 96.9261C607.14 96.7699 606.78 96.6918 606.368 96.6918C605.952 96.6918 605.57 96.7675 605.225 96.919C604.879 97.0658 604.602 97.2765 604.394 97.5511C604.185 97.8258 604.074 98.1477 604.06 98.517H601.112C601.127 97.679 601.366 96.9403 601.83 96.3011C602.294 95.6619 602.919 95.1624 603.705 94.8026C604.496 94.438 605.388 94.2557 606.382 94.2557C607.386 94.2557 608.264 94.438 609.017 94.8026C609.77 95.1671 610.355 95.6596 610.772 96.2798C611.193 96.8954 611.401 97.5866 611.397 98.3537C611.401 99.1681 611.148 99.8475 610.637 100.392C610.13 100.937 609.469 101.282 608.655 101.429V101.543C609.725 101.68 610.54 102.052 611.098 102.658C611.662 103.259 611.941 104.012 611.936 104.916C611.941 105.745 611.702 106.481 611.219 107.125C610.741 107.769 610.08 108.276 609.237 108.645C608.395 109.014 607.429 109.199 606.34 109.199Z" fill="white"/>
<path d="M643.873 127.714H660.44M643.873 133.161H659.078M643.873 138.835H653.178M637.291 117.728V114.097C637.367 112.886 638.108 110.466 640.468 110.466H644.553M666.795 141.558V145.189C666.719 146.4 665.978 148.821 663.617 148.821H659.532M637.291 141.558V145.189C637.367 146.4 638.108 148.821 640.468 148.821H644.553M659.078 110.012C661.499 109.861 666.432 111.101 666.795 117.274H663.617C662.104 117.274 659.078 116.548 659.078 113.643V110.012Z" stroke="#79AC2B" stroke-width="3" stroke-linecap="round"/>
<circle cx="355.863" cy="84.3905" r="45.3905" fill="#BFDF72"/>
<circle cx="309.944" cy="57.6527" r="20.6527" fill="#79AC2B"/>
<path d="M305.029 64V61.7841L310.207 56.9901C310.647 56.5639 311.017 56.1804 311.315 55.8395C311.618 55.4986 311.848 55.1648 312.004 54.8381C312.16 54.5066 312.238 54.1491 312.238 53.7656C312.238 53.3395 312.141 52.9725 311.947 52.6648C311.753 52.3523 311.488 52.1132 311.152 51.9474C310.815 51.777 310.434 51.6918 310.008 51.6918C309.563 51.6918 309.175 51.7817 308.843 51.9616C308.512 52.1416 308.256 52.3996 308.076 52.7358C307.896 53.072 307.806 53.4721 307.806 53.9361H304.887C304.887 52.9844 305.103 52.1581 305.534 51.4574C305.964 50.7566 306.568 50.2145 307.345 49.831C308.121 49.4474 309.016 49.2557 310.029 49.2557C311.071 49.2557 311.978 49.4403 312.75 49.8097C313.526 50.1742 314.13 50.6809 314.561 51.3295C314.991 51.9782 315.207 52.7216 315.207 53.5597C315.207 54.1089 315.098 54.651 314.88 55.1861C314.667 55.7211 314.286 56.3153 313.737 56.9688C313.187 57.6174 312.413 58.3963 311.414 59.3054L309.291 61.3864V61.4858H315.399V64H305.029Z" fill="white"/>
<path d="M369.481 79.4957C372.205 79.4957 377.243 77.6799 377.424 74.0487C377.651 69.5096 373.793 66.7862 369.481 67.0132C365.201 67.2384 360.25 69.9233 363.062 77.2869C363.102 77.3918 363.104 77.5113 363.065 77.6165L362.105 80.1761C361.97 80.5366 362.317 80.8911 362.68 80.7639L366.304 79.4957M339.095 103.085C338.792 98.6977 341.069 89.9222 352.598 89.9222C364.128 89.9222 366.405 98.6977 366.102 103.085H339.095ZM358.587 80.3902C358.587 84.2758 355.946 87.4257 352.687 87.4257C349.428 87.4257 346.786 84.2758 346.786 80.3902C346.786 76.5046 349.428 73.3547 352.687 73.3547C355.946 73.3547 358.587 76.5046 358.587 80.3902Z" stroke="#79AC2B" stroke-width="3" stroke-linecap="round"/>
<circle cx="66.6815" cy="129.39" r="45.3905" fill="#BFDF72"/>
<circle cx="20.6527" cy="101.816" r="20.6527" fill="#79AC2B"/>
<path d="M22.8559 94.4545V109H19.7806V97.3736H19.6954L16.3644 99.4616V96.7344L19.9653 94.4545H22.8559Z" fill="white"/>
<path d="M55.9755 151.029H45.8005C45.5311 151.029 45.3036 150.828 45.2949 150.561C45.2235 148.38 46.1173 144.776 50.3224 144.776H55.9755M55.9755 151.029V144.776M55.9755 151.029H77.2735M77.2735 151.029H87.4486C87.7179 151.029 87.9455 150.828 87.9542 150.561C88.0256 148.38 87.1318 144.776 82.9267 144.776H77.2735M77.2735 151.029V144.776M77.2735 144.776C77.2735 143.734 76.7411 141.65 74.6113 141.65H58.6378C56.508 141.65 55.9755 143.734 55.9755 144.776M63.2063 107C62.9159 107 62.6805 107.233 62.6805 107.521V112.471C62.6805 112.759 62.445 112.992 62.1546 112.992H60.314C59.8807 112.992 59.6333 113.482 59.8933 113.826L65.9409 121.815C66.1512 122.093 66.5719 122.093 66.7823 121.815L72.8299 113.826C73.0899 113.482 72.8425 112.992 72.4092 112.992H70.5686C70.2782 112.992 70.0427 112.759 70.0427 112.471V107.521C70.0427 107.233 69.8073 107 69.5169 107H63.2063ZM72.6367 131.75C72.6367 135.059 69.9291 137.742 66.5891 137.742C63.2491 137.742 60.5415 135.059 60.5415 131.75C60.5415 128.441 63.2491 125.758 66.5891 125.758C69.9291 125.758 72.6367 128.441 72.6367 131.75ZM84.206 136.7C84.206 138.714 82.5579 140.347 80.5248 140.347C78.4918 140.347 76.8437 138.714 76.8437 136.7C76.8437 134.685 78.4918 133.053 80.5248 133.053C82.5579 133.053 84.206 134.685 84.206 136.7ZM56.3345 136.7C56.3345 138.714 54.6864 140.347 52.6534 140.347C50.6203 140.347 48.9722 138.714 48.9722 136.7C48.9722 134.685 50.6203 133.053 52.6534 133.053C54.6864 133.053 56.3345 134.685 56.3345 136.7Z" stroke="#79AC2B" stroke-width="3"/>
<path d="M295.944 274.073H180.652" stroke="#79AC2B" stroke-width="10" stroke-dasharray="42 42"/>
<path d="M124.595 115.696C155.006 107.148 230.945 90.2776 291.405 91.1854" stroke="#79AC2B" stroke-width="10" stroke-dasharray="42 42"/>
<path d="M581.223 114.334C550.811 105.786 474.873 88.9155 414.413 89.8233" stroke="#79AC2B" stroke-width="10" stroke-dasharray="42 42"/>
<path d="M706.955 168.313C736.08 196.153 750.666 274.073 664.969 274.073" stroke="#79AC2B" stroke-width="10" stroke-dasharray="42 42"/>
<path d="M533.336 274.073H413.959" stroke="#79AC2B" stroke-width="10" stroke-dasharray="42 42"/>
<path d="M24.8949 28.4545V43H21.8551V30.9545H15.9744V43H12.9347V28.4545H24.8949ZM32.695 43.2131C31.5917 43.2131 30.6377 42.9787 29.8327 42.5099C29.0326 42.0365 28.4147 41.3783 27.979 40.5355C27.5434 39.688 27.3256 38.7055 27.3256 37.5881C27.3256 36.4612 27.5434 35.4763 27.979 34.6335C28.4147 33.786 29.0326 33.1278 29.8327 32.6591C30.6377 32.1856 31.5917 31.9489 32.695 31.9489C33.7982 31.9489 34.7499 32.1856 35.5501 32.6591C36.355 33.1278 36.9753 33.786 37.4109 34.6335C37.8465 35.4763 38.0643 36.4612 38.0643 37.5881C38.0643 38.7055 37.8465 39.688 37.4109 40.5355C36.9753 41.3783 36.355 42.0365 35.5501 42.5099C34.7499 42.9787 33.7982 43.2131 32.695 43.2131ZM32.7092 40.8693C33.2111 40.8693 33.6301 40.7273 33.9663 40.4432C34.3024 40.1544 34.5558 39.7614 34.7262 39.2642C34.9014 38.767 34.989 38.2012 34.989 37.5668C34.989 36.9323 34.9014 36.3665 34.7262 35.8693C34.5558 35.3722 34.3024 34.9792 33.9663 34.6903C33.6301 34.4015 33.2111 34.2571 32.7092 34.2571C32.2025 34.2571 31.7764 34.4015 31.4308 34.6903C31.0898 34.9792 30.8318 35.3722 30.6566 35.8693C30.4862 36.3665 30.4009 36.9323 30.4009 37.5668C30.4009 38.2012 30.4862 38.767 30.6566 39.2642C30.8318 39.7614 31.0898 40.1544 31.4308 40.4432C31.7764 40.7273 32.2025 40.8693 32.7092 40.8693ZM39.3924 43L39.3782 40.5994H39.7404C39.9961 40.5994 40.2163 40.5379 40.4009 40.4148C40.5903 40.2869 40.7466 40.081 40.8697 39.7969C40.9928 39.5128 41.0898 39.1364 41.1609 38.6676C41.2319 38.1941 41.2792 37.6117 41.3029 36.9205L41.4805 32.0909H49.7759V43H46.8924V34.4702H44.2006L44.0302 37.8011C43.9876 38.715 43.8763 39.5009 43.6964 40.1591C43.5212 40.8172 43.2773 41.357 42.9648 41.7784C42.6523 42.1951 42.2759 42.5028 41.8356 42.7017C41.3952 42.9006 40.8839 43 40.3015 43H39.3924ZM53.5987 47.0909C53.2152 47.0909 52.8554 47.0601 52.5192 46.9986C52.1877 46.9418 51.9131 46.8684 51.6953 46.7784L52.3771 44.5199C52.7322 44.6288 53.0518 44.688 53.3359 44.6974C53.6248 44.7069 53.8733 44.6406 54.0817 44.4986C54.2947 44.3565 54.4676 44.1151 54.6001 43.7741L54.7777 43.3125L50.8643 32.0909H54.0462L56.3047 40.1023H56.4183L58.6982 32.0909H61.9013L57.6612 44.179C57.4576 44.7661 57.1806 45.2775 56.8303 45.7131C56.4846 46.1534 56.0466 46.492 55.5163 46.7287C54.986 46.9702 54.3468 47.0909 53.5987 47.0909ZM72.6239 32.0909V43H69.7546V32.0909H72.6239ZM71.2248 36.8778V39.2642C70.9928 39.3684 70.704 39.4678 70.3583 39.5625C70.0127 39.6525 69.6504 39.7259 69.2717 39.7827C68.8929 39.8395 68.5378 39.8679 68.2063 39.8679C66.6391 39.8679 65.4057 39.5459 64.506 38.902C63.6064 38.2533 63.1566 37.2187 63.1566 35.7983V32.0767H66.0117V35.7983C66.0117 36.2197 66.0827 36.5535 66.2248 36.7997C66.3716 37.0459 66.6036 37.2235 66.9208 37.3324C67.2428 37.4366 67.6713 37.4886 68.2063 37.4886C68.7035 37.4886 69.1912 37.4366 69.6694 37.3324C70.1476 37.2282 70.6661 37.0767 71.2248 36.8778ZM79.9446 43.2131C78.8224 43.2131 77.8565 42.9858 77.0469 42.5312C76.242 42.072 75.6217 41.4233 75.1861 40.5852C74.7505 39.7424 74.5327 38.7457 74.5327 37.5952C74.5327 36.473 74.7505 35.4882 75.1861 34.6406C75.6217 33.7931 76.2348 33.1326 77.0256 32.6591C77.821 32.1856 78.7538 31.9489 79.8239 31.9489C80.5436 31.9489 81.2135 32.0649 81.8338 32.2969C82.4588 32.5241 83.0033 32.8674 83.4673 33.3267C83.9361 33.786 84.3007 34.3636 84.5611 35.0597C84.8215 35.7509 84.9517 36.5606 84.9517 37.4886V38.3196H75.7401V36.4446H82.1037C82.1037 36.009 82.009 35.6231 81.8196 35.2869C81.6302 34.9508 81.3674 34.688 81.0312 34.4986C80.6998 34.3045 80.3139 34.2074 79.8736 34.2074C79.4143 34.2074 79.0071 34.3139 78.652 34.527C78.3016 34.7353 78.027 35.017 77.8281 35.3722C77.6293 35.7225 77.5275 36.1132 77.5227 36.544V38.3267C77.5227 38.8665 77.6222 39.3329 77.821 39.7259C78.0246 40.1188 78.3111 40.4219 78.6804 40.6349C79.0497 40.848 79.4877 40.9545 79.9943 40.9545C80.3305 40.9545 80.6383 40.9072 80.9176 40.8125C81.197 40.7178 81.4361 40.5758 81.6349 40.3864C81.8338 40.197 81.9853 39.965 82.0895 39.6903L84.8878 39.875C84.7457 40.5473 84.4545 41.1345 84.0142 41.6364C83.5786 42.1335 83.0152 42.5218 82.3239 42.8011C81.6373 43.0758 80.8442 43.2131 79.9446 43.2131ZM94.5185 36.3381V38.7173H88.8224V36.3381H94.5185ZM89.8168 32.0909V43H86.9261V32.0909H89.8168ZM96.4148 32.0909V43H93.5455V32.0909H96.4148ZM101.653 39.0085L105.58 32.0909H108.563V43H105.68V36.0611L101.766 43H98.7621V32.0909H101.653V39.0085ZM115.96 43.2131C114.838 43.2131 113.872 42.9858 113.062 42.5312C112.258 42.072 111.637 41.4233 111.202 40.5852C110.766 39.7424 110.548 38.7457 110.548 37.5952C110.548 36.473 110.766 35.4882 111.202 34.6406C111.637 33.7931 112.25 33.1326 113.041 32.6591C113.837 32.1856 114.769 31.9489 115.839 31.9489C116.559 31.9489 117.229 32.0649 117.849 32.2969C118.474 32.5241 119.019 32.8674 119.483 33.3267C119.952 33.786 120.316 34.3636 120.577 35.0597C120.837 35.7509 120.967 36.5606 120.967 37.4886V38.3196H111.756V36.4446H118.119C118.119 36.009 118.025 35.6231 117.835 35.2869C117.646 34.9508 117.383 34.688 117.047 34.4986C116.715 34.3045 116.33 34.2074 115.889 34.2074C115.43 34.2074 115.023 34.3139 114.668 34.527C114.317 34.7353 114.043 35.017 113.844 35.3722C113.645 35.7225 113.543 36.1132 113.538 36.544V38.3267C113.538 38.8665 113.638 39.3329 113.837 39.7259C114.04 40.1188 114.327 40.4219 114.696 40.6349C115.065 40.848 115.503 40.9545 116.01 40.9545C116.346 40.9545 116.654 40.9072 116.933 40.8125C117.213 40.7178 117.452 40.5758 117.651 40.3864C117.849 40.197 118.001 39.965 118.105 39.6903L120.903 39.875C120.761 40.5473 120.47 41.1345 120.03 41.6364C119.594 42.1335 119.031 42.5218 118.339 42.8011C117.653 43.0758 116.86 43.2131 115.96 43.2131ZM32.5662 63.9105H35.4995C35.5137 64.2704 35.6747 64.5545 35.9824 64.7628C36.2902 64.9711 36.6879 65.0753 37.1756 65.0753C37.668 65.0753 38.0823 64.9616 38.4185 64.7344C38.7547 64.5024 38.9228 64.1709 38.9228 63.7401C38.9228 63.4749 38.8565 63.2453 38.7239 63.0511C38.5913 62.8523 38.4067 62.696 38.1699 62.5824C37.9332 62.4687 37.6586 62.4119 37.3461 62.4119H35.7765V60.4304H37.3461C37.8148 60.4304 38.1747 60.3215 38.4256 60.1037C38.6813 59.8859 38.8091 59.6136 38.8091 59.2869C38.8091 58.9176 38.6766 58.6217 38.4114 58.3991C38.151 58.1719 37.7982 58.0582 37.3532 58.0582C36.9033 58.0582 36.5293 58.16 36.231 58.3636C35.9374 58.5625 35.7859 58.8229 35.7765 59.1449H32.8574C32.8669 58.4915 33.0634 57.9257 33.4469 57.4474C33.8352 56.9692 34.356 56.5999 35.0094 56.3395C35.6676 56.0791 36.4038 55.9489 37.2182 55.9489C38.1084 55.9489 38.8754 56.0743 39.5194 56.3253C40.168 56.5715 40.6652 56.9242 41.0108 57.3835C41.3612 57.8428 41.5364 58.3897 41.5364 59.0241C41.5364 59.6018 41.347 60.0848 40.9682 60.473C40.5894 60.8613 40.0591 61.1383 39.3773 61.304V61.4176C39.8271 61.446 40.2343 61.5668 40.5989 61.7798C40.9635 61.9929 41.2547 62.2865 41.4725 62.6605C41.6903 63.0298 41.7992 63.4678 41.7992 63.9744C41.7992 64.6515 41.6003 65.2315 41.2026 65.7145C40.8096 66.1974 40.2651 66.5691 39.5691 66.8295C38.8778 67.0852 38.0847 67.2131 37.1898 67.2131C36.3186 67.2131 35.5373 67.0876 34.8461 66.8366C34.1595 66.581 33.6126 66.2069 33.2054 65.7145C32.803 65.2221 32.5899 64.6207 32.5662 63.9105ZM46.7654 67.206C46.0694 67.206 45.4492 67.0852 44.9047 66.8438C44.3601 66.5975 43.9293 66.2353 43.612 65.7571C43.2995 65.2741 43.1433 64.6728 43.1433 63.9531C43.1433 63.3471 43.2546 62.8381 43.4771 62.4261C43.6996 62.0142 44.0027 61.6828 44.3862 61.4318C44.7697 61.1809 45.2053 60.9915 45.693 60.8636C46.1854 60.7358 46.7015 60.6458 47.2413 60.5938C47.8758 60.5275 48.3871 60.4659 48.7754 60.4091C49.1636 60.3475 49.4454 60.2576 49.6206 60.1392C49.7958 60.0208 49.8833 59.8456 49.8833 59.6136V59.571C49.8833 59.1212 49.7413 58.7732 49.4572 58.527C49.1779 58.2808 48.7801 58.1577 48.264 58.1577C47.7195 58.1577 47.2863 58.2784 46.9643 58.5199C46.6423 58.7566 46.4293 59.0549 46.3251 59.4148L43.5268 59.1875C43.6689 58.5246 43.9482 57.9517 44.3649 57.4688C44.7815 56.9811 45.319 56.607 45.9771 56.3466C46.64 56.0814 47.407 55.9489 48.2782 55.9489C48.8843 55.9489 49.4643 56.0199 50.0183 56.1619C50.577 56.304 51.0718 56.5241 51.5027 56.8224C51.9383 57.1207 52.2815 57.5043 52.5325 57.973C52.7834 58.437 52.9089 58.9934 52.9089 59.642V67H50.0396V65.4872H49.9544C49.7792 65.8281 49.5448 66.1288 49.2512 66.3892C48.9577 66.6449 48.6049 66.8461 48.193 66.9929C47.7811 67.1349 47.3052 67.206 46.7654 67.206ZM47.6319 65.1179C48.077 65.1179 48.47 65.0303 48.8109 64.8551C49.1518 64.6752 49.4193 64.4337 49.6135 64.1307C49.8076 63.8277 49.9047 63.4844 49.9047 63.1009V61.9432C49.81 62.0047 49.6797 62.0616 49.514 62.1136C49.353 62.161 49.1708 62.206 48.9672 62.2486C48.7636 62.2865 48.56 62.322 48.3564 62.3551C48.1528 62.3835 47.9681 62.4096 47.8024 62.4332C47.4473 62.4853 47.1371 62.5682 46.872 62.6818C46.6068 62.7955 46.4009 62.9493 46.2541 63.1435C46.1073 63.3329 46.0339 63.5696 46.0339 63.8537C46.0339 64.2656 46.1831 64.5805 46.4814 64.7983C46.7844 65.0114 47.1679 65.1179 47.6319 65.1179ZM61.6483 67V58.4631H59.6028C59.0488 58.4631 58.6274 58.5909 58.3386 58.8466C58.0498 59.1023 57.9077 59.4053 57.9125 59.7557C57.9077 60.1108 58.045 60.4115 58.3244 60.6577C58.6085 60.8991 59.0252 61.0199 59.5744 61.0199H62.6568V63.0653H59.5744C58.6416 63.0653 57.8343 62.9233 57.1525 62.6392C56.4707 62.3551 55.9451 61.9598 55.5758 61.4531C55.2065 60.9418 55.0242 60.3475 55.0289 59.6705C55.0242 58.9602 55.2065 58.3376 55.5758 57.8026C55.9451 57.2628 56.4731 56.8437 57.1596 56.5455C57.8509 56.2424 58.6653 56.0909 59.6028 56.0909H64.4679V67H61.6483ZM54.7164 67L57.7491 61.3182H60.6397L57.6142 67H54.7164ZM66.8187 67V56.0909H71.4707C72.8154 56.0909 73.8784 56.3466 74.6596 56.858C75.4409 57.3693 75.8315 58.0961 75.8315 59.0384C75.8315 59.6302 75.6113 60.1226 75.171 60.5156C74.7306 60.9086 74.1199 61.1738 73.3386 61.3111C73.992 61.3584 74.5484 61.5076 75.0076 61.7585C75.4717 62.0047 75.8244 62.3243 76.0659 62.7173C76.3121 63.1103 76.4352 63.5459 76.4352 64.0241C76.4352 64.6444 76.2695 65.1771 75.938 65.6222C75.6113 66.0672 75.1307 66.4081 74.4963 66.6449C73.8665 66.8816 73.0971 67 72.188 67H66.8187ZM69.6383 64.7344H72.188C72.6094 64.7344 72.9385 64.6349 73.1752 64.4361C73.4167 64.2325 73.5375 63.9555 73.5375 63.6051C73.5375 63.2169 73.4167 62.9115 73.1752 62.6889C72.9385 62.4664 72.6094 62.3551 72.188 62.3551H69.6383V64.7344ZM69.6383 60.5795H71.5346C71.8377 60.5795 72.0957 60.5369 72.3088 60.4517C72.5266 60.3617 72.6923 60.2339 72.8059 60.0682C72.9243 59.9025 72.9835 59.706 72.9835 59.4787C72.9835 59.1425 72.8485 58.8797 72.5787 58.6903C72.3088 58.5009 71.9395 58.4062 71.4707 58.4062H69.6383V60.5795ZM78.3422 67V56.0909H81.3677V60.3239H82.22L85.1887 56.0909H88.7399L84.8833 61.5028L88.7825 67H85.1887L82.497 63.1293H81.3677V67H78.3422ZM92.9515 63.0085L96.8791 56.0909H99.862V67H96.9785V60.0611L93.0652 67H90.0609V56.0909H92.9515V63.0085Z" fill="black"/>
<path d="M294.064 19L289.391 12.7997H288.339V19H285.264V4.45455H288.339V10.2642H288.957L293.787 4.45455H297.615L291.94 11.2017L297.878 19H294.064ZM303.496 19.2131C302.393 19.2131 301.438 18.9787 300.634 18.5099C299.833 18.0365 299.215 17.3783 298.78 16.5355C298.344 15.688 298.126 14.7055 298.126 13.5881C298.126 12.4612 298.344 11.4763 298.78 10.6335C299.215 9.78598 299.833 9.12784 300.634 8.65909C301.438 8.18561 302.393 7.94886 303.496 7.94886C304.599 7.94886 305.551 8.18561 306.351 8.65909C307.156 9.12784 307.776 9.78598 308.212 10.6335C308.647 11.4763 308.865 12.4612 308.865 13.5881C308.865 14.7055 308.647 15.688 308.212 16.5355C307.776 17.3783 307.156 18.0365 306.351 18.5099C305.551 18.9787 304.599 19.2131 303.496 19.2131ZM303.51 16.8693C304.012 16.8693 304.431 16.7273 304.767 16.4432C305.103 16.1544 305.357 15.7614 305.527 15.2642C305.702 14.767 305.79 14.2012 305.79 13.5668C305.79 12.9323 305.702 12.3665 305.527 11.8693C305.357 11.3722 305.103 10.9792 304.767 10.6903C304.431 10.4015 304.012 10.2571 303.51 10.2571C303.003 10.2571 302.577 10.4015 302.232 10.6903C301.891 10.9792 301.633 11.3722 301.457 11.8693C301.287 12.3665 301.202 12.9323 301.202 13.5668C301.202 14.2012 301.287 14.767 301.457 15.2642C301.633 15.7614 301.891 16.1544 302.232 16.4432C302.577 16.7273 303.003 16.8693 303.51 16.8693ZM318.425 12.3381V14.7173H312.729V12.3381H318.425ZM313.723 8.09091V19H310.832V8.09091H313.723ZM320.321 8.09091V19H317.452V8.09091H320.321ZM327.597 19.2131C326.48 19.2131 325.519 18.9763 324.714 18.5028C323.914 18.0246 323.298 17.3617 322.867 16.5142C322.441 15.6667 322.228 14.6913 322.228 13.5881C322.228 12.4706 322.443 11.4905 322.874 10.6477C323.31 9.80019 323.928 9.13968 324.728 8.66619C325.528 8.18797 326.48 7.94886 327.583 7.94886C328.535 7.94886 329.368 8.12169 330.083 8.46733C330.798 8.81297 331.364 9.2983 331.781 9.9233C332.197 10.5483 332.427 11.2822 332.469 12.125H329.614C329.534 11.5805 329.321 11.1425 328.975 10.8111C328.634 10.4749 328.187 10.3068 327.633 10.3068C327.164 10.3068 326.754 10.4347 326.404 10.6903C326.058 10.9413 325.789 11.3082 325.594 11.7912C325.4 12.2741 325.303 12.8589 325.303 13.5455C325.303 14.2415 325.398 14.8333 325.587 15.321C325.781 15.8087 326.054 16.1804 326.404 16.4361C326.754 16.6918 327.164 16.8196 327.633 16.8196C327.978 16.8196 328.289 16.7486 328.563 16.6065C328.843 16.4645 329.072 16.2585 329.252 15.9886C329.437 15.714 329.558 15.3849 329.614 15.0014H332.469C332.422 15.8348 332.195 16.5687 331.788 17.2031C331.385 17.8329 330.829 18.3253 330.119 18.6804C329.408 19.0355 328.568 19.2131 327.597 19.2131ZM336.275 23.0909C335.891 23.0909 335.531 23.0601 335.195 22.9986C334.864 22.9418 334.589 22.8684 334.371 22.7784L335.053 20.5199C335.408 20.6288 335.728 20.688 336.012 20.6974C336.301 20.7069 336.549 20.6406 336.757 20.4986C336.971 20.3565 337.143 20.1151 337.276 19.7741L337.453 19.3125L333.54 8.09091H336.722L338.98 16.1023H339.094L341.374 8.09091H344.577L340.337 20.179C340.133 20.7661 339.856 21.2775 339.506 21.7131C339.16 22.1534 338.722 22.492 338.192 22.7287C337.662 22.9702 337.023 23.0909 336.275 23.0909ZM344.607 19L344.593 16.5994H344.955C345.211 16.5994 345.431 16.5379 345.616 16.4148C345.805 16.2869 345.961 16.081 346.085 15.7969C346.208 15.5128 346.305 15.1364 346.376 14.6676C346.447 14.1941 346.494 13.6117 346.518 12.9205L346.695 8.09091H354.991V19H352.107V10.4702H349.415L349.245 13.8011C349.202 14.715 349.091 15.5009 348.911 16.1591C348.736 16.8172 348.492 17.357 348.18 17.7784C347.867 18.1951 347.491 18.5028 347.05 18.7017C346.61 18.9006 346.099 19 345.516 19H344.607ZM359.233 11.4432H362.493C363.937 11.4432 365.064 11.7888 365.873 12.4801C366.683 13.1667 367.088 14.0852 367.088 15.2358C367.088 15.9839 366.905 16.642 366.541 17.2102C366.176 17.7737 365.651 18.214 364.964 18.5312C364.278 18.8438 363.454 19 362.493 19H357.336V8.09091H360.227V16.6207H362.493C362.999 16.6207 363.416 16.4929 363.743 16.2372C364.069 15.9815 364.235 15.6548 364.24 15.2571C364.235 14.8357 364.069 14.4924 363.743 14.2273C363.416 13.9574 362.999 13.8224 362.493 13.8224H359.233V11.4432ZM367.393 10.4702V8.09091H377.279V10.4702H373.764V19H370.88V10.4702H367.393ZM381.834 19.206C381.138 19.206 380.518 19.0852 379.973 18.8438C379.429 18.5975 378.998 18.2353 378.68 17.7571C378.368 17.2741 378.212 16.6728 378.212 15.9531C378.212 15.3471 378.323 14.8381 378.545 14.4261C378.768 14.0142 379.071 13.6828 379.455 13.4318C379.838 13.1809 380.274 12.9915 380.761 12.8636C381.254 12.7358 381.77 12.6458 382.31 12.5938C382.944 12.5275 383.455 12.4659 383.844 12.4091C384.232 12.3475 384.514 12.2576 384.689 12.1392C384.864 12.0208 384.952 11.8456 384.952 11.6136V11.571C384.952 11.1212 384.81 10.7732 384.526 10.527C384.246 10.2808 383.848 10.1577 383.332 10.1577C382.788 10.1577 382.355 10.2784 382.033 10.5199C381.711 10.7566 381.498 11.0549 381.393 11.4148L378.595 11.1875C378.737 10.5246 379.017 9.9517 379.433 9.46875C379.85 8.98106 380.387 8.60701 381.045 8.34659C381.708 8.08144 382.475 7.94886 383.347 7.94886C383.953 7.94886 384.533 8.01989 385.087 8.16193C385.645 8.30398 386.14 8.52415 386.571 8.82244C387.007 9.12074 387.35 9.50426 387.601 9.97301C387.852 10.437 387.977 10.9934 387.977 11.642V19H385.108V17.4872H385.023C384.848 17.8281 384.613 18.1288 384.32 18.3892C384.026 18.6449 383.673 18.8461 383.261 18.9929C382.849 19.1349 382.374 19.206 381.834 19.206ZM382.7 17.1179C383.145 17.1179 383.538 17.0303 383.879 16.8551C384.22 16.6752 384.488 16.4337 384.682 16.1307C384.876 15.8277 384.973 15.4844 384.973 15.1009V13.9432C384.878 14.0047 384.748 14.0616 384.582 14.1136C384.421 14.161 384.239 14.206 384.036 14.2486C383.832 14.2865 383.628 14.322 383.425 14.3551C383.221 14.3835 383.036 14.4096 382.871 14.4332C382.516 14.4853 382.205 14.5682 381.94 14.6818C381.675 14.7955 381.469 14.9493 381.322 15.1435C381.176 15.3329 381.102 15.5696 381.102 15.8537C381.102 16.2656 381.251 16.5805 381.55 16.7983C381.853 17.0114 382.236 17.1179 382.7 17.1179ZM399.863 8.09091V16.9119H401.603V22.5085H398.663V19H390.325V8.09091H393.215V16.6207H397.008V8.09091H399.863ZM406.36 15.0085L410.287 8.09091H413.27V19H410.387V12.0611L406.473 19H403.469V8.09091H406.36V15.0085ZM422.088 19V10.4631H420.042C419.488 10.4631 419.067 10.5909 418.778 10.8466C418.489 11.1023 418.347 11.4053 418.352 11.7557C418.347 12.1108 418.484 12.4115 418.764 12.6577C419.048 12.8991 419.465 13.0199 420.014 13.0199H423.096V15.0653H420.014C419.081 15.0653 418.274 14.9233 417.592 14.6392C416.91 14.3551 416.385 13.9598 416.015 13.4531C415.646 12.9418 415.464 12.3475 415.468 11.6705C415.464 10.9602 415.646 10.3376 416.015 9.80256C416.385 9.26278 416.913 8.84375 417.599 8.54545C418.29 8.24242 419.105 8.09091 420.042 8.09091H424.907V19H422.088ZM415.156 19L418.189 13.3182H421.079L418.054 19H415.156Z" fill="black"/>
<path d="M605.706 28.4545V43H602.666V30.9545H596.785V43H593.745V28.4545H605.706ZM613.506 43.2131C612.402 43.2131 611.448 42.9787 610.643 42.5099C609.843 42.0365 609.225 41.3783 608.79 40.5355C608.354 39.688 608.136 38.7055 608.136 37.5881C608.136 36.4612 608.354 35.4763 608.79 34.6335C609.225 33.786 609.843 33.1278 610.643 32.6591C611.448 32.1856 612.402 31.9489 613.506 31.9489C614.609 31.9489 615.561 32.1856 616.361 32.6591C617.166 33.1278 617.786 33.786 618.222 34.6335C618.657 35.4763 618.875 36.4612 618.875 37.5881C618.875 38.7055 618.657 39.688 618.222 40.5355C617.786 41.3783 617.166 42.0365 616.361 42.5099C615.561 42.9787 614.609 43.2131 613.506 43.2131ZM613.52 40.8693C614.022 40.8693 614.441 40.7273 614.777 40.4432C615.113 40.1544 615.366 39.7614 615.537 39.2642C615.712 38.767 615.8 38.2012 615.8 37.5668C615.8 36.9323 615.712 36.3665 615.537 35.8693C615.366 35.3722 615.113 34.9792 614.777 34.6903C614.441 34.4015 614.022 34.2571 613.52 34.2571C613.013 34.2571 612.587 34.4015 612.241 34.6903C611.901 34.9792 611.642 35.3722 611.467 35.8693C611.297 36.3665 611.212 36.9323 611.212 37.5668C611.212 38.2012 611.297 38.767 611.467 39.2642C611.642 39.7614 611.901 40.1544 612.241 40.4432C612.587 40.7273 613.013 40.8693 613.52 40.8693ZM619.99 46.196V40.5994H620.828C621.07 40.4479 621.264 40.2064 621.41 39.875C621.562 39.5436 621.685 39.1529 621.78 38.7031C621.879 38.2533 621.955 37.768 622.007 37.2472C622.064 36.7216 622.114 36.1913 622.156 35.6562L622.44 32.0909H630.807V40.5994H632.497V46.196H629.614V43H622.945V46.196H619.99ZM623.839 40.5994H627.952V34.4205H625.011L624.898 35.6562C624.817 36.821 624.701 37.8106 624.55 38.625C624.398 39.4347 624.161 40.0928 623.839 40.5994ZM641.732 32.0909V34.4702H637.201V43H634.26V32.0909H641.732ZM648.115 43.2131C647.012 43.2131 646.058 42.9787 645.253 42.5099C644.453 42.0365 643.835 41.3783 643.399 40.5355C642.964 39.688 642.746 38.7055 642.746 37.5881C642.746 36.4612 642.964 35.4763 643.399 34.6335C643.835 33.786 644.453 33.1278 645.253 32.6591C646.058 32.1856 647.012 31.9489 648.115 31.9489C649.218 31.9489 650.17 32.1856 650.97 32.6591C651.775 33.1278 652.395 33.786 652.831 34.6335C653.267 35.4763 653.484 36.4612 653.484 37.5881C653.484 38.7055 653.267 39.688 652.831 40.5355C652.395 41.3783 651.775 42.0365 650.97 42.5099C650.17 42.9787 649.218 43.2131 648.115 43.2131ZM648.129 40.8693C648.631 40.8693 649.05 40.7273 649.386 40.4432C649.722 40.1544 649.976 39.7614 650.146 39.2642C650.321 38.767 650.409 38.2012 650.409 37.5668C650.409 36.9323 650.321 36.3665 650.146 35.8693C649.976 35.3722 649.722 34.9792 649.386 34.6903C649.05 34.4015 648.631 34.2571 648.129 34.2571C647.623 34.2571 647.196 34.4015 646.851 34.6903C646.51 34.9792 646.252 35.3722 646.077 35.8693C645.906 36.3665 645.821 36.9323 645.821 37.5668C645.821 38.2012 645.906 38.767 646.077 39.2642C646.252 39.7614 646.51 40.1544 646.851 40.4432C647.196 40.7273 647.623 40.8693 648.129 40.8693ZM654.395 34.4702V32.0909H664.282V34.4702H660.766V43H657.882V34.4702H654.395ZM670.654 43.2131C669.551 43.2131 668.597 42.9787 667.792 42.5099C666.992 42.0365 666.374 41.3783 665.938 40.5355C665.503 39.688 665.285 38.7055 665.285 37.5881C665.285 36.4612 665.503 35.4763 665.938 34.6335C666.374 33.786 666.992 33.1278 667.792 32.6591C668.597 32.1856 669.551 31.9489 670.654 31.9489C671.757 31.9489 672.709 32.1856 673.509 32.6591C674.314 33.1278 674.934 33.786 675.37 34.6335C675.806 35.4763 676.023 36.4612 676.023 37.5881C676.023 38.7055 675.806 39.688 675.37 40.5355C674.934 41.3783 674.314 42.0365 673.509 42.5099C672.709 42.9787 671.757 43.2131 670.654 43.2131ZM670.668 40.8693C671.17 40.8693 671.589 40.7273 671.925 40.4432C672.262 40.1544 672.515 39.7614 672.685 39.2642C672.861 38.767 672.948 38.2012 672.948 37.5668C672.948 36.9323 672.861 36.3665 672.685 35.8693C672.515 35.3722 672.262 34.9792 671.925 34.6903C671.589 34.4015 671.17 34.2571 670.668 34.2571C670.162 34.2571 669.736 34.4015 669.39 34.6903C669.049 34.9792 668.791 35.3722 668.616 35.8693C668.445 36.3665 668.36 36.9323 668.36 37.5668C668.36 38.2012 668.445 38.767 668.616 39.2642C668.791 39.7614 669.049 40.1544 669.39 40.4432C669.736 40.7273 670.162 40.8693 670.668 40.8693ZM677.991 43V32.0909H682.643C683.987 32.0909 685.05 32.3466 685.832 32.858C686.613 33.3693 687.004 34.0961 687.004 35.0384C687.004 35.6302 686.783 36.1226 686.343 36.5156C685.903 36.9086 685.292 37.1738 684.511 37.3111C685.164 37.3584 685.72 37.5076 686.18 37.7585C686.644 38.0047 686.996 38.3243 687.238 38.7173C687.484 39.1103 687.607 39.5459 687.607 40.0241C687.607 40.6444 687.441 41.1771 687.11 41.6222C686.783 42.0672 686.303 42.4081 685.668 42.6449C685.039 42.8816 684.269 43 683.36 43H677.991ZM680.81 40.7344H683.36C683.781 40.7344 684.111 40.6349 684.347 40.4361C684.589 40.2325 684.709 39.9555 684.709 39.6051C684.709 39.2169 684.589 38.9115 684.347 38.6889C684.111 38.4664 683.781 38.3551 683.36 38.3551H680.81V40.7344ZM680.81 36.5795H682.707C683.01 36.5795 683.268 36.5369 683.481 36.4517C683.699 36.3617 683.864 36.2339 683.978 36.0682C684.096 35.9025 684.155 35.706 684.155 35.4787C684.155 35.1425 684.021 34.8797 683.751 34.6903C683.481 34.5009 683.111 34.4062 682.643 34.4062H680.81V36.5795ZM689.514 43V32.0909H692.54V36.3239H693.392L696.361 32.0909H699.912L696.055 37.5028L699.955 43H696.361L693.669 39.1293H692.54V43H689.514ZM704.344 43.206C703.648 43.206 703.027 43.0852 702.483 42.8438C701.938 42.5975 701.508 42.2353 701.19 41.7571C700.878 41.2741 700.722 40.6728 700.722 39.9531C700.722 39.3471 700.833 38.8381 701.055 38.4261C701.278 38.0142 701.581 37.6828 701.964 37.4318C702.348 37.1809 702.784 36.9915 703.271 36.8636C703.764 36.7358 704.28 36.6458 704.82 36.5938C705.454 36.5275 705.965 36.4659 706.354 36.4091C706.742 36.3475 707.024 36.2576 707.199 36.1392C707.374 36.0208 707.462 35.8456 707.462 35.6136V35.571C707.462 35.1212 707.32 34.7732 707.035 34.527C706.756 34.2808 706.358 34.1577 705.842 34.1577C705.298 34.1577 704.865 34.2784 704.543 34.5199C704.221 34.7566 704.008 35.0549 703.903 35.4148L701.105 35.1875C701.247 34.5246 701.526 33.9517 701.943 33.4688C702.36 32.9811 702.897 32.607 703.555 32.3466C704.218 32.0814 704.985 31.9489 705.856 31.9489C706.463 31.9489 707.043 32.0199 707.597 32.1619C708.155 32.304 708.65 32.5241 709.081 32.8224C709.517 33.1207 709.86 33.5043 710.111 33.973C710.362 34.437 710.487 34.9934 710.487 35.642V43H707.618V41.4872H707.533C707.357 41.8281 707.123 42.1288 706.83 42.3892C706.536 42.6449 706.183 42.8461 705.771 42.9929C705.359 43.1349 704.883 43.206 704.344 43.206ZM705.21 41.1179C705.655 41.1179 706.048 41.0303 706.389 40.8551C706.73 40.6752 706.998 40.4337 707.192 40.1307C707.386 39.8277 707.483 39.4844 707.483 39.1009V37.9432C707.388 38.0047 707.258 38.0616 707.092 38.1136C706.931 38.161 706.749 38.206 706.545 38.2486C706.342 38.2865 706.138 38.322 705.935 38.3551C705.731 38.3835 705.546 38.4096 705.381 38.4332C705.026 38.4853 704.715 38.5682 704.45 38.6818C704.185 38.7955 703.979 38.9493 703.832 39.1435C703.686 39.3329 703.612 39.5696 703.612 39.8537C703.612 40.2656 703.761 40.5805 704.06 40.7983C704.363 41.0114 704.746 41.1179 705.21 41.1179ZM590.976 70.196V64.5994H591.814C592.056 64.4479 592.25 64.2064 592.397 63.875C592.548 63.5436 592.671 63.1529 592.766 62.7031C592.866 62.2533 592.941 61.768 592.993 61.2472C593.05 60.7216 593.1 60.1913 593.143 59.6562L593.427 56.0909H601.793V64.5994H603.483V70.196H600.6V67H593.931V70.196H590.976ZM594.826 64.5994H598.938V58.4205H595.998L595.884 59.6562C595.804 60.821 595.688 61.8106 595.536 62.625C595.384 63.4347 595.148 64.0928 594.826 64.5994ZM610.176 67.2131C609.072 67.2131 608.118 66.9787 607.313 66.5099C606.513 66.0365 605.895 65.3783 605.46 64.5355C605.024 63.688 604.806 62.7055 604.806 61.5881C604.806 60.4612 605.024 59.4763 605.46 58.6335C605.895 57.786 606.513 57.1278 607.313 56.6591C608.118 56.1856 609.072 55.9489 610.176 55.9489C611.279 55.9489 612.23 56.1856 613.031 56.6591C613.836 57.1278 614.456 57.786 614.891 58.6335C615.327 59.4763 615.545 60.4612 615.545 61.5881C615.545 62.7055 615.327 63.688 614.891 64.5355C614.456 65.3783 613.836 66.0365 613.031 66.5099C612.23 66.9787 611.279 67.2131 610.176 67.2131ZM610.19 64.8693C610.692 64.8693 611.111 64.7273 611.447 64.4432C611.783 64.1544 612.036 63.7614 612.207 63.2642C612.382 62.767 612.47 62.2012 612.47 61.5668C612.47 60.9323 612.382 60.3665 612.207 59.8693C612.036 59.3722 611.783 58.9792 611.447 58.6903C611.111 58.4015 610.692 58.2571 610.19 58.2571C609.683 58.2571 609.257 58.4015 608.911 58.6903C608.57 58.9792 608.312 59.3722 608.137 59.8693C607.967 60.3665 607.882 60.9323 607.882 61.5668C607.882 62.2012 607.967 62.767 608.137 63.2642C608.312 63.7614 608.57 64.1544 608.911 64.4432C609.257 64.7273 609.683 64.8693 610.19 64.8693ZM617.512 67V56.0909H620.538V60.3239H621.39L624.359 56.0909H627.91L624.053 61.5028L627.953 67H624.359L621.667 63.1293H620.538V67H617.512ZM631.275 71.0909C630.891 71.0909 630.531 71.0601 630.195 70.9986C629.864 70.9418 629.589 70.8684 629.371 70.7784L630.053 68.5199C630.408 68.6288 630.728 68.688 631.012 68.6974C631.301 68.7069 631.549 68.6406 631.758 68.4986C631.971 68.3565 632.143 68.1151 632.276 67.7741L632.454 67.3125L628.54 56.0909H631.722L633.981 64.1023H634.094L636.374 56.0909H639.577L635.337 68.179C635.134 68.7661 634.857 69.2775 634.506 69.7131C634.161 70.1534 633.723 70.492 633.192 70.7287C632.662 70.9702 632.023 71.0909 631.275 71.0909ZM647.574 63.6548L650.529 56.0909H652.83L648.576 67H646.566L642.411 56.0909H644.705L647.574 63.6548ZM644.016 56.0909V67H641.125V56.0909H644.016ZM651.282 67V56.0909H654.137V67H651.282ZM661.449 67.2131C660.326 67.2131 659.361 66.9858 658.551 66.5312C657.746 66.072 657.126 65.4233 656.69 64.5852C656.255 63.7424 656.037 62.7457 656.037 61.5952C656.037 60.473 656.255 59.4882 656.69 58.6406C657.126 57.7931 657.739 57.1326 658.53 56.6591C659.325 56.1856 660.258 55.9489 661.328 55.9489C662.048 55.9489 662.718 56.0649 663.338 56.2969C663.963 56.5241 664.507 56.8674 664.971 57.3267C665.44 57.786 665.805 58.3636 666.065 59.0597C666.326 59.7509 666.456 60.5606 666.456 61.4886V62.3196H657.244V60.4446H663.608C663.608 60.009 663.513 59.6231 663.324 59.2869C663.134 58.9508 662.871 58.688 662.535 58.4986C662.204 58.3045 661.818 58.2074 661.378 58.2074C660.918 58.2074 660.511 58.3139 660.156 58.527C659.806 58.7353 659.531 59.017 659.332 59.3722C659.133 59.7225 659.032 60.1132 659.027 60.544V62.3267C659.027 62.8665 659.126 63.3329 659.325 63.7259C659.529 64.1188 659.815 64.4219 660.184 64.6349C660.554 64.848 660.992 64.9545 661.498 64.9545C661.835 64.9545 662.142 64.9072 662.422 64.8125C662.701 64.7178 662.94 64.5758 663.139 64.3864C663.338 64.197 663.489 63.965 663.594 63.6903L666.392 63.875C666.25 64.5473 665.959 65.1345 665.518 65.6364C665.083 66.1335 664.519 66.5218 663.828 66.8011C663.141 67.0758 662.348 67.2131 661.449 67.2131ZM676.023 60.3381V62.7173H670.326V60.3381H676.023ZM671.321 56.0909V67H668.43V56.0909H671.321ZM677.919 56.0909V67H675.049V56.0909H677.919ZM679.171 58.4702V56.0909H689.057V58.4702H685.541V67H682.658V58.4702H679.171ZM695.429 67.2131C694.326 67.2131 693.372 66.9787 692.567 66.5099C691.767 66.0365 691.149 65.3783 690.714 64.5355C690.278 63.688 690.06 62.7055 690.06 61.5881C690.06 60.4612 690.278 59.4763 690.714 58.6335C691.149 57.786 691.767 57.1278 692.567 56.6591C693.372 56.1856 694.326 55.9489 695.429 55.9489C696.533 55.9489 697.484 56.1856 698.285 56.6591C699.09 57.1278 699.71 57.786 700.145 58.6335C700.581 59.4763 700.799 60.4612 700.799 61.5881C700.799 62.7055 700.581 63.688 700.145 64.5355C699.71 65.3783 699.09 66.0365 698.285 66.5099C697.484 66.9787 696.533 67.2131 695.429 67.2131ZM695.444 64.8693C695.946 64.8693 696.365 64.7273 696.701 64.4432C697.037 64.1544 697.29 63.7614 697.461 63.2642C697.636 62.767 697.724 62.2012 697.724 61.5668C697.724 60.9323 697.636 60.3665 697.461 59.8693C697.29 59.3722 697.037 58.9792 696.701 58.6903C696.365 58.4015 695.946 58.2571 695.444 58.2571C694.937 58.2571 694.511 58.4015 694.165 58.6903C693.824 58.9792 693.566 59.3722 693.391 59.8693C693.221 60.3665 693.135 60.9323 693.135 61.5668C693.135 62.2012 693.221 62.767 693.391 63.2642C693.566 63.7614 693.824 64.1544 694.165 64.4432C694.511 64.7273 694.937 64.8693 695.444 64.8693ZM702.766 67V56.0909H707.418C708.763 56.0909 709.826 56.3466 710.607 56.858C711.388 57.3693 711.779 58.0961 711.779 59.0384C711.779 59.6302 711.559 60.1226 711.118 60.5156C710.678 60.9086 710.067 61.1738 709.286 61.3111C709.939 61.3584 710.496 61.5076 710.955 61.7585C711.419 62.0047 711.772 62.3243 712.013 62.7173C712.259 63.1103 712.383 63.5459 712.383 64.0241C712.383 64.6444 712.217 65.1771 711.885 65.6222C711.559 66.0672 711.078 66.4081 710.444 66.6449C709.814 66.8816 709.045 67 708.135 67H702.766ZM705.586 64.7344H708.135C708.557 64.7344 708.886 64.6349 709.123 64.4361C709.364 64.2325 709.485 63.9555 709.485 63.6051C709.485 63.2169 709.364 62.9115 709.123 62.6889C708.886 62.4664 708.557 62.3551 708.135 62.3551H705.586V64.7344ZM705.586 60.5795H707.482C707.785 60.5795 708.043 60.5369 708.256 60.4517C708.474 60.3617 708.64 60.2339 708.753 60.0682C708.872 59.9025 708.931 59.706 708.931 59.4787C708.931 59.1425 708.796 58.8797 708.526 58.6903C708.256 58.5009 707.887 58.4062 707.418 58.4062H705.586V60.5795Z" fill="black"/>
<path d="M535.309 365.199C534.248 365.199 533.303 365.017 532.475 364.652C531.651 364.283 531 363.776 530.522 363.132C530.048 362.483 529.804 361.735 529.79 360.888H532.887C532.906 361.243 533.022 361.555 533.235 361.825C533.453 362.09 533.741 362.296 534.101 362.443C534.461 362.59 534.866 362.663 535.316 362.663C535.784 362.663 536.199 362.58 536.559 362.415C536.918 362.249 537.2 362.019 537.404 361.726C537.607 361.432 537.709 361.094 537.709 360.71C537.709 360.322 537.6 359.979 537.383 359.68C537.169 359.377 536.862 359.141 536.459 358.97C536.061 358.8 535.588 358.714 535.039 358.714H533.682V356.456H535.039C535.503 356.456 535.912 356.375 536.267 356.214C536.627 356.054 536.907 355.831 537.106 355.547C537.304 355.258 537.404 354.922 537.404 354.538C537.404 354.174 537.316 353.854 537.141 353.58C536.971 353.3 536.729 353.082 536.417 352.926C536.109 352.77 535.749 352.692 535.337 352.692C534.92 352.692 534.539 352.768 534.194 352.919C533.848 353.066 533.571 353.277 533.363 353.551C533.154 353.826 533.043 354.148 533.029 354.517H530.081C530.096 353.679 530.335 352.94 530.799 352.301C531.263 351.662 531.888 351.162 532.674 350.803C533.464 350.438 534.357 350.256 535.351 350.256C536.355 350.256 537.233 350.438 537.986 350.803C538.739 351.167 539.324 351.66 539.74 352.28C540.162 352.895 540.37 353.587 540.365 354.354C540.37 355.168 540.117 355.848 539.606 356.392C539.099 356.937 538.438 357.282 537.624 357.429V357.543C538.694 357.68 539.508 358.052 540.067 358.658C540.631 359.259 540.91 360.012 540.905 360.916C540.91 361.745 540.671 362.481 540.188 363.125C539.71 363.769 539.049 364.276 538.206 364.645C537.364 365.014 536.398 365.199 535.309 365.199ZM546.255 365.206C545.559 365.206 544.939 365.085 544.394 364.844C543.85 364.598 543.419 364.235 543.102 363.757C542.789 363.274 542.633 362.673 542.633 361.953C542.633 361.347 542.744 360.838 542.967 360.426C543.189 360.014 543.492 359.683 543.876 359.432C544.259 359.181 544.695 358.991 545.183 358.864C545.675 358.736 546.191 358.646 546.731 358.594C547.365 358.527 547.877 358.466 548.265 358.409C548.653 358.348 548.935 358.258 549.11 358.139C549.285 358.021 549.373 357.846 549.373 357.614V357.571C549.373 357.121 549.231 356.773 548.947 356.527C548.667 356.281 548.27 356.158 547.754 356.158C547.209 356.158 546.776 356.278 546.454 356.52C546.132 356.757 545.919 357.055 545.815 357.415L543.016 357.188C543.158 356.525 543.438 355.952 543.854 355.469C544.271 354.981 544.809 354.607 545.467 354.347C546.13 354.081 546.897 353.949 547.768 353.949C548.374 353.949 548.954 354.02 549.508 354.162C550.067 354.304 550.561 354.524 550.992 354.822C551.428 355.121 551.771 355.504 552.022 355.973C552.273 356.437 552.398 356.993 552.398 357.642V365H549.529V363.487H549.444C549.269 363.828 549.034 364.129 548.741 364.389C548.447 364.645 548.095 364.846 547.683 364.993C547.271 365.135 546.795 365.206 546.255 365.206ZM547.121 363.118C547.567 363.118 547.96 363.03 548.3 362.855C548.641 362.675 548.909 362.434 549.103 362.131C549.297 361.828 549.394 361.484 549.394 361.101V359.943C549.3 360.005 549.169 360.062 549.004 360.114C548.843 360.161 548.66 360.206 548.457 360.249C548.253 360.286 548.05 360.322 547.846 360.355C547.642 360.384 547.458 360.41 547.292 360.433C546.937 360.485 546.627 360.568 546.362 360.682C546.096 360.795 545.89 360.949 545.744 361.143C545.597 361.333 545.523 361.57 545.523 361.854C545.523 362.266 545.673 362.58 545.971 362.798C546.274 363.011 546.657 363.118 547.121 363.118ZM554.746 365V354.091H557.771V358.324H558.624L561.592 354.091H565.144L561.287 359.503L565.186 365H561.592L558.901 361.129H557.771V365H554.746ZM565.825 365L565.811 362.599H566.173C566.429 362.599 566.649 362.538 566.834 362.415C567.023 362.287 567.179 362.081 567.303 361.797C567.426 361.513 567.523 361.136 567.594 360.668C567.665 360.194 567.712 359.612 567.736 358.92L567.913 354.091H576.209V365H573.325V356.47H570.634L570.463 359.801C570.421 360.715 570.309 361.501 570.129 362.159C569.954 362.817 569.71 363.357 569.398 363.778C569.085 364.195 568.709 364.503 568.269 364.702C567.828 364.901 567.317 365 566.734 365H565.825ZM584.584 358.402V360.803H578.668V358.402H584.584ZM581.005 354.091V365H577.986V354.091H581.005ZM587.851 365.213C586.772 365.213 585.839 364.972 585.053 364.489C584.267 364.006 583.661 363.338 583.235 362.486C582.813 361.634 582.603 360.656 582.603 359.553C582.603 358.449 582.813 357.476 583.235 356.634C583.661 355.791 584.267 355.133 585.053 354.659C585.839 354.186 586.772 353.949 587.851 353.949C588.936 353.949 589.868 354.186 590.65 354.659C591.436 355.133 592.039 355.791 592.461 356.634C592.887 357.476 593.1 358.449 593.1 359.553C593.1 360.656 592.887 361.634 592.461 362.486C592.039 363.338 591.436 364.006 590.65 364.489C589.868 364.972 588.936 365.213 587.851 365.213ZM587.851 362.77C588.415 362.77 588.869 362.633 589.215 362.358C589.561 362.079 589.814 361.697 589.975 361.214C590.136 360.727 590.216 360.173 590.216 359.553C590.216 358.932 590.136 358.383 589.975 357.905C589.814 357.422 589.561 357.043 589.215 356.768C588.869 356.494 588.415 356.357 587.851 356.357C587.293 356.357 586.838 356.494 586.488 356.768C586.137 357.038 585.879 357.412 585.713 357.891C585.552 358.369 585.472 358.923 585.472 359.553C585.472 360.178 585.552 360.732 585.713 361.214C585.879 361.697 586.137 362.079 586.488 362.358C586.838 362.633 587.293 362.77 587.851 362.77ZM604.623 354.091V365H601.754V354.091H604.623ZM603.224 358.878V361.264C602.992 361.368 602.703 361.468 602.358 361.562C602.012 361.652 601.65 361.726 601.271 361.783C600.892 361.839 600.537 361.868 600.206 361.868C598.638 361.868 597.405 361.546 596.505 360.902C595.606 360.253 595.156 359.219 595.156 357.798V354.077H598.011V357.798C598.011 358.22 598.082 358.554 598.224 358.8C598.371 359.046 598.603 359.223 598.92 359.332C599.242 359.437 599.671 359.489 600.206 359.489C600.703 359.489 601.191 359.437 601.669 359.332C602.147 359.228 602.665 359.077 603.224 358.878ZM611.944 365.213C610.822 365.213 609.856 364.986 609.046 364.531C608.241 364.072 607.621 363.423 607.185 362.585C606.75 361.742 606.532 360.746 606.532 359.595C606.532 358.473 606.75 357.488 607.185 356.641C607.621 355.793 608.234 355.133 609.025 354.659C609.82 354.186 610.753 353.949 611.823 353.949C612.543 353.949 613.213 354.065 613.833 354.297C614.458 354.524 615.003 354.867 615.467 355.327C615.935 355.786 616.3 356.364 616.56 357.06C616.821 357.751 616.951 358.561 616.951 359.489V360.32H607.739V358.445H614.103C614.103 358.009 614.008 357.623 613.819 357.287C613.63 356.951 613.367 356.688 613.031 356.499C612.699 356.304 612.313 356.207 611.873 356.207C611.414 356.207 611.006 356.314 610.651 356.527C610.301 356.735 610.026 357.017 609.827 357.372C609.629 357.723 609.527 358.113 609.522 358.544V360.327C609.522 360.866 609.621 361.333 609.82 361.726C610.024 362.119 610.31 362.422 610.68 362.635C611.049 362.848 611.487 362.955 611.994 362.955C612.33 362.955 612.638 362.907 612.917 362.812C613.196 362.718 613.435 362.576 613.634 362.386C613.833 362.197 613.985 361.965 614.089 361.69L616.887 361.875C616.745 362.547 616.454 363.134 616.014 363.636C615.578 364.134 615.014 364.522 614.323 364.801C613.637 365.076 612.844 365.213 611.944 365.213ZM626.518 358.338V360.717H620.822V358.338H626.518ZM621.816 354.091V365H618.925V354.091H621.816ZM628.414 354.091V365H625.545V354.091H628.414ZM633.652 361.009L637.58 354.091H640.563V365H637.679V358.061L633.766 365H630.761V354.091H633.652V361.009ZM647.96 365.213C646.837 365.213 645.871 364.986 645.062 364.531C644.257 364.072 643.637 363.423 643.201 362.585C642.765 361.742 642.548 360.746 642.548 359.595C642.548 358.473 642.765 357.488 643.201 356.641C643.637 355.793 644.25 355.133 645.041 354.659C645.836 354.186 646.769 353.949 647.839 353.949C648.559 353.949 649.228 354.065 649.849 354.297C650.474 354.524 651.018 354.867 651.482 355.327C651.951 355.786 652.316 356.364 652.576 357.06C652.836 357.751 652.967 358.561 652.967 359.489V360.32H643.755V358.445H650.119C650.119 358.009 650.024 357.623 649.835 357.287C649.645 356.951 649.382 356.688 649.046 356.499C648.715 356.304 648.329 356.207 647.889 356.207C647.429 356.207 647.022 356.314 646.667 356.527C646.317 356.735 646.042 357.017 645.843 357.372C645.644 357.723 645.542 358.113 645.538 358.544V360.327C645.538 360.866 645.637 361.333 645.836 361.726C646.04 362.119 646.326 362.422 646.695 362.635C647.065 362.848 647.503 362.955 648.009 362.955C648.345 362.955 648.653 362.907 648.933 362.812C649.212 362.718 649.451 362.576 649.65 362.386C649.849 362.197 650 361.965 650.104 361.69L652.903 361.875C652.761 362.547 652.469 363.134 652.029 363.636C651.594 364.134 651.03 364.522 650.339 364.801C649.652 365.076 648.859 365.213 647.96 365.213ZM544.138 392.196V386.599H544.976C545.217 386.448 545.411 386.206 545.558 385.875C545.71 385.544 545.833 385.153 545.927 384.703C546.027 384.253 546.103 383.768 546.155 383.247C546.212 382.722 546.261 382.191 546.304 381.656L546.588 378.091H554.954V386.599H556.645V392.196H553.761V389H547.092V392.196H544.138ZM547.987 386.599H552.099V380.42H549.159L549.045 381.656C548.965 382.821 548.849 383.811 548.697 384.625C548.546 385.435 548.309 386.093 547.987 386.599ZM563.337 389.213C562.234 389.213 561.28 388.979 560.475 388.51C559.674 388.036 559.057 387.378 558.621 386.536C558.185 385.688 557.968 384.705 557.968 383.588C557.968 382.461 558.185 381.476 558.621 380.634C559.057 379.786 559.674 379.128 560.475 378.659C561.28 378.186 562.234 377.949 563.337 377.949C564.44 377.949 565.392 378.186 566.192 378.659C566.997 379.128 567.617 379.786 568.053 380.634C568.488 381.476 568.706 382.461 568.706 383.588C568.706 384.705 568.488 385.688 568.053 386.536C567.617 387.378 566.997 388.036 566.192 388.51C565.392 388.979 564.44 389.213 563.337 389.213ZM563.351 386.869C563.853 386.869 564.272 386.727 564.608 386.443C564.944 386.154 565.198 385.761 565.368 385.264C565.543 384.767 565.631 384.201 565.631 383.567C565.631 382.932 565.543 382.366 565.368 381.869C565.198 381.372 564.944 380.979 564.608 380.69C564.272 380.402 563.853 380.257 563.351 380.257C562.844 380.257 562.418 380.402 562.073 380.69C561.732 380.979 561.474 381.372 561.299 381.869C561.128 382.366 561.043 382.932 561.043 383.567C561.043 384.201 561.128 384.767 561.299 385.264C561.474 385.761 561.732 386.154 562.073 386.443C562.418 386.727 562.844 386.869 563.351 386.869ZM578.145 378.091V380.47H573.614V389H570.674V378.091H578.145ZM584.528 389.213C583.425 389.213 582.471 388.979 581.666 388.51C580.866 388.036 580.248 387.378 579.812 386.536C579.377 385.688 579.159 384.705 579.159 383.588C579.159 382.461 579.377 381.476 579.812 380.634C580.248 379.786 580.866 379.128 581.666 378.659C582.471 378.186 583.425 377.949 584.528 377.949C585.631 377.949 586.583 378.186 587.383 378.659C588.188 379.128 588.809 379.786 589.244 380.634C589.68 381.476 589.898 382.461 589.898 383.588C589.898 384.705 589.68 385.688 589.244 386.536C588.809 387.378 588.188 388.036 587.383 388.51C586.583 388.979 585.631 389.213 584.528 389.213ZM584.542 386.869C585.044 386.869 585.463 386.727 585.8 386.443C586.136 386.154 586.389 385.761 586.56 385.264C586.735 384.767 586.822 384.201 586.822 383.567C586.822 382.932 586.735 382.366 586.56 381.869C586.389 381.372 586.136 380.979 585.8 380.69C585.463 380.402 585.044 380.257 584.542 380.257C584.036 380.257 583.61 380.402 583.264 380.69C582.923 380.979 582.665 381.372 582.49 381.869C582.319 382.366 582.234 382.932 582.234 383.567C582.234 384.201 582.319 384.767 582.49 385.264C582.665 385.761 582.923 386.154 583.264 386.443C583.61 386.727 584.036 386.869 584.542 386.869ZM591.865 389V378.091H596.517C597.862 378.091 598.925 378.347 599.706 378.858C600.487 379.369 600.878 380.096 600.878 381.038C600.878 381.63 600.658 382.123 600.217 382.516C599.777 382.909 599.166 383.174 598.385 383.311C599.038 383.358 599.595 383.508 600.054 383.759C600.518 384.005 600.871 384.324 601.112 384.717C601.358 385.11 601.481 385.546 601.481 386.024C601.481 386.644 601.316 387.177 600.984 387.622C600.658 388.067 600.177 388.408 599.542 388.645C598.913 388.882 598.143 389 597.234 389H591.865ZM594.685 386.734H597.234C597.656 386.734 597.985 386.635 598.221 386.436C598.463 386.232 598.584 385.955 598.584 385.605C598.584 385.217 598.463 384.911 598.221 384.689C597.985 384.466 597.656 384.355 597.234 384.355H594.685V386.734ZM594.685 382.58H596.581C596.884 382.58 597.142 382.537 597.355 382.452C597.573 382.362 597.739 382.234 597.852 382.068C597.971 381.902 598.03 381.706 598.03 381.479C598.03 381.143 597.895 380.88 597.625 380.69C597.355 380.501 596.986 380.406 596.517 380.406H594.685V382.58ZM608.317 389.213C607.214 389.213 606.26 388.979 605.455 388.51C604.655 388.036 604.037 387.378 603.601 386.536C603.166 385.688 602.948 384.705 602.948 383.588C602.948 382.461 603.166 381.476 603.601 380.634C604.037 379.786 604.655 379.128 605.455 378.659C606.26 378.186 607.214 377.949 608.317 377.949C609.421 377.949 610.372 378.186 611.172 378.659C611.977 379.128 612.598 379.786 613.033 380.634C613.469 381.476 613.687 382.461 613.687 383.588C613.687 384.705 613.469 385.688 613.033 386.536C612.598 387.378 611.977 388.036 611.172 388.51C610.372 388.979 609.421 389.213 608.317 389.213ZM608.332 386.869C608.833 386.869 609.252 386.727 609.589 386.443C609.925 386.154 610.178 385.761 610.349 385.264C610.524 384.767 610.611 384.201 610.611 383.567C610.611 382.932 610.524 382.366 610.349 381.869C610.178 381.372 609.925 380.979 609.589 380.69C609.252 380.402 608.833 380.257 608.332 380.257C607.825 380.257 607.399 380.402 607.053 380.69C606.712 380.979 606.454 381.372 606.279 381.869C606.109 382.366 606.023 382.932 606.023 383.567C606.023 384.201 606.109 384.767 606.279 385.264C606.454 385.761 606.712 386.154 607.053 386.443C607.399 386.727 607.825 386.869 608.332 386.869ZM615.654 393.091V378.091H618.637V379.923H618.772C618.904 379.63 619.096 379.331 619.347 379.028C619.603 378.721 619.934 378.465 620.341 378.261C620.753 378.053 621.265 377.949 621.876 377.949C622.671 377.949 623.405 378.157 624.077 378.574C624.75 378.986 625.287 379.608 625.689 380.442C626.092 381.27 626.293 382.31 626.293 383.56C626.293 384.777 626.097 385.804 625.704 386.642C625.315 387.475 624.785 388.107 624.113 388.538C623.445 388.964 622.697 389.178 621.868 389.178C621.281 389.178 620.782 389.08 620.37 388.886C619.963 388.692 619.629 388.448 619.368 388.155C619.108 387.857 618.909 387.556 618.772 387.253H618.68V393.091H615.654ZM618.616 383.545C618.616 384.194 618.706 384.76 618.886 385.243C619.065 385.726 619.326 386.102 619.667 386.372C620.008 386.637 620.422 386.77 620.91 386.77C621.402 386.77 621.819 386.635 622.16 386.365C622.501 386.09 622.759 385.712 622.934 385.229C623.114 384.741 623.204 384.18 623.204 383.545C623.204 382.916 623.116 382.362 622.941 381.884C622.766 381.405 622.508 381.031 622.167 380.761C621.826 380.491 621.407 380.357 620.91 380.357C620.417 380.357 620.001 380.487 619.66 380.747C619.323 381.008 619.065 381.377 618.886 381.855C618.706 382.333 618.616 382.897 618.616 383.545ZM631.421 389.206C630.725 389.206 630.105 389.085 629.56 388.844C629.016 388.598 628.585 388.235 628.268 387.757C627.955 387.274 627.799 386.673 627.799 385.953C627.799 385.347 627.91 384.838 628.133 384.426C628.355 384.014 628.658 383.683 629.042 383.432C629.425 383.181 629.861 382.991 630.349 382.864C630.841 382.736 631.357 382.646 631.897 382.594C632.531 382.527 633.043 382.466 633.431 382.409C633.819 382.348 634.101 382.258 634.276 382.139C634.451 382.021 634.539 381.846 634.539 381.614V381.571C634.539 381.121 634.397 380.773 634.113 380.527C633.833 380.281 633.436 380.158 632.92 380.158C632.375 380.158 631.942 380.278 631.62 380.52C631.298 380.757 631.085 381.055 630.981 381.415L628.182 381.188C628.324 380.525 628.604 379.952 629.02 379.469C629.437 378.981 629.975 378.607 630.633 378.347C631.296 378.081 632.063 377.949 632.934 377.949C633.54 377.949 634.12 378.02 634.674 378.162C635.233 378.304 635.727 378.524 636.158 378.822C636.594 379.121 636.937 379.504 637.188 379.973C637.439 380.437 637.564 380.993 637.564 381.642V389H634.695V387.487H634.61C634.435 387.828 634.2 388.129 633.907 388.389C633.613 388.645 633.261 388.846 632.849 388.993C632.437 389.135 631.961 389.206 631.421 389.206ZM632.288 387.118C632.733 387.118 633.126 387.03 633.466 386.855C633.807 386.675 634.075 386.434 634.269 386.131C634.463 385.828 634.56 385.484 634.56 385.101V383.943C634.466 384.005 634.335 384.062 634.17 384.114C634.009 384.161 633.826 384.206 633.623 384.249C633.419 384.286 633.216 384.322 633.012 384.355C632.808 384.384 632.624 384.41 632.458 384.433C632.103 384.485 631.793 384.568 631.528 384.682C631.262 384.795 631.056 384.949 630.91 385.143C630.763 385.333 630.689 385.57 630.689 385.854C630.689 386.266 630.839 386.58 631.137 386.798C631.44 387.011 631.823 387.118 632.288 387.118Z" fill="black"/>
<path d="M325.311 365V350.455H331.135C332.205 350.455 333.098 350.613 333.812 350.93C334.527 351.248 335.065 351.688 335.425 352.251C335.785 352.81 335.964 353.454 335.964 354.183C335.964 354.751 335.851 355.251 335.624 355.682C335.396 356.108 335.084 356.458 334.686 356.733C334.293 357.003 333.843 357.195 333.337 357.308V357.45C333.891 357.474 334.409 357.63 334.892 357.919C335.38 358.208 335.775 358.613 336.078 359.134C336.381 359.65 336.533 360.265 336.533 360.98C336.533 361.752 336.341 362.441 335.957 363.047C335.579 363.648 335.018 364.124 334.274 364.474C333.531 364.825 332.615 365 331.526 365H325.311ZM328.386 362.486H330.893C331.75 362.486 332.375 362.322 332.768 361.996C333.161 361.664 333.358 361.224 333.358 360.675C333.358 360.272 333.261 359.917 333.067 359.609C332.873 359.302 332.596 359.06 332.236 358.885C331.881 358.71 331.457 358.622 330.964 358.622H328.386V362.486ZM328.386 356.541H330.666C331.088 356.541 331.462 356.468 331.788 356.321C332.12 356.17 332.38 355.956 332.57 355.682C332.764 355.407 332.861 355.078 332.861 354.695C332.861 354.169 332.674 353.745 332.3 353.423C331.93 353.101 331.405 352.94 330.723 352.94H328.386V356.541ZM340.373 357.443H343.633C345.077 357.443 346.204 357.789 347.014 358.48C347.824 359.167 348.228 360.085 348.228 361.236C348.228 361.984 348.046 362.642 347.681 363.21C347.317 363.774 346.791 364.214 346.105 364.531C345.418 364.844 344.594 365 343.633 365H338.477V354.091H341.368V362.621H343.633C344.14 362.621 344.556 362.493 344.883 362.237C345.21 361.982 345.376 361.655 345.38 361.257C345.376 360.836 345.21 360.492 344.883 360.227C344.556 359.957 344.14 359.822 343.633 359.822H340.373V357.443ZM349.4 365V354.091H352.426V365H349.4ZM354.844 365V354.091H359.496C360.841 354.091 361.904 354.347 362.685 354.858C363.466 355.369 363.857 356.096 363.857 357.038C363.857 357.63 363.637 358.123 363.196 358.516C362.756 358.909 362.145 359.174 361.364 359.311C362.017 359.358 362.574 359.508 363.033 359.759C363.497 360.005 363.85 360.324 364.091 360.717C364.337 361.11 364.461 361.546 364.461 362.024C364.461 362.644 364.295 363.177 363.963 363.622C363.637 364.067 363.156 364.408 362.522 364.645C361.892 364.882 361.123 365 360.213 365H354.844ZM357.664 362.734H360.213C360.635 362.734 360.964 362.635 361.201 362.436C361.442 362.232 361.563 361.955 361.563 361.605C361.563 361.217 361.442 360.911 361.201 360.689C360.964 360.466 360.635 360.355 360.213 360.355H357.664V362.734ZM357.664 358.58H359.56C359.863 358.58 360.121 358.537 360.334 358.452C360.552 358.362 360.718 358.234 360.831 358.068C360.95 357.902 361.009 357.706 361.009 357.479C361.009 357.143 360.874 356.88 360.604 356.69C360.334 356.501 359.965 356.406 359.496 356.406H357.664V358.58ZM371.297 365.213C370.193 365.213 369.239 364.979 368.434 364.51C367.634 364.036 367.016 363.378 366.581 362.536C366.145 361.688 365.927 360.705 365.927 359.588C365.927 358.461 366.145 357.476 366.581 356.634C367.016 355.786 367.634 355.128 368.434 354.659C369.239 354.186 370.193 353.949 371.297 353.949C372.4 353.949 373.351 354.186 374.152 354.659C374.957 355.128 375.577 355.786 376.012 356.634C376.448 357.476 376.666 358.461 376.666 359.588C376.666 360.705 376.448 361.688 376.012 362.536C375.577 363.378 374.957 364.036 374.152 364.51C373.351 364.979 372.4 365.213 371.297 365.213ZM371.311 362.869C371.813 362.869 372.232 362.727 372.568 362.443C372.904 362.154 373.157 361.761 373.328 361.264C373.503 360.767 373.591 360.201 373.591 359.567C373.591 358.932 373.503 358.366 373.328 357.869C373.157 357.372 372.904 356.979 372.568 356.69C372.232 356.402 371.813 356.257 371.311 356.257C370.804 356.257 370.378 356.402 370.032 356.69C369.691 356.979 369.433 357.372 369.258 357.869C369.088 358.366 369.002 358.932 369.002 359.567C369.002 360.201 369.088 360.767 369.258 361.264C369.433 361.761 369.691 362.154 370.032 362.443C370.378 362.727 370.804 362.869 371.311 362.869ZM378.072 361.911H381.005C381.02 362.27 381.181 362.554 381.488 362.763C381.796 362.971 382.194 363.075 382.681 363.075C383.174 363.075 383.588 362.962 383.924 362.734C384.261 362.502 384.429 362.171 384.429 361.74C384.429 361.475 384.362 361.245 384.23 361.051C384.097 360.852 383.913 360.696 383.676 360.582C383.439 360.469 383.164 360.412 382.852 360.412H381.282V358.43H382.852C383.321 358.43 383.681 358.321 383.931 358.104C384.187 357.886 384.315 357.614 384.315 357.287C384.315 356.918 384.182 356.622 383.917 356.399C383.657 356.172 383.304 356.058 382.859 356.058C382.409 356.058 382.035 356.16 381.737 356.364C381.443 356.562 381.292 356.823 381.282 357.145H378.363C378.373 356.491 378.569 355.926 378.953 355.447C379.341 354.969 379.862 354.6 380.515 354.339C381.173 354.079 381.91 353.949 382.724 353.949C383.614 353.949 384.381 354.074 385.025 354.325C385.674 354.571 386.171 354.924 386.517 355.384C386.867 355.843 387.042 356.39 387.042 357.024C387.042 357.602 386.853 358.085 386.474 358.473C386.095 358.861 385.565 359.138 384.883 359.304V359.418C385.333 359.446 385.74 359.567 386.105 359.78C386.469 359.993 386.761 360.286 386.978 360.661C387.196 361.03 387.305 361.468 387.305 361.974C387.305 362.652 387.106 363.232 386.708 363.714C386.315 364.197 385.771 364.569 385.075 364.83C384.384 365.085 383.591 365.213 382.696 365.213C381.824 365.213 381.043 365.088 380.352 364.837C379.665 364.581 379.118 364.207 378.711 363.714C378.309 363.222 378.096 362.621 378.072 361.911ZM320.388 389.213C319.285 389.213 318.331 388.979 317.526 388.51C316.726 388.036 316.108 387.378 315.672 386.536C315.237 385.688 315.019 384.705 315.019 383.588C315.019 382.461 315.237 381.476 315.672 380.634C316.108 379.786 316.726 379.128 317.526 378.659C318.331 378.186 319.285 377.949 320.388 377.949C321.492 377.949 322.443 378.186 323.243 378.659C324.048 379.128 324.669 379.786 325.104 380.634C325.54 381.476 325.758 382.461 325.758 383.588C325.758 384.705 325.54 385.688 325.104 386.536C324.669 387.378 324.048 388.036 323.243 388.51C322.443 388.979 321.492 389.213 320.388 389.213ZM320.403 386.869C320.904 386.869 321.323 386.727 321.66 386.443C321.996 386.154 322.249 385.761 322.42 385.264C322.595 384.767 322.682 384.201 322.682 383.567C322.682 382.932 322.595 382.366 322.42 381.869C322.249 381.372 321.996 380.979 321.66 380.69C321.323 380.402 320.904 380.257 320.403 380.257C319.896 380.257 319.47 380.402 319.124 380.69C318.783 380.979 318.525 381.372 318.35 381.869C318.18 382.366 318.094 382.932 318.094 383.567C318.094 384.201 318.18 384.767 318.35 385.264C318.525 385.761 318.783 386.154 319.124 386.443C319.47 386.727 319.896 386.869 320.403 386.869ZM326.669 380.47V378.091H336.555V380.47H333.039V389H330.156V380.47H326.669ZM340.917 378.091L342.92 381.905L344.973 378.091H348.077L344.916 383.545L348.162 389H345.072L342.92 385.229L340.804 389H337.679L340.917 383.545L337.792 378.091H340.917ZM354.412 389.213C353.309 389.213 352.354 388.979 351.55 388.51C350.749 388.036 350.131 387.378 349.696 386.536C349.26 385.688 349.042 384.705 349.042 383.588C349.042 382.461 349.26 381.476 349.696 380.634C350.131 379.786 350.749 379.128 351.55 378.659C352.354 378.186 353.309 377.949 354.412 377.949C355.515 377.949 356.467 378.186 357.267 378.659C358.072 379.128 358.692 379.786 359.128 380.634C359.563 381.476 359.781 382.461 359.781 383.588C359.781 384.705 359.563 385.688 359.128 386.536C358.692 387.378 358.072 388.036 357.267 388.51C356.467 388.979 355.515 389.213 354.412 389.213ZM354.426 386.869C354.928 386.869 355.347 386.727 355.683 386.443C356.019 386.154 356.273 385.761 356.443 385.264C356.618 384.767 356.706 384.201 356.706 383.567C356.706 382.932 356.618 382.366 356.443 381.869C356.273 381.372 356.019 380.979 355.683 380.69C355.347 380.402 354.928 380.257 354.426 380.257C353.919 380.257 353.493 380.402 353.148 380.69C352.807 380.979 352.549 381.372 352.373 381.869C352.203 382.366 352.118 382.932 352.118 383.567C352.118 384.201 352.203 384.767 352.373 385.264C352.549 385.761 352.807 386.154 353.148 386.443C353.493 386.727 353.919 386.869 354.426 386.869ZM360.896 392.196V386.599H361.734C361.976 386.448 362.17 386.206 362.317 385.875C362.468 385.544 362.591 385.153 362.686 384.703C362.785 384.253 362.861 383.768 362.913 383.247C362.97 382.722 363.02 382.191 363.062 381.656L363.346 378.091H371.713V386.599H373.403V392.196H370.52V389H363.851V392.196H360.896ZM364.746 386.599H368.858V380.42H365.917L365.804 381.656C365.723 382.821 365.607 383.811 365.456 384.625C365.304 385.435 365.068 386.093 364.746 386.599ZM380.095 389.213C378.992 389.213 378.038 388.979 377.233 388.51C376.433 388.036 375.815 387.378 375.379 386.536C374.944 385.688 374.726 384.705 374.726 383.588C374.726 382.461 374.944 381.476 375.379 380.634C375.815 379.786 376.433 379.128 377.233 378.659C378.038 378.186 378.992 377.949 380.095 377.949C381.199 377.949 382.15 378.186 382.95 378.659C383.755 379.128 384.376 379.786 384.811 380.634C385.247 381.476 385.465 382.461 385.465 383.588C385.465 384.705 385.247 385.688 384.811 386.536C384.376 387.378 383.755 388.036 382.95 388.51C382.15 388.979 381.199 389.213 380.095 389.213ZM380.11 386.869C380.611 386.869 381.03 386.727 381.367 386.443C381.703 386.154 381.956 385.761 382.127 385.264C382.302 384.767 382.389 384.201 382.389 383.567C382.389 382.932 382.302 382.366 382.127 381.869C381.956 381.372 381.703 380.979 381.367 380.69C381.03 380.402 380.611 380.257 380.11 380.257C379.603 380.257 379.177 380.402 378.831 380.69C378.49 380.979 378.232 381.372 378.057 381.869C377.887 382.366 377.801 382.932 377.801 383.567C377.801 384.201 377.887 384.767 378.057 385.264C378.232 385.761 378.49 386.154 378.831 386.443C379.177 386.727 379.603 386.869 380.11 386.869ZM387.432 389V378.091H392.084C393.429 378.091 394.492 378.347 395.273 378.858C396.054 379.369 396.445 380.096 396.445 381.038C396.445 381.63 396.225 382.123 395.784 382.516C395.344 382.909 394.733 383.174 393.952 383.311C394.605 383.358 395.162 383.508 395.621 383.759C396.085 384.005 396.438 384.324 396.679 384.717C396.925 385.11 397.048 385.546 397.048 386.024C397.048 386.644 396.883 387.177 396.551 387.622C396.225 388.067 395.744 388.408 395.11 388.645C394.48 388.882 393.71 389 392.801 389H387.432ZM390.252 386.734H392.801C393.223 386.734 393.552 386.635 393.789 386.436C394.03 386.232 394.151 385.955 394.151 385.605C394.151 385.217 394.03 384.911 393.789 384.689C393.552 384.466 393.223 384.355 392.801 384.355H390.252V386.734ZM390.252 382.58H392.148C392.451 382.58 392.709 382.537 392.922 382.452C393.14 382.362 393.306 382.234 393.419 382.068C393.538 381.902 393.597 381.706 393.597 381.479C393.597 381.143 393.462 380.88 393.192 380.69C392.922 380.501 392.553 380.406 392.084 380.406H390.252V382.58Z" fill="black"/>
<path d="M85.9828 345.455V360H82.943V347.955H77.0623V360H74.0225V345.455H85.9828ZM93.8255 360.213C92.7033 360.213 91.7374 359.986 90.9277 359.531C90.1228 359.072 89.5025 358.423 89.0669 357.585C88.6313 356.742 88.4135 355.746 88.4135 354.595C88.4135 353.473 88.6313 352.488 89.0669 351.641C89.5025 350.793 90.1157 350.133 90.9064 349.659C91.7019 349.186 92.6346 348.949 93.7047 348.949C94.4244 348.949 95.0944 349.065 95.7147 349.297C96.3397 349.524 96.8842 349.867 97.3482 350.327C97.8169 350.786 98.1815 351.364 98.4419 352.06C98.7024 352.751 98.8326 353.561 98.8326 354.489V355.32H89.6209V353.445H95.9846C95.9846 353.009 95.8899 352.623 95.7005 352.287C95.5111 351.951 95.2483 351.688 94.9121 351.499C94.5807 351.304 94.1948 351.207 93.7544 351.207C93.2952 351.207 92.888 351.314 92.5328 351.527C92.1825 351.735 91.9078 352.017 91.709 352.372C91.5101 352.723 91.4083 353.113 91.4036 353.544V355.327C91.4036 355.866 91.503 356.333 91.7019 356.726C91.9055 357.119 92.1919 357.422 92.5613 357.635C92.9306 357.848 93.3685 357.955 93.8752 357.955C94.2114 357.955 94.5191 357.907 94.7985 357.812C95.0778 357.718 95.3169 357.576 95.5158 357.386C95.7147 357.197 95.8662 356.965 95.9703 356.69L98.7686 356.875C98.6266 357.547 98.3354 358.134 97.8951 358.636C97.4595 359.134 96.896 359.522 96.2047 359.801C95.5182 360.076 94.7251 360.213 93.8255 360.213ZM100.807 364.091V349.091H103.79V350.923H103.925C104.057 350.63 104.249 350.331 104.5 350.028C104.756 349.721 105.087 349.465 105.494 349.261C105.906 349.053 106.418 348.949 107.029 348.949C107.824 348.949 108.558 349.157 109.23 349.574C109.903 349.986 110.44 350.608 110.843 351.442C111.245 352.27 111.446 353.31 111.446 354.56C111.446 355.777 111.25 356.804 110.857 357.642C110.468 358.475 109.938 359.107 109.266 359.538C108.598 359.964 107.85 360.178 107.021 360.178C106.434 360.178 105.935 360.08 105.523 359.886C105.116 359.692 104.782 359.448 104.521 359.155C104.261 358.857 104.062 358.556 103.925 358.253H103.833V364.091H100.807ZM103.769 354.545C103.769 355.194 103.859 355.76 104.039 356.243C104.218 356.726 104.479 357.102 104.82 357.372C105.161 357.637 105.575 357.77 106.063 357.77C106.555 357.77 106.972 357.635 107.313 357.365C107.654 357.09 107.912 356.712 108.087 356.229C108.267 355.741 108.357 355.18 108.357 354.545C108.357 353.916 108.269 353.362 108.094 352.884C107.919 352.405 107.661 352.031 107.32 351.761C106.979 351.491 106.56 351.357 106.063 351.357C105.57 351.357 105.154 351.487 104.813 351.747C104.477 352.008 104.218 352.377 104.039 352.855C103.859 353.333 103.769 353.897 103.769 354.545ZM118.435 360.213C117.313 360.213 116.347 359.986 115.537 359.531C114.732 359.072 114.112 358.423 113.676 357.585C113.241 356.742 113.023 355.746 113.023 354.595C113.023 353.473 113.241 352.488 113.676 351.641C114.112 350.793 114.725 350.133 115.516 349.659C116.311 349.186 117.244 348.949 118.314 348.949C119.034 348.949 119.704 349.065 120.324 349.297C120.949 349.524 121.494 349.867 121.958 350.327C122.426 350.786 122.791 351.364 123.051 352.06C123.312 352.751 123.442 353.561 123.442 354.489V355.32H114.23V353.445H120.594C120.594 353.009 120.499 352.623 120.31 352.287C120.12 351.951 119.858 351.688 119.521 351.499C119.19 351.304 118.804 351.207 118.364 351.207C117.905 351.207 117.497 351.314 117.142 351.527C116.792 351.735 116.517 352.017 116.318 352.372C116.119 352.723 116.018 353.113 116.013 353.544V355.327C116.013 355.866 116.112 356.333 116.311 356.726C116.515 357.119 116.801 357.422 117.171 357.635C117.54 357.848 117.978 357.955 118.485 357.955C118.821 357.955 119.128 357.907 119.408 357.812C119.687 357.718 119.926 357.576 120.125 357.386C120.324 357.197 120.476 356.965 120.58 356.69L123.378 356.875C123.236 357.547 122.945 358.134 122.504 358.636C122.069 359.134 121.505 359.522 120.814 359.801C120.128 360.076 119.334 360.213 118.435 360.213ZM124.564 363.196V357.599H125.402C125.644 357.448 125.838 357.206 125.985 356.875C126.136 356.544 126.259 356.153 126.354 355.703C126.453 355.253 126.529 354.768 126.581 354.247C126.638 353.722 126.688 353.191 126.73 352.656L127.014 349.091H135.381V357.599H137.071V363.196H134.188V360H127.519V363.196H124.564ZM128.414 357.599H132.526V351.42H129.585L129.472 352.656C129.391 353.821 129.275 354.811 129.124 355.625C128.972 356.435 128.735 357.093 128.414 357.599ZM141.945 360.206C141.249 360.206 140.629 360.085 140.084 359.844C139.54 359.598 139.109 359.235 138.792 358.757C138.479 358.274 138.323 357.673 138.323 356.953C138.323 356.347 138.434 355.838 138.657 355.426C138.879 355.014 139.182 354.683 139.566 354.432C139.949 354.181 140.385 353.991 140.873 353.864C141.365 353.736 141.881 353.646 142.421 353.594C143.055 353.527 143.567 353.466 143.955 353.409C144.343 353.348 144.625 353.258 144.8 353.139C144.975 353.021 145.063 352.846 145.063 352.614V352.571C145.063 352.121 144.921 351.773 144.637 351.527C144.358 351.281 143.96 351.158 143.444 351.158C142.899 351.158 142.466 351.278 142.144 351.52C141.822 351.757 141.609 352.055 141.505 352.415L138.706 352.188C138.849 351.525 139.128 350.952 139.545 350.469C139.961 349.981 140.499 349.607 141.157 349.347C141.82 349.081 142.587 348.949 143.458 348.949C144.064 348.949 144.644 349.02 145.198 349.162C145.757 349.304 146.251 349.524 146.682 349.822C147.118 350.121 147.461 350.504 147.712 350.973C147.963 351.437 148.089 351.993 148.089 352.642V360H145.219V358.487H145.134C144.959 358.828 144.724 359.129 144.431 359.389C144.137 359.645 143.785 359.846 143.373 359.993C142.961 360.135 142.485 360.206 141.945 360.206ZM142.812 358.118C143.257 358.118 143.65 358.03 143.991 357.855C144.331 357.675 144.599 357.434 144.793 357.131C144.987 356.828 145.084 356.484 145.084 356.101V354.943C144.99 355.005 144.859 355.062 144.694 355.114C144.533 355.161 144.35 355.206 144.147 355.249C143.943 355.286 143.74 355.322 143.536 355.355C143.332 355.384 143.148 355.41 142.982 355.433C142.627 355.485 142.317 355.568 142.052 355.682C141.787 355.795 141.581 355.949 141.434 356.143C141.287 356.333 141.214 356.57 141.214 356.854C141.214 357.266 141.363 357.58 141.661 357.798C141.964 358.011 142.348 358.118 142.812 358.118ZM159.903 349.091V360H157.034V349.091H159.903ZM158.504 353.878V356.264C158.272 356.368 157.983 356.468 157.638 356.562C157.292 356.652 156.93 356.726 156.551 356.783C156.172 356.839 155.817 356.868 155.486 356.868C153.918 356.868 152.685 356.546 151.785 355.902C150.886 355.253 150.436 354.219 150.436 352.798V349.077H153.291V352.798C153.291 353.22 153.362 353.554 153.504 353.8C153.651 354.046 153.883 354.223 154.2 354.332C154.522 354.437 154.951 354.489 155.486 354.489C155.983 354.489 156.47 354.437 156.949 354.332C157.427 354.228 157.945 354.077 158.504 353.878ZM165.363 360.206C164.667 360.206 164.047 360.085 163.502 359.844C162.958 359.598 162.527 359.235 162.21 358.757C161.897 358.274 161.741 357.673 161.741 356.953C161.741 356.347 161.852 355.838 162.075 355.426C162.297 355.014 162.6 354.683 162.984 354.432C163.367 354.181 163.803 353.991 164.291 353.864C164.783 353.736 165.299 353.646 165.839 353.594C166.473 353.527 166.985 353.466 167.373 353.409C167.761 353.348 168.043 353.258 168.218 353.139C168.393 353.021 168.481 352.846 168.481 352.614V352.571C168.481 352.121 168.339 351.773 168.055 351.527C167.776 351.281 167.378 351.158 166.862 351.158C166.317 351.158 165.884 351.278 165.562 351.52C165.24 351.757 165.027 352.055 164.923 352.415L162.124 352.188C162.267 351.525 162.546 350.952 162.963 350.469C163.379 349.981 163.917 349.607 164.575 349.347C165.238 349.081 166.005 348.949 166.876 348.949C167.482 348.949 168.062 349.02 168.616 349.162C169.175 349.304 169.669 349.524 170.1 349.822C170.536 350.121 170.879 350.504 171.13 350.973C171.381 351.437 171.507 351.993 171.507 352.642V360H168.637V358.487H168.552C168.377 358.828 168.142 359.129 167.849 359.389C167.555 359.645 167.203 359.846 166.791 359.993C166.379 360.135 165.903 360.206 165.363 360.206ZM166.23 358.118C166.675 358.118 167.068 358.03 167.409 357.855C167.749 357.675 168.017 357.434 168.211 357.131C168.405 356.828 168.502 356.484 168.502 356.101V354.943C168.408 355.005 168.277 355.062 168.112 355.114C167.951 355.161 167.768 355.206 167.565 355.249C167.361 355.286 167.158 355.322 166.954 355.355C166.75 355.384 166.566 355.41 166.4 355.433C166.045 355.485 165.735 355.568 165.47 355.682C165.204 355.795 164.999 355.949 164.852 356.143C164.705 356.333 164.632 356.57 164.632 356.854C164.632 357.266 164.781 357.58 165.079 357.798C165.382 358.011 165.766 358.118 166.23 358.118ZM88.3434 384.213C87.2402 384.213 86.2861 383.979 85.4812 383.51C84.681 383.036 84.0631 382.378 83.6275 381.536C83.1919 380.688 82.9741 379.705 82.9741 378.588C82.9741 377.461 83.1919 376.476 83.6275 375.634C84.0631 374.786 84.681 374.128 85.4812 373.659C86.2861 373.186 87.2402 372.949 88.3434 372.949C89.4466 372.949 90.3983 373.186 91.1985 373.659C92.0034 374.128 92.6237 374.786 93.0593 375.634C93.4949 376.476 93.7127 377.461 93.7127 378.588C93.7127 379.705 93.4949 380.688 93.0593 381.536C92.6237 382.378 92.0034 383.036 91.1985 383.51C90.3983 383.979 89.4466 384.213 88.3434 384.213ZM88.3576 381.869C88.8595 381.869 89.2785 381.727 89.6147 381.443C89.9509 381.154 90.2042 380.761 90.3746 380.264C90.5498 379.767 90.6374 379.201 90.6374 378.567C90.6374 377.932 90.5498 377.366 90.3746 376.869C90.2042 376.372 89.9509 375.979 89.6147 375.69C89.2785 375.402 88.8595 375.257 88.3576 375.257C87.851 375.257 87.4248 375.402 87.0792 375.69C86.7383 375.979 86.4802 376.372 86.305 376.869C86.1346 377.366 86.0494 377.932 86.0494 378.567C86.0494 379.201 86.1346 379.767 86.305 380.264C86.4802 380.761 86.7383 381.154 87.0792 381.443C87.4248 381.727 87.851 381.869 88.3576 381.869ZM94.6236 375.47V373.091H104.51V375.47H100.994V384H98.1108V375.47H94.6236ZM115.421 373.091V384H112.551V373.091H115.421ZM114.022 377.878V380.264C113.79 380.368 113.501 380.468 113.155 380.562C112.81 380.652 112.447 380.726 112.069 380.783C111.69 380.839 111.335 380.868 111.003 380.868C109.436 380.868 108.203 380.546 107.303 379.902C106.403 379.253 105.953 378.219 105.953 376.798V373.077H108.809V376.798C108.809 377.22 108.88 377.554 109.022 377.8C109.168 378.046 109.4 378.223 109.718 378.332C110.04 378.437 110.468 378.489 111.003 378.489C111.5 378.489 111.988 378.437 112.466 378.332C112.944 378.228 113.463 378.077 114.022 377.878ZM122.741 384.213C121.619 384.213 120.653 383.986 119.844 383.531C119.039 383.072 118.419 382.423 117.983 381.585C117.547 380.742 117.33 379.746 117.33 378.595C117.33 377.473 117.547 376.488 117.983 375.641C118.419 374.793 119.032 374.133 119.822 373.659C120.618 373.186 121.551 372.949 122.621 372.949C123.34 372.949 124.01 373.065 124.631 373.297C125.256 373.524 125.8 373.867 126.264 374.327C126.733 374.786 127.098 375.364 127.358 376.06C127.618 376.751 127.749 377.561 127.749 378.489V379.32H118.537V377.445H124.901C124.901 377.009 124.806 376.623 124.616 376.287C124.427 375.951 124.164 375.688 123.828 375.499C123.497 375.304 123.111 375.207 122.67 375.207C122.211 375.207 121.804 375.314 121.449 375.527C121.098 375.735 120.824 376.017 120.625 376.372C120.426 376.723 120.324 377.113 120.32 377.544V379.327C120.32 379.866 120.419 380.333 120.618 380.726C120.821 381.119 121.108 381.422 121.477 381.635C121.847 381.848 122.285 381.955 122.791 381.955C123.127 381.955 123.435 381.907 123.714 381.812C123.994 381.718 124.233 381.576 124.432 381.386C124.631 381.197 124.782 380.965 124.886 380.69L127.685 380.875C127.543 381.547 127.251 382.134 126.811 382.636C126.375 383.134 125.812 383.522 125.121 383.801C124.434 384.076 123.641 384.213 122.741 384.213ZM128.881 375.47V373.091H138.768V375.47H135.252V384H132.369V375.47H128.881ZM145.14 384.213C144.037 384.213 143.083 383.979 142.278 383.51C141.478 383.036 140.86 382.378 140.424 381.536C139.989 380.688 139.771 379.705 139.771 378.588C139.771 377.461 139.989 376.476 140.424 375.634C140.86 374.786 141.478 374.128 142.278 373.659C143.083 373.186 144.037 372.949 145.14 372.949C146.243 372.949 147.195 373.186 147.995 373.659C148.8 374.128 149.421 374.786 149.856 375.634C150.292 376.476 150.51 377.461 150.51 378.588C150.51 379.705 150.292 380.688 149.856 381.536C149.421 382.378 148.8 383.036 147.995 383.51C147.195 383.979 146.243 384.213 145.14 384.213ZM145.154 381.869C145.656 381.869 146.075 381.727 146.412 381.443C146.748 381.154 147.001 380.761 147.172 380.264C147.347 379.767 147.434 379.201 147.434 378.567C147.434 377.932 147.347 377.366 147.172 376.869C147.001 376.372 146.748 375.979 146.412 375.69C146.075 375.402 145.656 375.257 145.154 375.257C144.648 375.257 144.222 375.402 143.876 375.69C143.535 375.979 143.277 376.372 143.102 376.869C142.931 377.366 142.846 377.932 142.846 378.567C142.846 379.201 142.931 379.767 143.102 380.264C143.277 380.761 143.535 381.154 143.876 381.443C144.222 381.727 144.648 381.869 145.154 381.869ZM152.477 384V373.091H157.129C158.474 373.091 159.537 373.347 160.318 373.858C161.099 374.369 161.49 375.096 161.49 376.038C161.49 376.63 161.27 377.123 160.829 377.516C160.389 377.909 159.778 378.174 158.997 378.311C159.65 378.358 160.207 378.508 160.666 378.759C161.13 379.005 161.483 379.324 161.724 379.717C161.97 380.11 162.093 380.546 162.093 381.024C162.093 381.644 161.928 382.177 161.596 382.622C161.27 383.067 160.789 383.408 160.154 383.645C159.525 383.882 158.755 384 157.846 384H152.477ZM155.297 381.734H157.846C158.268 381.734 158.597 381.635 158.833 381.436C159.075 381.232 159.196 380.955 159.196 380.605C159.196 380.217 159.075 379.911 158.833 379.689C158.597 379.466 158.268 379.355 157.846 379.355H155.297V381.734ZM155.297 377.58H157.193C157.496 377.58 157.754 377.537 157.967 377.452C158.185 377.362 158.35 377.234 158.464 377.068C158.583 376.902 158.642 376.706 158.642 376.479C158.642 376.143 158.507 375.88 158.237 375.69C157.967 375.501 157.598 375.406 157.129 375.406H155.297V377.58Z" fill="black"/>
</svg>
