<svg width="298" height="505" viewBox="0 0 298 505" fill="none" xmlns="http://www.w3.org/2000/svg">
<path d="M96.0023 44.2089C116.001 56.9988 171.995 18.7082 214.001 52.0001" stroke="#79AC2B" stroke-width="5" stroke-dasharray="25 25"/>
<path d="M90.9745 168.677C111 164.5 147.001 129 202.474 107.677" stroke="#79AC2B" stroke-width="5" stroke-dasharray="25 25"/>
<path d="M87.5 189.5C116.626 217.339 182.5 183 207 214" stroke="#79AC2B" stroke-width="5" stroke-dasharray="25 25"/>
<path d="M87.5 351.5C131.5 357 164.5 364 197 398" stroke="#79AC2B" stroke-width="5" stroke-dasharray="25 25"/>
<path d="M197.5 267C145 276 125.5 298 82.5 327.5" stroke="#79AC2B" stroke-width="5" stroke-dasharray="25 25"/>
<circle cx="49.99" cy="36.1555" r="34.0291" fill="#BFDF72"/>
<circle cx="15.4832" cy="15.4832" r="15.4832" fill="#79AC2B"/>
<path d="M16.3302 9.81818V20H14.1775V11.8615H14.1178L11.7861 13.3232V11.4141L14.3067 9.81818H16.3302Z" fill="white"/>
<path d="M41.9652 52.3778H34.337C34.1351 52.3778 33.9645 52.2272 33.958 52.0273C33.9045 50.392 34.5745 47.6903 37.7271 47.6903H41.9652M41.9652 52.3778V47.6903M41.9652 52.3778H57.9323M57.9323 52.3778H65.5605C65.7624 52.3778 65.933 52.2272 65.9395 52.0273C65.993 50.392 65.3229 47.6903 62.1704 47.6903H57.9323M57.9323 52.3778V47.6903M57.9323 47.6903C57.9323 46.909 57.5331 45.3465 55.9364 45.3465H43.9611C42.3644 45.3465 41.9652 46.909 41.9652 47.6903M47.3861 19.3696C47.1684 19.3696 46.9919 19.5445 46.9919 19.7603V23.4712C46.9919 23.687 46.8154 23.8619 46.5976 23.8619H45.2178C44.8929 23.8619 44.7074 24.2294 44.9024 24.4869L49.4362 30.4765C49.5939 30.6849 49.9093 30.6849 50.067 30.4765L54.6009 24.4869C54.7958 24.2294 54.6104 23.8619 54.2855 23.8619H52.9056C52.6879 23.8619 52.5114 23.687 52.5114 23.4712V19.7603C52.5114 19.5445 52.3349 19.3696 52.1171 19.3696H47.3861ZM54.456 37.9245C54.456 40.4055 52.4262 42.4168 49.9222 42.4168C47.4182 42.4168 45.3883 40.4055 45.3883 37.9245C45.3883 35.4435 47.4182 33.4323 49.9222 33.4323C52.4262 33.4323 54.456 35.4435 54.456 37.9245ZM63.1295 41.6355C63.1295 43.1457 61.8939 44.3699 60.3698 44.3699C58.8456 44.3699 57.61 43.1457 57.61 41.6355C57.61 40.1254 58.8456 38.9011 60.3698 38.9011C61.8939 38.9011 63.1295 40.1254 63.1295 41.6355ZM42.2343 41.6355C42.2343 43.1457 40.9988 44.3699 39.4746 44.3699C37.9504 44.3699 36.7149 43.1457 36.7149 41.6355C36.7149 40.1254 37.9504 38.9011 39.4746 38.9011C40.9988 38.9011 42.2343 40.1254 42.2343 41.6355Z" stroke="#79AC2B" stroke-width="2"/>
<circle cx="248.908" cy="95.5286" r="34.0291" fill="#BFDF72"/>
<circle cx="214.483" cy="75.4832" r="15.4832" fill="#79AC2B"/>
<path d="M209.916 80V78.4489L213.54 75.093C213.849 74.7947 214.107 74.5263 214.316 74.2876C214.528 74.049 214.689 73.8153 214.798 73.5866C214.908 73.3546 214.962 73.1044 214.962 72.8359C214.962 72.5376 214.894 72.2808 214.758 72.0653C214.623 71.8466 214.437 71.6792 214.202 71.5632C213.966 71.4439 213.699 71.3842 213.401 71.3842C213.09 71.3842 212.818 71.4472 212.586 71.5732C212.354 71.6991 212.175 71.8797 212.049 72.1151C211.923 72.3504 211.86 72.6304 211.86 72.9553H209.817C209.817 72.2891 209.967 71.7107 210.269 71.2202C210.571 70.7296 210.993 70.3501 211.537 70.0817C212.08 69.8132 212.707 69.679 213.416 69.679C214.145 69.679 214.78 69.8082 215.32 70.0668C215.864 70.322 216.286 70.6766 216.588 71.1307C216.89 71.5848 217.04 72.1051 217.04 72.6918C217.04 73.0762 216.964 73.4557 216.812 73.8303C216.663 74.2048 216.396 74.6207 216.011 75.0781C215.627 75.5322 215.085 76.0774 214.386 76.7138L212.899 78.1705V78.2401H217.175V80H209.916Z" fill="white"/>
<path d="M259.116 91.8587C261.158 91.8587 264.935 90.4974 265.071 87.7751C265.241 84.3722 262.349 82.3304 259.116 82.5006C255.907 82.6695 252.196 84.6823 254.303 90.2027C254.334 90.2814 254.335 90.371 254.306 90.4499L253.586 92.3688C253.485 92.6391 253.745 92.9048 254.017 92.8095L256.734 91.8587M236.335 109.544C236.109 106.254 237.816 99.6754 246.459 99.6754C255.102 99.6754 256.81 106.254 256.583 109.544H236.335ZM250.949 92.5293C250.949 95.4423 248.968 97.8038 246.525 97.8038C244.082 97.8038 242.101 95.4423 242.101 92.5293C242.101 89.6163 244.082 87.2548 246.525 87.2548C248.968 87.2548 250.949 89.6163 250.949 92.5293Z" stroke="#79AC2B" stroke-width="2" stroke-linecap="round"/>
<circle cx="49.7732" cy="180.278" r="34.0291" fill="#BFDF72"/>
<circle cx="15.4832" cy="159.483" r="15.4832" fill="#79AC2B"/>
<path d="M15.4745 164.139C14.7321 164.139 14.0709 164.012 13.4909 163.756C12.9142 163.498 12.4584 163.143 12.1237 162.692C11.7922 162.238 11.6215 161.715 11.6116 161.121H13.7792C13.7925 161.37 13.8737 161.589 14.0228 161.778C14.1753 161.963 14.3775 162.107 14.6294 162.21C14.8812 162.313 15.1646 162.364 15.4795 162.364C15.8076 162.364 16.0976 162.306 16.3495 162.19C16.6014 162.074 16.7986 161.914 16.9411 161.708C17.0837 161.503 17.1549 161.266 17.1549 160.997C17.1549 160.725 17.0787 160.485 16.9262 160.276C16.7771 160.064 16.5616 159.898 16.2799 159.779C16.0015 159.66 15.6701 159.6 15.2856 159.6H14.336V158.019H15.2856C15.6104 158.019 15.8971 157.963 16.1457 157.85C16.3976 157.737 16.5931 157.582 16.7323 157.383C16.8715 157.181 16.9411 156.945 16.9411 156.677C16.9411 156.422 16.8798 156.198 16.7572 156.006C16.6379 155.81 16.4688 155.658 16.2501 155.548C16.0347 155.439 15.7828 155.384 15.4944 155.384C15.2027 155.384 14.9359 155.437 14.694 155.543C14.452 155.646 14.2581 155.794 14.1123 155.986C13.9665 156.178 13.8886 156.403 13.8786 156.662H11.8154C11.8254 156.075 11.9927 155.558 12.3176 155.111C12.6424 154.663 13.0799 154.314 13.6301 154.062C14.1836 153.807 14.8083 153.679 15.5044 153.679C16.207 153.679 16.8218 153.807 17.3488 154.062C17.8758 154.317 18.2851 154.662 18.5768 155.096C18.8718 155.527 19.0176 156.011 19.0143 156.548C19.0176 157.118 18.8403 157.593 18.4823 157.974C18.1277 158.356 17.6653 158.598 17.0953 158.7V158.78C17.8443 158.876 18.4144 159.136 18.8055 159.56C19.1999 159.981 19.3954 160.508 19.3921 161.141C19.3954 161.721 19.2281 162.237 18.89 162.688C18.5553 163.138 18.0929 163.493 17.5029 163.751C16.913 164.01 16.2368 164.139 15.4745 164.139Z" fill="white"/>
<path d="M43.9186 179.021H56.3392M43.9186 183.105H55.3183M43.9186 187.359H50.8946M38.9844 171.535V168.813C39.0411 167.905 39.5969 166.09 41.3664 166.09H44.429M61.1033 189.4V192.123C61.0466 193.03 60.4908 194.845 58.7212 194.845H55.6586M38.9844 189.4V192.123C39.0411 193.03 39.5969 194.845 41.3664 194.845H44.429M55.3183 165.75C57.1332 165.637 60.831 166.567 61.1033 171.195H58.7212C57.5869 171.195 55.3183 170.65 55.3183 168.472V165.75Z" stroke="#79AC2B" stroke-width="2" stroke-linecap="round"/>
<circle cx="248.59" cy="257.278" r="34.0291" fill="#BFDF72"/>
<circle cx="214.483" cy="236.483" r="15.4832" fill="#79AC2B"/>
<path d="M208.927 240.21V238.515L213.178 231.818H214.639V234.165H213.774L211.095 238.406V238.485H217.135V240.21H208.927ZM213.814 242V239.693L213.854 238.942V231.818H215.872V242H213.814Z" fill="white"/>
<path d="M247.739 265.642L246.037 267.003" stroke="#79AC2B" stroke-linecap="round"/>
<path d="M250.289 241.992H235.657C235.469 241.992 235.316 242.144 235.316 242.332V271.427C235.316 271.615 235.469 271.767 235.657 271.767H258.286C258.474 271.767 258.626 271.615 258.626 271.427V270.236M250.289 241.992V249.818C250.289 250.006 250.442 250.159 250.629 250.159H258.626M250.289 241.992L258.626 250.159M258.626 250.159V251.69M240.421 255.433H248.928M240.421 259.517H245.355M240.421 263.6H245.355M249.609 262.731C248.73 263.861 247.977 264.924 247.397 265.812C247.174 266.152 251.278 264.468 253.862 262.777M249.609 262.731C248.134 262.85 245.763 262.409 248.077 259.687C249.112 258.469 249.8 257.706 250.244 257.243C250.468 257.01 251.422 256.141 251.685 255.954C252.605 255.297 254.187 254.77 256.414 255.681M249.609 262.731C250.411 261.699 251.317 260.611 252.291 259.549M260.183 257.135C260.884 258.768 264.428 261.899 266.113 263.26M260.183 257.135C258.987 258.586 257.703 259.836 256.412 260.9M260.183 257.135C260.565 256.671 260.939 256.186 261.3 255.681M264.752 269.045C262.937 268.988 258.933 268.5 257.435 267.003C255.938 265.506 254.429 263.562 253.862 262.777M253.862 262.777C252.979 262.095 251.446 260.506 252.291 259.549M256.412 260.9C257.214 261.486 257.877 262.009 258.116 262.069C258.66 262.205 259.477 261.218 259.817 260.708M256.412 260.9C255.05 259.906 253.285 258.728 252.501 259.322M252.291 259.549C252.301 259.538 252.311 259.528 252.321 259.517M252.321 259.517C252.381 259.452 252.441 259.387 252.501 259.322M252.321 259.517C252.373 259.438 252.434 259.373 252.501 259.322M252.501 259.322C254.541 257.131 256.861 255.079 259.141 253.902M259.141 253.902C260.288 253.309 261.425 252.938 262.51 252.882C262.76 252.869 262.912 253.136 262.788 253.354C262.322 254.175 261.823 254.95 261.3 255.681M259.141 253.902C259.365 254.495 260.11 255.681 261.3 255.681" stroke="#79AC2B" stroke-width="2" stroke-linecap="round"/>
<circle cx="49.7732" cy="359.278" r="34.0291" fill="#BFDF72"/>
<circle cx="15.4832" cy="338.483" r="15.4832" fill="#79AC2B"/>
<path d="M15.9248 344.139C15.2221 344.139 14.5957 344.01 14.0455 343.751C13.4987 343.493 13.0645 343.137 12.743 342.683C12.4215 342.228 12.2541 341.708 12.2408 341.121H14.3289C14.3521 341.516 14.5178 341.836 14.8261 342.081C15.1343 342.326 15.5005 342.449 15.9248 342.449C16.2629 342.449 16.5612 342.374 16.8197 342.225C17.0815 342.073 17.2853 341.862 17.4312 341.594C17.5803 341.322 17.6549 341.01 17.6549 340.659C17.6549 340.301 17.5787 339.986 17.4262 339.714C17.2771 339.443 17.0699 339.231 16.8048 339.078C16.5396 338.926 16.2363 338.848 15.895 338.844C15.5967 338.844 15.3067 338.906 15.0249 339.028C14.7465 339.151 14.5294 339.318 14.3737 339.531L12.4596 339.188L12.9418 333.818H19.1663V335.578H14.7167L14.4532 338.129H14.5129C14.6918 337.877 14.962 337.668 15.3232 337.502C15.6845 337.336 16.0888 337.254 16.5363 337.254C17.1495 337.254 17.6963 337.398 18.1769 337.686C18.6575 337.974 19.037 338.371 19.3154 338.874C19.5938 339.375 19.7314 339.951 19.7281 340.604C19.7314 341.29 19.5723 341.9 19.2508 342.434C18.9326 342.964 18.4868 343.382 17.9134 343.687C17.3433 343.988 16.6805 344.139 15.9248 344.139Z" fill="white"/>
<path d="M34.4863 347.746H53.0322C53.8829 347.689 55.5844 348.018 55.5844 349.788V363.059M34.4863 350.468H48.2681M34.4863 353.361H43.504M34.4863 356.253H39.0803M36.5281 358.295V363.74C36.5281 364.307 36.9364 365.441 38.5698 365.441H63.5812C64.3752 365.441 65.9632 364.965 65.9632 363.059V358.635M65.9632 358.635H58.1365M65.9632 358.635L63.2409 353.361C62.9006 352.85 61.9478 351.83 60.8589 351.83H58.1365M44.6951 367.823C44.6951 369.139 43.6286 370.205 42.313 370.205C40.9975 370.205 39.931 369.139 39.931 367.823C39.931 366.508 40.9975 365.441 42.313 365.441C43.6286 365.441 44.6951 366.508 44.6951 367.823ZM62.3902 367.823C62.3902 369.139 61.3237 370.205 60.0081 370.205C58.6926 370.205 57.6261 369.139 57.6261 367.823C57.6261 366.508 58.6926 365.441 60.0081 365.441C61.3237 365.441 62.3902 366.508 62.3902 367.823Z" stroke="#79AC2B" stroke-width="2" stroke-linecap="round"/>
<circle cx="248.773" cy="432.278" r="34.0291" fill="#BFDF72"/>
<circle cx="214.483" cy="411.483" r="15.4832" fill="#79AC2B"/>
<path d="M214.174 416.139C213.651 416.136 213.145 416.048 212.658 415.876C212.174 415.703 211.74 415.423 211.356 415.036C210.971 414.648 210.666 414.134 210.441 413.494C210.219 412.855 210.108 412.069 210.108 411.138C210.111 410.283 210.209 409.519 210.401 408.846C210.597 408.17 210.875 407.596 211.236 407.126C211.601 406.655 212.037 406.297 212.544 406.052C213.051 405.803 213.619 405.679 214.249 405.679C214.929 405.679 215.528 405.812 216.049 406.077C216.569 406.339 216.987 406.695 217.302 407.146C217.62 407.596 217.812 408.102 217.878 408.662H215.755C215.673 408.307 215.499 408.029 215.233 407.827C214.968 407.625 214.64 407.523 214.249 407.523C213.586 407.523 213.082 407.812 212.738 408.388C212.396 408.965 212.222 409.749 212.216 410.74H212.285C212.438 410.438 212.643 410.182 212.902 409.969C213.164 409.754 213.46 409.59 213.792 409.477C214.126 409.361 214.479 409.303 214.851 409.303C215.454 409.303 215.991 409.446 216.461 409.731C216.932 410.013 217.303 410.4 217.575 410.894C217.847 411.388 217.983 411.953 217.983 412.589C217.983 413.279 217.822 413.892 217.5 414.429C217.182 414.966 216.737 415.387 216.163 415.692C215.593 415.993 214.93 416.143 214.174 416.139ZM214.165 414.449C214.496 414.449 214.793 414.369 215.054 414.21C215.316 414.051 215.522 413.836 215.671 413.564C215.82 413.292 215.895 412.987 215.895 412.649C215.895 412.311 215.82 412.008 215.671 411.739C215.525 411.471 215.323 411.257 215.064 411.098C214.806 410.939 214.511 410.859 214.179 410.859C213.931 410.859 213.701 410.906 213.488 410.999C213.28 411.091 213.096 411.221 212.937 411.386C212.781 411.552 212.658 411.744 212.569 411.963C212.479 412.179 212.434 412.409 212.434 412.654C212.434 412.982 212.509 413.282 212.658 413.554C212.811 413.826 213.016 414.043 213.275 414.205C213.536 414.368 213.833 414.449 214.165 414.449Z" fill="white"/>
<path d="M260.71 432.985V417.992C260.71 417.439 260.262 416.992 259.71 416.992H234.486C233.934 416.992 233.486 417.439 233.486 417.992V443.215C233.486 443.767 233.934 444.215 234.486 444.215H244.886M263.432 436.558V436.197C263.432 435.645 262.984 435.197 262.432 435.197H255.265H248.098C247.546 435.197 247.098 435.645 247.098 436.197V436.558M263.432 436.558V445.767C263.432 446.319 262.984 446.767 262.432 446.767H248.098C247.546 446.767 247.098 446.319 247.098 445.767V436.558M263.432 436.558L255.865 442.234C255.509 442.5 255.02 442.5 254.665 442.234L247.098 436.558M236.209 428.391H247.098M236.209 432.985H241.823M243.525 420.224H250.841C251.408 420.224 252.543 420.497 252.543 421.586C252.543 422.675 251.408 422.947 250.841 422.947H243.525C242.958 422.947 241.823 422.675 241.823 421.586C241.823 420.497 242.958 420.224 243.525 420.224Z" stroke="#79AC2B" stroke-width="2" stroke-linecap="round"/>
<path d="M21.8764 79.0028V89.1846H19.7486V80.7528H15.6321V89.1846H13.5043V79.0028H21.8764ZM27.3365 89.3337C26.5642 89.3337 25.8964 89.1697 25.3329 88.8415C24.7728 88.5101 24.3403 88.0494 24.0353 87.4594C23.7304 86.8662 23.5779 86.1784 23.5779 85.3962C23.5779 84.6074 23.7304 83.918 24.0353 83.328C24.3403 82.7348 24.7728 82.2741 25.3329 81.9459C25.8964 81.6145 26.5642 81.4488 27.3365 81.4488C28.1087 81.4488 28.7749 81.6145 29.335 81.9459C29.8985 82.2741 30.3327 82.7348 30.6376 83.328C30.9425 83.918 31.095 84.6074 31.095 85.3962C31.095 86.1784 30.9425 86.8662 30.6376 87.4594C30.3327 88.0494 29.8985 88.5101 29.335 88.8415C28.7749 89.1697 28.1087 89.3337 27.3365 89.3337ZM27.3464 87.6931C27.6977 87.6931 27.9911 87.5937 28.2264 87.3948C28.4617 87.1926 28.639 86.9175 28.7583 86.5695C28.881 86.2215 28.9423 85.8254 28.9423 85.3813C28.9423 84.9372 28.881 84.5411 28.7583 84.1931C28.639 83.8451 28.4617 83.57 28.2264 83.3678C27.9911 83.1656 27.6977 83.0645 27.3464 83.0645C26.9918 83.0645 26.6935 83.1656 26.4515 83.3678C26.2129 83.57 26.0323 83.8451 25.9096 84.1931C25.7903 84.5411 25.7306 84.9372 25.7306 85.3813C25.7306 85.8254 25.7903 86.2215 25.9096 86.5695C26.0323 86.9175 26.2129 87.1926 26.4515 87.3948C26.6935 87.5937 26.9918 87.6931 27.3464 87.6931ZM32.0247 89.1846L32.0147 87.5042H32.2683C32.4473 87.5042 32.6014 87.4611 32.7306 87.3749C32.8632 87.2854 32.9726 87.1412 33.0588 86.9424C33.1449 86.7435 33.2129 86.48 33.2626 86.1519C33.3123 85.8205 33.3455 85.4128 33.362 84.9289L33.4863 81.5482H39.2931V89.1846H37.2747V83.2137H35.3904L35.2711 85.5454C35.2413 86.185 35.1634 86.7352 35.0375 87.1959C34.9148 87.6566 34.7441 88.0345 34.5254 88.3295C34.3066 88.6211 34.0431 88.8366 33.7349 88.9758C33.4267 89.115 33.0687 89.1846 32.661 89.1846H32.0247ZM41.9691 92.0482C41.7006 92.0482 41.4487 92.0267 41.2134 91.9836C40.9814 91.9438 40.7892 91.8924 40.6367 91.8295L41.114 90.2485C41.3626 90.3247 41.5863 90.3662 41.7852 90.3728C41.9873 90.3794 42.1613 90.333 42.3072 90.2336C42.4563 90.1341 42.5773 89.9651 42.6701 89.7265L42.7944 89.4033L40.055 81.5482H42.2823L43.8633 87.1562H43.9428L45.5387 81.5482H47.7809L44.8129 90.0099C44.6703 90.4208 44.4764 90.7788 44.2312 91.0837C43.9892 91.392 43.6826 91.6289 43.3114 91.7947C42.9402 91.9637 42.4928 92.0482 41.9691 92.0482ZM55.2868 81.5482V89.1846H53.2782V81.5482H55.2868ZM54.3074 84.8991V86.5695C54.1449 86.6424 53.9428 86.712 53.7008 86.7783C53.4589 86.8413 53.2053 86.8927 52.9402 86.9324C52.675 86.9722 52.4264 86.9921 52.1944 86.9921C51.0974 86.9921 50.234 86.7667 49.6042 86.316C48.9745 85.8619 48.6596 85.1377 48.6596 84.1434V81.5383H50.6582V84.1434C50.6582 84.4384 50.7079 84.672 50.8074 84.8444C50.9101 85.0167 51.0725 85.141 51.2946 85.2172C51.5199 85.2902 51.8199 85.3266 52.1944 85.3266C52.5424 85.3266 52.8838 85.2902 53.2186 85.2172C53.5533 85.1443 53.9163 85.0383 54.3074 84.8991ZM60.4112 89.3337C59.6257 89.3337 58.9496 89.1746 58.3828 88.8564C57.8194 88.5349 57.3852 88.0809 57.0803 87.4942C56.7753 86.9043 56.6229 86.2066 56.6229 85.4012C56.6229 84.6157 56.7753 83.9263 57.0803 83.333C57.3852 82.7397 57.8144 82.2774 58.3679 81.9459C58.9247 81.6145 59.5777 81.4488 60.3267 81.4488C60.8305 81.4488 61.2995 81.53 61.7337 81.6924C62.1712 81.8515 62.5523 82.0918 62.8771 82.4133C63.2053 82.7348 63.4605 83.1391 63.6428 83.6263C63.825 84.1102 63.9162 84.677 63.9162 85.3266V85.9083H57.468V84.5958H61.9226C61.9226 84.2909 61.8563 84.0207 61.7237 83.7854C61.5911 83.5501 61.4072 83.3662 61.1719 83.2336C60.9399 83.0977 60.6697 83.0297 60.3615 83.0297C60.04 83.0297 59.755 83.1043 59.5064 83.2535C59.2611 83.3993 59.0689 83.5965 58.9297 83.8451C58.7905 84.0903 58.7192 84.3638 58.7159 84.6654V85.9133C58.7159 86.2911 58.7855 86.6176 58.9247 86.8927C59.0672 87.1678 59.2678 87.3799 59.5263 87.529C59.7848 87.6782 60.0914 87.7528 60.446 87.7528C60.6813 87.7528 60.8968 87.7196 61.0923 87.6533C61.2879 87.587 61.4553 87.4876 61.5945 87.355C61.7337 87.2224 61.8397 87.06 61.9126 86.8678L63.8714 86.9971C63.772 87.4677 63.5682 87.8787 63.2599 88.23C62.955 88.578 62.5606 88.8498 62.0767 89.0454C61.5961 89.2376 61.041 89.3337 60.4112 89.3337ZM70.6129 84.5212V86.1867H66.6257V84.5212H70.6129ZM67.3217 81.5482V89.1846H65.2983V81.5482H67.3217ZM71.9403 81.5482V89.1846H69.9318V81.5482H71.9403ZM75.6069 86.3905L78.3562 81.5482H80.4442V89.1846H78.4258V84.3273L75.6864 89.1846H73.5835V81.5482H75.6069V86.3905ZM85.6222 89.3337C84.8366 89.3337 84.1605 89.1746 83.5938 88.8564C83.0303 88.5349 82.5961 88.0809 82.2912 87.4942C81.9863 86.9043 81.8338 86.2066 81.8338 85.4012C81.8338 84.6157 81.9863 83.9263 82.2912 83.333C82.5961 82.7397 83.0253 82.2774 83.5788 81.9459C84.1357 81.6145 84.7886 81.4488 85.5376 81.4488C86.0414 81.4488 86.5104 81.53 86.9446 81.6924C87.3821 81.8515 87.7633 82.0918 88.0881 82.4133C88.4162 82.7348 88.6714 83.1391 88.8537 83.6263C89.036 84.1102 89.1271 84.677 89.1271 85.3266V85.9083H82.679V84.5958H87.1335C87.1335 84.2909 87.0672 84.0207 86.9347 83.7854C86.8021 83.5501 86.6181 83.3662 86.3828 83.2336C86.1508 83.0977 85.8807 83.0297 85.5724 83.0297C85.2509 83.0297 84.9659 83.1043 84.7173 83.2535C84.4721 83.3993 84.2798 83.5965 84.1406 83.8451C84.0014 84.0903 83.9302 84.3638 83.9268 84.6654V85.9133C83.9268 86.2911 83.9964 86.6176 84.1357 86.8927C84.2782 87.1678 84.4787 87.3799 84.7372 87.529C84.9957 87.6782 85.3023 87.7528 85.657 87.7528C85.8923 87.7528 86.1077 87.7196 86.3033 87.6533C86.4988 87.587 86.6662 87.4876 86.8054 87.355C86.9446 87.2224 87.0507 87.06 87.1236 86.8678L89.0824 86.9971C88.983 87.4677 88.7791 87.8787 88.4709 88.23C88.166 88.578 87.7715 88.8498 87.2876 89.0454C86.8071 89.2376 86.2519 89.3337 85.6222 89.3337ZM27.2464 104.022H29.2996C29.3096 104.274 29.4223 104.473 29.6377 104.619C29.8531 104.764 30.1315 104.837 30.4729 104.837C30.8176 104.837 31.1076 104.758 31.343 104.599C31.5783 104.436 31.6959 104.204 31.6959 103.903C31.6959 103.717 31.6495 103.556 31.5567 103.42C31.4639 103.281 31.3347 103.172 31.1689 103.092C31.0032 103.013 30.811 102.973 30.5922 102.973H29.4935V101.586H30.5922C30.9204 101.586 31.1723 101.51 31.3479 101.357C31.5269 101.205 31.6164 101.014 31.6164 100.785C31.6164 100.527 31.5236 100.32 31.338 100.164C31.1557 100.005 30.9088 99.9253 30.5972 99.9253C30.2823 99.9253 30.0205 99.9966 29.8117 100.139C29.6062 100.278 29.5001 100.461 29.4935 100.686H27.4502C27.4568 100.229 27.5944 99.8325 27.8628 99.4978C28.1346 99.163 28.4992 98.9045 28.9566 98.7222C29.4173 98.5399 29.9327 98.4488 30.5028 98.4488C31.1259 98.4488 31.6628 98.5366 32.1135 98.7123C32.5676 98.8846 32.9156 99.1315 33.1576 99.453C33.4028 99.7745 33.5255 100.157 33.5255 100.601C33.5255 101.006 33.3929 101.344 33.1278 101.616C32.8626 101.887 32.4914 102.081 32.0141 102.197V102.277C32.329 102.297 32.614 102.381 32.8692 102.53C33.1244 102.68 33.3283 102.885 33.4807 103.147C33.6332 103.405 33.7094 103.712 33.7094 104.067C33.7094 104.541 33.5702 104.947 33.2918 105.285C33.0167 105.623 32.6356 105.883 32.1483 106.065C31.6644 106.244 31.1093 106.334 30.4829 106.334C29.873 106.334 29.3261 106.246 28.8422 106.07C28.3617 105.891 27.9788 105.629 27.6938 105.285C27.4121 104.94 27.2629 104.519 27.2464 104.022ZM37.1858 106.329C36.6986 106.329 36.2644 106.244 35.8833 106.075C35.5021 105.903 35.2005 105.649 34.9784 105.315C34.7597 104.976 34.6503 104.556 34.6503 104.052C34.6503 103.628 34.7282 103.271 34.884 102.983C35.0397 102.695 35.2519 102.463 35.5203 102.287C35.7888 102.111 36.0937 101.979 36.4351 101.889C36.7798 101.8 37.1411 101.737 37.5189 101.7C37.963 101.654 38.321 101.611 38.5928 101.571C38.8646 101.528 39.0618 101.465 39.1844 101.382C39.307 101.299 39.3683 101.177 39.3683 101.014V100.984C39.3683 100.669 39.2689 100.426 39.07 100.253C38.8745 100.081 38.5961 99.9949 38.2348 99.9949C37.8537 99.9949 37.5504 100.079 37.325 100.248C37.0996 100.414 36.9505 100.623 36.8776 100.875L34.9188 100.716C35.0182 100.252 35.2137 99.8508 35.5054 99.5127C35.7971 99.1713 36.1733 98.9095 36.634 98.7272C37.098 98.5416 37.6349 98.4488 38.2448 98.4488C38.669 98.4488 39.075 98.4985 39.4628 98.5979C39.8539 98.6974 40.2003 98.8515 40.5019 99.0603C40.8068 99.2691 41.0471 99.5376 41.2227 99.8657C41.3984 100.19 41.4862 100.58 41.4862 101.034V106.185H39.4777V105.126H39.4181C39.2954 105.364 39.1314 105.575 38.9259 105.757C38.7204 105.936 38.4735 106.077 38.1851 106.18C37.8968 106.279 37.5637 106.329 37.1858 106.329ZM37.7923 104.867C38.1039 104.867 38.379 104.806 38.6176 104.683C38.8563 104.557 39.0435 104.388 39.1794 104.176C39.3153 103.964 39.3833 103.724 39.3833 103.455V102.645C39.317 102.688 39.2258 102.728 39.1098 102.764C38.9971 102.797 38.8695 102.829 38.727 102.859C38.5845 102.885 38.442 102.91 38.2994 102.933C38.1569 102.953 38.0277 102.971 37.9117 102.988C37.6631 103.024 37.446 103.082 37.2604 103.162C37.0748 103.241 36.9306 103.349 36.8279 103.485C36.7251 103.618 36.6737 103.783 36.6737 103.982C36.6737 104.271 36.7781 104.491 36.9869 104.643C37.1991 104.793 37.4675 104.867 37.7923 104.867ZM47.6038 106.185V100.209H46.172C45.7842 100.209 45.4892 100.298 45.287 100.477C45.0848 100.656 44.9854 100.868 44.9887 101.114C44.9854 101.362 45.0815 101.573 45.2771 101.745C45.4759 101.914 45.7676 101.998 46.1521 101.998H48.3097V103.43H46.1521C45.4991 103.43 44.934 103.331 44.4568 103.132C43.9795 102.933 43.6116 102.656 43.3531 102.302C43.0945 101.944 42.9669 101.528 42.9703 101.054C42.9669 100.557 43.0945 100.121 43.3531 99.7464C43.6116 99.3685 43.9811 99.0752 44.4617 98.8664C44.9456 98.6543 45.5157 98.5482 46.172 98.5482H49.5775V106.185H47.6038ZM42.7515 106.185L44.8744 102.207H46.8978L44.7799 106.185H42.7515ZM51.2231 106.185V98.5482H54.4795C55.4208 98.5482 56.1649 98.7272 56.7117 99.0851C57.2586 99.4431 57.532 99.9519 57.532 100.611C57.532 101.026 57.3779 101.37 57.0697 101.646C56.7615 101.921 56.3339 102.106 55.787 102.202C56.2444 102.235 56.6338 102.34 56.9553 102.516C57.2802 102.688 57.5271 102.912 57.6961 103.187C57.8685 103.462 57.9546 103.767 57.9546 104.101C57.9546 104.536 57.8386 104.909 57.6066 105.22C57.3779 105.532 57.0415 105.77 56.5974 105.936C56.1566 106.102 55.618 106.185 54.9816 106.185H51.2231ZM53.1968 104.599H54.9816C55.2766 104.599 55.507 104.529 55.6727 104.39C55.8417 104.247 55.9262 104.053 55.9262 103.808C55.9262 103.536 55.8417 103.323 55.6727 103.167C55.507 103.011 55.2766 102.933 54.9816 102.933H53.1968V104.599ZM53.1968 101.69H54.5242C54.7364 101.69 54.917 101.66 55.0661 101.601C55.2186 101.538 55.3346 101.448 55.4142 101.332C55.497 101.216 55.5384 101.079 55.5384 100.92C55.5384 100.684 55.444 100.5 55.2551 100.368C55.0661 100.235 54.8076 100.169 54.4795 100.169H53.1968V101.69ZM59.2895 106.185V98.5482H61.4074V101.511H62.004L64.0821 98.5482H66.5679L63.8683 102.337L66.5977 106.185H64.0821L62.1979 103.475H61.4074V106.185H59.2895ZM69.5161 103.391L72.2654 98.5482H74.3534V106.185H72.335V101.327L69.5956 106.185H67.4926V98.5482H69.5161V103.391Z" fill="black"/>
<path d="M205.045 149L201.773 144.66H201.038V149H198.885V138.818H201.038V142.885H201.47L204.851 138.818H207.531L203.558 143.541L207.714 149H205.045ZM211.647 149.149C210.875 149.149 210.207 148.985 209.643 148.657C209.083 148.326 208.651 147.865 208.346 147.275C208.041 146.682 207.888 145.994 207.888 145.212C207.888 144.423 208.041 143.733 208.346 143.143C208.651 142.55 209.083 142.089 209.643 141.761C210.207 141.43 210.875 141.264 211.647 141.264C212.419 141.264 213.085 141.43 213.646 141.761C214.209 142.089 214.643 142.55 214.948 143.143C215.253 143.733 215.406 144.423 215.406 145.212C215.406 145.994 215.253 146.682 214.948 147.275C214.643 147.865 214.209 148.326 213.646 148.657C213.085 148.985 212.419 149.149 211.647 149.149ZM211.657 147.509C212.008 147.509 212.302 147.409 212.537 147.21C212.772 147.008 212.95 146.733 213.069 146.385C213.192 146.037 213.253 145.641 213.253 145.197C213.253 144.753 213.192 144.357 213.069 144.009C212.95 143.661 212.772 143.385 212.537 143.183C212.302 142.981 212.008 142.88 211.657 142.88C211.302 142.88 211.004 142.981 210.762 143.183C210.523 143.385 210.343 143.661 210.22 144.009C210.101 144.357 210.041 144.753 210.041 145.197C210.041 145.641 210.101 146.037 210.22 146.385C210.343 146.733 210.523 147.008 210.762 147.21C211.004 147.409 211.302 147.509 211.657 147.509ZM222.097 144.337V146.002H218.11V144.337H222.097ZM218.806 141.364V149H216.783V141.364H218.806ZM223.425 141.364V149H221.416V141.364H223.425ZM228.518 149.149C227.736 149.149 227.063 148.983 226.5 148.652C225.94 148.317 225.509 147.853 225.207 147.26C224.909 146.667 224.76 145.984 224.76 145.212C224.76 144.429 224.91 143.743 225.212 143.153C225.517 142.56 225.949 142.098 226.51 141.766C227.07 141.432 227.736 141.264 228.508 141.264C229.174 141.264 229.758 141.385 230.258 141.627C230.759 141.869 231.155 142.209 231.446 142.646C231.738 143.084 231.899 143.598 231.929 144.188H229.93C229.874 143.806 229.725 143.5 229.483 143.268C229.244 143.032 228.931 142.915 228.543 142.915C228.215 142.915 227.928 143.004 227.683 143.183C227.441 143.359 227.252 143.616 227.116 143.954C226.98 144.292 226.912 144.701 226.912 145.182C226.912 145.669 226.979 146.083 227.111 146.425C227.247 146.766 227.438 147.026 227.683 147.205C227.928 147.384 228.215 147.474 228.543 147.474C228.785 147.474 229.002 147.424 229.194 147.325C229.39 147.225 229.551 147.081 229.676 146.892C229.806 146.7 229.89 146.469 229.93 146.201H231.929C231.895 146.784 231.736 147.298 231.451 147.742C231.17 148.183 230.78 148.528 230.283 148.776C229.786 149.025 229.198 149.149 228.518 149.149ZM234.592 151.864C234.324 151.864 234.072 151.842 233.836 151.799C233.604 151.759 233.412 151.708 233.26 151.645L233.737 150.064C233.986 150.14 234.209 150.182 234.408 150.188C234.61 150.195 234.784 150.148 234.93 150.049C235.079 149.95 235.2 149.781 235.293 149.542L235.417 149.219L232.678 141.364H234.905L236.486 146.972H236.566L238.162 141.364H240.404L237.436 149.825C237.293 150.236 237.099 150.594 236.854 150.899C236.612 151.207 236.306 151.444 235.934 151.61C235.563 151.779 235.116 151.864 234.592 151.864ZM240.425 149L240.415 147.32H240.669C240.848 147.32 241.002 147.277 241.131 147.19C241.264 147.101 241.373 146.957 241.459 146.758C241.545 146.559 241.613 146.295 241.663 145.967C241.713 145.636 241.746 145.228 241.762 144.744L241.887 141.364H247.694V149H245.675V143.029H243.791L243.672 145.361C243.642 146 243.564 146.551 243.438 147.011C243.315 147.472 243.145 147.85 242.926 148.145C242.707 148.437 242.444 148.652 242.135 148.791C241.827 148.93 241.469 149 241.061 149H240.425ZM250.663 143.71H252.945C253.956 143.71 254.744 143.952 255.311 144.436C255.878 144.917 256.161 145.56 256.161 146.365C256.161 146.889 256.034 147.349 255.779 147.747C255.523 148.142 255.155 148.45 254.675 148.672C254.194 148.891 253.618 149 252.945 149H249.335V141.364H251.359V147.335H252.945C253.299 147.335 253.591 147.245 253.82 147.066C254.048 146.887 254.164 146.658 254.168 146.38C254.164 146.085 254.048 145.845 253.82 145.659C253.591 145.47 253.299 145.376 252.945 145.376H250.663V143.71ZM256.375 143.029V141.364H263.296V143.029H260.835V149H258.816V143.029H256.375ZM266.484 149.144C265.996 149.144 265.562 149.06 265.181 148.891C264.8 148.718 264.498 148.465 264.276 148.13C264.058 147.792 263.948 147.371 263.948 146.867C263.948 146.443 264.026 146.087 264.182 145.798C264.338 145.51 264.55 145.278 264.818 145.102C265.087 144.927 265.392 144.794 265.733 144.705C266.078 144.615 266.439 144.552 266.817 144.516C267.261 144.469 267.619 144.426 267.891 144.386C268.162 144.343 268.36 144.28 268.482 144.197C268.605 144.115 268.666 143.992 268.666 143.83V143.8C268.666 143.485 268.567 143.241 268.368 143.069C268.172 142.897 267.894 142.81 267.533 142.81C267.152 142.81 266.848 142.895 266.623 143.064C266.397 143.23 266.248 143.438 266.175 143.69L264.217 143.531C264.316 143.067 264.512 142.666 264.803 142.328C265.095 141.987 265.471 141.725 265.932 141.543C266.396 141.357 266.933 141.264 267.543 141.264C267.967 141.264 268.373 141.314 268.761 141.413C269.152 141.513 269.498 141.667 269.8 141.876C270.105 142.085 270.345 142.353 270.521 142.681C270.696 143.006 270.784 143.395 270.784 143.849V149H268.776V147.941H268.716C268.593 148.18 268.429 148.39 268.224 148.572C268.018 148.751 267.771 148.892 267.483 148.995C267.195 149.094 266.862 149.144 266.484 149.144ZM267.09 147.683C267.402 147.683 267.677 147.621 267.915 147.499C268.154 147.373 268.341 147.204 268.477 146.991C268.613 146.779 268.681 146.539 268.681 146.271V145.46C268.615 145.503 268.524 145.543 268.408 145.58C268.295 145.613 268.167 145.644 268.025 145.674C267.882 145.701 267.74 145.725 267.597 145.749C267.455 145.768 267.326 145.787 267.21 145.803C266.961 145.84 266.744 145.898 266.558 145.977C266.373 146.057 266.228 146.165 266.126 146.3C266.023 146.433 265.972 146.599 265.972 146.798C265.972 147.086 266.076 147.306 266.285 147.459C266.497 147.608 266.765 147.683 267.09 147.683ZM279.104 141.364V147.538H280.322V151.456H278.264V149H272.427V141.364H274.451V147.335H277.105V141.364H279.104ZM283.652 146.206L286.401 141.364H288.489V149H286.471V144.143L283.731 149H281.628V141.364H283.652V146.206ZM294.661 149V143.024H293.23C292.842 143.024 292.547 143.114 292.345 143.293C292.142 143.472 292.043 143.684 292.046 143.929C292.043 144.178 292.139 144.388 292.335 144.56C292.534 144.729 292.825 144.814 293.21 144.814H295.367V146.246H293.21C292.557 146.246 291.992 146.146 291.514 145.947C291.037 145.749 290.669 145.472 290.411 145.117C290.152 144.759 290.025 144.343 290.028 143.869C290.025 143.372 290.152 142.936 290.411 142.562C290.669 142.184 291.039 141.891 291.519 141.682C292.003 141.47 292.573 141.364 293.23 141.364H296.635V149H294.661ZM289.809 149L291.932 145.023H293.955L291.838 149H289.809Z" fill="black"/>
<path d="M18.6977 223.818V234H16.5699V225.568H12.4534V234H10.3256V223.818H18.6977ZM24.1578 234.149C23.3855 234.149 22.7177 233.985 22.1542 233.657C21.5941 233.326 21.1615 232.865 20.8566 232.275C20.5517 231.682 20.3992 230.994 20.3992 230.212C20.3992 229.423 20.5517 228.733 20.8566 228.143C21.1615 227.55 21.5941 227.089 22.1542 226.761C22.7177 226.43 23.3855 226.264 24.1578 226.264C24.93 226.264 25.5962 226.43 26.1563 226.761C26.7198 227.089 27.154 227.55 27.4589 228.143C27.7638 228.733 27.9163 229.423 27.9163 230.212C27.9163 230.994 27.7638 231.682 27.4589 232.275C27.154 232.865 26.7198 233.326 26.1563 233.657C25.5962 233.985 24.93 234.149 24.1578 234.149ZM24.1677 232.509C24.519 232.509 24.8124 232.409 25.0477 232.21C25.283 232.008 25.4603 231.733 25.5796 231.385C25.7023 231.037 25.7636 230.641 25.7636 230.197C25.7636 229.753 25.7023 229.357 25.5796 229.009C25.4603 228.661 25.283 228.385 25.0477 228.183C24.8124 227.981 24.519 227.88 24.1677 227.88C23.8131 227.88 23.5148 227.981 23.2728 228.183C23.0342 228.385 22.8535 228.661 22.7309 229.009C22.6116 229.357 22.5519 229.753 22.5519 230.197C22.5519 230.641 22.6116 231.037 22.7309 231.385C22.8535 231.733 23.0342 232.008 23.2728 232.21C23.5148 232.409 23.8131 232.509 24.1677 232.509ZM28.6968 236.237V232.32H29.2835C29.4525 232.214 29.5884 232.045 29.6911 231.812C29.7972 231.58 29.8834 231.307 29.9497 230.992C30.0193 230.677 30.0723 230.338 30.1088 229.973C30.1485 229.605 30.1833 229.234 30.2132 228.859L30.412 226.364H36.2686V232.32H37.4518V236.237H35.4333V234H30.765V236.237H28.6968ZM31.3914 232.32H34.27V227.994H32.2117L32.1322 228.859C32.0758 229.675 31.9946 230.367 31.8886 230.938C31.7825 231.504 31.6168 231.965 31.3914 232.32ZM43.9161 226.364V228.029H40.7442V234H38.686V226.364H43.9161ZM48.3843 234.149C47.6121 234.149 46.9442 233.985 46.3808 233.657C45.8206 233.326 45.3881 232.865 45.0832 232.275C44.7783 231.682 44.6258 230.994 44.6258 230.212C44.6258 229.423 44.7783 228.733 45.0832 228.143C45.3881 227.55 45.8206 227.089 46.3808 226.761C46.9442 226.43 47.6121 226.264 48.3843 226.264C49.1566 226.264 49.8228 226.43 50.3829 226.761C50.9463 227.089 51.3805 227.55 51.6855 228.143C51.9904 228.733 52.1428 229.423 52.1428 230.212C52.1428 230.994 51.9904 231.682 51.6855 232.275C51.3805 232.865 50.9463 233.326 50.3829 233.657C49.8228 233.985 49.1566 234.149 48.3843 234.149ZM48.3943 232.509C48.7456 232.509 49.0389 232.409 49.2742 232.21C49.5096 232.008 49.6869 231.733 49.8062 231.385C49.9288 231.037 49.9901 230.641 49.9901 230.197C49.9901 229.753 49.9288 229.357 49.8062 229.009C49.6869 228.661 49.5096 228.385 49.2742 228.183C49.0389 227.981 48.7456 227.88 48.3943 227.88C48.0396 227.88 47.7413 227.981 47.4994 228.183C47.2607 228.385 47.0801 228.661 46.9575 229.009C46.8382 229.357 46.7785 229.753 46.7785 230.197C46.7785 230.641 46.8382 231.037 46.9575 231.385C47.0801 231.733 47.2607 232.008 47.4994 232.21C47.7413 232.409 48.0396 232.509 48.3943 232.509ZM52.7805 228.029V226.364H59.7009V228.029H57.24V234H55.2215V228.029H52.7805ZM64.1617 234.149C63.3894 234.149 62.7216 233.985 62.1581 233.657C61.598 233.326 61.1655 232.865 60.8605 232.275C60.5556 231.682 60.4031 230.994 60.4031 230.212C60.4031 229.423 60.5556 228.733 60.8605 228.143C61.1655 227.55 61.598 227.089 62.1581 226.761C62.7216 226.43 63.3894 226.264 64.1617 226.264C64.9339 226.264 65.6001 226.43 66.1602 226.761C66.7237 227.089 67.1579 227.55 67.4628 228.143C67.7677 228.733 67.9202 229.423 67.9202 230.212C67.9202 230.994 67.7677 231.682 67.4628 232.275C67.1579 232.865 66.7237 233.326 66.1602 233.657C65.6001 233.985 64.9339 234.149 64.1617 234.149ZM64.1716 232.509C64.5229 232.509 64.8163 232.409 65.0516 232.21C65.2869 232.008 65.4642 231.733 65.5835 231.385C65.7062 231.037 65.7675 230.641 65.7675 230.197C65.7675 229.753 65.7062 229.357 65.5835 229.009C65.4642 228.661 65.2869 228.385 65.0516 228.183C64.8163 227.981 64.5229 227.88 64.1716 227.88C63.817 227.88 63.5187 227.981 63.2767 228.183C63.0381 228.385 62.8575 228.661 62.7348 229.009C62.6155 229.357 62.5558 229.753 62.5558 230.197C62.5558 230.641 62.6155 231.037 62.7348 231.385C62.8575 231.733 63.0381 232.008 63.2767 232.21C63.5187 232.409 63.817 232.509 64.1716 232.509ZM69.2973 234V226.364H72.5537C73.495 226.364 74.2391 226.543 74.786 226.901C75.3328 227.259 75.6063 227.767 75.6063 228.427C75.6063 228.841 75.4521 229.186 75.1439 229.461C74.8357 229.736 74.4081 229.922 73.8612 230.018C74.3186 230.051 74.7081 230.155 75.0296 230.331C75.3544 230.503 75.6013 230.727 75.7703 231.002C75.9427 231.277 76.0289 231.582 76.0289 231.917C76.0289 232.351 75.9128 232.724 75.6808 233.036C75.4521 233.347 75.1157 233.586 74.6716 233.751C74.2308 233.917 73.6922 234 73.0558 234H69.2973ZM71.271 232.414H73.0558C73.3508 232.414 73.5812 232.344 73.7469 232.205C73.9159 232.063 74.0004 231.869 74.0004 231.624C74.0004 231.352 73.9159 231.138 73.7469 230.982C73.5812 230.826 73.3508 230.749 73.0558 230.749H71.271V232.414ZM71.271 229.506H72.5985C72.8106 229.506 72.9912 229.476 73.1404 229.416C73.2928 229.353 73.4088 229.264 73.4884 229.148C73.5712 229.032 73.6127 228.894 73.6127 228.735C73.6127 228.5 73.5182 228.316 73.3293 228.183C73.1404 228.051 72.8818 227.984 72.5537 227.984H71.271V229.506ZM77.3637 234V226.364H79.4816V229.327H80.0782L82.1563 226.364H84.6421L81.9426 230.152L84.672 234H82.1563L80.2721 231.29H79.4816V234H77.3637ZM87.7444 234.144C87.2572 234.144 86.823 234.06 86.4419 233.891C86.0607 233.718 85.7591 233.465 85.537 233.13C85.3183 232.792 85.2089 232.371 85.2089 231.867C85.2089 231.443 85.2868 231.087 85.4426 230.798C85.5983 230.51 85.8105 230.278 86.0789 230.102C86.3474 229.927 86.6523 229.794 86.9937 229.705C87.3384 229.615 87.6997 229.552 88.0775 229.516C88.5216 229.469 88.8796 229.426 89.1514 229.386C89.4231 229.343 89.6204 229.28 89.743 229.197C89.8656 229.115 89.9269 228.992 89.9269 228.83V228.8C89.9269 228.485 89.8275 228.241 89.6286 228.069C89.4331 227.897 89.1547 227.81 88.7934 227.81C88.4123 227.81 88.109 227.895 87.8836 228.064C87.6582 228.23 87.5091 228.438 87.4362 228.69L85.4774 228.531C85.5768 228.067 85.7723 227.666 86.064 227.328C86.3557 226.987 86.7319 226.725 87.1926 226.543C87.6566 226.357 88.1935 226.264 88.8034 226.264C89.2276 226.264 89.6336 226.314 90.0214 226.413C90.4125 226.513 90.7588 226.667 91.0605 226.876C91.3654 227.085 91.6057 227.353 91.7813 227.681C91.957 228.006 92.0448 228.395 92.0448 228.849V234H90.0363V232.941H89.9767C89.854 233.18 89.69 233.39 89.4845 233.572C89.279 233.751 89.032 233.892 88.7437 233.995C88.4553 234.094 88.1222 234.144 87.7444 234.144ZM88.3509 232.683C88.6625 232.683 88.9376 232.621 89.1762 232.499C89.4149 232.373 89.6021 232.204 89.738 231.991C89.8739 231.779 89.9419 231.539 89.9419 231.271V230.46C89.8756 230.503 89.7844 230.543 89.6684 230.58C89.5557 230.613 89.4281 230.644 89.2856 230.674C89.1431 230.701 89.0006 230.725 88.858 230.749C88.7155 230.768 88.5863 230.787 88.4703 230.803C88.2217 230.84 88.0046 230.898 87.819 230.977C87.6334 231.057 87.4892 231.165 87.3865 231.3C87.2837 231.433 87.2323 231.599 87.2323 231.798C87.2323 232.086 87.3367 232.306 87.5455 232.459C87.7577 232.608 88.0261 232.683 88.3509 232.683ZM8.38725 253.237V249.32H8.9739C9.14293 249.214 9.27882 249.045 9.38157 248.812C9.48763 248.58 9.5738 248.307 9.64009 247.992C9.70969 247.677 9.76272 247.338 9.79918 246.973C9.83896 246.605 9.87376 246.234 9.90359 245.859L10.1025 243.364H15.959V249.32H17.1422V253.237H15.1238V251H10.4554V253.237H8.38725ZM11.0819 249.32H13.9604V244.994H11.9022L11.8226 245.859C11.7663 246.675 11.6851 247.367 11.579 247.938C11.473 248.504 11.3072 248.965 11.0819 249.32ZM21.8267 251.149C21.0545 251.149 20.3866 250.985 19.8232 250.657C19.263 250.326 18.8305 249.865 18.5256 249.275C18.2206 248.682 18.0682 247.994 18.0682 247.212C18.0682 246.423 18.2206 245.733 18.5256 245.143C18.8305 244.55 19.263 244.089 19.8232 243.761C20.3866 243.43 21.0545 243.264 21.8267 243.264C22.599 243.264 23.2652 243.43 23.8253 243.761C24.3887 244.089 24.8229 244.55 25.1278 245.143C25.4328 245.733 25.5852 246.423 25.5852 247.212C25.5852 247.994 25.4328 248.682 25.1278 249.275C24.8229 249.865 24.3887 250.326 23.8253 250.657C23.2652 250.985 22.599 251.149 21.8267 251.149ZM21.8366 249.509C22.188 249.509 22.4813 249.409 22.7166 249.21C22.9519 249.008 23.1293 248.733 23.2486 248.385C23.3712 248.037 23.4325 247.641 23.4325 247.197C23.4325 246.753 23.3712 246.357 23.2486 246.009C23.1293 245.661 22.9519 245.385 22.7166 245.183C22.4813 244.981 22.188 244.88 21.8366 244.88C21.482 244.88 21.1837 244.981 20.9418 245.183C20.7031 245.385 20.5225 245.661 20.3999 246.009C20.2805 246.357 20.2209 246.753 20.2209 247.197C20.2209 247.641 20.2805 248.037 20.3999 248.385C20.5225 248.733 20.7031 249.008 20.9418 249.21C21.1837 249.409 21.482 249.509 21.8366 249.509ZM26.9624 251V243.364H29.0803V246.327H29.6768L31.755 243.364H34.2408L31.5412 247.152L34.2706 251H31.755L29.8707 248.29H29.0803V251H26.9624ZM36.5961 253.864C36.3276 253.864 36.0757 253.842 35.8404 253.799C35.6084 253.759 35.4161 253.708 35.2637 253.645L35.7409 252.064C35.9895 252.14 36.2132 252.182 36.4121 252.188C36.6143 252.195 36.7883 252.148 36.9341 252.049C37.0833 251.95 37.2042 251.781 37.2971 251.542L37.4213 251.219L34.682 243.364H36.9093L38.4902 248.972H38.5698L40.1657 243.364H42.4078L39.4398 251.825C39.2973 252.236 39.1034 252.594 38.8581 252.899C38.6162 253.207 38.3096 253.444 37.9384 253.61C37.5672 253.779 37.1197 253.864 36.5961 253.864ZM48.0059 248.658L50.074 243.364H51.6848L48.7069 251H47.2999L44.3915 243.364H45.9973L48.0059 248.658ZM45.5151 243.364V251H43.4917V243.364H45.5151ZM50.601 251V243.364H52.5996V251H50.601ZM57.7179 251.149C56.9324 251.149 56.2562 250.99 55.6895 250.672C55.126 250.35 54.6918 249.896 54.3869 249.31C54.082 248.72 53.9295 248.022 53.9295 247.217C53.9295 246.431 54.082 245.742 54.3869 245.148C54.6918 244.555 55.121 244.093 55.6745 243.761C56.2314 243.43 56.8843 243.264 57.6333 243.264C58.1371 243.264 58.6061 243.345 59.0403 243.508C59.4778 243.667 59.859 243.907 60.1838 244.229C60.5119 244.55 60.7671 244.955 60.9494 245.442C61.1317 245.926 61.2228 246.492 61.2228 247.142V247.724H54.7747V246.411H59.2292C59.2292 246.106 59.1629 245.836 59.0304 245.601C58.8978 245.366 58.7138 245.182 58.4785 245.049C58.2465 244.913 57.9764 244.845 57.6681 244.845C57.3467 244.845 57.0616 244.92 56.813 245.069C56.5678 245.215 56.3755 245.412 56.2363 245.661C56.0971 245.906 56.0259 246.179 56.0225 246.481V247.729C56.0225 248.107 56.0922 248.433 56.2314 248.708C56.3739 248.983 56.5744 249.195 56.8329 249.344C57.0914 249.494 57.398 249.568 57.7527 249.568C57.988 249.568 58.2034 249.535 58.399 249.469C58.5945 249.402 58.7619 249.303 58.9011 249.17C59.0403 249.038 59.1464 248.875 59.2193 248.683L61.1781 248.812C61.0787 249.283 60.8748 249.694 60.5666 250.045C60.2617 250.393 59.8672 250.665 59.3833 250.861C58.9028 251.053 58.3476 251.149 57.7179 251.149ZM67.9196 246.337V248.002H63.9324V246.337H67.9196ZM64.6284 243.364V251H62.6049V243.364H64.6284ZM69.247 243.364V251H67.2385V243.364H69.247ZM70.1232 245.029V243.364H77.0437V245.029H74.5827V251H72.5643V245.029H70.1232ZM81.5044 251.149C80.7322 251.149 80.0643 250.985 79.5009 250.657C78.9408 250.326 78.5082 249.865 78.2033 249.275C77.8984 248.682 77.7459 247.994 77.7459 247.212C77.7459 246.423 77.8984 245.733 78.2033 245.143C78.5082 244.55 78.9408 244.089 79.5009 243.761C80.0643 243.43 80.7322 243.264 81.5044 243.264C82.2767 243.264 82.9429 243.43 83.503 243.761C84.0665 244.089 84.5007 244.55 84.8056 245.143C85.1105 245.733 85.263 246.423 85.263 247.212C85.263 247.994 85.1105 248.682 84.8056 249.275C84.5007 249.865 84.0665 250.326 83.503 250.657C82.9429 250.985 82.2767 251.149 81.5044 251.149ZM81.5144 249.509C81.8657 249.509 82.159 249.409 82.3944 249.21C82.6297 249.008 82.807 248.733 82.9263 248.385C83.0489 248.037 83.1103 247.641 83.1103 247.197C83.1103 246.753 83.0489 246.357 82.9263 246.009C82.807 245.661 82.6297 245.385 82.3944 245.183C82.159 244.981 81.8657 244.88 81.5144 244.88C81.1597 244.88 80.8614 244.981 80.6195 245.183C80.3809 245.385 80.2002 245.661 80.0776 246.009C79.9583 246.357 79.8986 246.753 79.8986 247.197C79.8986 247.641 79.9583 248.037 80.0776 248.385C80.2002 248.733 80.3809 249.008 80.6195 249.21C80.8614 249.409 81.1597 249.509 81.5144 249.509ZM86.6401 251V243.364H89.8965C90.8378 243.364 91.5819 243.543 92.1287 243.901C92.6756 244.259 92.949 244.767 92.949 245.427C92.949 245.841 92.7949 246.186 92.4867 246.461C92.1784 246.736 91.7509 246.922 91.204 247.018C91.6614 247.051 92.0508 247.155 92.3723 247.331C92.6971 247.503 92.9441 247.727 93.1131 248.002C93.2855 248.277 93.3716 248.582 93.3716 248.917C93.3716 249.351 93.2556 249.724 93.0236 250.036C92.7949 250.347 92.4585 250.586 92.0144 250.751C91.5736 250.917 91.035 251 90.3986 251H86.6401ZM88.6138 249.414H90.3986C90.6936 249.414 90.9239 249.344 91.0897 249.205C91.2587 249.063 91.3432 248.869 91.3432 248.624C91.3432 248.352 91.2587 248.138 91.0897 247.982C90.9239 247.826 90.6936 247.749 90.3986 247.749H88.6138V249.414ZM88.6138 246.506H89.9412C90.1534 246.506 90.334 246.476 90.4831 246.416C90.6356 246.353 90.7516 246.264 90.8311 246.148C90.914 246.032 90.9554 245.894 90.9554 245.735C90.9554 245.5 90.861 245.316 90.6721 245.183C90.4831 245.051 90.2246 244.984 89.8965 244.984H88.6138V246.506Z" fill="black"/>
<path d="M208.846 310.139C208.103 310.139 207.442 310.012 206.862 309.756C206.285 309.498 205.83 309.143 205.495 308.692C205.163 308.238 204.993 307.715 204.983 307.121H207.15C207.164 307.37 207.245 307.589 207.394 307.778C207.546 307.963 207.749 308.107 208 308.21C208.252 308.313 208.536 308.364 208.851 308.364C209.179 308.364 209.469 308.306 209.721 308.19C209.973 308.074 210.17 307.914 210.312 307.708C210.455 307.503 210.526 307.266 210.526 306.997C210.526 306.725 210.45 306.485 210.297 306.276C210.148 306.064 209.933 305.898 209.651 305.779C209.373 305.66 209.041 305.6 208.657 305.6H207.707V304.019H208.657C208.982 304.019 209.268 303.963 209.517 303.85C209.769 303.737 209.964 303.582 210.103 303.383C210.243 303.181 210.312 302.945 210.312 302.677C210.312 302.422 210.251 302.198 210.128 302.006C210.009 301.81 209.84 301.658 209.621 301.548C209.406 301.439 209.154 301.384 208.866 301.384C208.574 301.384 208.307 301.437 208.065 301.543C207.823 301.646 207.629 301.794 207.483 301.986C207.338 302.178 207.26 302.403 207.25 302.662H205.187C205.196 302.075 205.364 301.558 205.689 301.111C206.013 300.663 206.451 300.314 207.001 300.062C207.555 299.807 208.179 299.679 208.875 299.679C209.578 299.679 210.193 299.807 210.72 300.062C211.247 300.317 211.656 300.662 211.948 301.096C212.243 301.527 212.389 302.011 212.385 302.548C212.389 303.118 212.211 303.593 211.853 303.974C211.499 304.356 211.036 304.598 210.466 304.7V304.78C211.215 304.876 211.785 305.136 212.177 305.56C212.571 305.981 212.767 306.508 212.763 307.141C212.767 307.721 212.599 308.237 212.261 308.688C211.926 309.138 211.464 309.493 210.874 309.751C210.284 310.01 209.608 310.139 208.846 310.139ZM216.508 310.144C216.021 310.144 215.587 310.06 215.206 309.891C214.824 309.718 214.523 309.465 214.301 309.13C214.082 308.792 213.973 308.371 213.973 307.867C213.973 307.443 214.05 307.087 214.206 306.798C214.362 306.51 214.574 306.278 214.843 306.102C215.111 305.927 215.416 305.794 215.757 305.705C216.102 305.615 216.463 305.552 216.841 305.516C217.285 305.469 217.643 305.426 217.915 305.386C218.187 305.343 218.384 305.28 218.507 305.197C218.629 305.115 218.691 304.992 218.691 304.83V304.8C218.691 304.485 218.591 304.241 218.392 304.069C218.197 303.897 217.918 303.81 217.557 303.81C217.176 303.81 216.873 303.895 216.647 304.064C216.422 304.23 216.273 304.438 216.2 304.69L214.241 304.531C214.34 304.067 214.536 303.666 214.828 303.328C215.119 302.987 215.496 302.725 215.956 302.543C216.42 302.357 216.957 302.264 217.567 302.264C217.991 302.264 218.397 302.314 218.785 302.413C219.176 302.513 219.523 302.667 219.824 302.876C220.129 303.085 220.369 303.353 220.545 303.681C220.721 304.006 220.809 304.395 220.809 304.849V310H218.8V308.941H218.74C218.618 309.18 218.454 309.39 218.248 309.572C218.043 309.751 217.796 309.892 217.507 309.995C217.219 310.094 216.886 310.144 216.508 310.144ZM217.115 308.683C217.426 308.683 217.701 308.621 217.94 308.499C218.179 308.373 218.366 308.204 218.502 307.991C218.638 307.779 218.706 307.539 218.706 307.271V306.46C218.639 306.503 218.548 306.543 218.432 306.58C218.319 306.613 218.192 306.644 218.049 306.674C217.907 306.701 217.764 306.725 217.622 306.749C217.479 306.768 217.35 306.787 217.234 306.803C216.985 306.84 216.768 306.898 216.583 306.977C216.397 307.057 216.253 307.165 216.15 307.3C216.047 307.433 215.996 307.599 215.996 307.798C215.996 308.086 216.1 308.306 216.309 308.459C216.521 308.608 216.79 308.683 217.115 308.683ZM222.452 310V302.364H224.57V305.327H225.166L227.244 302.364H229.73L227.03 306.152L229.76 310H227.244L225.36 307.29H224.57V310H222.452ZM230.207 310L230.197 308.32H230.451C230.63 308.32 230.784 308.277 230.913 308.19C231.046 308.101 231.155 307.957 231.241 307.758C231.328 307.559 231.396 307.295 231.445 306.967C231.495 306.636 231.528 306.228 231.545 305.744L231.669 302.364H237.476V310H235.457V304.029H233.573L233.454 306.361C233.424 307 233.346 307.551 233.22 308.011C233.097 308.472 232.927 308.85 232.708 309.145C232.489 309.437 232.226 309.652 231.918 309.791C231.609 309.93 231.251 310 230.844 310H230.207ZM243.339 305.381V307.062H239.197V305.381H243.339ZM240.833 302.364V310H238.72V302.364H240.833ZM245.625 310.149C244.87 310.149 244.217 309.98 243.667 309.642C243.116 309.304 242.692 308.837 242.394 308.24C242.099 307.643 241.951 306.959 241.951 306.187C241.951 305.415 242.099 304.733 242.394 304.143C242.692 303.554 243.116 303.093 243.667 302.761C244.217 302.43 244.87 302.264 245.625 302.264C246.384 302.264 247.037 302.43 247.584 302.761C248.134 303.093 248.557 303.554 248.852 304.143C249.15 304.733 249.299 305.415 249.299 306.187C249.299 306.959 249.15 307.643 248.852 308.24C248.557 308.837 248.134 309.304 247.584 309.642C247.037 309.98 246.384 310.149 245.625 310.149ZM245.625 308.439C246.02 308.439 246.338 308.343 246.58 308.151C246.822 307.955 246.999 307.688 247.112 307.35C247.225 307.009 247.281 306.621 247.281 306.187C247.281 305.753 247.225 305.368 247.112 305.033C246.999 304.695 246.822 304.43 246.58 304.238C246.338 304.046 246.02 303.95 245.625 303.95C245.234 303.95 244.916 304.046 244.671 304.238C244.426 304.427 244.245 304.689 244.129 305.023C244.016 305.358 243.96 305.746 243.96 306.187C243.96 306.624 244.016 307.012 244.129 307.35C244.245 307.688 244.426 307.955 244.671 308.151C244.916 308.343 245.234 308.439 245.625 308.439ZM257.366 302.364V310H255.357V302.364H257.366ZM256.386 305.714V307.385C256.224 307.458 256.022 307.527 255.78 307.594C255.538 307.657 255.284 307.708 255.019 307.748C254.754 307.788 254.506 307.808 254.274 307.808C253.176 307.808 252.313 307.582 251.683 307.131C251.054 306.677 250.739 305.953 250.739 304.959V302.354H252.737V304.959C252.737 305.254 252.787 305.487 252.886 305.66C252.989 305.832 253.152 305.956 253.374 306.033C253.599 306.106 253.899 306.142 254.274 306.142C254.622 306.142 254.963 306.106 255.298 306.033C255.632 305.96 255.995 305.854 256.386 305.714ZM262.49 310.149C261.705 310.149 261.029 309.99 260.462 309.672C259.898 309.35 259.464 308.896 259.159 308.31C258.854 307.72 258.702 307.022 258.702 306.217C258.702 305.431 258.854 304.742 259.159 304.148C259.464 303.555 259.893 303.093 260.447 302.761C261.004 302.43 261.657 302.264 262.406 302.264C262.91 302.264 263.379 302.345 263.813 302.508C264.25 302.667 264.631 302.907 264.956 303.229C265.284 303.55 265.54 303.955 265.722 304.442C265.904 304.926 265.995 305.492 265.995 306.142V306.724H259.547V305.411H264.002C264.002 305.106 263.935 304.836 263.803 304.601C263.67 304.366 263.486 304.182 263.251 304.049C263.019 303.913 262.749 303.845 262.441 303.845C262.119 303.845 261.834 303.92 261.585 304.069C261.34 304.215 261.148 304.412 261.009 304.661C260.87 304.906 260.798 305.179 260.795 305.481V306.729C260.795 307.107 260.865 307.433 261.004 307.708C261.146 307.983 261.347 308.195 261.605 308.344C261.864 308.494 262.17 308.568 262.525 308.568C262.76 308.568 262.976 308.535 263.171 308.469C263.367 308.402 263.534 308.303 263.674 308.17C263.813 308.038 263.919 307.875 263.992 307.683L265.951 307.812C265.851 308.283 265.647 308.694 265.339 309.045C265.034 309.393 264.64 309.665 264.156 309.861C263.675 310.053 263.12 310.149 262.49 310.149ZM272.692 305.337V307.002H268.705V305.337H272.692ZM269.401 302.364V310H267.377V302.364H269.401ZM274.019 302.364V310H272.011V302.364H274.019ZM277.686 307.206L280.435 302.364H282.523V310H280.505V305.143L277.766 310H275.663V302.364H277.686V307.206ZM287.701 310.149C286.916 310.149 286.24 309.99 285.673 309.672C285.109 309.35 284.675 308.896 284.37 308.31C284.065 307.72 283.913 307.022 283.913 306.217C283.913 305.431 284.065 304.742 284.37 304.148C284.675 303.555 285.104 303.093 285.658 302.761C286.215 302.43 286.868 302.264 287.617 302.264C288.121 302.264 288.59 302.345 289.024 302.508C289.461 302.667 289.842 302.907 290.167 303.229C290.495 303.55 290.751 303.955 290.933 304.442C291.115 304.926 291.206 305.492 291.206 306.142V306.724H284.758V305.411H289.213C289.213 305.106 289.146 304.836 289.014 304.601C288.881 304.366 288.697 304.182 288.462 304.049C288.23 303.913 287.96 303.845 287.652 303.845C287.33 303.845 287.045 303.92 286.796 304.069C286.551 304.215 286.359 304.412 286.22 304.661C286.081 304.906 286.009 305.179 286.006 305.481V306.729C286.006 307.107 286.076 307.433 286.215 307.708C286.357 307.983 286.558 308.195 286.816 308.344C287.075 308.494 287.381 308.568 287.736 308.568C287.971 308.568 288.187 308.535 288.382 308.469C288.578 308.402 288.745 308.303 288.884 308.17C289.024 308.038 289.13 307.875 289.203 307.683L291.161 307.812C291.062 308.283 290.858 308.694 290.55 309.045C290.245 309.393 289.851 309.665 289.367 309.861C288.886 310.053 288.331 310.149 287.701 310.149ZM215.026 329.237V325.32H215.613C215.782 325.214 215.917 325.045 216.02 324.812C216.126 324.58 216.212 324.307 216.279 323.992C216.348 323.677 216.401 323.338 216.438 322.973C216.478 322.605 216.512 322.234 216.542 321.859L216.741 319.364H222.598V325.32H223.781V329.237H221.762V327H217.094V329.237H215.026ZM217.721 325.32H220.599V320.994H218.541L218.461 321.859C218.405 322.675 218.324 323.367 218.218 323.938C218.112 324.504 217.946 324.965 217.721 325.32ZM228.465 327.149C227.693 327.149 227.025 326.985 226.462 326.657C225.902 326.326 225.469 325.865 225.164 325.275C224.859 324.682 224.707 323.994 224.707 323.212C224.707 322.423 224.859 321.733 225.164 321.143C225.469 320.55 225.902 320.089 226.462 319.761C227.025 319.43 227.693 319.264 228.465 319.264C229.238 319.264 229.904 319.43 230.464 319.761C231.027 320.089 231.462 320.55 231.767 321.143C232.071 321.733 232.224 322.423 232.224 323.212C232.224 323.994 232.071 324.682 231.767 325.275C231.462 325.865 231.027 326.326 230.464 326.657C229.904 326.985 229.238 327.149 228.465 327.149ZM228.475 325.509C228.827 325.509 229.12 325.409 229.355 325.21C229.591 325.008 229.768 324.733 229.887 324.385C230.01 324.037 230.071 323.641 230.071 323.197C230.071 322.753 230.01 322.357 229.887 322.009C229.768 321.661 229.591 321.385 229.355 321.183C229.12 320.981 228.827 320.88 228.475 320.88C228.121 320.88 227.822 320.981 227.58 321.183C227.342 321.385 227.161 321.661 227.039 322.009C226.919 322.357 226.86 322.753 226.86 323.197C226.86 323.641 226.919 324.037 227.039 324.385C227.161 324.733 227.342 325.008 227.58 325.21C227.822 325.409 228.121 325.509 228.475 325.509ZM238.831 319.364V321.029H235.659V327H233.601V319.364H238.831ZM243.299 327.149C242.527 327.149 241.859 326.985 241.296 326.657C240.736 326.326 240.303 325.865 239.998 325.275C239.693 324.682 239.541 323.994 239.541 323.212C239.541 322.423 239.693 321.733 239.998 321.143C240.303 320.55 240.736 320.089 241.296 319.761C241.859 319.43 242.527 319.264 243.299 319.264C244.072 319.264 244.738 319.43 245.298 319.761C245.861 320.089 246.296 320.55 246.6 321.143C246.905 321.733 247.058 322.423 247.058 323.212C247.058 323.994 246.905 324.682 246.6 325.275C246.296 325.865 245.861 326.326 245.298 326.657C244.738 326.985 244.072 327.149 243.299 327.149ZM243.309 325.509C243.661 325.509 243.954 325.409 244.189 325.21C244.425 325.008 244.602 324.733 244.721 324.385C244.844 324.037 244.905 323.641 244.905 323.197C244.905 322.753 244.844 322.357 244.721 322.009C244.602 321.661 244.425 321.385 244.189 321.183C243.954 320.981 243.661 320.88 243.309 320.88C242.955 320.88 242.656 320.981 242.414 321.183C242.176 321.385 241.995 321.661 241.873 322.009C241.753 322.357 241.694 322.753 241.694 323.197C241.694 323.641 241.753 324.037 241.873 324.385C241.995 324.733 242.176 325.008 242.414 325.21C242.656 325.409 242.955 325.509 243.309 325.509ZM248.435 327V319.364H251.691C252.633 319.364 253.377 319.543 253.924 319.901C254.471 320.259 254.744 320.767 254.744 321.427C254.744 321.841 254.59 322.186 254.282 322.461C253.973 322.736 253.546 322.922 252.999 323.018C253.456 323.051 253.846 323.155 254.167 323.331C254.492 323.503 254.739 323.727 254.908 324.002C255.08 324.277 255.167 324.582 255.167 324.917C255.167 325.351 255.051 325.724 254.819 326.036C254.59 326.347 254.253 326.586 253.809 326.751C253.368 326.917 252.83 327 252.194 327H248.435ZM250.409 325.414H252.194C252.489 325.414 252.719 325.344 252.885 325.205C253.054 325.063 253.138 324.869 253.138 324.624C253.138 324.352 253.054 324.138 252.885 323.982C252.719 323.826 252.489 323.749 252.194 323.749H250.409V325.414ZM250.409 322.506H251.736C251.948 322.506 252.129 322.476 252.278 322.416C252.431 322.353 252.547 322.264 252.626 322.148C252.709 322.032 252.75 321.894 252.75 321.735C252.75 321.5 252.656 321.316 252.467 321.183C252.278 321.051 252.02 320.984 251.691 320.984H250.409V322.506ZM259.952 327.149C259.179 327.149 258.512 326.985 257.948 326.657C257.388 326.326 256.955 325.865 256.651 325.275C256.346 324.682 256.193 323.994 256.193 323.212C256.193 322.423 256.346 321.733 256.651 321.143C256.955 320.55 257.388 320.089 257.948 319.761C258.512 319.43 259.179 319.264 259.952 319.264C260.724 319.264 261.39 319.43 261.95 319.761C262.514 320.089 262.948 320.55 263.253 321.143C263.558 321.733 263.71 322.423 263.71 323.212C263.71 323.994 263.558 324.682 263.253 325.275C262.948 325.865 262.514 326.326 261.95 326.657C261.39 326.985 260.724 327.149 259.952 327.149ZM259.962 325.509C260.313 325.509 260.606 325.409 260.842 325.21C261.077 325.008 261.254 324.733 261.374 324.385C261.496 324.037 261.558 323.641 261.558 323.197C261.558 322.753 261.496 322.357 261.374 322.009C261.254 321.661 261.077 321.385 260.842 321.183C260.606 320.981 260.313 320.88 259.962 320.88C259.607 320.88 259.309 320.981 259.067 321.183C258.828 321.385 258.647 321.661 258.525 322.009C258.406 322.357 258.346 322.753 258.346 323.197C258.346 323.641 258.406 324.037 258.525 324.385C258.647 324.733 258.828 325.008 259.067 325.21C259.309 325.409 259.607 325.509 259.962 325.509ZM265.087 329.864V319.364H267.175V320.646H267.27C267.363 320.441 267.497 320.232 267.673 320.02C267.852 319.804 268.084 319.625 268.369 319.483C268.657 319.337 269.015 319.264 269.442 319.264C269.999 319.264 270.513 319.41 270.984 319.702C271.454 319.99 271.83 320.426 272.112 321.009C272.394 321.589 272.535 322.317 272.535 323.192C272.535 324.044 272.397 324.763 272.122 325.349C271.85 325.933 271.479 326.375 271.009 326.677C270.541 326.975 270.018 327.124 269.438 327.124C269.027 327.124 268.677 327.056 268.388 326.92C268.103 326.785 267.87 326.614 267.688 326.408C267.505 326.2 267.366 325.989 267.27 325.777H267.205V329.864H265.087ZM267.161 323.182C267.161 323.636 267.223 324.032 267.349 324.37C267.475 324.708 267.658 324.972 267.896 325.161C268.135 325.346 268.425 325.439 268.766 325.439C269.111 325.439 269.403 325.344 269.641 325.156C269.88 324.963 270.061 324.698 270.183 324.36C270.309 324.019 270.372 323.626 270.372 323.182C270.372 322.741 270.311 322.353 270.188 322.018C270.066 321.684 269.885 321.422 269.646 321.233C269.408 321.044 269.114 320.95 268.766 320.95C268.422 320.95 268.13 321.041 267.891 321.223C267.656 321.405 267.475 321.664 267.349 321.999C267.223 322.333 267.161 322.728 267.161 323.182ZM276.124 327.144C275.637 327.144 275.203 327.06 274.822 326.891C274.441 326.718 274.139 326.465 273.917 326.13C273.698 325.792 273.589 325.371 273.589 324.867C273.589 324.443 273.667 324.087 273.822 323.798C273.978 323.51 274.19 323.278 274.459 323.102C274.727 322.927 275.032 322.794 275.374 322.705C275.718 322.615 276.08 322.552 276.457 322.516C276.902 322.469 277.259 322.426 277.531 322.386C277.803 322.343 278 322.28 278.123 322.197C278.246 322.115 278.307 321.992 278.307 321.83V321.8C278.307 321.485 278.207 321.241 278.009 321.069C277.813 320.897 277.535 320.81 277.173 320.81C276.792 320.81 276.489 320.895 276.263 321.064C276.038 321.23 275.889 321.438 275.816 321.69L273.857 321.531C273.957 321.067 274.152 320.666 274.444 320.328C274.736 319.987 275.112 319.725 275.572 319.543C276.036 319.357 276.573 319.264 277.183 319.264C277.607 319.264 278.013 319.314 278.401 319.413C278.792 319.513 279.139 319.667 279.44 319.876C279.745 320.085 279.986 320.353 280.161 320.681C280.337 321.006 280.425 321.395 280.425 321.849V327H278.416V325.941H278.357C278.234 326.18 278.07 326.39 277.864 326.572C277.659 326.751 277.412 326.892 277.124 326.995C276.835 327.094 276.502 327.144 276.124 327.144ZM276.731 325.683C277.042 325.683 277.317 325.621 277.556 325.499C277.795 325.373 277.982 325.204 278.118 324.991C278.254 324.779 278.322 324.539 278.322 324.271V323.46C278.255 323.503 278.164 323.543 278.048 323.58C277.936 323.613 277.808 323.644 277.665 323.674C277.523 323.701 277.38 323.725 277.238 323.749C277.095 323.768 276.966 323.787 276.85 323.803C276.602 323.84 276.384 323.898 276.199 323.977C276.013 324.057 275.869 324.165 275.766 324.3C275.664 324.433 275.612 324.599 275.612 324.798C275.612 325.086 275.717 325.306 275.925 325.459C276.138 325.608 276.406 325.683 276.731 325.683Z" fill="black"/>
<path d="M29.5178 413V402.818H33.5945C34.3435 402.818 34.9683 402.929 35.4688 403.151C35.9692 403.373 36.3454 403.682 36.5973 404.076C36.8492 404.467 36.9751 404.918 36.9751 405.428C36.9751 405.826 36.8956 406.176 36.7365 406.477C36.5774 406.776 36.3587 407.021 36.0803 407.213C35.8052 407.402 35.4903 407.536 35.1357 407.616V407.715C35.5234 407.732 35.8864 407.841 36.2244 408.043C36.5658 408.246 36.8426 408.529 37.0547 408.893C37.2668 409.255 37.3729 409.686 37.3729 410.186C37.3729 410.726 37.2386 411.209 36.9702 411.633C36.705 412.054 36.3123 412.387 35.7919 412.632C35.2715 412.877 34.6302 413 33.8679 413H29.5178ZM31.6705 411.24H33.4254C34.0253 411.24 34.4628 411.126 34.7379 410.897C35.013 410.665 35.1506 410.357 35.1506 409.972C35.1506 409.691 35.0826 409.442 34.9467 409.227C34.8108 409.011 34.617 408.842 34.3651 408.719C34.1165 408.597 33.8198 408.536 33.4751 408.536H31.6705V411.24ZM31.6705 407.079H33.2663C33.5613 407.079 33.8232 407.027 34.0518 406.925C34.2839 406.819 34.4661 406.67 34.5987 406.477C34.7346 406.285 34.8026 406.055 34.8026 405.786C34.8026 405.418 34.6716 405.122 34.4098 404.896C34.1513 404.671 33.7834 404.558 33.3061 404.558H31.6705V407.079ZM40.0613 407.71H42.3432C43.3541 407.71 44.1429 407.952 44.7097 408.436C45.2765 408.917 45.5598 409.56 45.5598 410.365C45.5598 410.889 45.4322 411.349 45.177 411.747C44.9218 412.142 44.5539 412.45 44.0733 412.672C43.5927 412.891 43.016 413 42.3432 413H38.7338V405.364H40.7573V411.335H42.3432C42.6979 411.335 42.9895 411.245 43.2182 411.066C43.4469 410.887 43.5629 410.658 43.5662 410.38C43.5629 410.085 43.4469 409.845 43.2182 409.659C42.9895 409.47 42.6979 409.376 42.3432 409.376H40.0613V407.71ZM46.3801 413V405.364H48.498V413H46.3801ZM50.1909 413V405.364H53.4473C54.3886 405.364 55.1326 405.543 55.6795 405.901C56.2264 406.259 56.4998 406.767 56.4998 407.427C56.4998 407.841 56.3457 408.186 56.0375 408.461C55.7292 408.736 55.3017 408.922 54.7548 409.018C55.2122 409.051 55.6016 409.155 55.9231 409.331C56.2479 409.503 56.4949 409.727 56.6639 410.002C56.8362 410.277 56.9224 410.582 56.9224 410.917C56.9224 411.351 56.8064 411.724 56.5744 412.036C56.3457 412.347 56.0093 412.586 55.5652 412.751C55.1243 412.917 54.5858 413 53.9494 413H50.1909ZM52.1646 411.414H53.9494C54.2444 411.414 54.4747 411.344 54.6404 411.205C54.8095 411.063 54.894 410.869 54.894 410.624C54.894 410.352 54.8095 410.138 54.6404 409.982C54.4747 409.826 54.2444 409.749 53.9494 409.749H52.1646V411.414ZM52.1646 408.506H53.492C53.7041 408.506 53.8848 408.476 54.0339 408.416C54.1864 408.353 54.3024 408.264 54.3819 408.148C54.4648 408.032 54.5062 407.894 54.5062 407.735C54.5062 407.5 54.4118 407.316 54.2228 407.183C54.0339 407.051 53.7754 406.984 53.4473 406.984H52.1646V408.506ZM61.7076 413.149C60.9353 413.149 60.2675 412.985 59.704 412.657C59.1439 412.326 58.7114 411.865 58.4064 411.275C58.1015 410.682 57.949 409.994 57.949 409.212C57.949 408.423 58.1015 407.733 58.4064 407.143C58.7114 406.55 59.1439 406.089 59.704 405.761C60.2675 405.43 60.9353 405.264 61.7076 405.264C62.4798 405.264 63.146 405.43 63.7061 405.761C64.2696 406.089 64.7038 406.55 65.0087 407.143C65.3136 407.733 65.4661 408.423 65.4661 409.212C65.4661 409.994 65.3136 410.682 65.0087 411.275C64.7038 411.865 64.2696 412.326 63.7061 412.657C63.146 412.985 62.4798 413.149 61.7076 413.149ZM61.7175 411.509C62.0688 411.509 62.3622 411.409 62.5975 411.21C62.8328 411.008 63.0101 410.733 63.1294 410.385C63.2521 410.037 63.3134 409.641 63.3134 409.197C63.3134 408.753 63.2521 408.357 63.1294 408.009C63.0101 407.661 62.8328 407.385 62.5975 407.183C62.3622 406.981 62.0688 406.88 61.7175 406.88C61.3629 406.88 61.0646 406.981 60.8226 407.183C60.584 407.385 60.4034 407.661 60.2807 408.009C60.1614 408.357 60.1017 408.753 60.1017 409.197C60.1017 409.641 60.1614 410.037 60.2807 410.385C60.4034 410.733 60.584 411.008 60.8226 411.21C61.0646 411.409 61.3629 411.509 61.7175 411.509ZM66.4505 410.837H68.5037C68.5137 411.089 68.6264 411.288 68.8418 411.434C69.0572 411.58 69.3356 411.653 69.677 411.653C70.0217 411.653 70.3117 411.573 70.5471 411.414C70.7824 411.252 70.9 411.02 70.9 410.718C70.9 410.532 70.8536 410.372 70.7608 410.236C70.668 410.097 70.5388 409.987 70.373 409.908C70.2073 409.828 70.0151 409.788 69.7963 409.788H68.6976V408.401H69.7963C70.1245 408.401 70.3764 408.325 70.552 408.173C70.731 408.02 70.8205 407.83 70.8205 407.601C70.8205 407.342 70.7277 407.135 70.5421 406.979C70.3598 406.82 70.1129 406.741 69.8013 406.741C69.4864 406.741 69.2246 406.812 69.0158 406.955C68.8103 407.094 68.7042 407.276 68.6976 407.501H66.6543C66.6609 407.044 66.7985 406.648 67.0669 406.313C67.3387 405.978 67.7033 405.72 68.1607 405.538C68.6214 405.355 69.1368 405.264 69.7069 405.264C70.33 405.264 70.8669 405.352 71.3176 405.528C71.7717 405.7 72.1197 405.947 72.3617 406.268C72.6069 406.59 72.7296 406.973 72.7296 407.417C72.7296 407.821 72.597 408.159 72.3319 408.431C72.0667 408.703 71.6955 408.897 71.2182 409.013V409.092C71.5331 409.112 71.8181 409.197 72.0733 409.346C72.3285 409.495 72.5324 409.701 72.6848 409.962C72.8373 410.221 72.9135 410.527 72.9135 410.882C72.9135 411.356 72.7743 411.762 72.4959 412.1C72.2208 412.438 71.8397 412.698 71.3525 412.881C70.8685 413.06 70.3134 413.149 69.687 413.149C69.0771 413.149 68.5302 413.061 68.0463 412.886C67.5658 412.707 67.1829 412.445 66.8979 412.1C66.6162 411.755 66.467 411.335 66.4505 410.837ZM26.0718 430.149C25.2996 430.149 24.6317 429.985 24.0683 429.657C23.5081 429.326 23.0756 428.865 22.7707 428.275C22.4658 427.682 22.3133 426.994 22.3133 426.212C22.3133 425.423 22.4658 424.733 22.7707 424.143C23.0756 423.55 23.5081 423.089 24.0683 422.761C24.6317 422.43 25.2996 422.264 26.0718 422.264C26.8441 422.264 27.5103 422.43 28.0704 422.761C28.6338 423.089 29.068 423.55 29.373 424.143C29.6779 424.733 29.8303 425.423 29.8303 426.212C29.8303 426.994 29.6779 427.682 29.373 428.275C29.068 428.865 28.6338 429.326 28.0704 429.657C27.5103 429.985 26.8441 430.149 26.0718 430.149ZM26.0818 428.509C26.4331 428.509 26.7264 428.409 26.9617 428.21C27.1971 428.008 27.3744 427.733 27.4937 427.385C27.6163 427.037 27.6776 426.641 27.6776 426.197C27.6776 425.753 27.6163 425.357 27.4937 425.009C27.3744 424.661 27.1971 424.385 26.9617 424.183C26.7264 423.981 26.4331 423.88 26.0818 423.88C25.7271 423.88 25.4288 423.981 25.1869 424.183C24.9482 424.385 24.7676 424.661 24.645 425.009C24.5257 425.357 24.466 425.753 24.466 426.197C24.466 426.641 24.5257 427.037 24.645 427.385C24.7676 427.733 24.9482 428.008 25.1869 428.21C25.4288 428.409 25.7271 428.509 26.0818 428.509ZM30.468 424.029V422.364H37.3884V424.029H34.9275V430H32.909V424.029H30.468ZM40.4422 422.364L41.8442 425.033L43.281 422.364H45.4536L43.2412 426.182L45.5132 430H43.3506L41.8442 427.36L40.3627 430H38.1752L40.4422 426.182L38.2547 422.364H40.4422ZM49.8882 430.149C49.116 430.149 48.4481 429.985 47.8847 429.657C47.3245 429.326 46.892 428.865 46.5871 428.275C46.2822 427.682 46.1297 426.994 46.1297 426.212C46.1297 425.423 46.2822 424.733 46.5871 424.143C46.892 423.55 47.3245 423.089 47.8847 422.761C48.4481 422.43 49.116 422.264 49.8882 422.264C50.6605 422.264 51.3267 422.43 51.8868 422.761C52.4503 423.089 52.8844 423.55 53.1894 424.143C53.4943 424.733 53.6468 425.423 53.6468 426.212C53.6468 426.994 53.4943 427.682 53.1894 428.275C52.8844 428.865 52.4503 429.326 51.8868 429.657C51.3267 429.985 50.6605 430.149 49.8882 430.149ZM49.8982 428.509C50.2495 428.509 50.5428 428.409 50.7781 428.21C51.0135 428.008 51.1908 427.733 51.3101 427.385C51.4327 427.037 51.4941 426.641 51.4941 426.197C51.4941 425.753 51.4327 425.357 51.3101 425.009C51.1908 424.661 51.0135 424.385 50.7781 424.183C50.5428 423.981 50.2495 423.88 49.8982 423.88C49.5435 423.88 49.2452 423.981 49.0033 424.183C48.7646 424.385 48.584 424.661 48.4614 425.009C48.3421 425.357 48.2824 425.753 48.2824 426.197C48.2824 426.641 48.3421 427.037 48.4614 427.385C48.584 427.733 48.7646 428.008 49.0033 428.21C49.2452 428.409 49.5435 428.509 49.8982 428.509ZM54.4273 432.237V428.32H55.0139C55.183 428.214 55.3189 428.045 55.4216 427.812C55.5277 427.58 55.6138 427.307 55.6801 426.992C55.7497 426.677 55.8028 426.338 55.8392 425.973C55.879 425.605 55.9138 425.234 55.9436 424.859L56.1425 422.364H61.999V428.32H63.1823V432.237H61.1638V430H56.4955V432.237H54.4273ZM57.1219 428.32H60.0004V423.994H57.9422L57.8627 424.859C57.8063 425.675 57.7251 426.367 57.6191 426.938C57.513 427.504 57.3473 427.965 57.1219 428.32ZM67.8667 430.149C67.0945 430.149 66.4266 429.985 65.8632 429.657C65.3031 429.326 64.8705 428.865 64.5656 428.275C64.2607 427.682 64.1082 426.994 64.1082 426.212C64.1082 425.423 64.2607 424.733 64.5656 424.143C64.8705 423.55 65.3031 423.089 65.8632 422.761C66.4266 422.43 67.0945 422.264 67.8667 422.264C68.639 422.264 69.3052 422.43 69.8653 422.761C70.4288 423.089 70.863 423.55 71.1679 424.143C71.4728 424.733 71.6253 425.423 71.6253 426.212C71.6253 426.994 71.4728 427.682 71.1679 428.275C70.863 428.865 70.4288 429.326 69.8653 429.657C69.3052 429.985 68.639 430.149 67.8667 430.149ZM67.8767 428.509C68.228 428.509 68.5213 428.409 68.7567 428.21C68.992 428.008 69.1693 427.733 69.2886 427.385C69.4113 427.037 69.4726 426.641 69.4726 426.197C69.4726 425.753 69.4113 425.357 69.2886 425.009C69.1693 424.661 68.992 424.385 68.7567 424.183C68.5213 423.981 68.228 423.88 67.8767 423.88C67.522 423.88 67.2238 423.981 66.9818 424.183C66.7432 424.385 66.5625 424.661 66.4399 425.009C66.3206 425.357 66.2609 425.753 66.2609 426.197C66.2609 426.641 66.3206 427.037 66.4399 427.385C66.5625 427.733 66.7432 428.008 66.9818 428.21C67.2238 428.409 67.522 428.509 67.8767 428.509ZM73.0024 430V422.364H76.2588C77.2001 422.364 77.9442 422.543 78.491 422.901C79.0379 423.259 79.3113 423.767 79.3113 424.427C79.3113 424.841 79.1572 425.186 78.849 425.461C78.5407 425.736 78.1132 425.922 77.5663 426.018C78.0237 426.051 78.4131 426.155 78.7346 426.331C79.0595 426.503 79.3064 426.727 79.4754 427.002C79.6478 427.277 79.7339 427.582 79.7339 427.917C79.7339 428.351 79.6179 428.724 79.3859 429.036C79.1572 429.347 78.8208 429.586 78.3767 429.751C77.9359 429.917 77.3973 430 76.7609 430H73.0024ZM74.9761 428.414H76.7609C77.0559 428.414 77.2863 428.344 77.452 428.205C77.621 428.063 77.7055 427.869 77.7055 427.624C77.7055 427.352 77.621 427.138 77.452 426.982C77.2863 426.826 77.0559 426.749 76.7609 426.749H74.9761V428.414ZM74.9761 425.506H76.3035C76.5157 425.506 76.6963 425.476 76.8454 425.416C76.9979 425.353 77.1139 425.264 77.1934 425.148C77.2763 425.032 77.3177 424.894 77.3177 424.735C77.3177 424.5 77.2233 424.316 77.0344 424.183C76.8454 424.051 76.5869 423.984 76.2588 423.984H74.9761V425.506Z" fill="black"/>
<path d="M221.938 474.818V485H219.81V476.568H215.694V485H213.566V474.818H221.938ZM227.428 485.149C226.642 485.149 225.966 484.99 225.399 484.672C224.836 484.35 224.402 483.896 224.097 483.31C223.792 482.72 223.639 482.022 223.639 481.217C223.639 480.431 223.792 479.742 224.097 479.148C224.402 478.555 224.831 478.093 225.384 477.761C225.941 477.43 226.594 477.264 227.343 477.264C227.847 477.264 228.316 477.345 228.75 477.508C229.188 477.667 229.569 477.907 229.894 478.229C230.222 478.55 230.477 478.955 230.659 479.442C230.842 479.926 230.933 480.492 230.933 481.142V481.724H224.485V480.411H228.939C228.939 480.106 228.873 479.836 228.74 479.601C228.608 479.366 228.424 479.182 228.188 479.049C227.956 478.913 227.686 478.845 227.378 478.845C227.057 478.845 226.772 478.92 226.523 479.069C226.278 479.215 226.085 479.412 225.946 479.661C225.807 479.906 225.736 480.179 225.733 480.481V481.729C225.733 482.107 225.802 482.433 225.941 482.708C226.084 482.983 226.284 483.195 226.543 483.344C226.801 483.494 227.108 483.568 227.463 483.568C227.698 483.568 227.913 483.535 228.109 483.469C228.304 483.402 228.472 483.303 228.611 483.17C228.75 483.038 228.856 482.875 228.929 482.683L230.888 482.812C230.789 483.283 230.585 483.694 230.277 484.045C229.972 484.393 229.577 484.665 229.093 484.861C228.613 485.053 228.058 485.149 227.428 485.149ZM232.315 487.864V477.364H234.403V478.646H234.497C234.59 478.441 234.724 478.232 234.9 478.02C235.079 477.804 235.311 477.625 235.596 477.483C235.884 477.337 236.242 477.264 236.67 477.264C237.227 477.264 237.741 477.41 238.211 477.702C238.682 477.99 239.058 478.426 239.34 479.009C239.621 479.589 239.762 480.317 239.762 481.192C239.762 482.044 239.625 482.763 239.35 483.349C239.078 483.933 238.707 484.375 238.236 484.677C237.769 484.975 237.245 485.124 236.665 485.124C236.254 485.124 235.904 485.056 235.616 484.92C235.331 484.785 235.097 484.614 234.915 484.408C234.733 484.2 234.594 483.989 234.497 483.777H234.433V487.864H232.315ZM234.388 481.182C234.388 481.636 234.451 482.032 234.577 482.37C234.703 482.708 234.885 482.972 235.124 483.161C235.362 483.346 235.652 483.439 235.994 483.439C236.339 483.439 236.63 483.344 236.869 483.156C237.108 482.963 237.288 482.698 237.411 482.36C237.537 482.019 237.6 481.626 237.6 481.182C237.6 480.741 237.538 480.353 237.416 480.018C237.293 479.684 237.112 479.422 236.874 479.233C236.635 479.044 236.342 478.95 235.994 478.95C235.649 478.95 235.358 479.041 235.119 479.223C234.884 479.405 234.703 479.664 234.577 479.999C234.451 480.333 234.388 480.728 234.388 481.182ZM244.654 485.149C243.869 485.149 243.193 484.99 242.626 484.672C242.063 484.35 241.628 483.896 241.323 483.31C241.018 482.72 240.866 482.022 240.866 481.217C240.866 480.431 241.018 479.742 241.323 479.148C241.628 478.555 242.058 478.093 242.611 477.761C243.168 477.43 243.821 477.264 244.57 477.264C245.074 477.264 245.543 477.345 245.977 477.508C246.414 477.667 246.795 477.907 247.12 478.229C247.448 478.55 247.704 478.955 247.886 479.442C248.068 479.926 248.159 480.492 248.159 481.142V481.724H241.711V480.411H246.166C246.166 480.106 246.099 479.836 245.967 479.601C245.834 479.366 245.65 479.182 245.415 479.049C245.183 478.913 244.913 478.845 244.605 478.845C244.283 478.845 243.998 478.92 243.75 479.069C243.504 479.215 243.312 479.412 243.173 479.661C243.034 479.906 242.962 480.179 242.959 480.481V481.729C242.959 482.107 243.029 482.433 243.168 482.708C243.31 482.983 243.511 483.195 243.769 483.344C244.028 483.494 244.335 483.568 244.689 483.568C244.925 483.568 245.14 483.535 245.335 483.469C245.531 483.402 245.698 483.303 245.838 483.17C245.977 483.038 246.083 482.875 246.156 482.683L248.115 482.812C248.015 483.283 247.811 483.694 247.503 484.045C247.198 484.393 246.804 484.665 246.32 484.861C245.839 485.053 245.284 485.149 244.654 485.149ZM248.945 487.237V483.32H249.532C249.701 483.214 249.836 483.045 249.939 482.812C250.045 482.58 250.131 482.307 250.198 481.992C250.267 481.677 250.32 481.338 250.357 480.973C250.397 480.605 250.431 480.234 250.461 479.859L250.66 477.364H256.517V483.32H257.7V487.237H255.681V485H251.013V487.237H248.945ZM251.639 483.32H254.518V478.994H252.46L252.38 479.859C252.324 480.675 252.243 481.367 252.137 481.938C252.031 482.504 251.865 482.965 251.639 483.32ZM261.112 485.144C260.624 485.144 260.19 485.06 259.809 484.891C259.428 484.718 259.126 484.465 258.904 484.13C258.685 483.792 258.576 483.371 258.576 482.867C258.576 482.443 258.654 482.087 258.81 481.798C258.966 481.51 259.178 481.278 259.446 481.102C259.715 480.927 260.02 480.794 260.361 480.705C260.706 480.615 261.067 480.552 261.445 480.516C261.889 480.469 262.247 480.426 262.519 480.386C262.79 480.343 262.988 480.28 263.11 480.197C263.233 480.115 263.294 479.992 263.294 479.83V479.8C263.294 479.485 263.195 479.241 262.996 479.069C262.8 478.897 262.522 478.81 262.161 478.81C261.779 478.81 261.476 478.895 261.251 479.064C261.025 479.23 260.876 479.438 260.803 479.69L258.845 479.531C258.944 479.067 259.14 478.666 259.431 478.328C259.723 477.987 260.099 477.725 260.56 477.543C261.024 477.357 261.561 477.264 262.171 477.264C262.595 477.264 263.001 477.314 263.389 477.413C263.78 477.513 264.126 477.667 264.428 477.876C264.733 478.085 264.973 478.353 265.149 478.681C265.324 479.006 265.412 479.395 265.412 479.849V485H263.403V483.941H263.344C263.221 484.18 263.057 484.39 262.852 484.572C262.646 484.751 262.399 484.892 262.111 484.995C261.823 485.094 261.489 485.144 261.112 485.144ZM261.718 483.683C262.03 483.683 262.305 483.621 262.543 483.499C262.782 483.373 262.969 483.204 263.105 482.991C263.241 482.779 263.309 482.539 263.309 482.271V481.46C263.243 481.503 263.152 481.543 263.036 481.58C262.923 481.613 262.795 481.644 262.653 481.674C262.51 481.701 262.368 481.725 262.225 481.749C262.083 481.768 261.953 481.787 261.837 481.803C261.589 481.84 261.372 481.898 261.186 481.977C261.001 482.057 260.856 482.165 260.754 482.3C260.651 482.433 260.6 482.599 260.6 482.798C260.6 483.086 260.704 483.306 260.913 483.459C261.125 483.608 261.393 483.683 261.718 483.683ZM273.682 477.364V485H271.674V477.364H273.682ZM272.703 480.714V482.385C272.54 482.458 272.338 482.527 272.096 482.594C271.854 482.657 271.601 482.708 271.336 482.748C271.071 482.788 270.822 482.808 270.59 482.808C269.493 482.808 268.629 482.582 268 482.131C267.37 481.677 267.055 480.953 267.055 479.959V477.354H269.054V479.959C269.054 480.254 269.103 480.487 269.203 480.66C269.306 480.832 269.468 480.956 269.69 481.033C269.915 481.106 270.215 481.142 270.59 481.142C270.938 481.142 271.279 481.106 271.614 481.033C271.949 480.96 272.312 480.854 272.703 480.714ZM277.504 485.144C277.017 485.144 276.583 485.06 276.202 484.891C275.82 484.718 275.519 484.465 275.297 484.13C275.078 483.792 274.969 483.371 274.969 482.867C274.969 482.443 275.047 482.087 275.202 481.798C275.358 481.51 275.57 481.278 275.839 481.102C276.107 480.927 276.412 480.794 276.753 480.705C277.098 480.615 277.459 480.552 277.837 480.516C278.281 480.469 278.639 480.426 278.911 480.386C279.183 480.343 279.38 480.28 279.503 480.197C279.625 480.115 279.687 479.992 279.687 479.83V479.8C279.687 479.485 279.587 479.241 279.388 479.069C279.193 478.897 278.914 478.81 278.553 478.81C278.172 478.81 277.869 478.895 277.643 479.064C277.418 479.23 277.269 479.438 277.196 479.69L275.237 479.531C275.337 479.067 275.532 478.666 275.824 478.328C276.115 477.987 276.492 477.725 276.952 477.543C277.416 477.357 277.953 477.264 278.563 477.264C278.987 477.264 279.393 477.314 279.781 477.413C280.172 477.513 280.519 477.667 280.82 477.876C281.125 478.085 281.365 478.353 281.541 478.681C281.717 479.006 281.805 479.395 281.805 479.849V485H279.796V483.941H279.736C279.614 484.18 279.45 484.39 279.244 484.572C279.039 484.751 278.792 484.892 278.503 484.995C278.215 485.094 277.882 485.144 277.504 485.144ZM278.111 483.683C278.422 483.683 278.697 483.621 278.936 483.499C279.175 483.373 279.362 483.204 279.498 482.991C279.634 482.779 279.702 482.539 279.702 482.271V481.46C279.635 481.503 279.544 481.543 279.428 481.58C279.315 481.613 279.188 481.644 279.045 481.674C278.903 481.701 278.76 481.725 278.618 481.749C278.475 481.768 278.346 481.787 278.23 481.803C277.981 481.84 277.764 481.898 277.579 481.977C277.393 482.057 277.249 482.165 277.146 482.3C277.043 482.433 276.992 482.599 276.992 482.798C276.992 483.086 277.097 483.306 277.305 483.459C277.517 483.608 277.786 483.683 278.111 483.683ZM223.59 502.149C222.818 502.149 222.15 501.985 221.587 501.657C221.027 501.326 220.594 500.865 220.289 500.275C219.984 499.682 219.832 498.994 219.832 498.212C219.832 497.423 219.984 496.733 220.289 496.143C220.594 495.55 221.027 495.089 221.587 494.761C222.15 494.43 222.818 494.264 223.59 494.264C224.363 494.264 225.029 494.43 225.589 494.761C226.152 495.089 226.587 495.55 226.892 496.143C227.196 496.733 227.349 497.423 227.349 498.212C227.349 498.994 227.196 499.682 226.892 500.275C226.587 500.865 226.152 501.326 225.589 501.657C225.029 501.985 224.363 502.149 223.59 502.149ZM223.6 500.509C223.952 500.509 224.245 500.409 224.48 500.21C224.716 500.008 224.893 499.733 225.012 499.385C225.135 499.037 225.196 498.641 225.196 498.197C225.196 497.753 225.135 497.357 225.012 497.009C224.893 496.661 224.716 496.385 224.48 496.183C224.245 495.981 223.952 495.88 223.6 495.88C223.246 495.88 222.947 495.981 222.705 496.183C222.467 496.385 222.286 496.661 222.164 497.009C222.044 497.357 221.985 497.753 221.985 498.197C221.985 498.641 222.044 499.037 222.164 499.385C222.286 499.733 222.467 500.008 222.705 500.21C222.947 500.409 223.246 500.509 223.6 500.509ZM227.987 496.029V494.364H234.907V496.029H232.446V502H230.428V496.029H227.987ZM242.545 494.364V502H240.536V494.364H242.545ZM241.565 497.714V499.385C241.403 499.458 241.201 499.527 240.959 499.594C240.717 499.657 240.463 499.708 240.198 499.748C239.933 499.788 239.684 499.808 239.452 499.808C238.355 499.808 237.492 499.582 236.862 499.131C236.232 498.677 235.917 497.953 235.917 496.959V494.354H237.916V496.959C237.916 497.254 237.966 497.487 238.065 497.66C238.168 497.832 238.33 497.956 238.552 498.033C238.778 498.106 239.078 498.142 239.452 498.142C239.8 498.142 240.142 498.106 240.476 498.033C240.811 497.96 241.174 497.854 241.565 497.714ZM247.669 502.149C246.884 502.149 246.207 501.99 245.641 501.672C245.077 501.35 244.643 500.896 244.338 500.31C244.033 499.72 243.881 499.022 243.881 498.217C243.881 497.431 244.033 496.742 244.338 496.148C244.643 495.555 245.072 495.093 245.626 494.761C246.183 494.43 246.835 494.264 247.585 494.264C248.088 494.264 248.557 494.345 248.991 494.508C249.429 494.667 249.81 494.907 250.135 495.229C250.463 495.55 250.718 495.955 250.901 496.442C251.083 496.926 251.174 497.492 251.174 498.142V498.724H244.726V497.411H249.18C249.18 497.106 249.114 496.836 248.982 496.601C248.849 496.366 248.665 496.182 248.43 496.049C248.198 495.913 247.928 495.845 247.619 495.845C247.298 495.845 247.013 495.92 246.764 496.069C246.519 496.215 246.327 496.412 246.188 496.661C246.048 496.906 245.977 497.179 245.974 497.481V498.729C245.974 499.107 246.043 499.433 246.183 499.708C246.325 499.983 246.526 500.195 246.784 500.344C247.043 500.494 247.349 500.568 247.704 500.568C247.939 500.568 248.155 500.535 248.35 500.469C248.546 500.402 248.713 500.303 248.852 500.17C248.991 500.038 249.098 499.875 249.17 499.683L251.129 499.812C251.03 500.283 250.826 500.694 250.518 501.045C250.213 501.393 249.818 501.665 249.335 501.861C248.854 502.053 248.299 502.149 247.669 502.149ZM251.967 496.029V494.364H258.887V496.029H256.426V502H254.408V496.029H251.967ZM263.348 502.149C262.576 502.149 261.908 501.985 261.345 501.657C260.785 501.326 260.352 500.865 260.047 500.275C259.742 499.682 259.59 498.994 259.59 498.212C259.59 497.423 259.742 496.733 260.047 496.143C260.352 495.55 260.785 495.089 261.345 494.761C261.908 494.43 262.576 494.264 263.348 494.264C264.12 494.264 264.787 494.43 265.347 494.761C265.91 495.089 266.344 495.55 266.649 496.143C266.954 496.733 267.107 497.423 267.107 498.212C267.107 498.994 266.954 499.682 266.649 500.275C266.344 500.865 265.91 501.326 265.347 501.657C264.787 501.985 264.12 502.149 263.348 502.149ZM263.358 500.509C263.709 500.509 264.003 500.409 264.238 500.21C264.473 500.008 264.651 499.733 264.77 499.385C264.893 499.037 264.954 498.641 264.954 498.197C264.954 497.753 264.893 497.357 264.77 497.009C264.651 496.661 264.473 496.385 264.238 496.183C264.003 495.981 263.709 495.88 263.358 495.88C263.003 495.88 262.705 495.981 262.463 496.183C262.225 496.385 262.044 496.661 261.921 497.009C261.802 497.357 261.742 497.753 261.742 498.197C261.742 498.641 261.802 499.037 261.921 499.385C262.044 499.733 262.225 500.008 262.463 500.21C262.705 500.409 263.003 500.509 263.358 500.509ZM268.484 502V494.364H271.74C272.682 494.364 273.426 494.543 273.972 494.901C274.519 495.259 274.793 495.767 274.793 496.427C274.793 496.841 274.639 497.186 274.33 497.461C274.022 497.736 273.595 497.922 273.048 498.018C273.505 498.051 273.895 498.155 274.216 498.331C274.541 498.503 274.788 498.727 274.957 499.002C275.129 499.277 275.215 499.582 275.215 499.917C275.215 500.351 275.099 500.724 274.867 501.036C274.639 501.347 274.302 501.586 273.858 501.751C273.417 501.917 272.879 502 272.242 502H268.484ZM270.458 500.414H272.242C272.537 500.414 272.768 500.344 272.933 500.205C273.102 500.063 273.187 499.869 273.187 499.624C273.187 499.352 273.102 499.138 272.933 498.982C272.768 498.826 272.537 498.749 272.242 498.749H270.458V500.414ZM270.458 497.506H271.785C271.997 497.506 272.178 497.476 272.327 497.416C272.479 497.353 272.595 497.264 272.675 497.148C272.758 497.032 272.799 496.894 272.799 496.735C272.799 496.5 272.705 496.316 272.516 496.183C272.327 496.051 272.068 495.984 271.74 495.984H270.458V497.506Z" fill="black"/>
</svg>
