<svg width="1617" height="839" viewBox="0 0 1617 839" fill="none" xmlns="http://www.w3.org/2000/svg">
<circle cx="270" cy="595" r="100" fill="#BFDF72"/>
<circle cx="169.5" cy="534.5" r="45.5" fill="#79AC2B"/>
<path d="M166.82 550.398C165.323 550.388 163.879 550.137 162.487 549.645C161.105 549.152 159.864 548.352 158.766 547.244C157.667 546.136 156.796 544.669 156.152 542.841C155.518 541.013 155.2 538.769 155.2 536.108C155.21 533.665 155.489 531.482 156.038 529.56C156.597 527.628 157.393 525.99 158.425 524.645C159.466 523.3 160.712 522.277 162.161 521.577C163.609 520.866 165.233 520.511 167.033 520.511C168.974 520.511 170.688 520.89 172.175 521.648C173.661 522.396 174.855 523.414 175.754 524.702C176.663 525.99 177.213 527.434 177.402 529.034H171.337C171.1 528.021 170.603 527.225 169.845 526.648C169.088 526.07 168.15 525.781 167.033 525.781C165.139 525.781 163.699 526.605 162.714 528.253C161.739 529.901 161.242 532.14 161.223 534.972H161.422C161.857 534.11 162.445 533.376 163.183 532.77C163.931 532.154 164.779 531.686 165.726 531.364C166.682 531.032 167.691 530.866 168.751 530.866C170.475 530.866 172.009 531.274 173.354 532.088C174.698 532.893 175.759 534.001 176.536 535.412C177.312 536.823 177.7 538.437 177.7 540.256C177.7 542.225 177.241 543.977 176.322 545.511C175.413 547.045 174.14 548.248 172.501 549.119C170.873 549.981 168.979 550.407 166.82 550.398ZM166.791 545.568C167.738 545.568 168.586 545.341 169.334 544.886C170.082 544.432 170.669 543.816 171.095 543.04C171.521 542.263 171.734 541.392 171.734 540.426C171.734 539.46 171.521 538.594 171.095 537.827C170.679 537.06 170.101 536.449 169.362 535.994C168.624 535.54 167.781 535.312 166.834 535.312C166.124 535.312 165.465 535.445 164.859 535.71C164.263 535.975 163.737 536.345 163.283 536.818C162.838 537.292 162.487 537.841 162.232 538.466C161.976 539.081 161.848 539.74 161.848 540.44C161.848 541.378 162.061 542.235 162.487 543.011C162.923 543.788 163.51 544.408 164.249 544.872C164.997 545.336 165.844 545.568 166.791 545.568Z" fill="white"/>
<path d="M310 602.5V556.5C310 555.948 309.552 555.5 309 555.5H231C230.448 555.5 230 555.948 230 556.5V634.5C230 635.052 230.448 635.5 231 635.5H263.5M318 613V610C318 609.448 317.552 609 317 609H294H271C270.448 609 270 609.448 270 610V613M318 613V642C318 642.552 317.552 643 317 643H271C270.448 643 270 642.552 270 642V613M318 613L294.6 630.55C294.244 630.817 293.756 630.817 293.4 630.55L270 613M238 589H270M238 602.5H254.5M259.5 565H281C282.667 565 286 565.8 286 569C286 572.2 282.667 573 281 573H259.5C257.833 573 254.5 572.2 254.5 569C254.5 565.8 257.833 565 259.5 565Z" stroke="#79AC2B" stroke-width="5" stroke-linecap="round"/>
<circle cx="784" cy="595" r="100" fill="#BFDF72"/>
<circle cx="683.5" cy="534.5" r="45.5" fill="#79AC2B"/>
<path d="M680.092 550.398C678.085 550.398 676.295 550.028 674.723 549.29C673.161 548.551 671.92 547.533 671.001 546.236C670.083 544.938 669.605 543.452 669.567 541.776H675.533C675.599 542.902 676.072 543.816 676.953 544.517C677.834 545.218 678.88 545.568 680.092 545.568C681.058 545.568 681.911 545.355 682.649 544.929C683.397 544.493 683.98 543.892 684.396 543.125C684.822 542.348 685.036 541.458 685.036 540.455C685.036 539.432 684.818 538.532 684.382 537.756C683.956 536.979 683.364 536.373 682.607 535.938C681.849 535.502 680.982 535.279 680.007 535.27C679.155 535.27 678.326 535.445 677.521 535.795C676.726 536.146 676.106 536.624 675.661 537.23L670.192 536.25L671.57 520.909H689.354V525.938H676.641L675.888 533.224H676.058C676.57 532.505 677.341 531.908 678.374 531.435C679.406 530.961 680.561 530.724 681.839 530.724C683.591 530.724 685.154 531.136 686.527 531.96C687.9 532.784 688.984 533.916 689.78 535.355C690.575 536.785 690.968 538.433 690.959 540.298C690.968 542.259 690.514 544.001 689.595 545.526C688.686 547.041 687.412 548.234 685.774 549.105C684.145 549.967 682.251 550.398 680.092 550.398Z" fill="white"/>
<path d="M740 565H794.5C797 564.834 802 565.8 802 571V610M740 573H780.5M740 581.5H766.5M740 590H753.5M746 596V612C746 613.667 747.2 617 752 617H825.5C827.833 617 832.5 615.6 832.5 610V597M832.5 597H809.5M832.5 597L824.5 581.5C823.5 580 820.7 577 817.5 577H809.5M770 624C770 627.866 766.866 631 763 631C759.134 631 756 627.866 756 624C756 620.134 759.134 617 763 617C766.866 617 770 620.134 770 624ZM822 624C822 627.866 818.866 631 815 631C811.134 631 808 627.866 808 624C808 620.134 811.134 617 815 617C818.866 617 822 620.134 822 624Z" stroke="#79AC2B" stroke-width="5" stroke-linecap="round"/>
<circle cx="1303" cy="595" r="100" fill="#BFDF72"/>
<circle cx="1202.5" cy="534.5" r="45.5" fill="#79AC2B"/>
<path d="M1187.36 544.886V540.043L1199.51 520.909H1203.68V527.614H1201.21L1193.56 539.73V539.957H1210.81V544.886H1187.36ZM1201.33 550V543.409L1201.44 541.264V520.909H1207.21V550H1201.33Z" fill="white"/>
<path d="M1300.5 619.5L1295.5 623.5" stroke="#79AC2B" stroke-linecap="round"/>
<path d="M1308 550H1265C1264.45 550 1264 550.448 1264 551V636.5C1264 637.052 1264.45 637.5 1265 637.5H1331.5C1332.05 637.5 1332.5 637.052 1332.5 636.5V633M1308 550V573C1308 573.552 1308.45 574 1309 574H1332.5M1308 550L1332.5 574M1332.5 574V578.5M1279 589.5H1304M1279 601.5H1293.5M1279 613.5H1293.5M1306 610.945C1303.42 614.267 1301.21 617.391 1299.5 620C1298.85 621 1310.91 616.05 1318.5 611.082M1306 610.945C1301.67 611.297 1294.7 610 1301.5 602C1304.54 598.422 1306.56 596.178 1307.87 594.82C1308.53 594.135 1311.33 591.581 1312.1 591.029C1314.81 589.099 1319.45 587.55 1326 590.228M1306 610.945C1308.36 607.912 1311.02 604.715 1313.88 601.596M1337.08 594.5C1339.14 599.3 1349.55 608.5 1354.5 612.5M1337.08 594.5C1333.56 598.765 1329.79 602.438 1325.99 605.567M1337.08 594.5C1338.2 593.137 1339.3 591.714 1340.36 590.228M1350.5 629.5C1345.17 629.333 1333.4 627.9 1329 623.5C1324.6 619.1 1320.17 613.388 1318.5 611.082M1318.5 611.082C1315.91 609.077 1311.4 604.407 1313.88 601.596M1325.99 605.567C1328.35 607.289 1330.3 608.824 1331 609C1332.6 609.4 1335 606.5 1336 605M1325.99 605.567C1321.99 602.643 1316.8 599.184 1314.5 600.928M1313.88 601.596C1313.91 601.564 1313.94 601.532 1313.97 601.5M1313.97 601.5C1314.15 601.309 1314.32 601.118 1314.5 600.928M1313.97 601.5C1314.12 601.268 1314.3 601.079 1314.5 600.928M1314.5 600.928C1320.49 594.489 1327.31 588.46 1334.01 585M1334.01 585C1337.38 583.259 1340.72 582.168 1343.91 582.004C1344.65 581.966 1345.09 582.749 1344.73 583.389C1343.36 585.802 1341.89 588.08 1340.36 590.228M1334.01 585C1334.67 586.743 1336.86 590.228 1340.36 590.228" stroke="#79AC2B" stroke-width="5" stroke-linecap="round"/>
<circle cx="1436" cy="276" r="100" fill="#BFDF72"/>
<circle cx="1335.5" cy="215.5" r="45.5" fill="#79AC2B"/>
<path d="M1332.43 231.398C1330.31 231.398 1328.42 231.033 1326.76 230.304C1325.11 229.565 1323.81 228.552 1322.85 227.264C1321.91 225.967 1321.42 224.471 1321.39 222.776H1327.58C1327.62 223.486 1327.85 224.111 1328.28 224.651C1328.72 225.181 1329.29 225.593 1330.01 225.886C1330.73 226.18 1331.54 226.327 1332.44 226.327C1333.38 226.327 1334.21 226.161 1334.93 225.83C1335.65 225.498 1336.21 225.039 1336.62 224.452C1337.02 223.865 1337.23 223.187 1337.23 222.42C1337.23 221.644 1337.01 220.957 1336.57 220.361C1336.15 219.755 1335.53 219.281 1334.73 218.94C1333.93 218.599 1332.99 218.429 1331.89 218.429H1329.17V213.912H1331.89C1332.82 213.912 1333.63 213.751 1334.34 213.429C1335.06 213.107 1335.62 212.662 1336.02 212.094C1336.42 211.516 1336.62 210.844 1336.62 210.077C1336.62 209.348 1336.44 208.708 1336.09 208.159C1335.75 207.6 1335.27 207.165 1334.64 206.852C1334.03 206.54 1333.31 206.384 1332.48 206.384C1331.65 206.384 1330.89 206.535 1330.2 206.838C1329.51 207.132 1328.95 207.553 1328.54 208.102C1328.12 208.652 1327.9 209.295 1327.87 210.034H1321.97C1322 208.358 1322.48 206.881 1323.41 205.602C1324.34 204.324 1325.59 203.325 1327.16 202.605C1328.74 201.876 1330.52 201.511 1332.51 201.511C1334.52 201.511 1336.28 201.876 1337.78 202.605C1339.29 203.334 1340.46 204.319 1341.29 205.56C1342.13 206.791 1342.55 208.173 1342.54 209.707C1342.55 211.336 1342.04 212.695 1341.02 213.784C1340.01 214.873 1338.69 215.564 1337.06 215.858V216.085C1339.2 216.36 1340.83 217.103 1341.94 218.315C1343.07 219.518 1343.63 221.024 1343.62 222.832C1343.63 224.49 1343.15 225.962 1342.19 227.25C1341.23 228.538 1339.91 229.551 1338.22 230.29C1336.54 231.028 1334.61 231.398 1332.43 231.398Z" fill="white"/>
<path d="M1417.5 269.5H1454M1417.5 281.5H1451M1417.5 294H1438M1403 247.5V239.5C1403.17 236.833 1404.8 231.5 1410 231.5H1419M1468 300V308C1467.83 310.667 1466.2 316 1461 316H1452M1403 300V308C1403.17 310.667 1404.8 316 1410 316H1419M1451 230.5C1456.33 230.167 1467.2 232.9 1468 246.5H1461C1457.67 246.5 1451 244.9 1451 238.5V230.5Z" stroke="#79AC2B" stroke-width="5" stroke-linecap="round"/>
<circle cx="784" cy="178" r="100" fill="#BFDF72"/>
<circle cx="683.5" cy="117.5" r="45.5" fill="#79AC2B"/>
<path d="M669.76 133V128.568L680.115 118.98C680.996 118.128 681.735 117.361 682.331 116.679C682.937 115.997 683.397 115.33 683.709 114.676C684.022 114.013 684.178 113.298 684.178 112.531C684.178 111.679 683.984 110.945 683.596 110.33C683.207 109.705 682.677 109.226 682.005 108.895C681.332 108.554 680.57 108.384 679.718 108.384C678.828 108.384 678.051 108.563 677.388 108.923C676.725 109.283 676.214 109.799 675.854 110.472C675.494 111.144 675.314 111.944 675.314 112.872H669.476C669.476 110.969 669.907 109.316 670.769 107.915C671.631 106.513 672.838 105.429 674.391 104.662C675.944 103.895 677.734 103.511 679.76 103.511C681.844 103.511 683.657 103.881 685.201 104.619C686.754 105.348 687.961 106.362 688.823 107.659C689.685 108.956 690.115 110.443 690.115 112.119C690.115 113.218 689.898 114.302 689.462 115.372C689.036 116.442 688.274 117.631 687.175 118.938C686.077 120.235 684.528 121.793 682.53 123.611L678.283 127.773V127.972H690.499V133H669.76Z" fill="white"/>
<path d="M814 165.529C820 165.529 831.1 161.529 831.5 153.529C832 143.529 823.5 137.529 814 138.029C804.571 138.525 793.663 144.44 799.858 160.663C799.946 160.894 799.952 161.158 799.865 161.389L797.751 167.028C797.453 167.823 798.217 168.604 799.017 168.323L807 165.529M747.056 217.5C746.389 207.833 751.406 188.5 776.806 188.5C802.206 188.5 807.223 207.833 806.556 217.5H747.056ZM790 167.5C790 176.06 784.18 183 777 183C769.821 183 764 176.06 764 167.5C764 158.94 769.821 152 777 152C784.18 152 790 158.94 790 167.5Z" stroke="#79AC2B" stroke-width="5" stroke-linecap="round"/>
<circle cx="146" cy="276" r="100" fill="#BFDF72"/>
<circle cx="45.5" cy="215.5" r="45.5" fill="#79AC2B"/>
<path d="M47.229 201.909V231H41.0785V207.747H40.908L34.2461 211.923V206.469L41.4478 201.909H47.229Z" fill="white"/>
<path d="M122.539 319H100.122C99.529 319 99.0277 318.557 99.0085 317.97C98.8513 313.164 100.82 305.225 110.085 305.225H122.539M122.539 319V305.225M122.539 319H169.461M169.461 319H191.878C192.471 319 192.972 318.557 192.992 317.97C193.149 313.164 191.18 305.225 181.915 305.225H169.461M169.461 319V305.225M169.461 305.225C169.461 302.929 168.288 298.337 163.596 298.337H128.404C123.712 298.337 122.539 302.929 122.539 305.225M138.469 222C137.829 222 137.311 222.514 137.311 223.148V234.053C137.311 234.687 136.792 235.201 136.152 235.201H132.097C131.143 235.201 130.598 236.281 131.17 237.038L144.494 254.639C144.957 255.252 145.884 255.252 146.348 254.639L159.671 237.038C160.244 236.281 159.699 235.201 158.744 235.201H154.689C154.049 235.201 153.531 234.687 153.531 234.053V223.148C153.531 222.514 153.012 222 152.372 222H138.469ZM159.245 276.527C159.245 283.817 153.28 289.728 145.922 289.728C138.564 289.728 132.598 283.817 132.598 276.527C132.598 269.236 138.564 263.325 145.922 263.325C153.28 263.325 159.245 269.236 159.245 276.527ZM184.734 287.432C184.734 291.87 181.103 295.467 176.624 295.467C172.145 295.467 168.514 291.87 168.514 287.432C168.514 282.994 172.145 279.396 176.624 279.396C181.103 279.396 184.734 282.994 184.734 287.432ZM123.33 287.432C123.33 291.87 119.699 295.467 115.22 295.467C110.741 295.467 107.11 291.87 107.11 287.432C107.11 282.994 110.741 279.396 115.22 279.396C119.699 279.396 123.33 282.994 123.33 287.432Z" stroke="#79AC2B" stroke-width="5"/>
<path d="M652 595H398" stroke="#79AC2B" stroke-width="20" stroke-dasharray="42 42"/>
<path d="M274.5 246.078C341.5 227.244 508.8 190.078 642 192.078" stroke="#79AC2B" stroke-width="20" stroke-dasharray="42 42"/>
<path d="M1280.5 243.078C1213.5 224.244 1046.2 187.078 913 189.078" stroke="#79AC2B" stroke-width="20" stroke-dasharray="42 42"/>
<path d="M1557.5 362C1621.67 423.333 1653.8 595 1465 595" stroke="#79AC2B" stroke-width="20" stroke-dasharray="42 42"/>
<path d="M1175 595H912" stroke="#79AC2B" stroke-width="20" stroke-dasharray="42 42"/>
<path d="M62.2898 66.9091V96H56.2102V71.9091H44.4489V96H38.3693V66.9091H62.2898ZM77.8899 96.4261C75.6835 96.4261 73.7753 95.9574 72.1655 95.0199C70.5651 94.0729 69.3293 92.7566 68.4581 91.071C67.5869 89.3759 67.1513 87.411 67.1513 85.1761C67.1513 82.9223 67.5869 80.9527 68.4581 79.267C69.3293 77.572 70.5651 76.2557 72.1655 75.3182C73.7753 74.3712 75.6835 73.8977 77.8899 73.8977C80.0964 73.8977 81.9998 74.3712 83.6001 75.3182C85.21 76.2557 86.4505 77.572 87.3217 79.267C88.1929 80.9527 88.6286 82.9223 88.6286 85.1761C88.6286 87.411 88.1929 89.3759 87.3217 91.071C86.4505 92.7566 85.21 94.0729 83.6001 95.0199C81.9998 95.9574 80.0964 96.4261 77.8899 96.4261ZM77.9183 91.7386C78.9221 91.7386 79.7602 91.4545 80.4325 90.8864C81.1049 90.3087 81.6115 89.5227 81.9524 88.5284C82.3028 87.5341 82.478 86.4025 82.478 85.1335C82.478 83.8646 82.3028 82.733 81.9524 81.7386C81.6115 80.7443 81.1049 79.9583 80.4325 79.3807C79.7602 78.803 78.9221 78.5142 77.9183 78.5142C76.9051 78.5142 76.0528 78.803 75.3615 79.3807C74.6797 79.9583 74.1636 80.7443 73.8132 81.7386C73.4723 82.733 73.3018 83.8646 73.3018 85.1335C73.3018 86.4025 73.4723 87.5341 73.8132 88.5284C74.1636 89.5227 74.6797 90.3087 75.3615 90.8864C76.0528 91.4545 76.9051 91.7386 77.9183 91.7386ZM91.2848 96L91.2564 91.1989H91.9808C92.4922 91.1989 92.9325 91.0758 93.3018 90.8295C93.6806 90.5739 93.9931 90.1619 94.2393 89.5938C94.4856 89.0256 94.6797 88.2727 94.8217 87.3352C94.9638 86.3883 95.0585 85.2235 95.1058 83.8409L95.4609 74.1818H112.052V96H106.285V78.9403H100.901L100.56 85.6023C100.475 87.4299 100.253 89.0019 99.8928 90.3182C99.5424 91.6345 99.0547 92.714 98.4297 93.5568C97.8047 94.3902 97.0518 95.0057 96.1712 95.4034C95.2905 95.8011 94.2678 96 93.103 96H91.2848ZM119.697 104.182C118.93 104.182 118.211 104.12 117.538 103.997C116.875 103.884 116.326 103.737 115.891 103.557L117.254 99.0398C117.964 99.2576 118.604 99.3759 119.172 99.3949C119.75 99.4138 120.247 99.2813 120.663 98.9972C121.089 98.7131 121.435 98.2301 121.7 97.5483L122.055 96.625L114.229 74.1818H120.592L125.109 90.2045H125.337L129.896 74.1818H136.303L127.822 98.358C127.415 99.5322 126.861 100.555 126.161 101.426C125.469 102.307 124.593 102.984 123.533 103.457C122.472 103.94 121.194 104.182 119.697 104.182ZM157.748 74.1818V96H152.009V74.1818H157.748ZM154.95 83.7557V88.5284C154.486 88.7367 153.908 88.9356 153.217 89.125C152.525 89.3049 151.801 89.4517 151.043 89.5653C150.286 89.679 149.576 89.7358 148.913 89.7358C145.778 89.7358 143.311 89.0919 141.512 87.804C139.713 86.5066 138.813 84.4375 138.813 81.5966V74.1534H144.523V81.5966C144.523 82.4394 144.665 83.107 144.95 83.5994C145.243 84.0919 145.707 84.447 146.342 84.6648C146.986 84.8731 147.843 84.9773 148.913 84.9773C149.907 84.9773 150.882 84.8731 151.839 84.6648C152.795 84.4564 153.832 84.1534 154.95 83.7557ZM172.389 96.4261C170.145 96.4261 168.213 95.9716 166.594 95.0625C164.984 94.1439 163.743 92.8466 162.872 91.1705C162.001 89.4848 161.565 87.4915 161.565 85.1903C161.565 82.946 162.001 80.9763 162.872 79.2812C163.743 77.5862 164.97 76.2652 166.551 75.3182C168.142 74.3712 170.008 73.8977 172.148 73.8977C173.587 73.8977 174.927 74.1297 176.168 74.5938C177.418 75.0483 178.507 75.7348 179.435 76.6534C180.372 77.572 181.101 78.7273 181.622 80.1193C182.143 81.5019 182.403 83.1212 182.403 84.9773V86.6392H163.98V82.8892H176.707C176.707 82.018 176.518 81.2462 176.139 80.5739C175.76 79.9015 175.235 79.3759 174.562 78.9972C173.9 78.6089 173.128 78.4148 172.247 78.4148C171.329 78.4148 170.514 78.6278 169.804 79.054C169.103 79.4706 168.554 80.0341 168.156 80.7443C167.759 81.4451 167.555 82.2263 167.545 83.0881V86.6534C167.545 87.733 167.744 88.6657 168.142 89.4517C168.549 90.2377 169.122 90.8438 169.861 91.2699C170.599 91.696 171.475 91.9091 172.489 91.9091C173.161 91.9091 173.777 91.8144 174.335 91.625C174.894 91.4356 175.372 91.1515 175.77 90.7727C176.168 90.3939 176.471 89.9299 176.679 89.3807L182.276 89.75C181.991 91.0947 181.409 92.2689 180.528 93.2727C179.657 94.267 178.53 95.0436 177.148 95.6023C175.775 96.1515 174.188 96.4261 172.389 96.4261ZM201.537 82.6761V87.4347H190.145V82.6761H201.537ZM192.134 74.1818V96H186.352V74.1818H192.134ZM205.33 74.1818V96H199.591V74.1818H205.33ZM215.805 88.017L223.661 74.1818H229.626V96H223.859V82.1222L216.033 96H210.024V74.1818H215.805V88.017ZM244.42 96.4261C242.176 96.4261 240.244 95.9716 238.625 95.0625C237.015 94.1439 235.775 92.8466 234.903 91.1705C234.032 89.4848 233.597 87.4915 233.597 85.1903C233.597 82.946 234.032 80.9763 234.903 79.2812C235.775 77.5862 237.001 76.2652 238.582 75.3182C240.173 74.3712 242.039 73.8977 244.179 73.8977C245.618 73.8977 246.958 74.1297 248.199 74.5938C249.449 75.0483 250.538 75.7348 251.466 76.6534C252.403 77.572 253.133 78.7273 253.653 80.1193C254.174 81.5019 254.435 83.1212 254.435 84.9773V86.6392H236.011V82.8892H248.739C248.739 82.018 248.549 81.2462 248.17 80.5739C247.792 79.9015 247.266 79.3759 246.594 78.9972C245.931 78.6089 245.159 78.4148 244.278 78.4148C243.36 78.4148 242.545 78.6278 241.835 79.054C241.134 79.4706 240.585 80.0341 240.188 80.7443C239.79 81.4451 239.586 82.2263 239.577 83.0881V86.6534C239.577 87.733 239.776 88.6657 240.173 89.4517C240.58 90.2377 241.153 90.8438 241.892 91.2699C242.631 91.696 243.507 91.9091 244.52 91.9091C245.192 91.9091 245.808 91.8144 246.366 91.625C246.925 91.4356 247.403 91.1515 247.801 90.7727C248.199 90.3939 248.502 89.9299 248.71 89.3807L254.307 89.75C254.023 91.0947 253.44 92.2689 252.56 93.2727C251.688 94.267 250.562 95.0436 249.179 95.6023C247.806 96.1515 246.22 96.4261 244.42 96.4261ZM77.6325 137.821H83.4989C83.5273 138.541 83.8493 139.109 84.4648 139.526C85.0804 139.942 85.8758 140.151 86.8512 140.151C87.8361 140.151 88.6647 139.923 89.337 139.469C90.0094 139.005 90.3455 138.342 90.3455 137.48C90.3455 136.95 90.213 136.491 89.9478 136.102C89.6826 135.705 89.3133 135.392 88.8398 135.165C88.3664 134.937 87.8171 134.824 87.1921 134.824H84.0529V130.861H87.1921C88.1296 130.861 88.8493 130.643 89.3512 130.207C89.8626 129.772 90.1183 129.227 90.1183 128.574C90.1183 127.835 89.8531 127.243 89.3228 126.798C88.802 126.344 88.0965 126.116 87.2063 126.116C86.3067 126.116 85.5586 126.32 84.962 126.727C84.3749 127.125 84.0719 127.646 84.0529 128.29H78.2148C78.2338 126.983 78.6268 125.851 79.3938 124.895C80.1703 123.938 81.212 123.2 82.5188 122.679C83.8351 122.158 85.3076 121.898 86.9364 121.898C88.7167 121.898 90.2508 122.149 91.5387 122.651C92.8361 123.143 93.8304 123.848 94.5217 124.767C95.2224 125.686 95.5728 126.779 95.5728 128.048C95.5728 129.204 95.194 130.17 94.4364 130.946C93.6789 131.723 92.6183 132.277 91.2546 132.608V132.835C92.1542 132.892 92.9686 133.134 93.6978 133.56C94.427 133.986 95.0094 134.573 95.445 135.321C95.8806 136.06 96.0984 136.936 96.0984 137.949C96.0984 139.303 95.7006 140.463 94.9052 141.429C94.1192 142.395 93.0302 143.138 91.6381 143.659C90.2556 144.17 88.6694 144.426 86.8796 144.426C85.1372 144.426 83.5747 144.175 82.1921 143.673C80.819 143.162 79.7253 142.414 78.9109 141.429C78.1059 140.444 77.6798 139.241 77.6325 137.821ZM106.031 144.412C104.639 144.412 103.398 144.17 102.309 143.688C101.22 143.195 100.359 142.471 99.7241 141.514C99.0991 140.548 98.7866 139.346 98.7866 137.906C98.7866 136.694 99.0091 135.676 99.4542 134.852C99.8993 134.028 100.505 133.366 101.272 132.864C102.039 132.362 102.911 131.983 103.886 131.727C104.871 131.472 105.903 131.292 106.983 131.188C108.252 131.055 109.274 130.932 110.051 130.818C110.827 130.695 111.391 130.515 111.741 130.278C112.092 130.042 112.267 129.691 112.267 129.227V129.142C112.267 128.242 111.983 127.546 111.414 127.054C110.856 126.562 110.06 126.315 109.028 126.315C107.939 126.315 107.073 126.557 106.429 127.04C105.785 127.513 105.359 128.11 105.15 128.83L99.5536 128.375C99.8377 127.049 100.396 125.903 101.23 124.938C102.063 123.962 103.138 123.214 104.454 122.693C105.78 122.163 107.314 121.898 109.056 121.898C110.269 121.898 111.429 122.04 112.537 122.324C113.654 122.608 114.644 123.048 115.505 123.645C116.377 124.241 117.063 125.009 117.565 125.946C118.067 126.874 118.318 127.987 118.318 129.284V144H112.579V140.974H112.409C112.058 141.656 111.59 142.258 111.002 142.778C110.415 143.29 109.71 143.692 108.886 143.986C108.062 144.27 107.11 144.412 106.031 144.412ZM107.764 140.236C108.654 140.236 109.44 140.061 110.122 139.71C110.804 139.35 111.339 138.867 111.727 138.261C112.115 137.655 112.309 136.969 112.309 136.202V133.886C112.12 134.009 111.859 134.123 111.528 134.227C111.206 134.322 110.842 134.412 110.434 134.497C110.027 134.573 109.62 134.644 109.213 134.71C108.806 134.767 108.436 134.819 108.105 134.866C107.395 134.971 106.774 135.136 106.244 135.364C105.714 135.591 105.302 135.899 105.008 136.287C104.715 136.666 104.568 137.139 104.568 137.707C104.568 138.531 104.866 139.161 105.463 139.597C106.069 140.023 106.836 140.236 107.764 140.236ZM135.797 144V126.926H131.706C130.598 126.926 129.755 127.182 129.177 127.693C128.6 128.205 128.315 128.811 128.325 129.511C128.315 130.222 128.59 130.823 129.149 131.315C129.717 131.798 130.55 132.04 131.649 132.04H137.814V136.131H131.649C129.783 136.131 128.169 135.847 126.805 135.278C125.441 134.71 124.39 133.92 123.652 132.906C122.913 131.884 122.548 130.695 122.558 129.341C122.548 127.92 122.913 126.675 123.652 125.605C124.39 124.526 125.446 123.687 126.819 123.091C128.202 122.485 129.831 122.182 131.706 122.182H141.436V144H135.797ZM121.933 144L127.998 132.636H133.779L127.728 144H121.933ZM146.137 144V122.182H155.441C158.131 122.182 160.257 122.693 161.819 123.716C163.382 124.739 164.163 126.192 164.163 128.077C164.163 129.26 163.723 130.245 162.842 131.031C161.961 131.817 160.74 132.348 159.177 132.622C160.484 132.717 161.597 133.015 162.515 133.517C163.443 134.009 164.149 134.649 164.632 135.435C165.124 136.221 165.37 137.092 165.37 138.048C165.37 139.289 165.039 140.354 164.376 141.244C163.723 142.134 162.761 142.816 161.493 143.29C160.233 143.763 158.694 144 156.876 144H146.137ZM151.777 139.469H156.876C157.719 139.469 158.377 139.27 158.85 138.872C159.333 138.465 159.575 137.911 159.575 137.21C159.575 136.434 159.333 135.823 158.85 135.378C158.377 134.933 157.719 134.71 156.876 134.71H151.777V139.469ZM151.777 131.159H155.569C156.175 131.159 156.691 131.074 157.118 130.903C157.553 130.723 157.885 130.468 158.112 130.136C158.349 129.805 158.467 129.412 158.467 128.957C158.467 128.285 158.197 127.759 157.657 127.381C157.118 127.002 156.379 126.812 155.441 126.812H151.777V131.159ZM169.184 144V122.182H175.235V130.648H176.94L182.877 122.182H189.98L182.267 133.006L190.065 144H182.877L177.494 136.259H175.235V144H169.184ZM198.403 136.017L206.258 122.182H212.224V144H206.457V130.122L198.63 144H192.622V122.182H198.403V136.017Z" fill="black"/>
<path d="M666.128 39L656.781 26.5994H654.679V39H648.528V9.90909H654.679V21.5284H655.915L665.574 9.90909H673.23L661.881 23.4034L673.756 39H666.128ZM684.991 39.4261C682.785 39.4261 680.877 38.9574 679.267 38.0199C677.667 37.0729 676.431 35.7566 675.56 34.071C674.688 32.3759 674.253 30.411 674.253 28.1761C674.253 25.9223 674.688 23.9527 675.56 22.267C676.431 20.572 677.667 19.2557 679.267 18.3182C680.877 17.3712 682.785 16.8977 684.991 16.8977C687.198 16.8977 689.101 17.3712 690.702 18.3182C692.312 19.2557 693.552 20.572 694.423 22.267C695.295 23.9527 695.73 25.9223 695.73 28.1761C695.73 30.411 695.295 32.3759 694.423 34.071C693.552 35.7566 692.312 37.0729 690.702 38.0199C689.101 38.9574 687.198 39.4261 684.991 39.4261ZM685.02 34.7386C686.024 34.7386 686.862 34.4545 687.534 33.8864C688.206 33.3087 688.713 32.5227 689.054 31.5284C689.404 30.5341 689.58 29.4025 689.58 28.1335C689.58 26.8646 689.404 25.733 689.054 24.7386C688.713 23.7443 688.206 22.9583 687.534 22.3807C686.862 21.803 686.024 21.5142 685.02 21.5142C684.007 21.5142 683.154 21.803 682.463 22.3807C681.781 22.9583 681.265 23.7443 680.915 24.7386C680.574 25.733 680.403 26.8646 680.403 28.1335C680.403 29.4025 680.574 30.5341 680.915 31.5284C681.265 32.5227 681.781 33.3087 682.463 33.8864C683.154 34.4545 684.007 34.7386 685.02 34.7386ZM714.849 25.6761V30.4347H703.457V25.6761H714.849ZM705.446 17.1818V39H699.665V17.1818H705.446ZM718.642 17.1818V39H712.903V17.1818H718.642ZM733.195 39.4261C730.96 39.4261 729.037 38.9527 727.428 38.0057C725.827 37.0492 724.596 35.7235 723.734 34.0284C722.882 32.3333 722.456 30.3826 722.456 28.1761C722.456 25.9413 722.887 23.9811 723.749 22.2955C724.62 20.6004 725.856 19.2794 727.456 18.3324C729.056 17.3759 730.96 16.8977 733.166 16.8977C735.07 16.8977 736.736 17.2434 738.166 17.9347C739.596 18.6259 740.728 19.5966 741.561 20.8466C742.394 22.0966 742.854 23.5644 742.939 25.25H737.229C737.068 24.161 736.642 23.285 735.95 22.6222C735.268 21.9498 734.374 21.6136 733.266 21.6136C732.328 21.6136 731.509 21.8693 730.808 22.3807C730.117 22.8826 729.577 23.6165 729.189 24.5824C728.801 25.5483 728.607 26.7178 728.607 28.0909C728.607 29.483 728.796 30.6667 729.175 31.642C729.563 32.6174 730.107 33.3608 730.808 33.8722C731.509 34.3835 732.328 34.6392 733.266 34.6392C733.957 34.6392 734.577 34.4972 735.126 34.2131C735.685 33.929 736.144 33.517 736.504 32.9773C736.874 32.428 737.115 31.7699 737.229 31.0028H742.939C742.844 32.6695 742.39 34.1373 741.575 35.4062C740.77 36.6657 739.658 37.6506 738.237 38.3608C736.817 39.071 735.136 39.4261 733.195 39.4261ZM750.549 47.1818C749.782 47.1818 749.062 47.1203 748.39 46.9972C747.727 46.8835 747.178 46.7367 746.742 46.5568L748.106 42.0398C748.816 42.2576 749.455 42.3759 750.023 42.3949C750.601 42.4138 751.098 42.2813 751.515 41.9972C751.941 41.7131 752.287 41.2301 752.552 40.5483L752.907 39.625L745.08 17.1818H751.444L755.961 33.2045H756.188L760.748 17.1818H767.154L758.674 41.358C758.267 42.5322 757.713 43.5549 757.012 44.4261C756.321 45.3068 755.445 45.9839 754.384 46.4574C753.324 46.9403 752.045 47.1818 750.549 47.1818ZM767.214 39L767.186 34.1989H767.911C768.422 34.1989 768.862 34.0758 769.232 33.8295C769.61 33.5739 769.923 33.1619 770.169 32.5938C770.415 32.0256 770.609 31.2727 770.751 30.3352C770.893 29.3883 770.988 28.2235 771.036 26.8409L771.391 17.1818H787.982V39H782.214V21.9403H776.831L776.49 28.6023C776.405 30.4299 776.182 32.0019 775.822 33.3182C775.472 34.6345 774.984 35.714 774.359 36.5568C773.734 37.3902 772.982 38.0057 772.101 38.4034C771.22 38.8011 770.197 39 769.033 39H767.214ZM796.465 23.8864H802.985C805.873 23.8864 808.127 24.5777 809.746 25.9602C811.366 27.3333 812.175 29.1705 812.175 31.4716C812.175 32.9678 811.811 34.2841 811.082 35.4205C810.353 36.5473 809.301 37.428 807.928 38.0625C806.555 38.6875 804.907 39 802.985 39H792.673V17.1818H798.454V34.2415H802.985C803.998 34.2415 804.832 33.9858 805.485 33.4744C806.138 32.9631 806.47 32.3097 806.479 31.5142C806.47 30.6714 806.138 29.9848 805.485 29.4545C804.832 28.9148 803.998 28.6449 802.985 28.6449H796.465V23.8864ZM812.786 21.9403V17.1818H832.559V21.9403H825.528V39H819.761V21.9403H812.786ZM841.668 39.4119C840.276 39.4119 839.035 39.1705 837.946 38.6875C836.857 38.1951 835.995 37.4706 835.361 36.5142C834.736 35.5483 834.423 34.3456 834.423 32.9062C834.423 31.6941 834.646 30.6761 835.091 29.8523C835.536 29.0284 836.142 28.3655 836.909 27.8636C837.676 27.3617 838.547 26.983 839.523 26.7273C840.508 26.4716 841.54 26.2917 842.619 26.1875C843.888 26.0549 844.911 25.9318 845.688 25.8182C846.464 25.6951 847.027 25.5152 847.378 25.2784C847.728 25.0417 847.903 24.6913 847.903 24.2273V24.142C847.903 23.2424 847.619 22.5464 847.051 22.054C846.492 21.5616 845.697 21.3153 844.665 21.3153C843.576 21.3153 842.709 21.5568 842.065 22.0398C841.421 22.5133 840.995 23.1098 840.787 23.8295L835.19 23.375C835.474 22.0492 836.033 20.9034 836.866 19.9375C837.7 18.9621 838.775 18.214 840.091 17.6932C841.417 17.1629 842.951 16.8977 844.693 16.8977C845.905 16.8977 847.065 17.0398 848.173 17.3239C849.291 17.608 850.28 18.0483 851.142 18.6449C852.013 19.2415 852.7 20.0085 853.202 20.946C853.704 21.8741 853.955 22.9867 853.955 24.2841V39H848.216V35.9744H848.045C847.695 36.6562 847.226 37.2576 846.639 37.7784C846.052 38.2898 845.347 38.6922 844.523 38.9858C843.699 39.2699 842.747 39.4119 841.668 39.4119ZM843.401 35.2358C844.291 35.2358 845.077 35.0606 845.759 34.7102C846.44 34.3504 846.975 33.8674 847.364 33.2614C847.752 32.6553 847.946 31.9687 847.946 31.2017V28.8864C847.757 29.0095 847.496 29.1231 847.165 29.2273C846.843 29.322 846.478 29.4119 846.071 29.4972C845.664 29.5729 845.257 29.6439 844.849 29.7102C844.442 29.767 844.073 29.8191 843.741 29.8665C843.031 29.9706 842.411 30.1364 841.881 30.3636C841.35 30.5909 840.938 30.8987 840.645 31.2869C840.351 31.6657 840.205 32.1392 840.205 32.7074C840.205 33.5312 840.503 34.161 841.099 34.5966C841.705 35.0227 842.473 35.2358 843.401 35.2358ZM877.726 17.1818V34.8239H881.206V46.017H875.325V39H858.649V17.1818H864.43V34.2415H872.016V17.1818H877.726ZM890.719 31.017L898.575 17.1818H904.54V39H898.773V25.1222L890.947 39H884.938V17.1818H890.719V31.017ZM922.175 39V21.9261H918.085C916.977 21.9261 916.134 22.1818 915.556 22.6932C914.978 23.2045 914.694 23.8106 914.704 24.5114C914.694 25.2216 914.969 25.8229 915.528 26.3153C916.096 26.7983 916.929 27.0398 918.028 27.0398H924.192V31.1307H918.028C916.162 31.1307 914.548 30.8466 913.184 30.2784C911.82 29.7102 910.769 28.9195 910.031 27.9062C909.292 26.8835 908.927 25.6951 908.937 24.3409C908.927 22.9205 909.292 21.6752 910.031 20.6051C910.769 19.5256 911.825 18.6875 913.198 18.0909C914.581 17.4848 916.21 17.1818 918.085 17.1818H927.815V39H922.175ZM908.312 39L914.377 27.6364H920.158L914.107 39H908.312Z" fill="black"/>
<path d="M1343.21 66.9091V96H1337.13V71.9091H1325.37V96H1319.29V66.9091H1343.21ZM1358.81 96.4261C1356.6 96.4261 1354.69 95.9574 1353.08 95.0199C1351.48 94.0729 1350.25 92.7566 1349.38 91.071C1348.5 89.3759 1348.07 87.411 1348.07 85.1761C1348.07 82.9223 1348.5 80.9527 1349.38 79.267C1350.25 77.572 1351.48 76.2557 1353.08 75.3182C1354.69 74.3712 1356.6 73.8977 1358.81 73.8977C1361.01 73.8977 1362.92 74.3712 1364.52 75.3182C1366.13 76.2557 1367.37 77.572 1368.24 79.267C1369.11 80.9527 1369.55 82.9223 1369.55 85.1761C1369.55 87.411 1369.11 89.3759 1368.24 91.071C1367.37 92.7566 1366.13 94.0729 1364.52 95.0199C1362.92 95.9574 1361.01 96.4261 1358.81 96.4261ZM1358.84 91.7386C1359.84 91.7386 1360.68 91.4545 1361.35 90.8864C1362.02 90.3087 1362.53 89.5227 1362.87 88.5284C1363.22 87.5341 1363.4 86.4025 1363.4 85.1335C1363.4 83.8646 1363.22 82.733 1362.87 81.7386C1362.53 80.7443 1362.02 79.9583 1361.35 79.3807C1360.68 78.803 1359.84 78.5142 1358.84 78.5142C1357.82 78.5142 1356.97 78.803 1356.28 79.3807C1355.6 79.9583 1355.08 80.7443 1354.73 81.7386C1354.39 82.733 1354.22 83.8646 1354.22 85.1335C1354.22 86.4025 1354.39 87.5341 1354.73 88.5284C1355.08 89.5227 1355.6 90.3087 1356.28 90.8864C1356.97 91.4545 1357.82 91.7386 1358.84 91.7386ZM1371.78 102.392V91.1989H1373.45C1373.94 90.8958 1374.32 90.4129 1374.62 89.75C1374.92 89.0871 1375.17 88.3059 1375.36 87.4062C1375.56 86.5066 1375.71 85.536 1375.81 84.4943C1375.92 83.4432 1376.02 82.3826 1376.11 81.3125L1376.68 74.1818H1393.41V91.1989H1396.79V102.392H1391.02V96H1377.69V102.392H1371.78ZM1379.48 91.1989H1387.7V78.8409H1381.82L1381.59 81.3125C1381.43 83.642 1381.2 85.6212 1380.9 87.25C1380.59 88.8693 1380.12 90.1856 1379.48 91.1989ZM1415.26 74.1818V78.9403H1406.2V96H1400.32V74.1818H1415.26ZM1428.03 96.4261C1425.82 96.4261 1423.91 95.9574 1422.3 95.0199C1420.7 94.0729 1419.47 92.7566 1418.59 91.071C1417.72 89.3759 1417.29 87.411 1417.29 85.1761C1417.29 82.9223 1417.72 80.9527 1418.59 79.267C1419.47 77.572 1420.7 76.2557 1422.3 75.3182C1423.91 74.3712 1425.82 73.8977 1428.03 73.8977C1430.23 73.8977 1432.14 74.3712 1433.74 75.3182C1435.35 76.2557 1436.59 77.572 1437.46 79.267C1438.33 80.9527 1438.77 82.9223 1438.77 85.1761C1438.77 87.411 1438.33 89.3759 1437.46 91.071C1436.59 92.7566 1435.35 94.0729 1433.74 95.0199C1432.14 95.9574 1430.23 96.4261 1428.03 96.4261ZM1428.06 91.7386C1429.06 91.7386 1429.9 91.4545 1430.57 90.8864C1431.24 90.3087 1431.75 89.5227 1432.09 88.5284C1432.44 87.5341 1432.61 86.4025 1432.61 85.1335C1432.61 83.8646 1432.44 82.733 1432.09 81.7386C1431.75 80.7443 1431.24 79.9583 1430.57 79.3807C1429.9 78.803 1429.06 78.5142 1428.06 78.5142C1427.04 78.5142 1426.19 78.803 1425.5 79.3807C1424.82 79.9583 1424.3 80.7443 1423.95 81.7386C1423.61 82.733 1423.44 83.8646 1423.44 85.1335C1423.44 86.4025 1423.61 87.5341 1423.95 88.5284C1424.3 89.5227 1424.82 90.3087 1425.5 90.8864C1426.19 91.4545 1427.04 91.7386 1428.06 91.7386ZM1440.59 78.9403V74.1818H1460.36V78.9403H1453.33V96H1447.56V78.9403H1440.59ZM1473.1 96.4261C1470.9 96.4261 1468.99 95.9574 1467.38 95.0199C1465.78 94.0729 1464.54 92.7566 1463.67 91.071C1462.8 89.3759 1462.37 87.411 1462.37 85.1761C1462.37 82.9223 1462.8 80.9527 1463.67 79.267C1464.54 77.572 1465.78 76.2557 1467.38 75.3182C1468.99 74.3712 1470.9 73.8977 1473.1 73.8977C1475.31 73.8977 1477.21 74.3712 1478.81 75.3182C1480.42 76.2557 1481.67 77.572 1482.54 79.267C1483.41 80.9527 1483.84 82.9223 1483.84 85.1761C1483.84 87.411 1483.41 89.3759 1482.54 91.071C1481.67 92.7566 1480.42 94.0729 1478.81 95.0199C1477.21 95.9574 1475.31 96.4261 1473.1 96.4261ZM1473.13 91.7386C1474.14 91.7386 1474.98 91.4545 1475.65 90.8864C1476.32 90.3087 1476.83 89.5227 1477.17 88.5284C1477.52 87.5341 1477.69 86.4025 1477.69 85.1335C1477.69 83.8646 1477.52 82.733 1477.17 81.7386C1476.83 80.7443 1476.32 79.9583 1475.65 79.3807C1474.98 78.803 1474.14 78.5142 1473.13 78.5142C1472.12 78.5142 1471.27 78.803 1470.58 79.3807C1469.89 79.9583 1469.38 80.7443 1469.03 81.7386C1468.69 82.733 1468.52 83.8646 1468.52 85.1335C1468.52 86.4025 1468.69 87.5341 1469.03 88.5284C1469.38 89.5227 1469.89 90.3087 1470.58 90.8864C1471.27 91.4545 1472.12 91.7386 1473.13 91.7386ZM1487.78 96V74.1818H1497.08C1499.77 74.1818 1501.9 74.6932 1503.46 75.7159C1505.02 76.7386 1505.8 78.1922 1505.8 80.0767C1505.8 81.2604 1505.36 82.2453 1504.48 83.0312C1503.6 83.8172 1502.38 84.3475 1500.82 84.6222C1502.12 84.7169 1503.24 85.0152 1504.16 85.517C1505.08 86.0095 1505.79 86.6487 1506.27 87.4347C1506.76 88.2206 1507.01 89.0919 1507.01 90.0483C1507.01 91.2888 1506.68 92.3542 1506.02 93.2443C1505.36 94.1345 1504.4 94.8163 1503.13 95.2898C1501.87 95.7633 1500.33 96 1498.52 96H1487.78ZM1493.42 91.4688H1498.52C1499.36 91.4688 1500.02 91.2699 1500.49 90.8722C1500.97 90.465 1501.22 89.911 1501.22 89.2102C1501.22 88.4337 1500.97 87.8229 1500.49 87.3778C1500.02 86.9328 1499.36 86.7102 1498.52 86.7102H1493.42V91.4688ZM1493.42 83.1591H1497.21C1497.82 83.1591 1498.33 83.0739 1498.76 82.9034C1499.19 82.7235 1499.53 82.4678 1499.75 82.1364C1499.99 81.8049 1500.11 81.4119 1500.11 80.9574C1500.11 80.285 1499.84 79.7595 1499.3 79.3807C1498.76 79.0019 1498.02 78.8125 1497.08 78.8125H1493.42V83.1591ZM1510.82 96V74.1818H1516.88V82.6477H1518.58L1524.52 74.1818H1531.62L1523.91 85.0057L1531.71 96H1524.52L1519.13 88.2585H1516.88V96H1510.82ZM1540.48 96.4119C1539.09 96.4119 1537.85 96.1705 1536.76 95.6875C1535.67 95.1951 1534.81 94.4706 1534.18 93.5142C1533.55 92.5483 1533.24 91.3456 1533.24 89.9062C1533.24 88.6941 1533.46 87.6761 1533.91 86.8523C1534.35 86.0284 1534.96 85.3655 1535.73 84.8636C1536.49 84.3617 1537.36 83.983 1538.34 83.7273C1539.32 83.4716 1540.36 83.2917 1541.44 83.1875C1542.7 83.0549 1543.73 82.9318 1544.5 82.8182C1545.28 82.6951 1545.84 82.5152 1546.19 82.2784C1546.54 82.0417 1546.72 81.6913 1546.72 81.2273V81.142C1546.72 80.2424 1546.44 79.5464 1545.87 79.054C1545.31 78.5616 1544.51 78.3153 1543.48 78.3153C1542.39 78.3153 1541.53 78.5568 1540.88 79.0398C1540.24 79.5133 1539.81 80.1098 1539.6 80.8295L1534.01 80.375C1534.29 79.0492 1534.85 77.9034 1535.68 76.9375C1536.52 75.9621 1537.59 75.214 1538.91 74.6932C1540.23 74.1629 1541.77 73.8977 1543.51 73.8977C1544.72 73.8977 1545.88 74.0398 1546.99 74.3239C1548.11 74.608 1549.1 75.0483 1549.96 75.6449C1550.83 76.2415 1551.52 77.0085 1552.02 77.946C1552.52 78.8741 1552.77 79.9867 1552.77 81.2841V96H1547.03V92.9744H1546.86C1546.51 93.6562 1546.04 94.2576 1545.46 94.7784C1544.87 95.2898 1544.16 95.6922 1543.34 95.9858C1542.52 96.2699 1541.56 96.4119 1540.48 96.4119ZM1542.22 92.2358C1543.11 92.2358 1543.89 92.0606 1544.57 91.7102C1545.26 91.3504 1545.79 90.8674 1546.18 90.2614C1546.57 89.6553 1546.76 88.9687 1546.76 88.2017V85.8864C1546.57 86.0095 1546.31 86.1231 1545.98 86.2273C1545.66 86.322 1545.29 86.4119 1544.89 86.4972C1544.48 86.5729 1544.07 86.6439 1543.67 86.7102C1543.26 86.767 1542.89 86.8191 1542.56 86.8665C1541.85 86.9706 1541.23 87.1364 1540.7 87.3636C1540.17 87.5909 1539.75 87.8987 1539.46 88.2869C1539.17 88.6657 1539.02 89.1392 1539.02 89.7074C1539.02 90.5312 1539.32 91.161 1539.92 91.5966C1540.52 92.0227 1541.29 92.2358 1542.22 92.2358ZM1313.75 150.392V139.199H1315.43C1315.91 138.896 1316.3 138.413 1316.59 137.75C1316.89 137.087 1317.14 136.306 1317.33 135.406C1317.53 134.507 1317.68 133.536 1317.78 132.494C1317.9 131.443 1318 130.383 1318.08 129.312L1318.65 122.182H1335.38V139.199H1338.76V150.392H1333V144H1319.66V150.392H1313.75ZM1321.45 139.199H1329.67V126.841H1323.79L1323.56 129.312C1323.4 131.642 1323.17 133.621 1322.87 135.25C1322.57 136.869 1322.09 138.186 1321.45 139.199ZM1352.15 144.426C1349.94 144.426 1348.03 143.957 1346.42 143.02C1344.82 142.073 1343.59 140.757 1342.72 139.071C1341.84 137.376 1341.41 135.411 1341.41 133.176C1341.41 130.922 1341.84 128.953 1342.72 127.267C1343.59 125.572 1344.82 124.256 1346.42 123.318C1348.03 122.371 1349.94 121.898 1352.15 121.898C1354.35 121.898 1356.26 122.371 1357.86 123.318C1359.47 124.256 1360.71 125.572 1361.58 127.267C1362.45 128.953 1362.89 130.922 1362.89 133.176C1362.89 135.411 1362.45 137.376 1361.58 139.071C1360.71 140.757 1359.47 142.073 1357.86 143.02C1356.26 143.957 1354.35 144.426 1352.15 144.426ZM1352.18 139.739C1353.18 139.739 1354.02 139.455 1354.69 138.886C1355.36 138.309 1355.87 137.523 1356.21 136.528C1356.56 135.534 1356.74 134.402 1356.74 133.134C1356.74 131.865 1356.56 130.733 1356.21 129.739C1355.87 128.744 1355.36 127.958 1354.69 127.381C1354.02 126.803 1353.18 126.514 1352.18 126.514C1351.16 126.514 1350.31 126.803 1349.62 127.381C1348.94 127.958 1348.42 128.744 1348.07 129.739C1347.73 130.733 1347.56 131.865 1347.56 133.134C1347.56 134.402 1347.73 135.534 1348.07 136.528C1348.42 137.523 1348.94 138.309 1349.62 138.886C1350.31 139.455 1351.16 139.739 1352.18 139.739ZM1366.82 144V122.182H1372.87V130.648H1374.58L1380.51 122.182H1387.62L1379.9 133.006L1387.7 144H1380.51L1375.13 136.259H1372.87V144H1366.82ZM1394.35 152.182C1393.58 152.182 1392.86 152.12 1392.19 151.997C1391.52 151.884 1390.97 151.737 1390.54 151.557L1391.9 147.04C1392.61 147.258 1393.25 147.376 1393.82 147.395C1394.4 147.414 1394.9 147.281 1395.31 146.997C1395.74 146.713 1396.08 146.23 1396.35 145.548L1396.7 144.625L1388.88 122.182H1395.24L1399.76 138.205H1399.99L1404.54 122.182H1410.95L1402.47 146.358C1402.06 147.532 1401.51 148.555 1400.81 149.426C1400.12 150.307 1399.24 150.984 1398.18 151.457C1397.12 151.94 1395.84 152.182 1394.35 152.182ZM1426.95 137.31L1432.85 122.182H1437.46L1428.95 144H1424.93L1416.62 122.182H1421.21L1426.95 137.31ZM1419.83 122.182V144H1414.05V122.182H1419.83ZM1434.36 144V122.182H1440.07V144H1434.36ZM1454.69 144.426C1452.45 144.426 1450.52 143.972 1448.9 143.062C1447.29 142.144 1446.05 140.847 1445.18 139.17C1444.31 137.485 1443.87 135.491 1443.87 133.19C1443.87 130.946 1444.31 128.976 1445.18 127.281C1446.05 125.586 1447.27 124.265 1448.86 123.318C1450.45 122.371 1452.31 121.898 1454.45 121.898C1455.89 121.898 1457.23 122.13 1458.47 122.594C1459.72 123.048 1460.81 123.735 1461.74 124.653C1462.68 125.572 1463.41 126.727 1463.93 128.119C1464.45 129.502 1464.71 131.121 1464.71 132.977V134.639H1446.28V130.889H1459.01C1459.01 130.018 1458.82 129.246 1458.44 128.574C1458.07 127.902 1457.54 127.376 1456.87 126.997C1456.2 126.609 1455.43 126.415 1454.55 126.415C1453.63 126.415 1452.82 126.628 1452.11 127.054C1451.41 127.471 1450.86 128.034 1450.46 128.744C1450.06 129.445 1449.86 130.226 1449.85 131.088V134.653C1449.85 135.733 1450.05 136.666 1450.45 137.452C1450.85 138.238 1451.43 138.844 1452.17 139.27C1452.9 139.696 1453.78 139.909 1454.79 139.909C1455.47 139.909 1456.08 139.814 1456.64 139.625C1457.2 139.436 1457.68 139.152 1458.07 138.773C1458.47 138.394 1458.78 137.93 1458.98 137.381L1464.58 137.75C1464.3 139.095 1463.71 140.269 1462.83 141.273C1461.96 142.267 1460.83 143.044 1459.45 143.602C1458.08 144.152 1456.49 144.426 1454.69 144.426ZM1483.84 130.676V135.435H1472.45V130.676H1483.84ZM1474.44 122.182V144H1468.66V122.182H1474.44ZM1487.63 122.182V144H1481.9V122.182H1487.63ZM1490.14 126.94V122.182H1509.91V126.94H1502.88V144H1497.11V126.94H1490.14ZM1522.66 144.426C1520.45 144.426 1518.54 143.957 1516.93 143.02C1515.33 142.073 1514.09 140.757 1513.22 139.071C1512.35 137.376 1511.92 135.411 1511.92 133.176C1511.92 130.922 1512.35 128.953 1513.22 127.267C1514.09 125.572 1515.33 124.256 1516.93 123.318C1518.54 122.371 1520.45 121.898 1522.66 121.898C1524.86 121.898 1526.77 122.371 1528.37 123.318C1529.98 124.256 1531.22 125.572 1532.09 127.267C1532.96 128.953 1533.39 130.922 1533.39 133.176C1533.39 135.411 1532.96 137.376 1532.09 139.071C1531.22 140.757 1529.98 142.073 1528.37 143.02C1526.77 143.957 1524.86 144.426 1522.66 144.426ZM1522.68 139.739C1523.69 139.739 1524.53 139.455 1525.2 138.886C1525.87 138.309 1526.38 137.523 1526.72 136.528C1527.07 135.534 1527.24 134.402 1527.24 133.134C1527.24 131.865 1527.07 130.733 1526.72 129.739C1526.38 128.744 1525.87 127.958 1525.2 127.381C1524.53 126.803 1523.69 126.514 1522.68 126.514C1521.67 126.514 1520.82 126.803 1520.13 127.381C1519.45 127.958 1518.93 128.744 1518.58 129.739C1518.24 130.733 1518.07 131.865 1518.07 133.134C1518.07 134.402 1518.24 135.534 1518.58 136.528C1518.93 137.523 1519.45 138.309 1520.13 138.886C1520.82 139.455 1521.67 139.739 1522.68 139.739ZM1537.33 144V122.182H1546.63C1549.32 122.182 1551.45 122.693 1553.01 123.716C1554.57 124.739 1555.35 126.192 1555.35 128.077C1555.35 129.26 1554.91 130.245 1554.03 131.031C1553.15 131.817 1551.93 132.348 1550.37 132.622C1551.68 132.717 1552.79 133.015 1553.71 133.517C1554.63 134.009 1555.34 134.649 1555.82 135.435C1556.32 136.221 1556.56 137.092 1556.56 138.048C1556.56 139.289 1556.23 140.354 1555.57 141.244C1554.91 142.134 1553.95 142.816 1552.68 143.29C1551.42 143.763 1549.89 144 1548.07 144H1537.33ZM1542.97 139.469H1548.07C1548.91 139.469 1549.57 139.27 1550.04 138.872C1550.52 138.465 1550.77 137.911 1550.77 137.21C1550.77 136.434 1550.52 135.823 1550.04 135.378C1549.57 134.933 1548.91 134.71 1548.07 134.71H1542.97V139.469ZM1542.97 131.159H1546.76C1547.37 131.159 1547.88 131.074 1548.31 130.903C1548.74 130.723 1549.08 130.468 1549.3 130.136C1549.54 129.805 1549.66 129.412 1549.66 128.957C1549.66 128.285 1549.39 127.759 1548.85 127.381C1548.31 127.002 1547.57 126.812 1546.63 126.812H1542.97V131.159Z" fill="black"/>
<path d="M1196.63 782.398C1194.51 782.398 1192.62 782.033 1190.96 781.304C1189.31 780.565 1188.01 779.552 1187.06 778.264C1186.11 776.967 1185.62 775.471 1185.59 773.776H1191.79C1191.82 774.486 1192.06 775.111 1192.48 775.651C1192.92 776.181 1193.5 776.593 1194.22 776.886C1194.94 777.18 1195.74 777.327 1196.64 777.327C1197.58 777.327 1198.41 777.161 1199.13 776.83C1199.85 776.498 1200.41 776.039 1200.82 775.452C1201.23 774.865 1201.43 774.187 1201.43 773.42C1201.43 772.644 1201.21 771.957 1200.78 771.361C1200.35 770.755 1199.74 770.281 1198.93 769.94C1198.14 769.599 1197.19 769.429 1196.09 769.429H1193.38V764.912H1196.09C1197.02 764.912 1197.84 764.751 1198.55 764.429C1199.27 764.107 1199.83 763.662 1200.22 763.094C1200.62 762.516 1200.82 761.844 1200.82 761.077C1200.82 760.348 1200.65 759.708 1200.3 759.159C1199.95 758.6 1199.47 758.165 1198.85 757.852C1198.23 757.54 1197.51 757.384 1196.69 757.384C1195.85 757.384 1195.09 757.535 1194.4 757.838C1193.71 758.132 1193.15 758.553 1192.74 759.102C1192.32 759.652 1192.1 760.295 1192.07 761.034H1186.18C1186.2 759.358 1186.68 757.881 1187.61 756.602C1188.54 755.324 1189.79 754.325 1191.36 753.605C1192.94 752.876 1194.73 752.511 1196.72 752.511C1198.72 752.511 1200.48 752.876 1201.99 753.605C1203.49 754.334 1204.66 755.319 1205.49 756.56C1206.34 757.791 1206.75 759.173 1206.74 760.707C1206.75 762.336 1206.25 763.695 1205.22 764.784C1204.21 765.873 1202.89 766.564 1201.26 766.858V767.085C1203.4 767.36 1205.03 768.103 1206.15 769.315C1207.27 770.518 1207.83 772.024 1207.82 773.832C1207.83 775.49 1207.35 776.962 1206.39 778.25C1205.43 779.538 1204.11 780.551 1202.43 781.29C1200.74 782.028 1198.81 782.398 1196.63 782.398ZM1218.52 782.412C1217.13 782.412 1215.89 782.17 1214.8 781.688C1213.71 781.195 1212.85 780.471 1212.22 779.514C1211.59 778.548 1211.28 777.346 1211.28 775.906C1211.28 774.694 1211.5 773.676 1211.95 772.852C1212.39 772.028 1213 771.366 1213.76 770.864C1214.53 770.362 1215.4 769.983 1216.38 769.727C1217.36 769.472 1218.4 769.292 1219.47 769.188C1220.74 769.055 1221.77 768.932 1222.54 768.818C1223.32 768.695 1223.88 768.515 1224.23 768.278C1224.58 768.042 1224.76 767.691 1224.76 767.227V767.142C1224.76 766.242 1224.47 765.546 1223.91 765.054C1223.35 764.562 1222.55 764.315 1221.52 764.315C1220.43 764.315 1219.56 764.557 1218.92 765.04C1218.28 765.513 1217.85 766.11 1217.64 766.83L1212.05 766.375C1212.33 765.049 1212.89 763.903 1213.72 762.938C1214.56 761.962 1215.63 761.214 1216.95 760.693C1218.27 760.163 1219.81 759.898 1221.55 759.898C1222.76 759.898 1223.92 760.04 1225.03 760.324C1226.15 760.608 1227.14 761.048 1228 761.645C1228.87 762.241 1229.56 763.009 1230.06 763.946C1230.56 764.874 1230.81 765.987 1230.81 767.284V782H1225.07V778.974H1224.9C1224.55 779.656 1224.08 780.258 1223.49 780.778C1222.91 781.29 1222.2 781.692 1221.38 781.986C1220.55 782.27 1219.6 782.412 1218.52 782.412ZM1220.26 778.236C1221.15 778.236 1221.93 778.061 1222.61 777.71C1223.3 777.35 1223.83 776.867 1224.22 776.261C1224.61 775.655 1224.8 774.969 1224.8 774.202V771.886C1224.61 772.009 1224.35 772.123 1224.02 772.227C1223.7 772.322 1223.33 772.412 1222.93 772.497C1222.52 772.573 1222.11 772.644 1221.7 772.71C1221.3 772.767 1220.93 772.819 1220.6 772.866C1219.89 772.971 1219.27 773.136 1218.74 773.364C1218.21 773.591 1217.79 773.899 1217.5 774.287C1217.21 774.666 1217.06 775.139 1217.06 775.707C1217.06 776.531 1217.36 777.161 1217.95 777.597C1218.56 778.023 1219.33 778.236 1220.26 778.236ZM1235.5 782V760.182H1241.56V768.648H1243.26L1249.2 760.182H1256.3L1248.59 771.006L1256.39 782H1249.2L1243.81 774.259H1241.56V782H1235.5ZM1257.66 782L1257.64 777.199H1258.36C1258.87 777.199 1259.31 777.076 1259.68 776.83C1260.06 776.574 1260.37 776.162 1260.62 775.594C1260.86 775.026 1261.06 774.273 1261.2 773.335C1261.34 772.388 1261.44 771.223 1261.48 769.841L1261.84 760.182H1278.43V782H1272.66V764.94H1267.28L1266.94 771.602C1266.85 773.43 1266.63 775.002 1266.27 776.318C1265.92 777.634 1265.43 778.714 1264.81 779.557C1264.18 780.39 1263.43 781.006 1262.55 781.403C1261.67 781.801 1260.65 782 1259.48 782H1257.66ZM1295.18 768.804V773.605H1283.35V768.804H1295.18ZM1288.02 760.182V782H1281.99V760.182H1288.02ZM1301.72 782.426C1299.56 782.426 1297.69 781.943 1296.12 780.977C1294.55 780.011 1293.33 778.676 1292.48 776.972C1291.64 775.267 1291.22 773.312 1291.22 771.105C1291.22 768.899 1291.64 766.953 1292.48 765.267C1293.33 763.581 1294.55 762.265 1296.12 761.318C1297.69 760.371 1299.56 759.898 1301.72 759.898C1303.88 759.898 1305.75 760.371 1307.31 761.318C1308.88 762.265 1310.09 763.581 1310.93 765.267C1311.79 766.953 1312.21 768.899 1312.21 771.105C1312.21 773.312 1311.79 775.267 1310.93 776.972C1310.09 778.676 1308.88 780.011 1307.31 780.977C1305.75 781.943 1303.88 782.426 1301.72 782.426ZM1301.72 777.54C1302.84 777.54 1303.75 777.265 1304.44 776.716C1305.13 776.157 1305.64 775.395 1305.96 774.429C1306.28 773.454 1306.45 772.346 1306.45 771.105C1306.45 769.865 1306.28 768.766 1305.96 767.81C1305.64 766.844 1305.13 766.086 1304.44 765.537C1303.75 764.988 1302.84 764.713 1301.72 764.713C1300.6 764.713 1299.69 764.988 1298.99 765.537C1298.29 766.077 1297.77 766.825 1297.44 767.781C1297.12 768.738 1296.96 769.846 1296.96 771.105C1296.96 772.355 1297.12 773.463 1297.44 774.429C1297.77 775.395 1298.29 776.157 1298.99 776.716C1299.69 777.265 1300.6 777.54 1301.72 777.54ZM1335.26 760.182V782H1329.52V760.182H1335.26ZM1332.46 769.756V774.528C1332 774.737 1331.42 774.936 1330.73 775.125C1330.04 775.305 1329.31 775.452 1328.56 775.565C1327.8 775.679 1327.09 775.736 1326.42 775.736C1323.29 775.736 1320.82 775.092 1319.02 773.804C1317.22 772.507 1316.32 770.437 1316.32 767.597V760.153H1322.04V767.597C1322.04 768.439 1322.18 769.107 1322.46 769.599C1322.75 770.092 1323.22 770.447 1323.85 770.665C1324.5 770.873 1325.35 770.977 1326.42 770.977C1327.42 770.977 1328.39 770.873 1329.35 770.665C1330.31 770.456 1331.34 770.153 1332.46 769.756ZM1349.9 782.426C1347.66 782.426 1345.72 781.972 1344.11 781.062C1342.5 780.144 1341.26 778.847 1340.38 777.17C1339.51 775.485 1339.08 773.491 1339.08 771.19C1339.08 768.946 1339.51 766.976 1340.38 765.281C1341.26 763.586 1342.48 762.265 1344.06 761.318C1345.65 760.371 1347.52 759.898 1349.66 759.898C1351.1 759.898 1352.44 760.13 1353.68 760.594C1354.93 761.048 1356.02 761.735 1356.95 762.653C1357.88 763.572 1358.61 764.727 1359.13 766.119C1359.65 767.502 1359.92 769.121 1359.92 770.977V772.639H1341.49V768.889H1354.22C1354.22 768.018 1354.03 767.246 1353.65 766.574C1353.27 765.902 1352.75 765.376 1352.07 764.997C1351.41 764.609 1350.64 764.415 1349.76 764.415C1348.84 764.415 1348.03 764.628 1347.32 765.054C1346.61 765.471 1346.07 766.034 1345.67 766.744C1345.27 767.445 1345.07 768.226 1345.06 769.088V772.653C1345.06 773.733 1345.26 774.666 1345.65 775.452C1346.06 776.238 1346.63 776.844 1347.37 777.27C1348.11 777.696 1348.99 777.909 1350 777.909C1350.67 777.909 1351.29 777.814 1351.85 777.625C1352.41 777.436 1352.88 777.152 1353.28 776.773C1353.68 776.394 1353.98 775.93 1354.19 775.381L1359.79 775.75C1359.5 777.095 1358.92 778.269 1358.04 779.273C1357.17 780.267 1356.04 781.044 1354.66 781.602C1353.29 782.152 1351.7 782.426 1349.9 782.426ZM1379.05 768.676V773.435H1367.66V768.676H1379.05ZM1369.65 760.182V782H1363.86V760.182H1369.65ZM1382.84 760.182V782H1377.1V760.182H1382.84ZM1393.32 774.017L1401.17 760.182H1407.14V782H1401.37V768.122L1393.54 782H1387.54V760.182H1393.32V774.017ZM1421.93 782.426C1419.69 782.426 1417.76 781.972 1416.14 781.062C1414.53 780.144 1413.29 778.847 1412.42 777.17C1411.54 775.485 1411.11 773.491 1411.11 771.19C1411.11 768.946 1411.54 766.976 1412.42 765.281C1413.29 763.586 1414.51 762.265 1416.09 761.318C1417.69 760.371 1419.55 759.898 1421.69 759.898C1423.13 759.898 1424.47 760.13 1425.71 760.594C1426.96 761.048 1428.05 761.735 1428.98 762.653C1429.92 763.572 1430.64 764.727 1431.17 766.119C1431.69 767.502 1431.95 769.121 1431.95 770.977V772.639H1413.52V768.889H1426.25C1426.25 768.018 1426.06 767.246 1425.68 766.574C1425.3 765.902 1424.78 765.376 1424.11 764.997C1423.44 764.609 1422.67 764.415 1421.79 764.415C1420.87 764.415 1420.06 764.628 1419.35 765.054C1418.65 765.471 1418.1 766.034 1417.7 766.744C1417.3 767.445 1417.1 768.226 1417.09 769.088V772.653C1417.09 773.733 1417.29 774.666 1417.69 775.452C1418.09 776.238 1418.67 776.844 1419.4 777.27C1420.14 777.696 1421.02 777.909 1422.03 777.909C1422.7 777.909 1423.32 777.814 1423.88 777.625C1424.44 777.436 1424.92 777.152 1425.31 776.773C1425.71 776.394 1426.01 775.93 1426.22 775.381L1431.82 775.75C1431.53 777.095 1430.95 778.269 1430.07 779.273C1429.2 780.267 1428.07 781.044 1426.69 781.602C1425.32 782.152 1423.73 782.426 1421.93 782.426ZM1214.29 836.392V825.199H1215.96C1216.45 824.896 1216.84 824.413 1217.13 823.75C1217.43 823.087 1217.68 822.306 1217.87 821.406C1218.07 820.507 1218.22 819.536 1218.32 818.494C1218.44 817.443 1218.54 816.383 1218.62 815.312L1219.19 808.182H1235.92V825.199H1239.3V836.392H1233.54V830H1220.2V836.392H1214.29ZM1221.99 825.199H1230.21V812.841H1224.33L1224.1 815.312C1223.94 817.642 1223.71 819.621 1223.41 821.25C1223.1 822.869 1222.63 824.186 1221.99 825.199ZM1252.69 830.426C1250.48 830.426 1248.57 829.957 1246.96 829.02C1245.36 828.073 1244.13 826.757 1243.25 825.071C1242.38 823.376 1241.95 821.411 1241.95 819.176C1241.95 816.922 1242.38 814.953 1243.25 813.267C1244.13 811.572 1245.36 810.256 1246.96 809.318C1248.57 808.371 1250.48 807.898 1252.69 807.898C1254.89 807.898 1256.8 808.371 1258.4 809.318C1260.01 810.256 1261.25 811.572 1262.12 813.267C1262.99 814.953 1263.43 816.922 1263.43 819.176C1263.43 821.411 1262.99 823.376 1262.12 825.071C1261.25 826.757 1260.01 828.073 1258.4 829.02C1256.8 829.957 1254.89 830.426 1252.69 830.426ZM1252.72 825.739C1253.72 825.739 1254.56 825.455 1255.23 824.886C1255.9 824.309 1256.41 823.523 1256.75 822.528C1257.1 821.534 1257.27 820.402 1257.27 819.134C1257.27 817.865 1257.1 816.733 1256.75 815.739C1256.41 814.744 1255.9 813.958 1255.23 813.381C1254.56 812.803 1253.72 812.514 1252.72 812.514C1251.7 812.514 1250.85 812.803 1250.16 813.381C1249.48 813.958 1248.96 814.744 1248.61 815.739C1248.27 816.733 1248.1 817.865 1248.1 819.134C1248.1 820.402 1248.27 821.534 1248.61 822.528C1248.96 823.523 1249.48 824.309 1250.16 824.886C1250.85 825.455 1251.7 825.739 1252.72 825.739ZM1282.3 808.182V812.94H1273.24V830H1267.36V808.182H1282.3ZM1295.07 830.426C1292.86 830.426 1290.96 829.957 1289.35 829.02C1287.74 828.073 1286.51 826.757 1285.64 825.071C1284.77 823.376 1284.33 821.411 1284.33 819.176C1284.33 816.922 1284.77 814.953 1285.64 813.267C1286.51 811.572 1287.74 810.256 1289.35 809.318C1290.96 808.371 1292.86 807.898 1295.07 807.898C1297.28 807.898 1299.18 808.371 1300.78 809.318C1302.39 810.256 1303.63 811.572 1304.5 813.267C1305.37 814.953 1305.81 816.922 1305.81 819.176C1305.81 821.411 1305.37 823.376 1304.5 825.071C1303.63 826.757 1302.39 828.073 1300.78 829.02C1299.18 829.957 1297.28 830.426 1295.07 830.426ZM1295.1 825.739C1296.1 825.739 1296.94 825.455 1297.61 824.886C1298.28 824.309 1298.79 823.523 1299.13 822.528C1299.48 821.534 1299.66 820.402 1299.66 819.134C1299.66 817.865 1299.48 816.733 1299.13 815.739C1298.79 814.744 1298.28 813.958 1297.61 813.381C1296.94 812.803 1296.1 812.514 1295.1 812.514C1294.08 812.514 1293.23 812.803 1292.54 813.381C1291.86 813.958 1291.34 814.744 1290.99 815.739C1290.65 816.733 1290.48 817.865 1290.48 819.134C1290.48 820.402 1290.65 821.534 1290.99 822.528C1291.34 823.523 1291.86 824.309 1292.54 824.886C1293.23 825.455 1294.08 825.739 1295.1 825.739ZM1309.74 830V808.182H1319.05C1321.74 808.182 1323.86 808.693 1325.42 809.716C1326.99 810.739 1327.77 812.192 1327.77 814.077C1327.77 815.26 1327.33 816.245 1326.45 817.031C1325.57 817.817 1324.35 818.348 1322.78 818.622C1324.09 818.717 1325.2 819.015 1326.12 819.517C1327.05 820.009 1327.75 820.649 1328.24 821.435C1328.73 822.221 1328.98 823.092 1328.98 824.048C1328.98 825.289 1328.64 826.354 1327.98 827.244C1327.33 828.134 1326.37 828.816 1325.1 829.29C1323.84 829.763 1322.3 830 1320.48 830H1309.74ZM1315.38 825.469H1320.48C1321.32 825.469 1321.98 825.27 1322.46 824.872C1322.94 824.465 1323.18 823.911 1323.18 823.21C1323.18 822.434 1322.94 821.823 1322.46 821.378C1321.98 820.933 1321.32 820.71 1320.48 820.71H1315.38V825.469ZM1315.38 817.159H1319.17C1319.78 817.159 1320.3 817.074 1320.72 816.903C1321.16 816.723 1321.49 816.468 1321.72 816.136C1321.95 815.805 1322.07 815.412 1322.07 814.957C1322.07 814.285 1321.8 813.759 1321.26 813.381C1320.72 813.002 1319.98 812.812 1319.05 812.812H1315.38V817.159ZM1342.65 830.426C1340.44 830.426 1338.53 829.957 1336.92 829.02C1335.32 828.073 1334.09 826.757 1333.22 825.071C1332.34 823.376 1331.91 821.411 1331.91 819.176C1331.91 816.922 1332.34 814.953 1333.22 813.267C1334.09 811.572 1335.32 810.256 1336.92 809.318C1338.53 808.371 1340.44 807.898 1342.65 807.898C1344.85 807.898 1346.76 808.371 1348.36 809.318C1349.97 810.256 1351.21 811.572 1352.08 813.267C1352.95 814.953 1353.39 816.922 1353.39 819.176C1353.39 821.411 1352.95 823.376 1352.08 825.071C1351.21 826.757 1349.97 828.073 1348.36 829.02C1346.76 829.957 1344.85 830.426 1342.65 830.426ZM1342.68 825.739C1343.68 825.739 1344.52 825.455 1345.19 824.886C1345.86 824.309 1346.37 823.523 1346.71 822.528C1347.06 821.534 1347.24 820.402 1347.24 819.134C1347.24 817.865 1347.06 816.733 1346.71 815.739C1346.37 814.744 1345.86 813.958 1345.19 813.381C1344.52 812.803 1343.68 812.514 1342.68 812.514C1341.66 812.514 1340.81 812.803 1340.12 813.381C1339.44 813.958 1338.92 814.744 1338.57 815.739C1338.23 816.733 1338.06 817.865 1338.06 819.134C1338.06 820.402 1338.23 821.534 1338.57 822.528C1338.92 823.523 1339.44 824.309 1340.12 824.886C1340.81 825.455 1341.66 825.739 1342.68 825.739ZM1357.32 838.182V808.182H1363.29V811.847H1363.56C1363.82 811.259 1364.21 810.663 1364.71 810.057C1365.22 809.441 1365.88 808.93 1366.7 808.523C1367.52 808.106 1368.54 807.898 1369.76 807.898C1371.36 807.898 1372.82 808.314 1374.17 809.148C1375.51 809.972 1376.59 811.217 1377.39 812.884C1378.2 814.541 1378.6 816.619 1378.6 819.119C1378.6 821.553 1378.21 823.608 1377.42 825.284C1376.64 826.951 1375.58 828.215 1374.24 829.077C1372.9 829.929 1371.41 830.355 1369.75 830.355C1368.58 830.355 1367.58 830.161 1366.75 829.773C1365.94 829.384 1365.27 828.897 1364.75 828.31C1364.23 827.713 1363.83 827.112 1363.56 826.506H1363.37V838.182H1357.32ZM1363.24 819.091C1363.24 820.388 1363.42 821.52 1363.78 822.486C1364.14 823.452 1364.66 824.205 1365.35 824.744C1366.03 825.275 1366.86 825.54 1367.83 825.54C1368.82 825.54 1369.65 825.27 1370.33 824.73C1371.01 824.181 1371.53 823.423 1371.88 822.457C1372.24 821.482 1372.42 820.36 1372.42 819.091C1372.42 817.831 1372.25 816.723 1371.89 815.767C1371.54 814.811 1371.03 814.062 1370.35 813.523C1369.66 812.983 1368.83 812.713 1367.83 812.713C1366.85 812.713 1366.01 812.973 1365.33 813.494C1364.66 814.015 1364.14 814.754 1363.78 815.71C1363.42 816.667 1363.24 817.794 1363.24 819.091ZM1388.86 830.412C1387.46 830.412 1386.22 830.17 1385.13 829.688C1384.04 829.195 1383.18 828.471 1382.55 827.514C1381.92 826.548 1381.61 825.346 1381.61 823.906C1381.61 822.694 1381.83 821.676 1382.28 820.852C1382.72 820.028 1383.33 819.366 1384.1 818.864C1384.86 818.362 1385.73 817.983 1386.71 817.727C1387.7 817.472 1388.73 817.292 1389.81 817.188C1391.08 817.055 1392.1 816.932 1392.88 816.818C1393.65 816.695 1394.21 816.515 1394.57 816.278C1394.92 816.042 1395.09 815.691 1395.09 815.227V815.142C1395.09 814.242 1394.81 813.546 1394.24 813.054C1393.68 812.562 1392.88 812.315 1391.85 812.315C1390.76 812.315 1389.9 812.557 1389.25 813.04C1388.61 813.513 1388.18 814.11 1387.97 814.83L1382.38 814.375C1382.66 813.049 1383.22 811.903 1384.05 810.938C1384.89 809.962 1385.96 809.214 1387.28 808.693C1388.6 808.163 1390.14 807.898 1391.88 807.898C1393.09 807.898 1394.25 808.04 1395.36 808.324C1396.48 808.608 1397.47 809.048 1398.33 809.645C1399.2 810.241 1399.89 811.009 1400.39 811.946C1400.89 812.874 1401.14 813.987 1401.14 815.284V830H1395.4V826.974H1395.23C1394.88 827.656 1394.41 828.258 1393.83 828.778C1393.24 829.29 1392.53 829.692 1391.71 829.986C1390.89 830.27 1389.93 830.412 1388.86 830.412ZM1390.59 826.236C1391.48 826.236 1392.26 826.061 1392.95 825.71C1393.63 825.35 1394.16 824.867 1394.55 824.261C1394.94 823.655 1395.13 822.969 1395.13 822.202V819.886C1394.94 820.009 1394.68 820.123 1394.35 820.227C1394.03 820.322 1393.67 820.412 1393.26 820.497C1392.85 820.573 1392.44 820.644 1392.04 820.71C1391.63 820.767 1391.26 820.819 1390.93 820.866C1390.22 820.971 1389.6 821.136 1389.07 821.364C1388.54 821.591 1388.13 821.899 1387.83 822.287C1387.54 822.666 1387.39 823.139 1387.39 823.707C1387.39 824.531 1387.69 825.161 1388.29 825.597C1388.89 826.023 1389.66 826.236 1390.59 826.236Z" fill="black"/>
<path d="M723.122 782V752.909H734.77C736.91 752.909 738.695 753.226 740.125 753.861C741.555 754.495 742.63 755.376 743.349 756.503C744.069 757.62 744.429 758.908 744.429 760.366C744.429 761.503 744.202 762.502 743.747 763.364C743.293 764.216 742.668 764.917 741.872 765.466C741.086 766.006 740.187 766.389 739.173 766.616V766.901C740.281 766.948 741.318 767.26 742.284 767.838C743.259 768.416 744.05 769.225 744.656 770.267C745.262 771.299 745.565 772.53 745.565 773.96C745.565 775.504 745.182 776.882 744.415 778.094C743.657 779.296 742.535 780.248 741.048 780.949C739.562 781.65 737.729 782 735.551 782H723.122ZM729.273 776.972H734.287C736.001 776.972 737.251 776.645 738.037 775.991C738.823 775.329 739.216 774.448 739.216 773.349C739.216 772.545 739.022 771.834 738.634 771.219C738.245 770.603 737.691 770.12 736.972 769.77C736.261 769.42 735.414 769.244 734.429 769.244H729.273V776.972ZM729.273 765.082H733.832C734.675 765.082 735.423 764.936 736.077 764.642C736.74 764.339 737.26 763.913 737.639 763.364C738.027 762.814 738.222 762.156 738.222 761.389C738.222 760.338 737.848 759.491 737.099 758.847C736.361 758.203 735.31 757.881 733.946 757.881H729.273V765.082ZM753.246 766.886H759.766C762.655 766.886 764.908 767.578 766.528 768.96C768.147 770.333 768.957 772.17 768.957 774.472C768.957 775.968 768.592 777.284 767.863 778.42C767.134 779.547 766.083 780.428 764.71 781.062C763.336 781.688 761.689 782 759.766 782H749.454V760.182H755.235V777.241H759.766C760.78 777.241 761.613 776.986 762.266 776.474C762.92 775.963 763.251 775.31 763.261 774.514C763.251 773.671 762.92 772.985 762.266 772.455C761.613 771.915 760.78 771.645 759.766 771.645H753.246V766.886ZM771.3 782V760.182H777.352V782H771.3ZM782.188 782V760.182H791.492C794.182 760.182 796.308 760.693 797.87 761.716C799.433 762.739 800.214 764.192 800.214 766.077C800.214 767.26 799.773 768.245 798.893 769.031C798.012 769.817 796.79 770.348 795.228 770.622C796.535 770.717 797.647 771.015 798.566 771.517C799.494 772.009 800.2 772.649 800.683 773.435C801.175 774.221 801.421 775.092 801.421 776.048C801.421 777.289 801.09 778.354 800.427 779.244C799.773 780.134 798.812 780.816 797.543 781.29C796.284 781.763 794.745 782 792.927 782H782.188ZM787.827 777.469H792.927C793.77 777.469 794.428 777.27 794.901 776.872C795.384 776.465 795.626 775.911 795.626 775.21C795.626 774.434 795.384 773.823 794.901 773.378C794.428 772.933 793.77 772.71 792.927 772.71H787.827V777.469ZM787.827 769.159H791.62C792.226 769.159 792.742 769.074 793.168 768.903C793.604 768.723 793.935 768.468 794.163 768.136C794.399 767.805 794.518 767.412 794.518 766.957C794.518 766.285 794.248 765.759 793.708 765.381C793.168 765.002 792.43 764.812 791.492 764.812H787.827V769.159ZM815.093 782.426C812.887 782.426 810.978 781.957 809.369 781.02C807.768 780.073 806.532 778.757 805.661 777.071C804.79 775.376 804.354 773.411 804.354 771.176C804.354 768.922 804.79 766.953 805.661 765.267C806.532 763.572 807.768 762.256 809.369 761.318C810.978 760.371 812.887 759.898 815.093 759.898C817.299 759.898 819.203 760.371 820.803 761.318C822.413 762.256 823.654 763.572 824.525 765.267C825.396 766.953 825.832 768.922 825.832 771.176C825.832 773.411 825.396 775.376 824.525 777.071C823.654 778.757 822.413 780.073 820.803 781.02C819.203 781.957 817.299 782.426 815.093 782.426ZM815.121 777.739C816.125 777.739 816.963 777.455 817.636 776.886C818.308 776.309 818.815 775.523 819.156 774.528C819.506 773.534 819.681 772.402 819.681 771.134C819.681 769.865 819.506 768.733 819.156 767.739C818.815 766.744 818.308 765.958 817.636 765.381C816.963 764.803 816.125 764.514 815.121 764.514C814.108 764.514 813.256 764.803 812.565 765.381C811.883 765.958 811.367 766.744 811.016 767.739C810.675 768.733 810.505 769.865 810.505 771.134C810.505 772.402 810.675 773.534 811.016 774.528C811.367 775.523 811.883 776.309 812.565 776.886C813.256 777.455 814.108 777.739 815.121 777.739ZM828.644 775.821H834.511C834.539 776.541 834.861 777.109 835.477 777.526C836.092 777.942 836.888 778.151 837.863 778.151C838.848 778.151 839.676 777.923 840.349 777.469C841.021 777.005 841.357 776.342 841.357 775.48C841.357 774.95 841.225 774.491 840.96 774.102C840.694 773.705 840.325 773.392 839.852 773.165C839.378 772.937 838.829 772.824 838.204 772.824H835.065V768.861H838.204C839.141 768.861 839.861 768.643 840.363 768.207C840.874 767.772 841.13 767.227 841.13 766.574C841.13 765.835 840.865 765.243 840.335 764.798C839.814 764.344 839.108 764.116 838.218 764.116C837.318 764.116 836.57 764.32 835.974 764.727C835.387 765.125 835.084 765.646 835.065 766.29H829.227C829.246 764.983 829.638 763.851 830.406 762.895C831.182 761.938 832.224 761.2 833.531 760.679C834.847 760.158 836.319 759.898 837.948 759.898C839.728 759.898 841.263 760.149 842.55 760.651C843.848 761.143 844.842 761.848 845.533 762.767C846.234 763.686 846.585 764.779 846.585 766.048C846.585 767.204 846.206 768.17 845.448 768.946C844.691 769.723 843.63 770.277 842.266 770.608V770.835C843.166 770.892 843.98 771.134 844.71 771.56C845.439 771.986 846.021 772.573 846.457 773.321C846.892 774.06 847.11 774.936 847.11 775.949C847.11 777.303 846.712 778.463 845.917 779.429C845.131 780.395 844.042 781.138 842.65 781.659C841.267 782.17 839.681 782.426 837.891 782.426C836.149 782.426 834.586 782.175 833.204 781.673C831.831 781.162 830.737 780.414 829.923 779.429C829.118 778.444 828.692 777.241 828.644 775.821ZM713.277 830.426C711.07 830.426 709.162 829.957 707.552 829.02C705.952 828.073 704.716 826.757 703.845 825.071C702.974 823.376 702.538 821.411 702.538 819.176C702.538 816.922 702.974 814.953 703.845 813.267C704.716 811.572 705.952 810.256 707.552 809.318C709.162 808.371 711.07 807.898 713.277 807.898C715.483 807.898 717.386 808.371 718.987 809.318C720.597 810.256 721.837 811.572 722.708 813.267C723.58 814.953 724.015 816.922 724.015 819.176C724.015 821.411 723.58 823.376 722.708 825.071C721.837 826.757 720.597 828.073 718.987 829.02C717.386 829.957 715.483 830.426 713.277 830.426ZM713.305 825.739C714.309 825.739 715.147 825.455 715.819 824.886C716.492 824.309 716.998 823.523 717.339 822.528C717.69 821.534 717.865 820.402 717.865 819.134C717.865 817.865 717.69 816.733 717.339 815.739C716.998 814.744 716.492 813.958 715.819 813.381C715.147 812.803 714.309 812.514 713.305 812.514C712.292 812.514 711.44 812.803 710.748 813.381C710.066 813.958 709.55 814.744 709.2 815.739C708.859 816.733 708.689 817.865 708.689 819.134C708.689 820.402 708.859 821.534 709.2 822.528C709.55 823.523 710.066 824.309 710.748 824.886C711.44 825.455 712.292 825.739 713.305 825.739ZM725.837 812.94V808.182H745.61V812.94H738.578V830H732.811V812.94H725.837ZM754.335 808.182L758.341 815.81L762.446 808.182H768.653L762.332 819.091L768.824 830H762.645L758.341 822.457L754.108 830H747.858L754.335 819.091L748.085 808.182H754.335ZM781.324 830.426C779.117 830.426 777.209 829.957 775.599 829.02C773.999 828.073 772.763 826.757 771.892 825.071C771.02 823.376 770.585 821.411 770.585 819.176C770.585 816.922 771.02 814.953 771.892 813.267C772.763 811.572 773.999 810.256 775.599 809.318C777.209 808.371 779.117 807.898 781.324 807.898C783.53 807.898 785.433 808.371 787.034 809.318C788.644 810.256 789.884 811.572 790.755 813.267C791.627 814.953 792.062 816.922 792.062 819.176C792.062 821.411 791.627 823.376 790.755 825.071C789.884 826.757 788.644 828.073 787.034 829.02C785.433 829.957 783.53 830.426 781.324 830.426ZM781.352 825.739C782.356 825.739 783.194 825.455 783.866 824.886C784.538 824.309 785.045 823.523 785.386 822.528C785.736 821.534 785.912 820.402 785.912 819.134C785.912 817.865 785.736 816.733 785.386 815.739C785.045 814.744 784.538 813.958 783.866 813.381C783.194 812.803 782.356 812.514 781.352 812.514C780.339 812.514 779.486 812.803 778.795 813.381C778.113 813.958 777.597 814.744 777.247 815.739C776.906 816.733 776.735 817.865 776.735 819.134C776.735 820.402 776.906 821.534 777.247 822.528C777.597 823.523 778.113 824.309 778.795 824.886C779.486 825.455 780.339 825.739 781.352 825.739ZM794.292 836.392V825.199H795.968C796.451 824.896 796.84 824.413 797.133 823.75C797.436 823.087 797.682 822.306 797.872 821.406C798.071 820.507 798.222 819.536 798.326 818.494C798.44 817.443 798.539 816.383 798.625 815.312L799.193 808.182H815.926V825.199H819.306V836.392H813.539V830H800.201V836.392H794.292ZM801.991 825.199H810.216V812.841H804.335L804.108 815.312C803.947 817.642 803.715 819.621 803.412 821.25C803.109 822.869 802.635 824.186 801.991 825.199ZM832.691 830.426C830.484 830.426 828.576 829.957 826.966 829.02C825.366 828.073 824.13 826.757 823.259 825.071C822.388 823.376 821.952 821.411 821.952 819.176C821.952 816.922 822.388 814.953 823.259 813.267C824.13 811.572 825.366 810.256 826.966 809.318C828.576 808.371 830.484 807.898 832.691 807.898C834.897 807.898 836.801 808.371 838.401 809.318C840.011 810.256 841.251 811.572 842.123 813.267C842.994 814.953 843.429 816.922 843.429 819.176C843.429 821.411 842.994 823.376 842.123 825.071C841.251 826.757 840.011 828.073 838.401 829.02C836.801 829.957 834.897 830.426 832.691 830.426ZM832.719 825.739C833.723 825.739 834.561 825.455 835.233 824.886C835.906 824.309 836.412 823.523 836.753 822.528C837.104 821.534 837.279 820.402 837.279 819.134C837.279 817.865 837.104 816.733 836.753 815.739C836.412 814.744 835.906 813.958 835.233 813.381C834.561 812.803 833.723 812.514 832.719 812.514C831.706 812.514 830.854 812.803 830.162 813.381C829.48 813.958 828.964 814.744 828.614 815.739C828.273 816.733 828.103 817.865 828.103 819.134C828.103 820.402 828.273 821.534 828.614 822.528C828.964 823.523 829.48 824.309 830.162 824.886C830.854 825.455 831.706 825.739 832.719 825.739ZM847.364 830V808.182H856.668C859.357 808.182 861.483 808.693 863.046 809.716C864.608 810.739 865.39 812.192 865.39 814.077C865.39 815.26 864.949 816.245 864.069 817.031C863.188 817.817 861.966 818.348 860.404 818.622C861.711 818.717 862.823 819.015 863.742 819.517C864.67 820.009 865.375 820.649 865.858 821.435C866.351 822.221 866.597 823.092 866.597 824.048C866.597 825.289 866.266 826.354 865.603 827.244C864.949 828.134 863.988 828.816 862.719 829.29C861.46 829.763 859.921 830 858.103 830H847.364ZM853.003 825.469H858.103C858.945 825.469 859.604 825.27 860.077 824.872C860.56 824.465 860.801 823.911 860.801 823.21C860.801 822.434 860.56 821.823 860.077 821.378C859.604 820.933 858.945 820.71 858.103 820.71H853.003V825.469ZM853.003 817.159H856.796C857.402 817.159 857.918 817.074 858.344 816.903C858.78 816.723 859.111 816.468 859.338 816.136C859.575 815.805 859.694 815.412 859.694 814.957C859.694 814.285 859.424 813.759 858.884 813.381C858.344 813.002 857.605 812.812 856.668 812.812H853.003V817.159Z" fill="black"/>
<path d="M201.466 752.909V782H195.386V757.909H183.625V782H177.545V752.909H201.466ZM217.151 782.426C214.907 782.426 212.975 781.972 211.355 781.062C209.746 780.144 208.505 778.847 207.634 777.17C206.763 775.485 206.327 773.491 206.327 771.19C206.327 768.946 206.763 766.976 207.634 765.281C208.505 763.586 209.731 762.265 211.313 761.318C212.904 760.371 214.769 759.898 216.909 759.898C218.349 759.898 219.689 760.13 220.929 760.594C222.179 761.048 223.268 761.735 224.196 762.653C225.134 763.572 225.863 764.727 226.384 766.119C226.905 767.502 227.165 769.121 227.165 770.977V772.639H208.742V768.889H221.469C221.469 768.018 221.28 767.246 220.901 766.574C220.522 765.902 219.997 765.376 219.324 764.997C218.661 764.609 217.89 764.415 217.009 764.415C216.09 764.415 215.276 764.628 214.566 765.054C213.865 765.471 213.316 766.034 212.918 766.744C212.52 767.445 212.317 768.226 212.307 769.088V772.653C212.307 773.733 212.506 774.666 212.904 775.452C213.311 776.238 213.884 776.844 214.623 777.27C215.361 777.696 216.237 777.909 217.25 777.909C217.923 777.909 218.538 777.814 219.097 777.625C219.656 777.436 220.134 777.152 220.532 776.773C220.929 776.394 221.232 775.93 221.441 775.381L227.037 775.75C226.753 777.095 226.171 778.269 225.29 779.273C224.419 780.267 223.292 781.044 221.909 781.602C220.536 782.152 218.95 782.426 217.151 782.426ZM231.114 790.182V760.182H237.08V763.847H237.35C237.615 763.259 237.998 762.663 238.5 762.057C239.012 761.441 239.675 760.93 240.489 760.523C241.313 760.106 242.336 759.898 243.557 759.898C245.148 759.898 246.616 760.314 247.961 761.148C249.305 761.972 250.38 763.217 251.185 764.884C251.99 766.541 252.392 768.619 252.392 771.119C252.392 773.553 251.999 775.608 251.213 777.284C250.437 778.951 249.376 780.215 248.032 781.077C246.696 781.929 245.2 782.355 243.543 782.355C242.369 782.355 241.37 782.161 240.546 781.773C239.731 781.384 239.064 780.897 238.543 780.31C238.022 779.713 237.624 779.112 237.35 778.506H237.165V790.182H231.114ZM237.037 771.091C237.037 772.388 237.217 773.52 237.577 774.486C237.937 775.452 238.458 776.205 239.14 776.744C239.821 777.275 240.65 777.54 241.625 777.54C242.61 777.54 243.444 777.27 244.125 776.73C244.807 776.181 245.323 775.423 245.674 774.457C246.033 773.482 246.213 772.36 246.213 771.091C246.213 769.831 246.038 768.723 245.688 767.767C245.337 766.811 244.821 766.062 244.14 765.523C243.458 764.983 242.62 764.713 241.625 764.713C240.641 764.713 239.807 764.973 239.125 765.494C238.453 766.015 237.937 766.754 237.577 767.71C237.217 768.667 237.037 769.794 237.037 771.091ZM266.37 782.426C264.125 782.426 262.194 781.972 260.574 781.062C258.964 780.144 257.724 778.847 256.853 777.17C255.981 775.485 255.546 773.491 255.546 771.19C255.546 768.946 255.981 766.976 256.853 765.281C257.724 763.586 258.95 762.265 260.532 761.318C262.123 760.371 263.988 759.898 266.128 759.898C267.568 759.898 268.908 760.13 270.148 760.594C271.398 761.048 272.487 761.735 273.415 762.653C274.353 763.572 275.082 764.727 275.603 766.119C276.123 767.502 276.384 769.121 276.384 770.977V772.639H257.961V768.889H270.688C270.688 768.018 270.498 767.246 270.12 766.574C269.741 765.902 269.215 765.376 268.543 764.997C267.88 764.609 267.108 764.415 266.228 764.415C265.309 764.415 264.495 764.628 263.784 765.054C263.084 765.471 262.534 766.034 262.137 766.744C261.739 767.445 261.535 768.226 261.526 769.088V772.653C261.526 773.733 261.725 774.666 262.123 775.452C262.53 776.238 263.103 776.844 263.841 777.27C264.58 777.696 265.456 777.909 266.469 777.909C267.141 777.909 267.757 777.814 268.316 777.625C268.874 777.436 269.353 777.152 269.75 776.773C270.148 776.394 270.451 775.93 270.659 775.381L276.256 775.75C275.972 777.095 275.39 778.269 274.509 779.273C273.638 780.267 272.511 781.044 271.128 781.602C269.755 782.152 268.169 782.426 266.37 782.426ZM278.628 788.392V777.199H280.304C280.787 776.896 281.176 776.413 281.469 775.75C281.772 775.087 282.018 774.306 282.208 773.406C282.407 772.507 282.558 771.536 282.662 770.494C282.776 769.443 282.875 768.383 282.961 767.312L283.529 760.182H300.262V777.199H303.642V788.392H297.875V782H284.537V788.392H278.628ZM286.327 777.199H294.551V764.841H288.671L288.444 767.312C288.283 769.642 288.051 771.621 287.748 773.25C287.444 774.869 286.971 776.186 286.327 777.199ZM313.39 782.412C311.998 782.412 310.758 782.17 309.669 781.688C308.58 781.195 307.718 780.471 307.083 779.514C306.458 778.548 306.146 777.346 306.146 775.906C306.146 774.694 306.368 773.676 306.814 772.852C307.259 772.028 307.865 771.366 308.632 770.864C309.399 770.362 310.27 769.983 311.245 769.727C312.23 769.472 313.262 769.292 314.342 769.188C315.611 769.055 316.634 768.932 317.41 768.818C318.187 768.695 318.75 768.515 319.1 768.278C319.451 768.042 319.626 767.691 319.626 767.227V767.142C319.626 766.242 319.342 765.546 318.774 765.054C318.215 764.562 317.42 764.315 316.387 764.315C315.298 764.315 314.432 764.557 313.788 765.04C313.144 765.513 312.718 766.11 312.51 766.83L306.913 766.375C307.197 765.049 307.756 763.903 308.589 762.938C309.422 761.962 310.497 761.214 311.814 760.693C313.139 760.163 314.673 759.898 316.416 759.898C317.628 759.898 318.788 760.04 319.896 760.324C321.013 760.608 322.003 761.048 322.865 761.645C323.736 762.241 324.422 763.009 324.924 763.946C325.426 764.874 325.677 765.987 325.677 767.284V782H319.939V778.974H319.768C319.418 779.656 318.949 780.258 318.362 780.778C317.775 781.29 317.069 781.692 316.245 781.986C315.422 782.27 314.47 782.412 313.39 782.412ZM315.123 778.236C316.013 778.236 316.799 778.061 317.481 777.71C318.163 777.35 318.698 776.867 319.086 776.261C319.475 775.655 319.669 774.969 319.669 774.202V771.886C319.479 772.009 319.219 772.123 318.887 772.227C318.565 772.322 318.201 772.412 317.794 772.497C317.386 772.573 316.979 772.644 316.572 772.71C316.165 772.767 315.796 772.819 315.464 772.866C314.754 772.971 314.134 773.136 313.603 773.364C313.073 773.591 312.661 773.899 312.368 774.287C312.074 774.666 311.927 775.139 311.927 775.707C311.927 776.531 312.225 777.161 312.822 777.597C313.428 778.023 314.195 778.236 315.123 778.236ZM349.306 760.182V782H343.568V760.182H349.306ZM346.508 769.756V774.528C346.044 774.737 345.467 774.936 344.775 775.125C344.084 775.305 343.359 775.452 342.602 775.565C341.844 775.679 341.134 775.736 340.471 775.736C337.337 775.736 334.87 775.092 333.071 773.804C331.271 772.507 330.372 770.437 330.372 767.597V760.153H336.082V767.597C336.082 768.439 336.224 769.107 336.508 769.599C336.802 770.092 337.266 770.447 337.9 770.665C338.544 770.873 339.401 770.977 340.471 770.977C341.466 770.977 342.441 770.873 343.397 770.665C344.354 770.456 345.391 770.153 346.508 769.756ZM360.226 782.412C358.834 782.412 357.594 782.17 356.505 781.688C355.416 781.195 354.554 780.471 353.919 779.514C353.294 778.548 352.982 777.346 352.982 775.906C352.982 774.694 353.204 773.676 353.65 772.852C354.095 772.028 354.701 771.366 355.468 770.864C356.235 770.362 357.106 769.983 358.081 769.727C359.066 769.472 360.098 769.292 361.178 769.188C362.447 769.055 363.47 768.932 364.246 768.818C365.023 768.695 365.586 768.515 365.936 768.278C366.287 768.042 366.462 767.691 366.462 767.227V767.142C366.462 766.242 366.178 765.546 365.61 765.054C365.051 764.562 364.256 764.315 363.223 764.315C362.134 764.315 361.268 764.557 360.624 765.04C359.98 765.513 359.554 766.11 359.346 766.83L353.749 766.375C354.033 765.049 354.592 763.903 355.425 762.938C356.258 761.962 357.333 761.214 358.65 760.693C359.975 760.163 361.509 759.898 363.252 759.898C364.464 759.898 365.624 760.04 366.732 760.324C367.849 760.608 368.839 761.048 369.701 761.645C370.572 762.241 371.258 763.009 371.76 763.946C372.262 764.874 372.513 765.987 372.513 767.284V782H366.775V778.974H366.604C366.254 779.656 365.785 780.258 365.198 780.778C364.611 781.29 363.905 781.692 363.081 781.986C362.257 782.27 361.306 782.412 360.226 782.412ZM361.959 778.236C362.849 778.236 363.635 778.061 364.317 777.71C364.999 777.35 365.534 776.867 365.922 776.261C366.31 775.655 366.505 774.969 366.505 774.202V771.886C366.315 772.009 366.055 772.123 365.723 772.227C365.401 772.322 365.037 772.412 364.63 772.497C364.222 772.573 363.815 772.644 363.408 772.71C363.001 772.767 362.632 772.819 362.3 772.866C361.59 772.971 360.97 773.136 360.439 773.364C359.909 773.591 359.497 773.899 359.203 774.287C358.91 774.666 358.763 775.139 358.763 775.707C358.763 776.531 359.061 777.161 359.658 777.597C360.264 778.023 361.031 778.236 361.959 778.236ZM206.187 830.426C203.98 830.426 202.072 829.957 200.462 829.02C198.862 828.073 197.626 826.757 196.755 825.071C195.884 823.376 195.448 821.411 195.448 819.176C195.448 816.922 195.884 814.953 196.755 813.267C197.626 811.572 198.862 810.256 200.462 809.318C202.072 808.371 203.98 807.898 206.187 807.898C208.393 807.898 210.297 808.371 211.897 809.318C213.507 810.256 214.747 811.572 215.619 813.267C216.49 814.953 216.925 816.922 216.925 819.176C216.925 821.411 216.49 823.376 215.619 825.071C214.747 826.757 213.507 828.073 211.897 829.02C210.297 829.957 208.393 830.426 206.187 830.426ZM206.215 825.739C207.219 825.739 208.057 825.455 208.729 824.886C209.402 824.309 209.908 823.523 210.249 822.528C210.6 821.534 210.775 820.402 210.775 819.134C210.775 817.865 210.6 816.733 210.249 815.739C209.908 814.744 209.402 813.958 208.729 813.381C208.057 812.803 207.219 812.514 206.215 812.514C205.202 812.514 204.35 812.803 203.658 813.381C202.977 813.958 202.46 814.744 202.11 815.739C201.769 816.733 201.599 817.865 201.599 819.134C201.599 820.402 201.769 821.534 202.11 822.528C202.46 823.523 202.977 824.309 203.658 824.886C204.35 825.455 205.202 825.739 206.215 825.739ZM218.747 812.94V808.182H238.52V812.94H231.489V830H225.722V812.94H218.747ZM260.342 808.182V830H254.603V808.182H260.342ZM257.543 817.756V822.528C257.079 822.737 256.502 822.936 255.81 823.125C255.119 823.305 254.395 823.452 253.637 823.565C252.879 823.679 252.169 823.736 251.506 823.736C248.372 823.736 245.905 823.092 244.106 821.804C242.307 820.507 241.407 818.437 241.407 815.597V808.153H247.117V815.597C247.117 816.439 247.259 817.107 247.543 817.599C247.837 818.092 248.301 818.447 248.935 818.665C249.579 818.873 250.436 818.977 251.506 818.977C252.501 818.977 253.476 818.873 254.433 818.665C255.389 818.456 256.426 818.153 257.543 817.756ZM274.983 830.426C272.739 830.426 270.807 829.972 269.188 829.062C267.578 828.144 266.337 826.847 265.466 825.17C264.595 823.485 264.159 821.491 264.159 819.19C264.159 816.946 264.595 814.976 265.466 813.281C266.337 811.586 267.563 810.265 269.145 809.318C270.736 808.371 272.601 807.898 274.741 807.898C276.181 807.898 277.521 808.13 278.761 808.594C280.011 809.048 281.1 809.735 282.028 810.653C282.966 811.572 283.695 812.727 284.216 814.119C284.737 815.502 284.997 817.121 284.997 818.977V820.639H266.574V816.889H279.301C279.301 816.018 279.112 815.246 278.733 814.574C278.354 813.902 277.829 813.376 277.156 812.997C276.493 812.609 275.722 812.415 274.841 812.415C273.922 812.415 273.108 812.628 272.398 813.054C271.697 813.471 271.148 814.034 270.75 814.744C270.352 815.445 270.149 816.226 270.139 817.088V820.653C270.139 821.733 270.338 822.666 270.736 823.452C271.143 824.238 271.716 824.844 272.455 825.27C273.193 825.696 274.069 825.909 275.082 825.909C275.755 825.909 276.37 825.814 276.929 825.625C277.488 825.436 277.966 825.152 278.364 824.773C278.761 824.394 279.064 823.93 279.273 823.381L284.869 823.75C284.585 825.095 284.003 826.269 283.122 827.273C282.251 828.267 281.124 829.044 279.741 829.602C278.368 830.152 276.782 830.426 274.983 830.426ZM287.263 812.94V808.182H307.036V812.94H300.004V830H294.237V812.94H287.263ZM319.781 830.426C317.574 830.426 315.666 829.957 314.056 829.02C312.456 828.073 311.22 826.757 310.349 825.071C309.478 823.376 309.042 821.411 309.042 819.176C309.042 816.922 309.478 814.953 310.349 813.267C311.22 811.572 312.456 810.256 314.056 809.318C315.666 808.371 317.574 807.898 319.781 807.898C321.987 807.898 323.89 808.371 325.491 809.318C327.101 810.256 328.341 811.572 329.212 813.267C330.084 814.953 330.519 816.922 330.519 819.176C330.519 821.411 330.084 823.376 329.212 825.071C328.341 826.757 327.101 828.073 325.491 829.02C323.89 829.957 321.987 830.426 319.781 830.426ZM319.809 825.739C320.813 825.739 321.651 825.455 322.323 824.886C322.996 824.309 323.502 823.523 323.843 822.528C324.193 821.534 324.369 820.402 324.369 819.134C324.369 817.865 324.193 816.733 323.843 815.739C323.502 814.744 322.996 813.958 322.323 813.381C321.651 812.803 320.813 812.514 319.809 812.514C318.796 812.514 317.943 812.803 317.252 813.381C316.57 813.958 316.054 814.744 315.704 815.739C315.363 816.733 315.192 817.865 315.192 819.134C315.192 820.402 315.363 821.534 315.704 822.528C316.054 823.523 316.57 824.309 317.252 824.886C317.943 825.455 318.796 825.739 319.809 825.739ZM334.454 830V808.182H343.758C346.447 808.182 348.573 808.693 350.136 809.716C351.698 810.739 352.479 812.192 352.479 814.077C352.479 815.26 352.039 816.245 351.158 817.031C350.278 817.817 349.056 818.348 347.494 818.622C348.8 818.717 349.913 819.015 350.832 819.517C351.76 820.009 352.465 820.649 352.948 821.435C353.441 822.221 353.687 823.092 353.687 824.048C353.687 825.289 353.355 826.354 352.692 827.244C352.039 828.134 351.078 828.816 349.809 829.29C348.549 829.763 347.011 830 345.192 830H334.454ZM340.093 825.469H345.192C346.035 825.469 346.693 825.27 347.167 824.872C347.65 824.465 347.891 823.911 347.891 823.21C347.891 822.434 347.65 821.823 347.167 821.378C346.693 820.933 346.035 820.71 345.192 820.71H340.093V825.469ZM340.093 817.159H343.886C344.492 817.159 345.008 817.074 345.434 816.903C345.87 816.723 346.201 816.468 346.428 816.136C346.665 815.805 346.783 815.412 346.783 814.957C346.783 814.285 346.513 813.759 345.974 813.381C345.434 813.002 344.695 812.812 343.758 812.812H340.093V817.159Z" fill="black"/>
</svg>
