<svg width="965" height="499" viewBox="0 0 965 499" fill="none" xmlns="http://www.w3.org/2000/svg">
<circle cx="168.981" cy="350.348" r="58.882" fill="#BFDF72"/>
<circle cx="109.805" cy="314.724" r="26.7913" fill="#79AC2B"/>
<path d="M107.952 326.145C106.98 326.139 106.041 325.976 105.136 325.656C104.238 325.336 103.431 324.816 102.717 324.096C102.003 323.375 101.437 322.421 101.018 321.233C100.606 320.045 100.4 318.587 100.4 316.857C100.406 315.269 100.588 313.85 100.945 312.6C101.308 311.345 101.825 310.28 102.496 309.406C103.173 308.532 103.982 307.867 104.924 307.412C105.866 306.95 106.921 306.719 108.091 306.719C109.353 306.719 110.467 306.965 111.433 307.458C112.4 307.944 113.175 308.606 113.76 309.443C114.351 310.28 114.708 311.219 114.831 312.259H110.889C110.735 311.6 110.411 311.083 109.919 310.708C109.427 310.332 108.817 310.145 108.091 310.145C106.86 310.145 105.924 310.68 105.284 311.751C104.65 312.822 104.327 314.278 104.315 316.118H104.444C104.727 315.558 105.109 315.081 105.589 314.687C106.075 314.287 106.626 313.982 107.241 313.773C107.863 313.558 108.519 313.45 109.208 313.45C110.328 313.45 111.326 313.715 112.2 314.244C113.074 314.767 113.763 315.487 114.268 316.404C114.773 317.322 115.025 318.371 115.025 319.553C115.025 320.833 114.726 321.972 114.129 322.969C113.538 323.966 112.71 324.748 111.646 325.314C110.587 325.874 109.356 326.151 107.952 326.145ZM107.934 323.006C108.549 323.006 109.1 322.858 109.587 322.563C110.073 322.267 110.455 321.867 110.732 321.363C111.009 320.858 111.147 320.292 111.147 319.664C111.147 319.036 111.009 318.473 110.732 317.974C110.461 317.475 110.085 317.078 109.605 316.783C109.125 316.488 108.577 316.34 107.962 316.34C107.5 316.34 107.072 316.426 106.678 316.598C106.291 316.771 105.949 317.011 105.653 317.319C105.364 317.626 105.136 317.983 104.97 318.39C104.804 318.79 104.721 319.217 104.721 319.673C104.721 320.282 104.859 320.839 105.136 321.344C105.42 321.849 105.801 322.252 106.281 322.554C106.768 322.855 107.318 323.006 107.934 323.006Z" fill="white"/>
<path d="M192.534 354.764V328.089C192.534 327.537 192.087 327.089 191.534 327.089H146.429C145.876 327.089 145.429 327.537 145.429 328.089V373.195C145.429 373.747 145.876 374.195 146.429 374.195H165.154M197.245 360.947V359.591C197.245 359.039 196.797 358.591 196.245 358.591H183.113H169.982C169.429 358.591 168.982 359.039 168.982 359.591V360.947M197.245 360.947V377.611C197.245 378.163 196.797 378.611 196.245 378.611H169.982C169.429 378.611 168.982 378.163 168.982 377.611V360.947M197.245 360.947L183.713 371.095C183.358 371.362 182.869 371.362 182.513 371.095L168.982 360.947M150.139 346.815H168.982M150.139 354.764H159.855M162.799 332.683H175.459C176.44 332.683 178.403 333.154 178.403 335.038C178.403 336.923 176.44 337.394 175.459 337.394H162.799C161.818 337.394 159.855 336.923 159.855 335.038C159.855 333.154 161.818 332.683 162.799 332.683Z" stroke="#79AC2B" stroke-width="4" stroke-linecap="round"/>
<circle cx="471.634" cy="350.348" r="58.882" fill="#BFDF72"/>
<circle cx="412.458" cy="314.724" r="26.7913" fill="#79AC2B"/>
<path d="M410.752 326.145C409.447 326.145 408.283 325.905 407.261 325.425C406.246 324.945 405.439 324.283 404.842 323.44C404.245 322.597 403.935 321.63 403.91 320.541H407.788C407.831 321.273 408.139 321.867 408.711 322.323C409.283 322.778 409.964 323.006 410.752 323.006C411.379 323.006 411.933 322.868 412.413 322.591C412.9 322.307 413.278 321.917 413.549 321.418C413.826 320.913 413.965 320.335 413.965 319.682C413.965 319.017 413.823 318.433 413.54 317.928C413.263 317.423 412.878 317.029 412.386 316.746C411.893 316.463 411.33 316.318 410.696 316.312C410.142 316.312 409.604 316.426 409.08 316.654C408.563 316.882 408.16 317.192 407.871 317.586L404.316 316.949L405.212 306.978H416.771V310.246H408.508L408.019 314.983H408.129C408.462 314.515 408.963 314.127 409.634 313.819C410.305 313.511 411.056 313.358 411.887 313.358C413.026 313.358 414.042 313.625 414.934 314.161C415.827 314.696 416.531 315.432 417.048 316.368C417.565 317.297 417.821 318.368 417.815 319.581C417.821 320.855 417.525 321.987 416.928 322.978C416.337 323.963 415.51 324.739 414.445 325.305C413.386 325.865 412.155 326.145 410.752 326.145Z" fill="white"/>
<path d="M445.726 332.684H477.817C479.289 332.585 482.233 333.155 482.233 336.216V359.18M445.726 337.394H469.573M445.726 342.399H461.33M445.726 347.404H453.675M449.259 350.937V360.358C449.259 361.339 449.966 363.302 452.792 363.302H496.07C497.444 363.302 500.192 362.478 500.192 359.18V351.526M500.192 351.526H486.649M500.192 351.526L495.481 342.399C494.893 341.516 493.244 339.749 491.36 339.749H486.649M463.391 367.424C463.391 369.7 461.545 371.546 459.269 371.546C456.993 371.546 455.147 369.7 455.147 367.424C455.147 365.147 456.993 363.302 459.269 363.302C461.545 363.302 463.391 365.147 463.391 367.424ZM494.009 367.424C494.009 369.7 492.164 371.546 489.888 371.546C487.611 371.546 485.766 369.7 485.766 367.424C485.766 365.147 487.611 363.302 489.888 363.302C492.164 363.302 494.009 365.147 494.009 367.424Z" stroke="#79AC2B" stroke-width="4" stroke-linecap="round"/>
<circle cx="777.231" cy="350.348" r="58.882" fill="#BFDF72"/>
<circle cx="718.055" cy="314.724" r="26.7913" fill="#79AC2B"/>
<path d="M708.43 322.563V319.414L716.324 306.978H719.039V311.336H717.432L712.456 319.211V319.359H723.674V322.563H708.43ZM717.506 325.887V321.603L717.58 320.208V306.978H721.329V325.887H717.506Z" fill="white"/>
<path d="M775.76 364.773L772.815 367.129" stroke="#79AC2B" stroke-linecap="round"/>
<path d="M780.176 323.851H754.857C754.532 323.851 754.268 324.114 754.268 324.439V374.784C754.268 375.109 754.532 375.372 754.857 375.372H794.013C794.339 375.372 794.602 375.109 794.602 374.784V372.723M780.176 323.851V337.393C780.176 337.719 780.44 337.982 780.765 337.982H794.602M780.176 323.851L794.602 337.982M794.602 337.982V340.632M763.1 347.109H777.821M763.1 354.175H771.638M763.1 361.241H771.638M778.999 359.736C777.479 361.692 776.176 363.532 775.171 365.068C774.786 365.657 781.888 362.742 786.359 359.817M778.999 359.736C776.447 359.943 772.345 359.18 776.349 354.469C778.139 352.363 779.329 351.041 780.098 350.241C780.485 349.838 782.136 348.334 782.591 348.009C784.184 346.873 786.92 345.961 790.775 347.538M778.999 359.736C780.386 357.95 781.954 356.068 783.64 354.231M797.296 350.053C798.509 352.879 804.642 358.297 807.556 360.652M797.296 350.053C795.226 352.564 793.004 354.727 790.77 356.569M797.296 350.053C797.958 349.251 798.603 348.412 799.229 347.538M805.201 370.662C802.061 370.564 795.132 369.72 792.541 367.129C789.951 364.538 787.34 361.175 786.359 359.817M786.359 359.817C784.831 358.637 782.178 355.887 783.64 354.231M790.77 356.569C792.159 357.583 793.305 358.487 793.719 358.591C794.661 358.826 796.074 357.119 796.663 356.236M790.77 356.569C788.414 354.848 785.359 352.811 784.004 353.838M783.64 354.231C783.658 354.212 783.675 354.194 783.692 354.175M783.692 354.175C783.796 354.062 783.899 353.95 784.004 353.838M783.692 354.175C783.782 354.038 783.887 353.927 784.004 353.838M784.004 353.838C787.533 350.047 791.548 346.497 795.492 344.459M795.492 344.459C797.478 343.434 799.445 342.792 801.323 342.695C801.755 342.673 802.017 343.134 801.803 343.511C800.997 344.932 800.134 346.273 799.229 347.538M795.492 344.459C795.88 345.485 797.17 347.538 799.229 347.538" stroke="#79AC2B" stroke-width="4" stroke-linecap="round"/>
<circle cx="855.545" cy="162.514" r="58.882" fill="#BFDF72"/>
<circle cx="796.369" cy="126.891" r="26.7913" fill="#79AC2B"/>
<path d="M794.261 138.313C792.882 138.313 791.654 138.076 790.577 137.602C789.506 137.122 788.66 136.463 788.038 135.626C787.422 134.783 787.105 133.81 787.087 132.708H791.112C791.137 133.17 791.288 133.576 791.565 133.927C791.848 134.272 792.223 134.54 792.691 134.73C793.159 134.921 793.685 135.017 794.27 135.017C794.879 135.017 795.418 134.909 795.886 134.693C796.354 134.478 796.72 134.179 796.985 133.798C797.249 133.416 797.382 132.976 797.382 132.477C797.382 131.973 797.24 131.527 796.957 131.139C796.68 130.745 796.28 130.437 795.757 130.215C795.24 129.994 794.624 129.883 793.91 129.883H792.147V126.947H793.91C794.513 126.947 795.046 126.842 795.507 126.633C795.975 126.424 796.338 126.134 796.597 125.765C796.855 125.39 796.985 124.953 796.985 124.454C796.985 123.98 796.871 123.565 796.643 123.208C796.421 122.844 796.107 122.561 795.701 122.358C795.301 122.155 794.833 122.053 794.298 122.053C793.756 122.053 793.261 122.152 792.811 122.349C792.362 122.54 792.002 122.814 791.731 123.171C791.46 123.528 791.316 123.946 791.297 124.426H787.465C787.484 123.337 787.795 122.377 788.398 121.546C789.001 120.715 789.814 120.065 790.835 119.598C791.863 119.124 793.024 118.887 794.316 118.887C795.621 118.887 796.763 119.124 797.742 119.598C798.72 120.071 799.481 120.712 800.022 121.518C800.57 122.318 800.841 123.217 800.835 124.214C800.841 125.273 800.512 126.156 799.847 126.864C799.188 127.572 798.33 128.021 797.271 128.212V128.36C798.662 128.538 799.721 129.021 800.447 129.809C801.179 130.591 801.543 131.57 801.536 132.745C801.543 133.822 801.232 134.78 800.604 135.617C799.982 136.454 799.124 137.112 798.028 137.593C796.932 138.073 795.677 138.313 794.261 138.313Z" fill="white"/>
<path d="M844.652 158.687H866.144M844.652 165.753H864.378M844.652 173.113H856.723M836.114 145.733V141.023C836.212 139.452 837.174 136.312 840.236 136.312H845.535M874.388 176.646V181.357C874.289 182.927 873.328 186.067 870.266 186.067H864.966M836.114 176.646V181.357C836.212 182.927 837.174 186.067 840.236 186.067H845.535M864.378 135.723C867.518 135.527 873.916 137.137 874.388 145.144H870.266C868.303 145.144 864.378 144.202 864.378 140.434V135.723Z" stroke="#79AC2B" stroke-width="4" stroke-linecap="round"/>
<circle cx="471.634" cy="104.81" r="58.882" fill="#BFDF72"/>
<circle cx="412.458" cy="69.1863" r="26.7913" fill="#79AC2B"/>
<path d="M404.036 80.3491V77.4684L410.767 71.2362C411.339 70.6822 411.819 70.1836 412.207 69.7405C412.601 69.2973 412.899 68.8633 413.102 68.4386C413.306 68.0077 413.407 67.543 413.407 67.0444C413.407 66.4905 413.281 66.0134 413.029 65.6133C412.776 65.2071 412.432 64.8962 411.994 64.6808C411.557 64.4592 411.062 64.3484 410.508 64.3484C409.929 64.3484 409.425 64.4654 408.994 64.6993C408.563 64.9332 408.231 65.2686 407.997 65.7057C407.763 66.1427 407.646 66.6628 407.646 67.266H403.851C403.851 66.0288 404.131 64.9547 404.691 64.0437C405.251 63.1327 406.036 62.428 407.046 61.9294C408.055 61.4308 409.218 61.1815 410.536 61.1815C411.89 61.1815 413.069 61.4216 414.072 61.9017C415.081 62.3756 415.866 63.0343 416.426 63.8775C416.986 64.7208 417.267 65.6872 417.267 66.7767C417.267 67.4907 417.125 68.1955 416.842 68.891C416.565 69.5866 416.069 70.3591 415.355 71.2085C414.641 72.0518 413.635 73.0643 412.336 74.2461L409.575 76.9514V77.0807H417.516V80.3491H404.036Z" fill="white"/>
<path d="M489.299 97.4671C492.832 97.4671 499.368 95.1117 499.603 90.4011C499.898 84.5129 494.893 80.98 489.299 81.2744C483.747 81.5666 477.325 85.0496 480.972 94.6018C481.024 94.7379 481.027 94.8929 480.976 95.0294L479.731 98.3498C479.556 98.8175 480.006 99.2773 480.477 99.1123L485.178 97.4671M449.881 128.069C449.489 122.377 452.442 110.993 467.398 110.993C482.355 110.993 485.308 122.377 484.916 128.069H449.881ZM475.168 98.6275C475.168 103.668 471.74 107.754 467.513 107.754C463.285 107.754 459.858 103.668 459.858 98.6275C459.858 93.587 463.285 89.5008 467.513 89.5008C471.74 89.5008 475.168 93.587 475.168 98.6275Z" stroke="#79AC2B" stroke-width="4" stroke-linecap="round"/>
<circle cx="95.9674" cy="162.514" r="58.882" fill="#BFDF72"/>
<circle cx="36.7913" cy="126.89" r="26.7913" fill="#79AC2B"/>
<path d="M38.424 119.145V138.054H34.4261V122.939H34.3153L29.985 125.654V122.108L34.6662 119.145H38.424Z" fill="white"/>
<path d="M82.1533 187.833H68.9538C68.6044 187.833 68.3093 187.573 68.298 187.227C68.2054 184.397 69.3649 179.722 74.8198 179.722H82.1533M82.1533 187.833V179.722M82.1533 187.833H109.782M109.782 187.833H122.981C123.331 187.833 123.626 187.573 123.637 187.227C123.73 184.397 122.57 179.722 117.115 179.722H109.782M109.782 187.833V179.722M109.782 179.722C109.782 178.37 109.091 175.667 106.328 175.667H85.6068C82.844 175.667 82.1533 178.37 82.1533 179.722M91.5333 130.718C91.1565 130.718 90.8511 131.02 90.8511 131.394V137.815C90.8511 138.188 90.5457 138.491 90.1689 138.491H87.7813C87.2191 138.491 86.8983 139.127 87.2355 139.572L95.0807 149.937C95.3535 150.297 95.8993 150.297 96.1722 149.937L104.017 139.572C104.355 139.127 104.034 138.491 103.472 138.491H101.084C100.707 138.491 100.402 138.188 100.402 137.815V131.394C100.402 131.02 100.096 130.718 99.7195 130.718H91.5333ZM103.767 162.824C103.767 167.117 100.254 170.597 95.9215 170.597C91.5888 170.597 88.0764 167.117 88.0764 162.824C88.0764 158.531 91.5888 155.051 95.9215 155.051C100.254 155.051 103.767 158.531 103.767 162.824ZM118.775 169.245C118.775 171.859 116.637 173.977 113.999 173.977C111.362 173.977 109.224 171.859 109.224 169.245C109.224 166.632 111.362 164.514 113.999 164.514C116.637 164.514 118.775 166.632 118.775 169.245ZM82.6189 169.245C82.6189 171.859 80.481 173.977 77.8436 173.977C75.2063 173.977 73.0683 171.859 73.0683 169.245C73.0683 166.632 75.2063 164.514 77.8436 164.514C80.481 164.514 82.6189 166.632 82.6189 169.245Z" stroke="#79AC2B" stroke-width="4"/>
<path d="M393.91 350.348H244.35" stroke="#79AC2B" stroke-width="15" stroke-dasharray="42 42"/>
<path d="M171.63 144.896C211.081 133.806 309.591 111.922 388.022 113.099" stroke="#79AC2B" stroke-width="15" stroke-dasharray="42 42"/>
<path d="M763.983 143.129C724.532 132.04 626.022 110.155 547.592 111.333" stroke="#79AC2B" stroke-width="15" stroke-dasharray="42 42"/>
<path d="M927.086 213.153C964.869 249.267 983.789 350.348 872.62 350.348" stroke="#79AC2B" stroke-width="15" stroke-dasharray="42 42"/>
<path d="M701.863 350.348H547.003" stroke="#79AC2B" stroke-width="15" stroke-dasharray="42 42"/>
<path d="M41.4134 42.0909V61H37.4616V45.3409H29.8168V61H25.8651V42.0909H41.4134ZM51.5534 61.277C50.1193 61.277 48.879 60.9723 47.8326 60.3629C46.7923 59.7474 45.9891 58.8918 45.4228 57.7962C44.8565 56.6944 44.5733 55.4171 44.5733 53.9645C44.5733 52.4995 44.8565 51.2192 45.4228 50.1236C45.9891 49.0218 46.7923 48.1662 47.8326 47.5568C48.879 46.9413 50.1193 46.6335 51.5534 46.6335C52.9876 46.6335 54.2248 46.9413 55.2651 47.5568C56.3115 48.1662 57.1178 49.0218 57.6841 50.1236C58.2504 51.2192 58.5336 52.4995 58.5336 53.9645C58.5336 55.4171 58.2504 56.6944 57.6841 57.7962C57.1178 58.8918 56.3115 59.7474 55.2651 60.3629C54.2248 60.9723 52.9876 61.277 51.5534 61.277ZM51.5719 58.2301C52.2244 58.2301 52.7691 58.0455 53.2061 57.6761C53.6432 57.3007 53.9725 56.7898 54.1941 56.1435C54.4218 55.4972 54.5357 54.7616 54.5357 53.9368C54.5357 53.112 54.4218 52.3764 54.1941 51.7301C53.9725 51.0838 53.6432 50.5729 53.2061 50.1974C52.7691 49.822 52.2244 49.6342 51.5719 49.6342C50.9133 49.6342 50.3593 49.822 49.91 50.1974C49.4668 50.5729 49.1313 51.0838 48.9036 51.7301C48.682 52.3764 48.5712 53.112 48.5712 53.9368C48.5712 54.7616 48.682 55.4972 48.9036 56.1435C49.1313 56.7898 49.4668 57.3007 49.91 57.6761C50.3593 58.0455 50.9133 58.2301 51.5719 58.2301ZM60.2601 61L60.2417 57.8793H60.7125C61.0449 57.8793 61.3311 57.7992 61.5712 57.6392C61.8174 57.473 62.0205 57.2053 62.1806 56.8359C62.3406 56.4666 62.4668 55.9773 62.5591 55.3679C62.6515 54.7524 62.713 53.9953 62.7438 53.0966L62.9746 46.8182H73.7587V61H70.0101V49.9112H66.5108L66.2892 54.2415C66.2338 55.4295 66.0892 56.4512 65.8553 57.3068C65.6275 58.1624 65.3105 58.8641 64.9043 59.4119C64.498 59.9536 64.0087 60.3537 63.4363 60.6122C62.8638 60.8707 62.199 61 61.4419 61H60.2601ZM78.7283 66.3182C78.2298 66.3182 77.762 66.2782 77.3249 66.1982C76.8941 66.1243 76.5371 66.0289 76.2539 65.9119L77.1403 62.9759C77.6019 63.1174 78.0174 63.1944 78.3867 63.2067C78.7622 63.219 79.0853 63.1328 79.3562 62.9482C79.6332 62.7635 79.8578 62.4496 80.0302 62.0064L80.261 61.4062L75.1737 46.8182H79.31L82.2461 57.233H82.3938L85.3576 46.8182H89.5217L84.0096 62.5327C83.7449 63.2959 83.3848 63.9607 82.9293 64.527C82.48 65.0994 81.9106 65.5395 81.2212 65.8473C80.5318 66.1612 79.7009 66.3182 78.7283 66.3182ZM103.461 46.8182V61H99.731V46.8182H103.461ZM101.642 53.0412V56.1435C101.341 56.2789 100.965 56.4081 100.516 56.5312C100.066 56.6482 99.5956 56.7436 99.1032 56.8175C98.6107 56.8913 98.1491 56.9283 97.7182 56.9283C95.6808 56.9283 94.0774 56.5097 92.9078 55.6726C91.7383 54.8293 91.1536 53.4844 91.1536 51.6378V46.7997H94.8652V51.6378C94.8652 52.1856 94.9576 52.6196 95.1422 52.9396C95.333 53.2597 95.6346 53.4905 96.0471 53.6321C96.4656 53.7675 97.0227 53.8352 97.7182 53.8352C98.3645 53.8352 98.9985 53.7675 99.6202 53.6321C100.242 53.4967 100.916 53.2997 101.642 53.0412ZM112.978 61.277C111.519 61.277 110.263 60.9815 109.211 60.3906C108.165 59.7936 107.358 58.9503 106.792 57.8608C106.226 56.7652 105.942 55.4695 105.942 53.9737C105.942 52.5149 106.226 51.2346 106.792 50.1328C107.358 49.031 108.155 48.1723 109.183 47.5568C110.217 46.9413 111.43 46.6335 112.821 46.6335C113.757 46.6335 114.628 46.7843 115.434 47.0859C116.246 47.3814 116.954 47.8277 117.558 48.4247C118.167 49.0218 118.641 49.7727 118.979 50.6776C119.318 51.5762 119.487 52.6288 119.487 53.8352V54.9155H107.512V52.478H115.785C115.785 51.9117 115.662 51.41 115.415 50.973C115.169 50.536 114.828 50.1944 114.391 49.9482C113.96 49.6958 113.458 49.5696 112.886 49.5696C112.289 49.5696 111.759 49.7081 111.298 49.9851C110.842 50.2559 110.485 50.6222 110.227 51.0838C109.968 51.5393 109.836 52.0471 109.83 52.6072V54.9247C109.83 55.6264 109.959 56.2327 110.217 56.7436C110.482 57.2545 110.854 57.6484 111.335 57.9254C111.815 58.2024 112.384 58.3409 113.043 58.3409C113.48 58.3409 113.88 58.2794 114.243 58.1562C114.606 58.0331 114.917 57.8485 115.175 57.6023C115.434 57.3561 115.631 57.0545 115.766 56.6974L119.404 56.9375C119.219 57.8116 118.841 58.5748 118.268 59.2273C117.702 59.8736 116.97 60.3783 116.071 60.7415C115.179 61.0985 114.147 61.277 112.978 61.277ZM131.924 52.3395V55.4325H124.519V52.3395H131.924ZM125.812 46.8182V61H122.054V46.8182H125.812ZM134.389 46.8182V61H130.659V46.8182H134.389ZM141.199 55.8111L146.304 46.8182H150.182V61H146.434V51.9794L141.346 61H137.441V46.8182H141.199V55.8111ZM159.798 61.277C158.339 61.277 157.084 60.9815 156.031 60.3906C154.985 59.7936 154.179 58.9503 153.612 57.8608C153.046 56.7652 152.763 55.4695 152.763 53.9737C152.763 52.5149 153.046 51.2346 153.612 50.1328C154.179 49.031 154.976 48.1723 156.004 47.5568C157.038 46.9413 158.25 46.6335 159.641 46.6335C160.577 46.6335 161.448 46.7843 162.254 47.0859C163.067 47.3814 163.775 47.8277 164.378 48.4247C164.987 49.0218 165.461 49.7727 165.8 50.6776C166.138 51.5762 166.308 52.6288 166.308 53.8352V54.9155H154.332V52.478H162.605C162.605 51.9117 162.482 51.41 162.236 50.973C161.99 50.536 161.648 50.1944 161.211 49.9482C160.78 49.6958 160.278 49.5696 159.706 49.5696C159.109 49.5696 158.58 49.7081 158.118 49.9851C157.662 50.2559 157.305 50.6222 157.047 51.0838C156.788 51.5393 156.656 52.0471 156.65 52.6072V54.9247C156.65 55.6264 156.779 56.2327 157.038 56.7436C157.302 57.2545 157.675 57.6484 158.155 57.9254C158.635 58.2024 159.204 58.3409 159.863 58.3409C160.3 58.3409 160.7 58.2794 161.063 58.1562C161.426 58.0331 161.737 57.8485 161.996 57.6023C162.254 57.3561 162.451 57.0545 162.587 56.6974L166.224 56.9375C166.04 57.8116 165.661 58.5748 165.089 59.2273C164.522 59.8736 163.79 60.3783 162.891 60.7415C161.999 61.0985 160.968 61.277 159.798 61.277ZM51.3861 87.9837H55.1993C55.2178 88.4515 55.4271 88.8208 55.8271 89.0916C56.2272 89.3625 56.7443 89.4979 57.3783 89.4979C58.0184 89.4979 58.557 89.3501 58.9941 89.0547C59.4311 88.7531 59.6496 88.3222 59.6496 87.7621C59.6496 87.4174 59.5634 87.1188 59.3911 86.8665C59.2187 86.608 58.9787 86.4048 58.6709 86.2571C58.3631 86.1094 58.0061 86.0355 57.5999 86.0355H55.5594V83.4595H57.5999C58.2093 83.4595 58.6771 83.3179 59.0033 83.0348C59.3357 82.7517 59.5019 82.3977 59.5019 81.973C59.5019 81.4929 59.3295 81.1082 58.9848 80.8189C58.6463 80.5234 58.1877 80.3757 57.6091 80.3757C57.0244 80.3757 56.5381 80.508 56.1503 80.7727C55.7687 81.0312 55.5717 81.3698 55.5594 81.7884H51.7646C51.777 80.9389 52.0324 80.2034 52.531 79.5817C53.0357 78.96 53.7128 78.4799 54.5622 78.1413C55.4178 77.8028 56.375 77.6335 57.4337 77.6335C58.5909 77.6335 59.588 77.7966 60.4252 78.1229C61.2684 78.4429 61.9147 78.9015 62.3641 79.4986C62.8196 80.0956 63.0473 80.8066 63.0473 81.6314C63.0473 82.3823 62.8011 83.0102 62.3087 83.5149C61.8163 84.0196 61.1269 84.3797 60.2405 84.5952V84.7429C60.8253 84.7798 61.3546 84.9368 61.8286 85.2138C62.3025 85.4908 62.6811 85.8724 62.9642 86.3587C63.2474 86.8388 63.3889 87.4081 63.3889 88.0668C63.3889 88.947 63.1304 89.701 62.6134 90.3288C62.1025 90.9567 61.3946 91.4399 60.4898 91.7784C59.5911 92.1108 58.5601 92.277 57.3968 92.277C56.2642 92.277 55.2486 92.1139 54.3499 91.7876C53.4574 91.4553 52.7464 90.969 52.2171 90.3288C51.6939 89.6887 51.4169 88.907 51.3861 87.9837ZM69.8451 92.2678C68.9403 92.2678 68.1339 92.1108 67.426 91.7969C66.7182 91.4768 66.1581 91.0059 65.7456 90.3842C65.3394 89.7564 65.1363 88.9747 65.1363 88.0391C65.1363 87.2512 65.2809 86.5895 65.5702 86.054C65.8595 85.5185 66.2535 85.0876 66.752 84.7614C67.2506 84.4351 67.8169 84.1889 68.4509 84.0227C69.0911 83.8565 69.762 83.7396 70.4637 83.6719C71.2885 83.5857 71.9533 83.5057 72.458 83.4318C72.9627 83.3518 73.329 83.2348 73.5567 83.081C73.7845 82.9271 73.8983 82.6993 73.8983 82.3977V82.3423C73.8983 81.7576 73.7137 81.3052 73.3444 80.9851C72.9812 80.665 72.4642 80.505 71.7932 80.505C71.0854 80.505 70.5222 80.6619 70.1036 80.9759C69.685 81.2836 69.4081 81.6714 69.2726 82.1392L65.6349 81.8438C65.8195 80.982 66.1827 80.2372 66.7243 79.6094C67.266 78.9754 67.9646 78.4891 68.8202 78.1506C69.682 77.8059 70.6791 77.6335 71.8117 77.6335C72.5996 77.6335 73.3536 77.7259 74.0738 77.9105C74.8001 78.0952 75.4433 78.3814 76.0035 78.7692C76.5698 79.157 77.016 79.6555 77.3422 80.2649C77.6685 80.8681 77.8316 81.5914 77.8316 82.4347V92H74.1015V90.0334H73.9907C73.7629 90.4766 73.4582 90.8674 73.0766 91.206C72.695 91.5384 72.2364 91.8 71.7009 91.9908C71.1654 92.1754 70.5468 92.2678 69.8451 92.2678ZM70.9715 89.5533C71.5501 89.5533 72.061 89.4394 72.5042 89.2116C72.9474 88.9777 73.2951 88.6638 73.5475 88.2699C73.7999 87.8759 73.926 87.4297 73.926 86.9311V85.4261C73.8029 85.5062 73.6337 85.58 73.4182 85.6477C73.209 85.7093 72.972 85.7678 72.7073 85.8232C72.4426 85.8724 72.1779 85.9186 71.9133 85.9616C71.6486 85.9986 71.4085 86.0324 71.1931 86.0632C70.7314 86.1309 70.3283 86.2386 69.9836 86.3864C69.6389 86.5341 69.3711 86.7341 69.1803 86.9865C68.9895 87.2327 68.8941 87.5405 68.8941 87.9098C68.8941 88.4453 69.088 88.8546 69.4758 89.1378C69.8697 89.4148 70.3683 89.5533 70.9715 89.5533ZM89.1927 92V80.902H86.5336C85.8135 80.902 85.2657 81.0682 84.8902 81.4006C84.5147 81.733 84.33 82.1269 84.3362 82.5824C84.33 83.044 84.5086 83.4349 84.8717 83.755C85.241 84.0689 85.7827 84.2259 86.4967 84.2259H90.5038V86.8849H86.4967C85.2841 86.8849 84.2346 86.7003 83.3483 86.331C82.4619 85.9616 81.7787 85.4477 81.2986 84.7891C80.8184 84.1243 80.5815 83.3518 80.5876 82.4716C80.5815 81.5483 80.8184 80.7389 81.2986 80.0433C81.7787 79.3416 82.465 78.7969 83.3575 78.4091C84.2562 78.0152 85.3149 77.8182 86.5336 77.8182H92.8582V92H89.1927ZM80.1814 92L84.1238 84.6136H87.8817L83.9484 92H80.1814ZM95.9143 92V77.8182H101.962C103.71 77.8182 105.092 78.1506 106.108 78.8153C107.123 79.4801 107.631 80.425 107.631 81.6499C107.631 82.4193 107.345 83.0594 106.772 83.5703C106.2 84.0812 105.406 84.4259 104.39 84.6044C105.24 84.666 105.963 84.8598 106.56 85.1861C107.163 85.5062 107.622 85.9216 107.936 86.4325C108.256 86.9434 108.416 87.5097 108.416 88.1314C108.416 88.9377 108.2 89.6302 107.769 90.2088C107.345 90.7874 106.72 91.2306 105.895 91.5384C105.076 91.8461 104.076 92 102.894 92H95.9143ZM99.5798 89.0547H102.894C103.442 89.0547 103.87 88.9254 104.178 88.6669C104.492 88.4022 104.649 88.0421 104.649 87.5866C104.649 87.0819 104.492 86.6849 104.178 86.3956C103.87 86.1063 103.442 85.9616 102.894 85.9616H99.5798V89.0547ZM99.5798 83.6534H102.045C102.439 83.6534 102.774 83.598 103.051 83.4872C103.335 83.3703 103.55 83.2041 103.698 82.9886C103.852 82.7732 103.929 82.5178 103.929 82.2223C103.929 81.7853 103.753 81.4437 103.402 81.1974C103.051 80.9512 102.571 80.8281 101.962 80.8281H99.5798V83.6534ZM110.895 92V77.8182H114.828V83.321H115.936L119.795 77.8182H124.412L119.398 84.8537L124.467 92H119.795L116.296 86.968H114.828V92H110.895ZM129.887 86.8111L134.993 77.8182H138.871V92H135.122V82.9794L130.035 92H126.129V77.8182H129.887V86.8111Z" fill="black"/>
<path d="M394.083 25L388.008 16.9396H386.641V25H382.643V6.09091H386.641V13.6435H387.445L393.723 6.09091H398.7L391.322 14.8622L399.041 25H394.083ZM406.344 25.277C404.91 25.277 403.67 24.9723 402.624 24.3629C401.583 23.7474 400.78 22.8918 400.214 21.7962C399.647 20.6944 399.364 19.4171 399.364 17.9645C399.364 16.4995 399.647 15.2192 400.214 14.1236C400.78 13.0218 401.583 12.1662 402.624 11.5568C403.67 10.9413 404.91 10.6335 406.344 10.6335C407.779 10.6335 409.016 10.9413 410.056 11.5568C411.103 12.1662 411.909 13.0218 412.475 14.1236C413.041 15.2192 413.325 16.4995 413.325 17.9645C413.325 19.4171 413.041 20.6944 412.475 21.7962C411.909 22.8918 411.103 23.7474 410.056 24.3629C409.016 24.9723 407.779 25.277 406.344 25.277ZM406.363 22.2301C407.015 22.2301 407.56 22.0455 407.997 21.6761C408.434 21.3007 408.763 20.7898 408.985 20.1435C409.213 19.4972 409.327 18.7616 409.327 17.9368C409.327 17.112 409.213 16.3764 408.985 15.7301C408.763 15.0838 408.434 14.5729 407.997 14.1974C407.56 13.822 407.015 13.6342 406.363 13.6342C405.704 13.6342 405.15 13.822 404.701 14.1974C404.258 14.5729 403.922 15.0838 403.695 15.7301C403.473 16.3764 403.362 17.112 403.362 17.9368C403.362 18.7616 403.473 19.4972 403.695 20.1435C403.922 20.7898 404.258 21.3007 404.701 21.6761C405.15 22.0455 405.704 22.2301 406.363 22.2301ZM425.752 16.3395V19.4325H418.347V16.3395H425.752ZM419.64 10.8182V25H415.882V10.8182H419.64ZM428.217 10.8182V25H424.487V10.8182H428.217ZM437.676 25.277C436.224 25.277 434.974 24.9692 433.928 24.3537C432.888 23.732 432.087 22.8703 431.527 21.7685C430.973 20.6667 430.696 19.3987 430.696 17.9645C430.696 16.5118 430.976 15.2377 431.537 14.142C432.103 13.0402 432.906 12.1816 433.946 11.5661C434.987 10.9444 436.224 10.6335 437.658 10.6335C438.895 10.6335 439.979 10.8582 440.908 11.3075C441.837 11.7569 442.573 12.3878 443.115 13.2003C443.656 14.0128 443.955 14.9669 444.01 16.0625H440.299C440.194 15.3546 439.917 14.7853 439.468 14.3544C439.025 13.9174 438.443 13.6989 437.723 13.6989C437.113 13.6989 436.581 13.8651 436.125 14.1974C435.676 14.5237 435.325 15.0007 435.073 15.6286C434.82 16.2564 434.694 17.0166 434.694 17.9091C434.694 18.8139 434.817 19.5833 435.064 20.2173C435.316 20.8513 435.67 21.3345 436.125 21.6669C436.581 21.9993 437.113 22.1655 437.723 22.1655C438.172 22.1655 438.575 22.0732 438.932 21.8885C439.295 21.7038 439.594 21.4361 439.828 21.0852C440.068 20.7282 440.225 20.3004 440.299 19.8018H444.01C443.949 20.8852 443.653 21.8393 443.124 22.6641C442.601 23.4827 441.877 24.1229 440.954 24.5845C440.031 25.0462 438.938 25.277 437.676 25.277ZM448.957 30.3182C448.458 30.3182 447.99 30.2782 447.553 30.1982C447.123 30.1243 446.766 30.0289 446.482 29.9119L447.369 26.9759C447.83 27.1174 448.246 27.1944 448.615 27.2067C448.991 27.219 449.314 27.1328 449.585 26.9482C449.862 26.7635 450.086 26.4496 450.259 26.0064L450.49 25.4062L445.402 10.8182H449.539L452.475 21.233H452.622L455.586 10.8182H459.75L454.238 26.5327C453.973 27.2959 453.613 27.9607 453.158 28.527C452.709 29.0994 452.139 29.5395 451.45 29.8473C450.76 30.1612 449.929 30.3182 448.957 30.3182ZM459.789 25L459.771 21.8793H460.242C460.574 21.8793 460.86 21.7992 461.1 21.6392C461.347 21.473 461.55 21.2053 461.71 20.8359C461.87 20.4666 461.996 19.9773 462.088 19.3679C462.181 18.7524 462.242 17.9953 462.273 17.0966L462.504 10.8182H473.288V25H469.539V13.9112H466.04L465.819 18.2415C465.763 19.4295 465.618 20.4512 465.385 21.3068C465.157 22.1624 464.84 22.8641 464.434 23.4119C464.027 23.9536 463.538 24.3537 462.966 24.6122C462.393 24.8707 461.728 25 460.971 25H459.789ZM478.802 15.1761H483.04C484.918 15.1761 486.383 15.6255 487.435 16.5241C488.488 17.4167 489.014 18.6108 489.014 20.1065C489.014 21.0791 488.777 21.9347 488.303 22.6733C487.829 23.4058 487.146 23.9782 486.253 24.3906C485.361 24.7969 484.29 25 483.04 25H476.337V10.8182H480.095V21.907H483.04C483.699 21.907 484.241 21.7408 484.665 21.4084C485.09 21.076 485.305 20.6513 485.312 20.1342C485.305 19.5864 485.09 19.1402 484.665 18.7955C484.241 18.4446 483.699 18.2692 483.04 18.2692H478.802V15.1761ZM489.411 13.9112V10.8182H502.263V13.9112H497.693V25H493.944V13.9112H489.411ZM508.184 25.2678C507.279 25.2678 506.473 25.1108 505.765 24.7969C505.057 24.4768 504.497 24.0059 504.085 23.3842C503.678 22.7564 503.475 21.9747 503.475 21.0391C503.475 20.2512 503.62 19.5895 503.909 19.054C504.198 18.5185 504.592 18.0876 505.091 17.7614C505.589 17.4351 506.156 17.1889 506.79 17.0227C507.43 16.8565 508.101 16.7396 508.803 16.6719C509.627 16.5857 510.292 16.5057 510.797 16.4318C511.302 16.3518 511.668 16.2348 511.896 16.081C512.123 15.9271 512.237 15.6993 512.237 15.3977V15.3423C512.237 14.7576 512.053 14.3052 511.683 13.9851C511.32 13.665 510.803 13.505 510.132 13.505C509.424 13.505 508.861 13.6619 508.442 13.9759C508.024 14.2836 507.747 14.6714 507.612 15.1392L503.974 14.8438C504.158 13.982 504.522 13.2372 505.063 12.6094C505.605 11.9754 506.304 11.4891 507.159 11.1506C508.021 10.8059 509.018 10.6335 510.151 10.6335C510.938 10.6335 511.692 10.7259 512.413 10.9105C513.139 11.0952 513.782 11.3814 514.342 11.7692C514.909 12.157 515.355 12.6555 515.681 13.2649C516.007 13.8681 516.17 14.5914 516.17 15.4347V25H512.44V23.0334H512.33C512.102 23.4766 511.797 23.8674 511.415 24.206C511.034 24.5384 510.575 24.8 510.04 24.9908C509.504 25.1754 508.886 25.2678 508.184 25.2678ZM509.31 22.5533C509.889 22.5533 510.4 22.4394 510.843 22.2116C511.286 21.9777 511.634 21.6638 511.886 21.2699C512.139 20.8759 512.265 20.4297 512.265 19.9311V18.4261C512.142 18.5062 511.973 18.58 511.757 18.6477C511.548 18.7093 511.311 18.7678 511.046 18.8232C510.781 18.8724 510.517 18.9186 510.252 18.9616C509.987 18.9986 509.747 19.0324 509.532 19.0632C509.07 19.1309 508.667 19.2386 508.322 19.3864C507.978 19.5341 507.71 19.7341 507.519 19.9865C507.328 20.2327 507.233 20.5405 507.233 20.9098C507.233 21.4453 507.427 21.8546 507.815 22.1378C508.209 22.4148 508.707 22.5533 509.31 22.5533ZM531.622 10.8182V22.2855H533.884V29.5611H530.061V25H519.222V10.8182H522.98V21.907H527.91V10.8182H531.622ZM540.068 19.8111L545.173 10.8182H549.051V25H545.303V15.9794L540.215 25H536.31V10.8182H540.068V19.8111ZM560.514 25V13.902H557.855C557.135 13.902 556.587 14.0682 556.211 14.4006C555.836 14.733 555.651 15.1269 555.657 15.5824C555.651 16.044 555.83 16.4349 556.193 16.755C556.562 17.0689 557.104 17.2259 557.818 17.2259H561.825V19.8849H557.818C556.605 19.8849 555.556 19.7003 554.67 19.331C553.783 18.9616 553.1 18.4477 552.62 17.7891C552.14 17.1243 551.903 16.3518 551.909 15.4716C551.903 14.5483 552.14 13.7389 552.62 13.0433C553.1 12.3416 553.786 11.7969 554.679 11.4091C555.577 11.0152 556.636 10.8182 557.855 10.8182H564.18V25H560.514ZM551.503 25L555.445 17.6136H559.203L555.27 25H551.503Z" fill="black"/>
<path d="M794.516 31.0909V50H790.564V34.3409H782.919V50H778.967V31.0909H794.516ZM804.656 50.277C803.222 50.277 801.981 49.9723 800.935 49.3629C799.895 48.7474 799.091 47.8918 798.525 46.7962C797.959 45.6944 797.676 44.4171 797.676 42.9645C797.676 41.4995 797.959 40.2192 798.525 39.1236C799.091 38.0218 799.895 37.1662 800.935 36.5568C801.981 35.9413 803.222 35.6335 804.656 35.6335C806.09 35.6335 807.327 35.9413 808.367 36.5568C809.414 37.1662 810.22 38.0218 810.786 39.1236C811.353 40.2192 811.636 41.4995 811.636 42.9645C811.636 44.4171 811.353 45.6944 810.786 46.7962C810.22 47.8918 809.414 48.7474 808.367 49.3629C807.327 49.9723 806.09 50.277 804.656 50.277ZM804.674 47.2301C805.327 47.2301 805.871 47.0455 806.308 46.6761C806.745 46.3007 807.075 45.7898 807.296 45.1435C807.524 44.4972 807.638 43.7616 807.638 42.9368C807.638 42.112 807.524 41.3764 807.296 40.7301C807.075 40.0838 806.745 39.5729 806.308 39.1974C805.871 38.822 805.327 38.6342 804.674 38.6342C804.016 38.6342 803.462 38.822 803.012 39.1974C802.569 39.5729 802.234 40.0838 802.006 40.7301C801.784 41.3764 801.673 42.112 801.673 42.9368C801.673 43.7616 801.784 44.4972 802.006 45.1435C802.234 45.7898 802.569 46.3007 803.012 46.6761C803.462 47.0455 804.016 47.2301 804.674 47.2301ZM813.085 54.1548V46.8793H814.175C814.489 46.6823 814.741 46.3684 814.932 45.9375C815.129 45.5066 815.289 44.9988 815.412 44.4141C815.541 43.8293 815.64 43.1984 815.708 42.5213C815.781 41.8381 815.846 41.1487 815.901 40.4531L816.271 35.8182H827.147V46.8793H829.345V54.1548H825.596V50H816.926V54.1548H813.085ZM818.09 46.8793H823.436V38.8466H819.613L819.465 40.4531C819.361 41.9673 819.21 43.2538 819.013 44.3125C818.816 45.3651 818.508 46.2206 818.09 46.8793ZM841.35 35.8182V38.9112H835.459V50H831.637V35.8182H841.35ZM849.648 50.277C848.214 50.277 846.973 49.9723 845.927 49.3629C844.887 48.7474 844.084 47.8918 843.517 46.7962C842.951 45.6944 842.668 44.4171 842.668 42.9645C842.668 41.4995 842.951 40.2192 843.517 39.1236C844.084 38.0218 844.887 37.1662 845.927 36.5568C846.973 35.9413 848.214 35.6335 849.648 35.6335C851.082 35.6335 852.319 35.9413 853.36 36.5568C854.406 37.1662 855.212 38.0218 855.779 39.1236C856.345 40.2192 856.628 41.4995 856.628 42.9645C856.628 44.4171 856.345 45.6944 855.779 46.7962C855.212 47.8918 854.406 48.7474 853.36 49.3629C852.319 49.9723 851.082 50.277 849.648 50.277ZM849.666 47.2301C850.319 47.2301 850.864 47.0455 851.301 46.6761C851.738 46.3007 852.067 45.7898 852.289 45.1435C852.516 44.4972 852.63 43.7616 852.63 42.9368C852.63 42.112 852.516 41.3764 852.289 40.7301C852.067 40.0838 851.738 39.5729 851.301 39.1974C850.864 38.822 850.319 38.6342 849.666 38.6342C849.008 38.6342 848.454 38.822 848.004 39.1974C847.561 39.5729 847.226 40.0838 846.998 40.7301C846.776 41.3764 846.666 42.112 846.666 42.9368C846.666 43.7616 846.776 44.4972 846.998 45.1435C847.226 45.7898 847.561 46.3007 848.004 46.6761C848.454 47.0455 849.008 47.2301 849.666 47.2301ZM857.812 38.9112V35.8182H870.664V38.9112H866.094V50H862.346V38.9112H857.812ZM878.949 50.277C877.515 50.277 876.274 49.9723 875.228 49.3629C874.188 48.7474 873.384 47.8918 872.818 46.7962C872.252 45.6944 871.969 44.4171 871.969 42.9645C871.969 41.4995 872.252 40.2192 872.818 39.1236C873.384 38.0218 874.188 37.1662 875.228 36.5568C876.274 35.9413 877.515 35.6335 878.949 35.6335C880.383 35.6335 881.62 35.9413 882.66 36.5568C883.707 37.1662 884.513 38.0218 885.079 39.1236C885.646 40.2192 885.929 41.4995 885.929 42.9645C885.929 44.4171 885.646 45.6944 885.079 46.7962C884.513 47.8918 883.707 48.7474 882.66 49.3629C881.62 49.9723 880.383 50.277 878.949 50.277ZM878.967 47.2301C879.62 47.2301 880.164 47.0455 880.601 46.6761C881.038 46.3007 881.368 45.7898 881.589 45.1435C881.817 44.4972 881.931 43.7616 881.931 42.9368C881.931 42.112 881.817 41.3764 881.589 40.7301C881.368 40.0838 881.038 39.5729 880.601 39.1974C880.164 38.822 879.62 38.6342 878.967 38.6342C878.309 38.6342 877.755 38.822 877.305 39.1974C876.862 39.5729 876.527 40.0838 876.299 40.7301C876.077 41.3764 875.966 42.112 875.966 42.9368C875.966 43.7616 876.077 44.4972 876.299 45.1435C876.527 45.7898 876.862 46.3007 877.305 46.6761C877.755 47.0455 878.309 47.2301 878.967 47.2301ZM888.486 50V35.8182H894.534C896.282 35.8182 897.664 36.1506 898.68 36.8153C899.695 37.4801 900.203 38.425 900.203 39.6499C900.203 40.4193 899.917 41.0594 899.344 41.5703C898.772 42.0812 897.978 42.4259 896.962 42.6044C897.812 42.666 898.535 42.8598 899.132 43.1861C899.735 43.5062 900.194 43.9216 900.508 44.4325C900.828 44.9434 900.988 45.5097 900.988 46.1314C900.988 46.9377 900.772 47.6302 900.341 48.2088C899.917 48.7874 899.292 49.2306 898.467 49.5384C897.649 49.8461 896.648 50 895.466 50H888.486ZM892.152 47.0547H895.466C896.014 47.0547 896.442 46.9254 896.75 46.6669C897.064 46.4022 897.221 46.0421 897.221 45.5866C897.221 45.0819 897.064 44.6849 896.75 44.3956C896.442 44.1063 896.014 43.9616 895.466 43.9616H892.152V47.0547ZM892.152 41.6534H894.617C895.011 41.6534 895.346 41.598 895.623 41.4872C895.907 41.3703 896.122 41.2041 896.27 40.9886C896.424 40.7732 896.501 40.5178 896.501 40.2223C896.501 39.7853 896.325 39.4437 895.974 39.1974C895.623 38.9512 895.143 38.8281 894.534 38.8281H892.152V41.6534ZM903.467 50V35.8182H907.4V41.321H908.508L912.367 35.8182H916.984L911.97 42.8537L917.039 50H912.367L908.868 44.968H907.4V50H903.467ZM922.745 50.2678C921.84 50.2678 921.034 50.1108 920.326 49.7969C919.618 49.4768 919.058 49.0059 918.646 48.3842C918.24 47.7564 918.036 46.9747 918.036 46.0391C918.036 45.2512 918.181 44.5895 918.47 44.054C918.76 43.5185 919.154 43.0876 919.652 42.7614C920.151 42.4351 920.717 42.1889 921.351 42.0227C921.991 41.8565 922.662 41.7396 923.364 41.6719C924.189 41.5857 924.853 41.5057 925.358 41.4318C925.863 41.3518 926.229 41.2348 926.457 41.081C926.685 40.9271 926.798 40.6993 926.798 40.3977V40.3423C926.798 39.7576 926.614 39.3052 926.245 38.9851C925.881 38.665 925.364 38.505 924.693 38.505C923.986 38.505 923.422 38.6619 923.004 38.9759C922.585 39.2836 922.308 39.6714 922.173 40.1392L918.535 39.8438C918.72 38.982 919.083 38.2372 919.624 37.6094C920.166 36.9754 920.865 36.4891 921.72 36.1506C922.582 35.8059 923.579 35.6335 924.712 35.6335C925.5 35.6335 926.254 35.7259 926.974 35.9105C927.7 36.0952 928.343 36.3814 928.904 36.7692C929.47 37.157 929.916 37.6555 930.242 38.2649C930.569 38.8681 930.732 39.5914 930.732 40.4347V50H927.002V48.0334H926.891C926.663 48.4766 926.358 48.8674 925.977 49.206C925.595 49.5384 925.137 49.8 924.601 49.9908C924.066 50.1754 923.447 50.2678 922.745 50.2678ZM923.872 47.5533C924.45 47.5533 924.961 47.4394 925.404 47.2116C925.847 46.9777 926.195 46.6638 926.448 46.2699C926.7 45.8759 926.826 45.4297 926.826 44.9311V43.4261C926.703 43.5062 926.534 43.58 926.318 43.6477C926.109 43.7093 925.872 43.7678 925.607 43.8232C925.343 43.8724 925.078 43.9186 924.813 43.9616C924.549 43.9986 924.309 44.0324 924.093 44.0632C923.632 44.1309 923.228 44.2386 922.884 44.3864C922.539 44.5341 922.271 44.7341 922.08 44.9865C921.89 45.2327 921.794 45.5405 921.794 45.9098C921.794 46.4453 921.988 46.8546 922.376 47.1378C922.77 47.4148 923.268 47.5533 923.872 47.5533ZM775.368 85.1548V77.8793H776.457C776.771 77.6823 777.023 77.3684 777.214 76.9375C777.411 76.5066 777.571 75.9988 777.694 75.4141C777.824 74.8293 777.922 74.1984 777.99 73.5213C778.064 72.8381 778.128 72.1487 778.184 71.4531L778.553 66.8182H789.429V77.8793H791.627V85.1548H787.878V81H779.209V85.1548H775.368ZM780.372 77.8793H785.718V69.8466H781.895L781.748 71.4531C781.643 72.9673 781.492 74.2538 781.295 75.3125C781.098 76.3651 780.79 77.2206 780.372 77.8793ZM800.327 81.277C798.892 81.277 797.652 80.9723 796.606 80.3629C795.565 79.7474 794.762 78.8918 794.196 77.7962C793.63 76.6944 793.347 75.4171 793.347 73.9645C793.347 72.4995 793.63 71.2192 794.196 70.1236C794.762 69.0218 795.565 68.1662 796.606 67.5568C797.652 66.9413 798.892 66.6335 800.327 66.6335C801.761 66.6335 802.998 66.9413 804.038 67.5568C805.085 68.1662 805.891 69.0218 806.457 70.1236C807.024 71.2192 807.307 72.4995 807.307 73.9645C807.307 75.4171 807.024 76.6944 806.457 77.7962C805.891 78.8918 805.085 79.7474 804.038 80.3629C802.998 80.9723 801.761 81.277 800.327 81.277ZM800.345 78.2301C800.998 78.2301 801.542 78.0455 801.979 77.6761C802.416 77.3007 802.746 76.7898 802.967 76.1435C803.195 75.4972 803.309 74.7616 803.309 73.9368C803.309 73.112 803.195 72.3764 802.967 71.7301C802.746 71.0838 802.416 70.5729 801.979 70.1974C801.542 69.822 800.998 69.6342 800.345 69.6342C799.686 69.6342 799.132 69.822 798.683 70.1974C798.24 70.5729 797.905 71.0838 797.677 71.7301C797.455 72.3764 797.344 73.112 797.344 73.9368C797.344 74.7616 797.455 75.4972 797.677 76.1435C797.905 76.7898 798.24 77.3007 798.683 77.6761C799.132 78.0455 799.686 78.2301 800.345 78.2301ZM809.864 81V66.8182H813.798V72.321H814.905L818.765 66.8182H823.381L818.368 73.8537L823.437 81H818.765L815.266 75.968H813.798V81H809.864ZM827.755 86.3182C827.257 86.3182 826.789 86.2782 826.352 86.1982C825.921 86.1243 825.564 86.0289 825.281 85.9119L826.167 82.9759C826.629 83.1174 827.044 83.1944 827.414 83.2067C827.789 83.219 828.112 83.1328 828.383 82.9482C828.66 82.7635 828.885 82.4496 829.057 82.0064L829.288 81.4062L824.201 66.8182H828.337L831.273 77.233H831.421L834.385 66.8182H838.549L833.037 82.5327C832.772 83.2959 832.412 83.9607 831.956 84.527C831.507 85.0994 830.938 85.5395 830.248 85.8473C829.559 86.1612 828.728 86.3182 827.755 86.3182ZM848.945 76.6513L852.786 66.8182H855.777L850.247 81H847.634L842.233 66.8182H845.215L848.945 76.6513ZM844.319 66.8182V81H840.562V66.8182H844.319ZM853.765 81V66.8182H857.476V81H853.765ZM866.982 81.277C865.523 81.277 864.267 80.9815 863.215 80.3906C862.168 79.7936 861.362 78.9503 860.796 77.8608C860.229 76.7652 859.946 75.4695 859.946 73.9737C859.946 72.5149 860.229 71.2346 860.796 70.1328C861.362 69.031 862.159 68.1723 863.187 67.5568C864.221 66.9413 865.434 66.6335 866.825 66.6335C867.76 66.6335 868.631 66.7843 869.438 67.0859C870.25 67.3814 870.958 67.8277 871.561 68.4247C872.171 69.0218 872.645 69.7727 872.983 70.6776C873.322 71.5762 873.491 72.6288 873.491 73.8352V74.9155H861.516V72.478H869.788C869.788 71.9117 869.665 71.41 869.419 70.973C869.173 70.536 868.831 70.1944 868.394 69.9482C867.963 69.6958 867.462 69.5696 866.889 69.5696C866.292 69.5696 865.763 69.7081 865.301 69.9851C864.846 70.2559 864.489 70.6222 864.23 71.0838C863.972 71.5393 863.839 72.0471 863.833 72.6072V74.9247C863.833 75.6264 863.962 76.2327 864.221 76.7436C864.486 77.2545 864.858 77.6484 865.338 77.9254C865.818 78.2024 866.388 78.3409 867.046 78.3409C867.483 78.3409 867.883 78.2794 868.247 78.1562C868.61 78.0331 868.921 77.8485 869.179 77.6023C869.438 77.3561 869.635 77.0545 869.77 76.6974L873.408 76.9375C873.223 77.8116 872.845 78.5748 872.272 79.2273C871.706 79.8736 870.973 80.3783 870.075 80.7415C869.182 81.0985 868.151 81.277 866.982 81.277ZM885.928 72.3395V75.4325H878.523V72.3395H885.928ZM879.815 66.8182V81H876.058V66.8182H879.815ZM888.393 66.8182V81H884.663V66.8182H888.393ZM890.02 69.9112V66.8182H902.872V69.9112H898.302V81H894.554V69.9112H890.02ZM911.157 81.277C909.723 81.277 908.482 80.9723 907.436 80.3629C906.396 79.7474 905.592 78.8918 905.026 77.7962C904.46 76.6944 904.177 75.4171 904.177 73.9645C904.177 72.4995 904.46 71.2192 905.026 70.1236C905.592 69.0218 906.396 68.1662 907.436 67.5568C908.482 66.9413 909.723 66.6335 911.157 66.6335C912.591 66.6335 913.828 66.9413 914.868 67.5568C915.915 68.1662 916.721 69.0218 917.287 70.1236C917.854 71.2192 918.137 72.4995 918.137 73.9645C918.137 75.4171 917.854 76.6944 917.287 77.7962C916.721 78.8918 915.915 79.7474 914.868 80.3629C913.828 80.9723 912.591 81.277 911.157 81.277ZM911.175 78.2301C911.828 78.2301 912.372 78.0455 912.809 77.6761C913.246 77.3007 913.576 76.7898 913.797 76.1435C914.025 75.4972 914.139 74.7616 914.139 73.9368C914.139 73.112 914.025 72.3764 913.797 71.7301C913.576 71.0838 913.246 70.5729 912.809 70.1974C912.372 69.822 911.828 69.6342 911.175 69.6342C910.517 69.6342 909.963 69.822 909.513 70.1974C909.07 70.5729 908.735 71.0838 908.507 71.7301C908.285 72.3764 908.174 73.112 908.174 73.9368C908.174 74.7616 908.285 75.4972 908.507 76.1435C908.735 76.7898 909.07 77.3007 909.513 77.6761C909.963 78.0455 910.517 78.2301 911.175 78.2301ZM920.694 81V66.8182H926.742C928.49 66.8182 929.872 67.1506 930.888 67.8153C931.903 68.4801 932.411 69.425 932.411 70.6499C932.411 71.4193 932.125 72.0594 931.552 72.5703C930.98 73.0812 930.186 73.4259 929.17 73.6044C930.02 73.666 930.743 73.8598 931.34 74.1861C931.943 74.5062 932.402 74.9216 932.716 75.4325C933.036 75.9434 933.196 76.5097 933.196 77.1314C933.196 77.9377 932.98 78.6302 932.549 79.2088C932.125 79.7874 931.5 80.2306 930.675 80.5384C929.857 80.8461 928.856 81 927.674 81H920.694ZM924.36 78.0547H927.674C928.222 78.0547 928.65 77.9254 928.958 77.6669C929.272 77.4022 929.429 77.0421 929.429 76.5866C929.429 76.0819 929.272 75.6849 928.958 75.3956C928.65 75.1063 928.222 74.9616 927.674 74.9616H924.36V78.0547ZM924.36 72.6534H926.825C927.219 72.6534 927.554 72.598 927.831 72.4872C928.115 72.3703 928.33 72.2041 928.478 71.9886C928.632 71.7732 928.709 71.5178 928.709 71.2223C928.709 70.7853 928.533 70.4437 928.182 70.1974C927.831 69.9512 927.351 69.8281 926.742 69.8281H924.36V72.6534Z" fill="black"/>
<path d="M703.785 462.259C702.406 462.259 701.178 462.022 700.101 461.548C699.03 461.067 698.183 460.409 697.562 459.572C696.946 458.728 696.629 457.756 696.611 456.654H700.636C700.661 457.116 700.812 457.522 701.089 457.873C701.372 458.218 701.747 458.485 702.215 458.676C702.683 458.867 703.209 458.962 703.794 458.962C704.403 458.962 704.942 458.855 705.41 458.639C705.878 458.424 706.244 458.125 706.508 457.744C706.773 457.362 706.905 456.922 706.905 456.423C706.905 455.919 706.764 455.472 706.481 455.085C706.204 454.691 705.804 454.383 705.28 454.161C704.763 453.94 704.148 453.829 703.434 453.829H701.67V450.893H703.434C704.037 450.893 704.57 450.788 705.031 450.579C705.499 450.37 705.862 450.08 706.121 449.711C706.379 449.335 706.508 448.898 706.508 448.4C706.508 447.926 706.395 447.51 706.167 447.153C705.945 446.79 705.631 446.507 705.225 446.304C704.825 446.101 704.357 445.999 703.822 445.999C703.28 445.999 702.784 446.098 702.335 446.295C701.886 446.486 701.526 446.759 701.255 447.116C700.984 447.473 700.839 447.892 700.821 448.372H696.989C697.008 447.283 697.319 446.322 697.922 445.491C698.525 444.661 699.338 444.011 700.359 443.543C701.387 443.069 702.547 442.832 703.84 442.832C705.145 442.832 706.287 443.069 707.266 443.543C708.244 444.017 709.004 444.657 709.546 445.464C710.094 446.264 710.365 447.163 710.359 448.16C710.365 449.219 710.035 450.102 709.371 450.81C708.712 451.518 707.853 451.967 706.795 452.158V452.305C708.186 452.484 709.244 452.967 709.971 453.755C710.703 454.537 711.066 455.515 711.06 456.691C711.066 457.768 710.756 458.725 710.128 459.562C709.506 460.4 708.647 461.058 707.552 461.538C706.456 462.018 705.2 462.259 703.785 462.259ZM718.015 462.268C717.11 462.268 716.304 462.111 715.596 461.797C714.888 461.477 714.328 461.006 713.916 460.384C713.509 459.756 713.306 458.975 713.306 458.039C713.306 457.251 713.451 456.589 713.74 456.054C714.029 455.518 714.423 455.088 714.922 454.761C715.421 454.435 715.987 454.189 716.621 454.023C717.261 453.857 717.932 453.74 718.634 453.672C719.458 453.586 720.123 453.506 720.628 453.432C721.133 453.352 721.499 453.235 721.727 453.081C721.954 452.927 722.068 452.699 722.068 452.398V452.342C722.068 451.758 721.884 451.305 721.514 450.985C721.151 450.665 720.634 450.505 719.963 450.505C719.255 450.505 718.692 450.662 718.274 450.976C717.855 451.284 717.578 451.671 717.443 452.139L713.805 451.844C713.989 450.982 714.353 450.237 714.894 449.609C715.436 448.975 716.135 448.489 716.99 448.151C717.852 447.806 718.849 447.634 719.982 447.634C720.77 447.634 721.524 447.726 722.244 447.911C722.97 448.095 723.613 448.381 724.173 448.769C724.74 449.157 725.186 449.656 725.512 450.265C725.838 450.868 726.002 451.591 726.002 452.435V462H722.271V460.033H722.161C721.933 460.477 721.628 460.867 721.247 461.206C720.865 461.538 720.406 461.8 719.871 461.991C719.335 462.175 718.717 462.268 718.015 462.268ZM719.141 459.553C719.72 459.553 720.231 459.439 720.674 459.212C721.117 458.978 721.465 458.664 721.717 458.27C721.97 457.876 722.096 457.43 722.096 456.931V455.426C721.973 455.506 721.804 455.58 721.588 455.648C721.379 455.709 721.142 455.768 720.877 455.823C720.613 455.872 720.348 455.919 720.083 455.962C719.819 455.999 719.578 456.032 719.363 456.063C718.901 456.131 718.498 456.239 718.153 456.386C717.809 456.534 717.541 456.734 717.35 456.987C717.159 457.233 717.064 457.54 717.064 457.91C717.064 458.445 717.258 458.855 717.646 459.138C718.04 459.415 718.538 459.553 719.141 459.553ZM729.053 462V447.818H732.986V453.321H734.094L737.954 447.818H742.57L737.557 454.854L742.625 462H737.954L734.454 456.968H732.986V462H729.053ZM743.456 462L743.438 458.879H743.909C744.241 458.879 744.527 458.799 744.767 458.639C745.014 458.473 745.217 458.205 745.377 457.836C745.537 457.467 745.663 456.977 745.755 456.368C745.848 455.752 745.909 454.995 745.94 454.097L746.171 447.818H756.955V462H753.206V450.911H749.707L749.486 455.241C749.43 456.429 749.285 457.451 749.052 458.307C748.824 459.162 748.507 459.864 748.101 460.412C747.694 460.954 747.205 461.354 746.633 461.612C746.06 461.871 745.395 462 744.638 462H743.456ZM767.843 453.423V456.543H760.152V453.423H767.843ZM763.19 447.818V462H759.266V447.818H763.19ZM772.09 462.277C770.687 462.277 769.474 461.963 768.452 461.335C767.431 460.707 766.643 459.839 766.089 458.732C765.541 457.624 765.267 456.353 765.267 454.918C765.267 453.484 765.541 452.219 766.089 451.124C766.643 450.028 767.431 449.172 768.452 448.557C769.474 447.941 770.687 447.634 772.09 447.634C773.5 447.634 774.712 447.941 775.728 448.557C776.75 449.172 777.534 450.028 778.082 451.124C778.636 452.219 778.913 453.484 778.913 454.918C778.913 456.353 778.636 457.624 778.082 458.732C777.534 459.839 776.75 460.707 775.728 461.335C774.712 461.963 773.5 462.277 772.09 462.277ZM772.09 459.101C772.823 459.101 773.414 458.922 773.863 458.565C774.312 458.202 774.641 457.707 774.851 457.079C775.06 456.445 775.165 455.725 775.165 454.918C775.165 454.112 775.06 453.398 774.851 452.776C774.641 452.148 774.312 451.656 773.863 451.299C773.414 450.942 772.823 450.763 772.09 450.763C771.364 450.763 770.773 450.942 770.317 451.299C769.862 451.65 769.526 452.136 769.311 452.758C769.102 453.379 768.997 454.1 768.997 454.918C768.997 455.731 769.102 456.451 769.311 457.079C769.526 457.707 769.862 458.202 770.317 458.565C770.773 458.922 771.364 459.101 772.09 459.101ZM793.894 447.818V462H790.164V447.818H793.894ZM792.075 454.041V457.143C791.773 457.279 791.398 457.408 790.948 457.531C790.499 457.648 790.028 457.744 789.536 457.817C789.043 457.891 788.582 457.928 788.151 457.928C786.113 457.928 784.51 457.51 783.34 456.673C782.171 455.829 781.586 454.484 781.586 452.638V447.8H785.298V452.638C785.298 453.186 785.39 453.62 785.575 453.94C785.766 454.26 786.067 454.491 786.48 454.632C786.898 454.768 787.455 454.835 788.151 454.835C788.797 454.835 789.431 454.768 790.053 454.632C790.675 454.497 791.349 454.3 792.075 454.041ZM803.411 462.277C801.952 462.277 800.696 461.982 799.644 461.391C798.597 460.794 797.791 459.95 797.225 458.861C796.658 457.765 796.375 456.469 796.375 454.974C796.375 453.515 796.658 452.235 797.225 451.133C797.791 450.031 798.588 449.172 799.616 448.557C800.65 447.941 801.863 447.634 803.254 447.634C804.189 447.634 805.06 447.784 805.867 448.086C806.679 448.381 807.387 448.828 807.99 449.425C808.6 450.022 809.073 450.773 809.412 451.678C809.751 452.576 809.92 453.629 809.92 454.835V455.915H797.945V453.478H806.217C806.217 452.912 806.094 452.41 805.848 451.973C805.602 451.536 805.26 451.194 804.823 450.948C804.392 450.696 803.891 450.57 803.318 450.57C802.721 450.57 802.192 450.708 801.73 450.985C801.275 451.256 800.918 451.622 800.659 452.084C800.401 452.539 800.268 453.047 800.262 453.607V455.925C800.262 456.626 800.391 457.233 800.65 457.744C800.915 458.254 801.287 458.648 801.767 458.925C802.247 459.202 802.817 459.341 803.475 459.341C803.912 459.341 804.312 459.279 804.676 459.156C805.039 459.033 805.35 458.848 805.608 458.602C805.867 458.356 806.064 458.054 806.199 457.697L809.837 457.938C809.652 458.812 809.274 459.575 808.701 460.227C808.135 460.874 807.402 461.378 806.504 461.741C805.611 462.098 804.58 462.277 803.411 462.277ZM822.357 453.339V456.433H814.952V453.339H822.357ZM816.244 447.818V462H812.487V447.818H816.244ZM824.822 447.818V462H821.092V447.818H824.822ZM831.631 456.811L836.737 447.818H840.615V462H836.866V452.979L831.779 462H827.873V447.818H831.631V456.811ZM850.231 462.277C848.772 462.277 847.516 461.982 846.464 461.391C845.417 460.794 844.611 459.95 844.045 458.861C843.479 457.765 843.195 456.469 843.195 454.974C843.195 453.515 843.479 452.235 844.045 451.133C844.611 450.031 845.408 449.172 846.436 448.557C847.47 447.941 848.683 447.634 850.074 447.634C851.01 447.634 851.881 447.784 852.687 448.086C853.499 448.381 854.207 448.828 854.81 449.425C855.42 450.022 855.894 450.773 856.232 451.678C856.571 452.576 856.74 453.629 856.74 454.835V455.915H844.765V453.478H853.038C853.038 452.912 852.915 452.41 852.668 451.973C852.422 451.536 852.081 451.194 851.644 450.948C851.213 450.696 850.711 450.57 850.139 450.57C849.542 450.57 849.012 450.708 848.551 450.985C848.095 451.256 847.738 451.622 847.479 452.084C847.221 452.539 847.089 453.047 847.082 453.607V455.925C847.082 456.626 847.212 457.233 847.47 457.744C847.735 458.254 848.107 458.648 848.587 458.925C849.068 459.202 849.637 459.341 850.296 459.341C850.733 459.341 851.133 459.279 851.496 459.156C851.859 459.033 852.17 458.848 852.428 458.602C852.687 458.356 852.884 458.054 853.019 457.697L856.657 457.938C856.472 458.812 856.094 459.575 855.521 460.227C854.955 460.874 854.223 461.378 853.324 461.741C852.431 462.098 851.4 462.277 850.231 462.277ZM715.262 497.155V489.879H716.352C716.666 489.682 716.918 489.368 717.109 488.938C717.306 488.507 717.466 487.999 717.589 487.414C717.718 486.829 717.817 486.198 717.885 485.521C717.958 484.838 718.023 484.149 718.078 483.453L718.448 478.818H729.324V489.879H731.522V497.155H727.773V493H719.103V497.155H715.262ZM720.267 489.879H725.613V481.847H721.79L721.642 483.453C721.538 484.967 721.387 486.254 721.19 487.312C720.993 488.365 720.685 489.221 720.267 489.879ZM740.221 493.277C738.787 493.277 737.547 492.972 736.501 492.363C735.46 491.747 734.657 490.892 734.091 489.796C733.524 488.694 733.241 487.417 733.241 485.964C733.241 484.5 733.524 483.219 734.091 482.124C734.657 481.022 735.46 480.166 736.501 479.557C737.547 478.941 738.787 478.634 740.221 478.634C741.656 478.634 742.893 478.941 743.933 479.557C744.979 480.166 745.786 481.022 746.352 482.124C746.918 483.219 747.202 484.5 747.202 485.964C747.202 487.417 746.918 488.694 746.352 489.796C745.786 490.892 744.979 491.747 743.933 492.363C742.893 492.972 741.656 493.277 740.221 493.277ZM740.24 490.23C740.892 490.23 741.437 490.045 741.874 489.676C742.311 489.301 742.64 488.79 742.862 488.143C743.09 487.497 743.204 486.762 743.204 485.937C743.204 485.112 743.09 484.376 742.862 483.73C742.64 483.084 742.311 482.573 741.874 482.197C741.437 481.822 740.892 481.634 740.24 481.634C739.581 481.634 739.027 481.822 738.578 482.197C738.135 482.573 737.799 483.084 737.572 483.73C737.35 484.376 737.239 485.112 737.239 485.937C737.239 486.762 737.35 487.497 737.572 488.143C737.799 488.79 738.135 489.301 738.578 489.676C739.027 490.045 739.581 490.23 740.24 490.23ZM759.472 478.818V481.911H753.581V493H749.759V478.818H759.472ZM767.77 493.277C766.336 493.277 765.096 492.972 764.049 492.363C763.009 491.747 762.206 490.892 761.64 489.796C761.073 488.694 760.79 487.417 760.79 485.964C760.79 484.5 761.073 483.219 761.64 482.124C762.206 481.022 763.009 480.166 764.049 479.557C765.096 478.941 766.336 478.634 767.77 478.634C769.204 478.634 770.442 478.941 771.482 479.557C772.528 480.166 773.335 481.022 773.901 482.124C774.467 483.219 774.75 484.5 774.75 485.964C774.75 487.417 774.467 488.694 773.901 489.796C773.335 490.892 772.528 491.747 771.482 492.363C770.442 492.972 769.204 493.277 767.77 493.277ZM767.789 490.23C768.441 490.23 768.986 490.045 769.423 489.676C769.86 489.301 770.189 488.79 770.411 488.143C770.639 487.497 770.752 486.762 770.752 485.937C770.752 485.112 770.639 484.376 770.411 483.73C770.189 483.084 769.86 482.573 769.423 482.197C768.986 481.822 768.441 481.634 767.789 481.634C767.13 481.634 766.576 481.822 766.127 482.197C765.684 482.573 765.348 483.084 765.12 483.73C764.899 484.376 764.788 485.112 764.788 485.937C764.788 486.762 764.899 487.497 765.12 488.143C765.348 488.79 765.684 489.301 766.127 489.676C766.576 490.045 767.13 490.23 767.789 490.23ZM777.308 493V478.818H783.355C785.104 478.818 786.485 479.151 787.501 479.815C788.517 480.48 789.025 481.425 789.025 482.65C789.025 483.419 788.738 484.059 788.166 484.57C787.593 485.081 786.799 485.426 785.784 485.604C786.633 485.666 787.356 485.86 787.953 486.186C788.557 486.506 789.015 486.922 789.329 487.433C789.649 487.943 789.809 488.51 789.809 489.131C789.809 489.938 789.594 490.63 789.163 491.209C788.738 491.787 788.114 492.231 787.289 492.538C786.47 492.846 785.47 493 784.288 493H777.308ZM780.973 490.055H784.288C784.836 490.055 785.264 489.925 785.571 489.667C785.885 489.402 786.042 489.042 786.042 488.587C786.042 488.082 785.885 487.685 785.571 487.396C785.264 487.106 784.836 486.962 784.288 486.962H780.973V490.055ZM780.973 484.653H783.439C783.833 484.653 784.168 484.598 784.445 484.487C784.728 484.37 784.944 484.204 785.091 483.989C785.245 483.773 785.322 483.518 785.322 483.222C785.322 482.785 785.147 482.444 784.796 482.197C784.445 481.951 783.965 481.828 783.355 481.828H780.973V484.653ZM798.696 493.277C797.262 493.277 796.022 492.972 794.975 492.363C793.935 491.747 793.132 490.892 792.565 489.796C791.999 488.694 791.716 487.417 791.716 485.964C791.716 484.5 791.999 483.219 792.565 482.124C793.132 481.022 793.935 480.166 794.975 479.557C796.022 478.941 797.262 478.634 798.696 478.634C800.13 478.634 801.367 478.941 802.408 479.557C803.454 480.166 804.26 481.022 804.827 482.124C805.393 483.219 805.676 484.5 805.676 485.964C805.676 487.417 805.393 488.694 804.827 489.796C804.26 490.892 803.454 491.747 802.408 492.363C801.367 492.972 800.13 493.277 798.696 493.277ZM798.714 490.23C799.367 490.23 799.912 490.045 800.349 489.676C800.786 489.301 801.115 488.79 801.337 488.143C801.564 487.497 801.678 486.762 801.678 485.937C801.678 485.112 801.564 484.376 801.337 483.73C801.115 483.084 800.786 482.573 800.349 482.197C799.912 481.822 799.367 481.634 798.714 481.634C798.056 481.634 797.502 481.822 797.053 482.197C796.609 482.573 796.274 483.084 796.046 483.73C795.825 484.376 795.714 485.112 795.714 485.937C795.714 486.762 795.825 487.497 796.046 488.143C796.274 488.79 796.609 489.301 797.053 489.676C797.502 490.045 798.056 490.23 798.714 490.23ZM808.234 498.318V478.818H812.112V481.2H812.287C812.459 480.819 812.709 480.431 813.035 480.037C813.367 479.637 813.798 479.304 814.327 479.04C814.863 478.769 815.528 478.634 816.322 478.634C817.356 478.634 818.31 478.904 819.184 479.446C820.058 479.982 820.757 480.791 821.28 481.874C821.803 482.951 822.065 484.303 822.065 485.928C822.065 487.509 821.809 488.845 821.298 489.935C820.794 491.018 820.104 491.84 819.23 492.4C818.362 492.954 817.39 493.231 816.312 493.231C815.549 493.231 814.9 493.105 814.364 492.852C813.835 492.6 813.401 492.283 813.062 491.901C812.724 491.513 812.465 491.123 812.287 490.729H812.167V498.318H808.234ZM812.084 485.909C812.084 486.752 812.201 487.488 812.435 488.116C812.669 488.744 813.007 489.233 813.45 489.584C813.893 489.929 814.432 490.101 815.066 490.101C815.706 490.101 816.248 489.925 816.691 489.575C817.134 489.218 817.47 488.725 817.697 488.097C817.931 487.463 818.048 486.734 818.048 485.909C818.048 485.09 817.934 484.37 817.707 483.749C817.479 483.127 817.143 482.641 816.7 482.29C816.257 481.939 815.712 481.763 815.066 481.763C814.426 481.763 813.884 481.933 813.441 482.271C813.004 482.61 812.669 483.09 812.435 483.712C812.201 484.333 812.084 485.066 812.084 485.909ZM828.731 493.268C827.826 493.268 827.02 493.111 826.312 492.797C825.604 492.477 825.044 492.006 824.631 491.384C824.225 490.756 824.022 489.975 824.022 489.039C824.022 488.251 824.167 487.589 824.456 487.054C824.745 486.518 825.139 486.088 825.638 485.761C826.136 485.435 826.703 485.189 827.337 485.023C827.977 484.857 828.648 484.74 829.349 484.672C830.174 484.586 830.839 484.506 831.344 484.432C831.848 484.352 832.215 484.235 832.442 484.081C832.67 483.927 832.784 483.699 832.784 483.398V483.342C832.784 482.758 832.599 482.305 832.23 481.985C831.867 481.665 831.35 481.505 830.679 481.505C829.971 481.505 829.408 481.662 828.989 481.976C828.571 482.284 828.294 482.671 828.158 483.139L824.521 482.844C824.705 481.982 825.068 481.237 825.61 480.609C826.152 479.975 826.85 479.489 827.706 479.151C828.568 478.806 829.565 478.634 830.697 478.634C831.485 478.634 832.239 478.726 832.96 478.911C833.686 479.095 834.329 479.381 834.889 479.769C835.455 480.157 835.902 480.656 836.228 481.265C836.554 481.868 836.717 482.591 836.717 483.435V493H832.987V491.033H832.876C832.649 491.477 832.344 491.867 831.962 492.206C831.581 492.538 831.122 492.8 830.587 492.991C830.051 493.175 829.433 493.268 828.731 493.268ZM829.857 490.553C830.436 490.553 830.947 490.439 831.39 490.212C831.833 489.978 832.181 489.664 832.433 489.27C832.686 488.876 832.812 488.43 832.812 487.931V486.426C832.689 486.506 832.519 486.58 832.304 486.648C832.095 486.709 831.858 486.768 831.593 486.823C831.328 486.872 831.064 486.919 830.799 486.962C830.534 486.999 830.294 487.032 830.079 487.063C829.617 487.131 829.214 487.239 828.869 487.386C828.525 487.534 828.257 487.734 828.066 487.987C827.875 488.233 827.78 488.54 827.78 488.91C827.78 489.445 827.974 489.855 828.362 490.138C828.755 490.415 829.254 490.553 829.857 490.553Z" fill="black"/>
<path d="M434.604 462V443.091H442.175C443.567 443.091 444.727 443.297 445.656 443.71C446.586 444.122 447.284 444.694 447.752 445.427C448.22 446.153 448.454 446.99 448.454 447.938C448.454 448.677 448.306 449.326 448.011 449.886C447.715 450.44 447.309 450.896 446.792 451.253C446.281 451.604 445.696 451.853 445.038 452.001V452.185C445.758 452.216 446.432 452.419 447.06 452.795C447.694 453.17 448.208 453.696 448.602 454.374C448.996 455.045 449.192 455.845 449.192 456.774C449.192 457.777 448.943 458.673 448.445 459.461C447.952 460.243 447.223 460.861 446.256 461.317C445.29 461.772 444.099 462 442.683 462H434.604ZM438.602 458.732H441.862C442.976 458.732 443.788 458.519 444.299 458.094C444.81 457.664 445.065 457.091 445.065 456.377C445.065 455.854 444.939 455.392 444.687 454.992C444.434 454.592 444.074 454.278 443.607 454.05C443.145 453.823 442.594 453.709 441.954 453.709H438.602V458.732ZM438.602 451.004H441.566C442.114 451.004 442.6 450.908 443.025 450.717C443.456 450.52 443.794 450.243 444.04 449.886C444.293 449.529 444.419 449.102 444.419 448.603C444.419 447.92 444.176 447.369 443.69 446.95C443.21 446.532 442.526 446.322 441.64 446.322H438.602V451.004ZM454.185 452.176H458.423C460.3 452.176 461.765 452.625 462.818 453.524C463.871 454.417 464.397 455.611 464.397 457.107C464.397 458.079 464.16 458.935 463.686 459.673C463.212 460.406 462.529 460.978 461.636 461.391C460.744 461.797 459.673 462 458.423 462H451.72V447.818H455.478V458.907H458.423C459.082 458.907 459.623 458.741 460.048 458.408C460.473 458.076 460.688 457.651 460.694 457.134C460.688 456.586 460.473 456.14 460.048 455.795C459.623 455.445 459.082 455.269 458.423 455.269H454.185V452.176ZM465.92 462V447.818H469.854V462H465.92ZM472.997 462V447.818H479.045C480.793 447.818 482.175 448.151 483.191 448.815C484.206 449.48 484.714 450.425 484.714 451.65C484.714 452.419 484.428 453.059 483.855 453.57C483.283 454.081 482.489 454.426 481.473 454.604C482.323 454.666 483.046 454.86 483.643 455.186C484.246 455.506 484.705 455.922 485.019 456.433C485.339 456.943 485.499 457.51 485.499 458.131C485.499 458.938 485.283 459.63 484.852 460.209C484.428 460.787 483.803 461.231 482.978 461.538C482.16 461.846 481.159 462 479.977 462H472.997ZM476.663 459.055H479.977C480.525 459.055 480.953 458.925 481.261 458.667C481.575 458.402 481.732 458.042 481.732 457.587C481.732 457.082 481.575 456.685 481.261 456.396C480.953 456.106 480.525 455.962 479.977 455.962H476.663V459.055ZM476.663 453.653H479.128C479.522 453.653 479.857 453.598 480.134 453.487C480.418 453.37 480.633 453.204 480.781 452.989C480.935 452.773 481.012 452.518 481.012 452.222C481.012 451.785 480.836 451.444 480.485 451.197C480.134 450.951 479.654 450.828 479.045 450.828H476.663V453.653ZM494.385 462.277C492.951 462.277 491.711 461.972 490.665 461.363C489.624 460.747 488.821 459.892 488.255 458.796C487.689 457.694 487.405 456.417 487.405 454.964C487.405 453.5 487.689 452.219 488.255 451.124C488.821 450.022 489.624 449.166 490.665 448.557C491.711 447.941 492.951 447.634 494.385 447.634C495.82 447.634 497.057 447.941 498.097 448.557C499.144 449.166 499.95 450.022 500.516 451.124C501.082 452.219 501.366 453.5 501.366 454.964C501.366 456.417 501.082 457.694 500.516 458.796C499.95 459.892 499.144 460.747 498.097 461.363C497.057 461.972 495.82 462.277 494.385 462.277ZM494.404 459.23C495.056 459.23 495.601 459.045 496.038 458.676C496.475 458.301 496.805 457.79 497.026 457.143C497.254 456.497 497.368 455.762 497.368 454.937C497.368 454.112 497.254 453.376 497.026 452.73C496.805 452.084 496.475 451.573 496.038 451.197C495.601 450.822 495.056 450.634 494.404 450.634C493.745 450.634 493.191 450.822 492.742 451.197C492.299 451.573 491.963 452.084 491.736 452.73C491.514 453.376 491.403 454.112 491.403 454.937C491.403 455.762 491.514 456.497 491.736 457.143C491.963 457.79 492.299 458.301 492.742 458.676C493.191 459.045 493.745 459.23 494.404 459.23ZM503.194 457.984H507.007C507.025 458.451 507.235 458.821 507.635 459.092C508.035 459.362 508.552 459.498 509.186 459.498C509.826 459.498 510.365 459.35 510.802 459.055C511.239 458.753 511.457 458.322 511.457 457.762C511.457 457.417 511.371 457.119 511.199 456.866C511.026 456.608 510.786 456.405 510.479 456.257C510.171 456.109 509.814 456.036 509.407 456.036H507.367V453.46H509.407C510.017 453.46 510.485 453.318 510.811 453.035C511.143 452.752 511.309 452.398 511.309 451.973C511.309 451.493 511.137 451.108 510.792 450.819C510.454 450.523 509.995 450.376 509.417 450.376C508.832 450.376 508.346 450.508 507.958 450.773C507.576 451.031 507.379 451.37 507.367 451.788H503.572C503.585 450.939 503.84 450.203 504.339 449.582C504.843 448.96 505.52 448.48 506.37 448.141C507.225 447.803 508.183 447.634 509.241 447.634C510.398 447.634 511.396 447.797 512.233 448.123C513.076 448.443 513.722 448.902 514.172 449.499C514.627 450.096 514.855 450.807 514.855 451.631C514.855 452.382 514.609 453.01 514.116 453.515C513.624 454.02 512.934 454.38 512.048 454.595V454.743C512.633 454.78 513.162 454.937 513.636 455.214C514.11 455.491 514.489 455.872 514.772 456.359C515.055 456.839 515.197 457.408 515.197 458.067C515.197 458.947 514.938 459.701 514.421 460.329C513.91 460.957 513.202 461.44 512.297 461.778C511.399 462.111 510.368 462.277 509.204 462.277C508.072 462.277 507.056 462.114 506.157 461.788C505.265 461.455 504.554 460.969 504.025 460.329C503.501 459.689 503.224 458.907 503.194 457.984ZM428.205 493.277C426.771 493.277 425.53 492.972 424.484 492.363C423.444 491.747 422.64 490.892 422.074 489.796C421.508 488.694 421.225 487.417 421.225 485.964C421.225 484.5 421.508 483.219 422.074 482.124C422.64 481.022 423.444 480.166 424.484 479.557C425.53 478.941 426.771 478.634 428.205 478.634C429.639 478.634 430.876 478.941 431.916 479.557C432.963 480.166 433.769 481.022 434.335 482.124C434.902 483.219 435.185 484.5 435.185 485.964C435.185 487.417 434.902 488.694 434.335 489.796C433.769 490.892 432.963 491.747 431.916 492.363C430.876 492.972 429.639 493.277 428.205 493.277ZM428.223 490.23C428.876 490.23 429.42 490.045 429.858 489.676C430.295 489.301 430.624 488.79 430.845 488.143C431.073 487.497 431.187 486.762 431.187 485.937C431.187 485.112 431.073 484.376 430.845 483.73C430.624 483.084 430.295 482.573 429.858 482.197C429.42 481.822 428.876 481.634 428.223 481.634C427.565 481.634 427.011 481.822 426.561 482.197C426.118 482.573 425.783 483.084 425.555 483.73C425.333 484.376 425.223 485.112 425.223 485.937C425.223 486.762 425.333 487.497 425.555 488.143C425.783 488.79 426.118 489.301 426.561 489.676C427.011 490.045 427.565 490.23 428.223 490.23ZM436.369 481.911V478.818H449.221V481.911H444.651V493H440.902V481.911H436.369ZM454.893 478.818L457.496 483.776L460.165 478.818H464.199L460.091 485.909L464.31 493H460.294L457.496 488.097L454.745 493H450.682L454.893 485.909L450.83 478.818H454.893ZM472.435 493.277C471.001 493.277 469.761 492.972 468.714 492.363C467.674 491.747 466.871 490.892 466.305 489.796C465.738 488.694 465.455 487.417 465.455 485.964C465.455 484.5 465.738 483.219 466.305 482.124C466.871 481.022 467.674 480.166 468.714 479.557C469.761 478.941 471.001 478.634 472.435 478.634C473.869 478.634 475.107 478.941 476.147 479.557C477.193 480.166 478 481.022 478.566 482.124C479.132 483.219 479.415 484.5 479.415 485.964C479.415 487.417 479.132 488.694 478.566 489.796C478 490.892 477.193 491.747 476.147 492.363C475.107 492.972 473.869 493.277 472.435 493.277ZM472.454 490.23C473.106 490.23 473.651 490.045 474.088 489.676C474.525 489.301 474.854 488.79 475.076 488.143C475.304 487.497 475.418 486.762 475.418 485.937C475.418 485.112 475.304 484.376 475.076 483.73C474.854 483.084 474.525 482.573 474.088 482.197C473.651 481.822 473.106 481.634 472.454 481.634C471.795 481.634 471.241 481.822 470.792 482.197C470.349 482.573 470.013 483.084 469.785 483.73C469.564 484.376 469.453 485.112 469.453 485.937C469.453 486.762 469.564 487.497 469.785 488.143C470.013 488.79 470.349 489.301 470.792 489.676C471.241 490.045 471.795 490.23 472.454 490.23ZM480.865 497.155V489.879H481.954C482.268 489.682 482.521 489.368 482.712 488.938C482.909 488.507 483.069 487.999 483.192 487.414C483.321 486.829 483.419 486.198 483.487 485.521C483.561 484.838 483.626 484.149 483.681 483.453L484.05 478.818H494.927V489.879H497.124V497.155H493.376V493H484.706V497.155H480.865ZM485.869 489.879H491.215V481.847H487.393L487.245 483.453C487.14 484.967 486.989 486.254 486.793 487.312C486.596 488.365 486.288 489.221 485.869 489.879ZM505.824 493.277C504.39 493.277 503.149 492.972 502.103 492.363C501.063 491.747 500.26 490.892 499.693 489.796C499.127 488.694 498.844 487.417 498.844 485.964C498.844 484.5 499.127 483.219 499.693 482.124C500.26 481.022 501.063 480.166 502.103 479.557C503.149 478.941 504.39 478.634 505.824 478.634C507.258 478.634 508.495 478.941 509.536 479.557C510.582 480.166 511.388 481.022 511.955 482.124C512.521 483.219 512.804 484.5 512.804 485.964C512.804 487.417 512.521 488.694 511.955 489.796C511.388 490.892 510.582 491.747 509.536 492.363C508.495 492.972 507.258 493.277 505.824 493.277ZM505.842 490.23C506.495 490.23 507.04 490.045 507.477 489.676C507.914 489.301 508.243 488.79 508.465 488.143C508.692 487.497 508.806 486.762 508.806 485.937C508.806 485.112 508.692 484.376 508.465 483.73C508.243 483.084 507.914 482.573 507.477 482.197C507.04 481.822 506.495 481.634 505.842 481.634C505.184 481.634 504.63 481.822 504.18 482.197C503.737 482.573 503.402 483.084 503.174 483.73C502.953 484.376 502.842 485.112 502.842 485.937C502.842 486.762 502.953 487.497 503.174 488.143C503.402 488.79 503.737 489.301 504.18 489.676C504.63 490.045 505.184 490.23 505.842 490.23ZM515.362 493V478.818H521.409C523.157 478.818 524.539 479.151 525.555 479.815C526.57 480.48 527.078 481.425 527.078 482.65C527.078 483.419 526.792 484.059 526.22 484.57C525.647 485.081 524.853 485.426 523.837 485.604C524.687 485.666 525.41 485.86 526.007 486.186C526.61 486.506 527.069 486.922 527.383 487.433C527.703 487.943 527.863 488.51 527.863 489.131C527.863 489.938 527.648 490.63 527.217 491.209C526.792 491.787 526.167 492.231 525.342 492.538C524.524 492.846 523.524 493 522.342 493H515.362ZM519.027 490.055H522.342C522.89 490.055 523.317 489.925 523.625 489.667C523.939 489.402 524.096 489.042 524.096 488.587C524.096 488.082 523.939 487.685 523.625 487.396C523.317 487.106 522.89 486.962 522.342 486.962H519.027V490.055ZM519.027 484.653H521.492C521.886 484.653 522.222 484.598 522.499 484.487C522.782 484.37 522.997 484.204 523.145 483.989C523.299 483.773 523.376 483.518 523.376 483.222C523.376 482.785 523.2 482.444 522.85 482.197C522.499 481.951 522.019 481.828 521.409 481.828H519.027V484.653Z" fill="black"/>
<path d="M121.028 443.091V462H117.076V446.341H109.431V462H105.479V443.091H121.028ZM131.223 462.277C129.764 462.277 128.509 461.982 127.456 461.391C126.41 460.794 125.603 459.95 125.037 458.861C124.471 457.765 124.188 456.469 124.188 454.974C124.188 453.515 124.471 452.235 125.037 451.133C125.603 450.031 126.4 449.172 127.428 448.557C128.462 447.941 129.675 447.634 131.066 447.634C132.002 447.634 132.873 447.784 133.679 448.086C134.492 448.381 135.199 448.828 135.803 449.425C136.412 450.022 136.886 450.773 137.225 451.678C137.563 452.576 137.732 453.629 137.732 454.835V455.915H125.757V453.478H134.03C134.03 452.912 133.907 452.41 133.661 451.973C133.414 451.536 133.073 451.194 132.636 450.948C132.205 450.696 131.703 450.57 131.131 450.57C130.534 450.57 130.004 450.708 129.543 450.985C129.087 451.256 128.73 451.622 128.472 452.084C128.213 452.539 128.081 453.047 128.075 453.607V455.925C128.075 456.626 128.204 457.233 128.462 457.744C128.727 458.254 129.1 458.648 129.58 458.925C130.06 459.202 130.629 459.341 131.288 459.341C131.725 459.341 132.125 459.279 132.488 459.156C132.851 459.033 133.162 458.848 133.421 458.602C133.679 458.356 133.876 458.054 134.011 457.697L137.649 457.938C137.465 458.812 137.086 459.575 136.514 460.227C135.947 460.874 135.215 461.378 134.316 461.741C133.424 462.098 132.393 462.277 131.223 462.277ZM140.299 467.318V447.818H144.177V450.2H144.352C144.525 449.819 144.774 449.431 145.1 449.037C145.433 448.637 145.863 448.304 146.393 448.04C146.928 447.769 147.593 447.634 148.387 447.634C149.421 447.634 150.375 447.904 151.249 448.446C152.123 448.982 152.822 449.791 153.345 450.874C153.868 451.951 154.13 453.303 154.13 454.928C154.13 456.509 153.875 457.845 153.364 458.935C152.859 460.018 152.17 460.84 151.296 461.4C150.428 461.954 149.455 462.231 148.378 462.231C147.615 462.231 146.965 462.105 146.43 461.852C145.9 461.6 145.466 461.283 145.128 460.901C144.789 460.513 144.531 460.123 144.352 459.729H144.232V467.318H140.299ZM144.149 454.909C144.149 455.752 144.266 456.488 144.5 457.116C144.734 457.744 145.073 458.233 145.516 458.584C145.959 458.929 146.497 459.101 147.131 459.101C147.772 459.101 148.313 458.925 148.756 458.575C149.2 458.218 149.535 457.725 149.763 457.097C149.997 456.463 150.114 455.734 150.114 454.909C150.114 454.09 150 453.37 149.772 452.749C149.544 452.127 149.209 451.641 148.766 451.29C148.323 450.939 147.778 450.763 147.131 450.763C146.491 450.763 145.95 450.933 145.506 451.271C145.069 451.61 144.734 452.09 144.5 452.712C144.266 453.333 144.149 454.066 144.149 454.909ZM163.215 462.277C161.756 462.277 160.501 461.982 159.448 461.391C158.402 460.794 157.595 459.95 157.029 458.861C156.463 457.765 156.18 456.469 156.18 454.974C156.18 453.515 156.463 452.235 157.029 451.133C157.595 450.031 158.393 449.172 159.421 448.557C160.455 447.941 161.667 447.634 163.058 447.634C163.994 447.634 164.865 447.784 165.671 448.086C166.484 448.381 167.192 448.828 167.795 449.425C168.404 450.022 168.878 450.773 169.217 451.678C169.555 452.576 169.725 453.629 169.725 454.835V455.915H157.749V453.478H166.022C166.022 452.912 165.899 452.41 165.653 451.973C165.407 451.536 165.065 451.194 164.628 450.948C164.197 450.696 163.695 450.57 163.123 450.57C162.526 450.57 161.997 450.708 161.535 450.985C161.079 451.256 160.722 451.622 160.464 452.084C160.205 452.539 160.073 453.047 160.067 453.607V455.925C160.067 456.626 160.196 457.233 160.455 457.744C160.719 458.254 161.092 458.648 161.572 458.925C162.052 459.202 162.621 459.341 163.28 459.341C163.717 459.341 164.117 459.279 164.48 459.156C164.843 459.033 165.154 458.848 165.413 458.602C165.671 458.356 165.868 458.054 166.004 457.697L169.641 457.938C169.457 458.812 169.078 459.575 168.506 460.227C167.939 460.874 167.207 461.378 166.308 461.741C165.416 462.098 164.385 462.277 163.215 462.277ZM171.183 466.155V458.879H172.273C172.587 458.682 172.839 458.368 173.03 457.938C173.227 457.507 173.387 456.999 173.51 456.414C173.639 455.829 173.738 455.198 173.805 454.521C173.879 453.838 173.944 453.149 173.999 452.453L174.369 447.818H185.245V458.879H187.443V466.155H183.694V462H175.024V466.155H171.183ZM176.188 458.879H181.533V450.847H177.711L177.563 452.453C177.459 453.967 177.308 455.254 177.111 456.312C176.914 457.365 176.606 458.221 176.188 458.879ZM193.779 462.268C192.874 462.268 192.068 462.111 191.36 461.797C190.652 461.477 190.092 461.006 189.679 460.384C189.273 459.756 189.07 458.975 189.07 458.039C189.07 457.251 189.215 456.589 189.504 456.054C189.793 455.518 190.187 455.088 190.686 454.761C191.184 454.435 191.751 454.189 192.384 454.023C193.025 453.857 193.696 453.74 194.397 453.672C195.222 453.586 195.887 453.506 196.392 453.432C196.896 453.352 197.263 453.235 197.49 453.081C197.718 452.927 197.832 452.699 197.832 452.398V452.342C197.832 451.758 197.647 451.305 197.278 450.985C196.915 450.665 196.398 450.505 195.727 450.505C195.019 450.505 194.456 450.662 194.037 450.976C193.619 451.284 193.342 451.671 193.206 452.139L189.568 451.844C189.753 450.982 190.116 450.237 190.658 449.609C191.2 448.975 191.898 448.489 192.754 448.151C193.616 447.806 194.613 447.634 195.745 447.634C196.533 447.634 197.287 447.726 198.007 447.911C198.734 448.095 199.377 448.381 199.937 448.769C200.503 449.157 200.95 449.656 201.276 450.265C201.602 450.868 201.765 451.591 201.765 452.435V462H198.035V460.033H197.924C197.697 460.477 197.392 460.867 197.01 461.206C196.629 461.538 196.17 461.8 195.634 461.991C195.099 462.175 194.48 462.268 193.779 462.268ZM194.905 459.553C195.484 459.553 195.995 459.439 196.438 459.212C196.881 458.978 197.229 458.664 197.481 458.27C197.733 457.876 197.86 457.43 197.86 456.931V455.426C197.737 455.506 197.567 455.58 197.352 455.648C197.143 455.709 196.906 455.768 196.641 455.823C196.376 455.872 196.112 455.919 195.847 455.962C195.582 455.999 195.342 456.032 195.127 456.063C194.665 456.131 194.262 456.239 193.917 456.386C193.572 456.534 193.305 456.734 193.114 456.987C192.923 457.233 192.828 457.54 192.828 457.91C192.828 458.445 193.022 458.855 193.409 459.138C193.803 459.415 194.302 459.553 194.905 459.553ZM217.124 447.818V462H213.394V447.818H217.124ZM215.305 454.041V457.143C215.004 457.279 214.628 457.408 214.179 457.531C213.73 457.648 213.259 457.744 212.766 457.817C212.274 457.891 211.812 457.928 211.381 457.928C209.344 457.928 207.74 457.51 206.571 456.673C205.401 455.829 204.817 454.484 204.817 452.638V447.8H208.528V452.638C208.528 453.186 208.621 453.62 208.805 453.94C208.996 454.26 209.298 454.491 209.71 454.632C210.129 454.768 210.686 454.835 211.381 454.835C212.028 454.835 212.662 454.768 213.283 454.632C213.905 454.497 214.579 454.3 215.305 454.041ZM224.222 462.268C223.317 462.268 222.511 462.111 221.803 461.797C221.095 461.477 220.535 461.006 220.123 460.384C219.716 459.756 219.513 458.975 219.513 458.039C219.513 457.251 219.658 456.589 219.947 456.054C220.236 455.518 220.63 455.088 221.129 454.761C221.628 454.435 222.194 454.189 222.828 454.023C223.468 453.857 224.139 453.74 224.841 453.672C225.665 453.586 226.33 453.506 226.835 453.432C227.34 453.352 227.706 453.235 227.934 453.081C228.161 452.927 228.275 452.699 228.275 452.398V452.342C228.275 451.758 228.091 451.305 227.721 450.985C227.358 450.665 226.841 450.505 226.17 450.505C225.462 450.505 224.899 450.662 224.481 450.976C224.062 451.284 223.785 451.671 223.65 452.139L220.012 451.844C220.196 450.982 220.56 450.237 221.101 449.609C221.643 448.975 222.342 448.489 223.197 448.151C224.059 447.806 225.056 447.634 226.189 447.634C226.977 447.634 227.731 447.726 228.451 447.911C229.177 448.095 229.82 448.381 230.38 448.769C230.947 449.157 231.393 449.656 231.719 450.265C232.045 450.868 232.209 451.591 232.209 452.435V462H228.478V460.033H228.368C228.14 460.477 227.835 460.867 227.454 461.206C227.072 461.538 226.613 461.8 226.078 461.991C225.542 462.175 224.924 462.268 224.222 462.268ZM225.348 459.553C225.927 459.553 226.438 459.439 226.881 459.212C227.324 458.978 227.672 458.664 227.924 458.27C228.177 457.876 228.303 457.43 228.303 456.931V455.426C228.18 455.506 228.011 455.58 227.795 455.648C227.586 455.709 227.349 455.768 227.084 455.823C226.82 455.872 226.555 455.919 226.29 455.962C226.026 455.999 225.785 456.032 225.57 456.063C225.108 456.131 224.705 456.239 224.361 456.386C224.016 456.534 223.748 456.734 223.557 456.987C223.366 457.233 223.271 457.54 223.271 457.91C223.271 458.445 223.465 458.855 223.853 459.138C224.247 459.415 224.745 459.553 225.348 459.553ZM124.096 493.277C122.662 493.277 121.422 492.972 120.376 492.363C119.335 491.747 118.532 490.892 117.966 489.796C117.399 488.694 117.116 487.417 117.116 485.964C117.116 484.5 117.399 483.219 117.966 482.124C118.532 481.022 119.335 480.166 120.376 479.557C121.422 478.941 122.662 478.634 124.096 478.634C125.531 478.634 126.768 478.941 127.808 479.557C128.854 480.166 129.661 481.022 130.227 482.124C130.793 483.219 131.077 484.5 131.077 485.964C131.077 487.417 130.793 488.694 130.227 489.796C129.661 490.892 128.854 491.747 127.808 492.363C126.768 492.972 125.531 493.277 124.096 493.277ZM124.115 490.23C124.767 490.23 125.312 490.045 125.749 489.676C126.186 489.301 126.515 488.79 126.737 488.143C126.965 487.497 127.079 486.762 127.079 485.937C127.079 485.112 126.965 484.376 126.737 483.73C126.515 483.084 126.186 482.573 125.749 482.197C125.312 481.822 124.767 481.634 124.115 481.634C123.456 481.634 122.902 481.822 122.453 482.197C122.01 482.573 121.674 483.084 121.447 483.73C121.225 484.376 121.114 485.112 121.114 485.937C121.114 486.762 121.225 487.497 121.447 488.143C121.674 488.79 122.01 489.301 122.453 489.676C122.902 490.045 123.456 490.23 124.115 490.23ZM132.261 481.911V478.818H145.113V481.911H140.543V493H136.794V481.911H132.261ZM159.297 478.818V493H155.567V478.818H159.297ZM157.478 485.041V488.143C157.177 488.279 156.801 488.408 156.352 488.531C155.902 488.648 155.432 488.744 154.939 488.817C154.447 488.891 153.985 488.928 153.554 488.928C151.517 488.928 149.913 488.51 148.744 487.673C147.574 486.829 146.99 485.484 146.99 483.638V478.8H150.701V483.638C150.701 484.186 150.794 484.62 150.978 484.94C151.169 485.26 151.471 485.491 151.883 485.632C152.302 485.768 152.859 485.835 153.554 485.835C154.2 485.835 154.834 485.768 155.456 485.632C156.078 485.497 156.752 485.3 157.478 485.041ZM168.814 493.277C167.355 493.277 166.099 492.982 165.047 492.391C164 491.794 163.194 490.95 162.628 489.861C162.062 488.765 161.778 487.469 161.778 485.974C161.778 484.515 162.062 483.235 162.628 482.133C163.194 481.031 163.991 480.172 165.019 479.557C166.053 478.941 167.266 478.634 168.657 478.634C169.593 478.634 170.464 478.784 171.27 479.086C172.082 479.381 172.79 479.828 173.393 480.425C174.003 481.022 174.477 481.773 174.815 482.678C175.154 483.576 175.323 484.629 175.323 485.835V486.915H163.348V484.478H171.621C171.621 483.912 171.498 483.41 171.251 482.973C171.005 482.536 170.664 482.194 170.227 481.948C169.796 481.696 169.294 481.57 168.722 481.57C168.125 481.57 167.595 481.708 167.134 481.985C166.678 482.256 166.321 482.622 166.062 483.084C165.804 483.539 165.672 484.047 165.665 484.607V486.925C165.665 487.626 165.795 488.233 166.053 488.744C166.318 489.254 166.69 489.648 167.17 489.925C167.651 490.202 168.22 490.341 168.879 490.341C169.316 490.341 169.716 490.279 170.079 490.156C170.442 490.033 170.753 489.848 171.011 489.602C171.27 489.356 171.467 489.054 171.602 488.697L175.24 488.938C175.055 489.812 174.677 490.575 174.104 491.227C173.538 491.874 172.806 492.378 171.907 492.741C171.014 493.098 169.983 493.277 168.814 493.277ZM176.796 481.911V478.818H189.648V481.911H185.078V493H181.329V481.911H176.796ZM197.932 493.277C196.498 493.277 195.258 492.972 194.211 492.363C193.171 491.747 192.368 490.892 191.802 489.796C191.235 488.694 190.952 487.417 190.952 485.964C190.952 484.5 191.235 483.219 191.802 482.124C192.368 481.022 193.171 480.166 194.211 479.557C195.258 478.941 196.498 478.634 197.932 478.634C199.367 478.634 200.604 478.941 201.644 479.557C202.69 480.166 203.497 481.022 204.063 482.124C204.629 483.219 204.912 484.5 204.912 485.964C204.912 487.417 204.629 488.694 204.063 489.796C203.497 490.892 202.69 491.747 201.644 492.363C200.604 492.972 199.367 493.277 197.932 493.277ZM197.951 490.23C198.603 490.23 199.148 490.045 199.585 489.676C200.022 489.301 200.351 488.79 200.573 488.143C200.801 487.497 200.915 486.762 200.915 485.937C200.915 485.112 200.801 484.376 200.573 483.73C200.351 483.084 200.022 482.573 199.585 482.197C199.148 481.822 198.603 481.634 197.951 481.634C197.292 481.634 196.738 481.822 196.289 482.197C195.846 482.573 195.51 483.084 195.282 483.73C195.061 484.376 194.95 485.112 194.95 485.937C194.95 486.762 195.061 487.497 195.282 488.143C195.51 488.79 195.846 489.301 196.289 489.676C196.738 490.045 197.292 490.23 197.951 490.23ZM207.47 493V478.818H213.518C215.266 478.818 216.648 479.151 217.663 479.815C218.679 480.48 219.187 481.425 219.187 482.65C219.187 483.419 218.9 484.059 218.328 484.57C217.756 485.081 216.961 485.426 215.946 485.604C216.795 485.666 217.519 485.86 218.116 486.186C218.719 486.506 219.177 486.922 219.491 487.433C219.811 487.943 219.971 488.51 219.971 489.131C219.971 489.938 219.756 490.63 219.325 491.209C218.9 491.787 218.276 492.231 217.451 492.538C216.632 492.846 215.632 493 214.45 493H207.47ZM211.135 490.055H214.45C214.998 490.055 215.426 489.925 215.733 489.667C216.047 489.402 216.204 489.042 216.204 488.587C216.204 488.082 216.047 487.685 215.733 487.396C215.426 487.106 214.998 486.962 214.45 486.962H211.135V490.055ZM211.135 484.653H213.601C213.995 484.653 214.33 484.598 214.607 484.487C214.89 484.37 215.106 484.204 215.253 483.989C215.407 483.773 215.484 483.518 215.484 483.222C215.484 482.785 215.309 482.444 214.958 482.197C214.607 481.951 214.127 481.828 213.518 481.828H211.135V484.653Z" fill="black"/>
</svg>
